<?xml version="1.0" encoding="utf-8"?>
<!-- Generator: Adobe Illustrator 27.3.1, SVG Export Plug-In . SVG Version: 6.00 Build 0)  -->
<svg version="1.1" id="Layer_1" xmlns="http://www.w3.org/2000/svg" xmlns:xlink="http://www.w3.org/1999/xlink" x="0px" y="0px"
	 viewBox="0 0 500 500" style="enable-background:new 0 0 500 500;" xml:space="preserve">
<style type="text/css">
	.st0{fill:#E6AA68;}
	.st1{opacity:0.8;fill:#FFFFFF;enable-background:new    ;}
	.st2{opacity:0.6;fill:#FFFFFF;enable-background:new    ;}
	.st3{fill:none;stroke:#263238;stroke-linecap:round;stroke-linejoin:round;}
	.st4{fill:#263238;stroke:#263238;stroke-linecap:round;stroke-linejoin:round;}
	.st5{fill:#FFFFFF;stroke:#263238;stroke-linecap:round;stroke-linejoin:round;}
	.st6{fill:#263238;}
	.st7{fill:#E6AA68;stroke:#263238;stroke-linecap:round;stroke-linejoin:round;}
	.st8{fill:none;stroke:#616161;stroke-linecap:round;stroke-linejoin:round;}
	.st9{fill:none;stroke:#263238;stroke-width:2;stroke-linecap:round;stroke-linejoin:round;}
</style>
<g id="freepik--background-simple--inject-3">
	<path class="st0" d="M329.2,43.8c0,0-73.4-21.6-146,22.1S73.7,191.2,42,256.7S27.9,386.2,82.8,413.2s92.8-18.6,170.2-24.5
		s98.1,3.7,162.6-41.6s76.8-145.5,26.6-216.6S329.2,43.8,329.2,43.8z"/>
	<path class="st1" d="M329.2,43.8c0,0-73.4-21.6-146,22.1S73.7,191.2,42,256.7S27.9,386.2,82.8,413.2s92.8-18.6,170.2-24.5
		s98.1,3.7,162.6-41.6s76.8-145.5,26.6-216.6S329.2,43.8,329.2,43.8z"/>
</g>
<g id="freepik--Plants--inject-3">
	<path class="st0" d="M71.9,424.6c0,0-24.8-52.8-19.4-54.3s16.7,6.9,16.7,6.9s-33.1-88.7-24.5-95.6S69.2,310,69.2,310
		s-17.1-54.3-15.1-75s23.7-0.8,23.7-0.8s-17.4-74.2-1.2-78s15.6,84.9,15.6,84.9s5.3-63.5,11.8-45.9s-7.1,76.5-7.1,76.5
		s8.9-19.9,13.8-1.5s-9.8,92.5-9.8,92.5s12.5-12.2,13.7,3.1s-25.9,62.7-25.9,62.7L73.3,430L71.9,424.6z"/>
	<path class="st2" d="M71.9,424.6c0,0-24.8-52.8-19.4-54.3s16.7,6.9,16.7,6.9s-33.1-88.7-24.5-95.6S69.2,310,69.2,310
		s-17.1-54.3-15.1-75s23.7-0.8,23.7-0.8s-17.4-74.2-1.2-78s15.6,84.9,15.6,84.9s5.3-63.5,11.8-45.9s-7.1,76.5-7.1,76.5
		s8.9-19.9,13.8-1.5s-9.8,92.5-9.8,92.5s12.5-12.2,13.7,3.1s-25.9,62.7-25.9,62.7L73.3,430L71.9,424.6z"/>
	<path class="st3" d="M77.2,427c0,0-20.6-36.7-16.8-43.6s15.3,9.2,15.3,9.2s-26-65-22.2-71.1s16.1,20.6,16.1,20.6
		s-4.6-89.5,3.1-86.5s8.4,45.9,8.4,45.9s-4.6-101.7,2.3-98.6s6.1,116.2,6.1,116.2s13.8-43.6,16-23.7s-17.6,73.4-17.6,73.4
		s19.2-42.1,21.5-19.8S94,412.4,94,412.4s6.9-16.8,6.9-7.6s-5.3,20.6-5.3,20.6"/>
</g>
<g id="freepik--Calendar--inject-3">
	<polygon class="st4" points="51.4,383.5 38.3,426.9 73.9,426.9 87.5,383.7 	"/>
	<polygon class="st5" points="134.6,426.8 60.3,426.8 51.4,383.5 125.8,383.5 	"/>
	<polygon class="st3" points="126.9,419.5 64.9,419.5 60.3,396.8 122.3,396.8 	"/>
	<line class="st3" x1="65.6" y1="396.9" x2="70.2" y2="419.4"/>
	<line class="st3" x1="71.3" y1="396.9" x2="75.9" y2="419.4"/>
	<line class="st3" x1="77" y1="396.9" x2="81.6" y2="419.4"/>
	<line class="st3" x1="82.7" y1="396.9" x2="87.3" y2="419.4"/>
	<line class="st3" x1="88.4" y1="396.9" x2="93" y2="419.4"/>
	<line class="st3" x1="94.1" y1="396.9" x2="98.7" y2="419.4"/>
	<line class="st3" x1="99.8" y1="396.9" x2="104.3" y2="419.4"/>
	<line class="st3" x1="105.4" y1="396.9" x2="110" y2="419.4"/>
	<line class="st3" x1="111.1" y1="396.9" x2="115.7" y2="419.4"/>
	<line class="st3" x1="116.8" y1="396.9" x2="121.4" y2="419.4"/>
	<line class="st3" x1="61.4" y1="401.3" x2="123" y2="401.3"/>
	<line class="st3" x1="62.3" y1="405.8" x2="123.9" y2="405.8"/>
	<line class="st3" x1="63.2" y1="410.3" x2="124.9" y2="410.3"/>
	<line class="st3" x1="64.1" y1="414.8" x2="125.8" y2="414.8"/>
	<polygon class="st6" points="87.3,392.9 59.8,392.9 59.3,390.7 86.9,390.7 	"/>
</g>
<g id="freepik--Character--inject-3">
	<path class="st5" d="M463,316h-89.7c-8.7,0.2-16,6.7-17.1,15.4l-11,97.2h105L463,316z"/>
	<path class="st4" d="M463.5,316L463.5,316c-7.2,0.2-13.3,5.6-14.2,12.8l-11.3,99.8h25.5l11.3-99.8c0.9-6.1-3.4-11.8-9.5-12.7
		C464.7,316,464.1,316,463.5,316z"/>
	<path class="st7" d="M344.3,286.8c-6.3,4.5-13.1,8.2-20.3,11.1c-12.7,5.3-17.9,6.9-17.9,6.9l3.5,121.8h92.4c0,0-11.9-76.4-11.9-102
		s1.1-30.6,1.1-30.6l-30.4-7.8L344.3,286.8z"/>
	<path class="st4" d="M334.2,291.9c-2.9,20.7-4.6,41.5-5.1,62.4c-0.5,31.3,5.5,73,5.5,73h-67.7c8.4-15.9,14.4-33,17.9-50.7
		c5-25.3,9-68.3,10.1-68.8S331.7,294,334.2,291.9z"/>
	<path class="st8" d="M303.5,427.3c0,0-6.9-46.7-6.5-57.6s2.1-48.1,2.1-48.1"/>
	<path class="st4" d="M372.2,288.7c0,0-8.7,39.8-9.4,72.5s-3,66.3-3,66.3h54.8c0,0,0.7-29.9,0-40.1s-0.7-8.1-0.7-8.1l21.2,5.5
		c0,0-13.6-65.6-16.1-72.8s-1.2-9.5-2.8-10.8S372.2,288.7,372.2,288.7z"/>
	<path class="st5" d="M273.3,400.3c1.4,2.2,3.1,4.2,5,6c2.4,2.1,7.6,1,10.4,3.8s-0.3,11.5-3.8,14.5c-6,5.2-2.8-10.5-2.8-10.5
		c-2.1,1.5-4.5,2.5-6.9,3.2c-3.4,0.8-12.1-1.9-15.1-2s-7-0.7-8.6-3.9s8.1-7.2,12.4-8.8C267.1,401.7,270.2,400.9,273.3,400.3z"/>
	<path class="st5" d="M254.8,404.9c-1.9-0.5-3.9,0.2-5.1,1.7c-2,2.6-6,14.5-4.8,16.8s4.2-0.9,5.6-4.7c0.6-1.8,1.4-3.6,2.4-5.2
		c0,0,1.6,0.8,2.7-1.3S257.9,407.1,254.8,404.9z"/>
	<path class="st5" d="M260.5,402.8c-2-1.1-4.5-0.7-6.1,1c-2.8,3-0.9,15.6,0.6,19.5c1.5,3.9,4.3,3.4,4.7,1s0.9-14.2,1-17
		C260.9,405.8,260.8,404.3,260.5,402.8z"/>
	<path class="st5" d="M266.5,401.5c-2-1.2-4.6-0.8-6,1c-2.8,3.2-0.7,16.5,0.8,20.6s4.4,3.6,4.8,1.1s0.8-15.1,0.9-18
		C267,404.6,266.8,403,266.5,401.5z"/>
	<path class="st5" d="M275.2,403.1c0,0-2.3-5.2-6.1-4.4s-5,6-4.3,13.8s2.2,14,4.3,14.2s4.4-4.5,4.9-10.6s1-9.7,1-9.7"/>
	<rect x="300.5" y="348.6" class="st7" width="23.6" height="36.2"/>
	<rect x="309.6" y="338" class="st5" width="4.3" height="16.7"/>
	<rect x="306.3" y="358.7" class="st5" width="10.1" height="13.2"/>
	<line class="st3" x1="304.7" y1="375.9" x2="318.5" y2="375.9"/>
	<line class="st3" x1="302.6" y1="378.8" x2="320.4" y2="378.8"/>
	<path class="st7" d="M341.8,281.7c0,0-7.6,5.1-9,9.2s-7.2,21.4-9.5,27.9s-15.4,12.2-13.6,13.4s18.9,2.8,18.9,2.8s3.9,15.2,4.8,19.1
		s6.2,15.7,6.2,15.7s15.7-18.9,18.2-24c1.7-3.4,3.7-6.7,5.8-9.9c0,0,6.7,1.6,11,2.3s15.9,1.8,15.4-0.2s-6.4-10.4-8.7-18.7
		s-0.9-26.5-3.7-33.6s-9-8.1-11.1-8.7S345,278.7,341.8,281.7z"/>
	<path class="st5" d="M339.3,276.2c0,0,2.3,12.9,2,23.3s-4.1,33.8-3.9,45.8c0.2,8,0.8,16,1.9,23.9c0,0,17.3-23.9,23.7-43.3
		s8.1-36.1,8.1-37.3s0.4-30,0.4-30S353.1,277.8,339.3,276.2z"/>
	<path class="st4" d="M371.4,270.7c0.1-6.5,0.1-12.2,0.1-12.2s-18.4,19.3-32.2,17.7c0,0,0.6,3.6,1.2,8.6c1.8,1.2,3.8,2.2,5.9,2.7
		c6.4,1.3,13.5-2.3,18.4-8.4C366.6,276.8,369,273.7,371.4,270.7z"/>
	<ellipse class="st4" cx="384" cy="194.8" rx="17.6" ry="17.4"/>
	<path class="st4" d="M312.8,225.2c0,0-9.4-2.6-11-7.7s4.1-23,22.5-32.2s35.2-4.1,42.6-2.1s12.8,5.9,17.6,19.4s5.1,24,3.6,29.1
		c-0.9,3-2,6-3.3,8.9c0,0-9.4,1-12-2.8s-1.5-23-12.5-27.6s-31.9-2-37,2.6S312.8,225.2,312.8,225.2z"/>
	<path class="st5" d="M311.2,221.9c0,0,2.3,14.6,2.3,22.5s6.4,18.9,9.7,22s14.3,13.5,20.7,14.8s13.5-2.3,18.4-8.4
		s14.3-18.4,14.3-18.4c4.3,0.5,8.4-2.2,9.7-6.4c2.6-7.4,1.3-15.8-3.1-16.9s-7.4,4.1-7.4,4.1s-3.6-13.8-8.2-20.7l-6.6-10l8.5-10.6
		c0.4-0.5,0.3-1.1-0.2-1.5c0,0,0,0-0.1,0l0,0c-0.5-0.3-1.1-0.2-1.5,0.2l-8.3,10.7c0,0-16.3-2.8-30.6,4.3S311.2,221.9,311.2,221.9z"
		/>
	<line class="st3" x1="363.7" y1="236.2" x2="361.4" y2="239.3"/>
	<path class="st3" d="M332.2,253.8c0,0,0.5,1.5,3.8,2.3c3.2,0.7,6.5-0.5,8.4-3.1"/>
	<path class="st3" d="M336,262c6.4,1.4,13.1-0.6,17.6-5.4c0,0-2.3,9.7-6.9,11.5s-4.9-3.1-4.9-3.1L336,262z"/>
	<path class="st9" d="M345.2,242.6c4.3-4,10.3-5.7,16.1-4.3"/>
	<path class="st9" d="M328.6,242.1c0,0-5.6-5.6-11.5-2.6"/>
	<line class="st3" x1="315.3" y1="238.2" x2="318.1" y2="241"/>
	<path class="st3" d="M343.4,228.8c0,0,7.6-8.8,18.6-0.5"/>
	<path class="st3" d="M328.1,228.5c0,0-6.9-5.4-13.8,0.8"/>
	<path class="st6" d="M351.2,241.2c0,0.7-0.5,1.3-1.2,1.3c-0.7,0-1.3-0.5-1.3-1.2s0.5-1.3,1.2-1.3c0,0,0.1,0,0.1,0
		C350.6,240,351.2,240.5,351.2,241.2z"/>
	<path class="st6" d="M322,240.1c0,0.7-0.5,1.2-1.2,1.2s-1.2-0.5-1.2-1.2c0-0.7,0.5-1.2,1.2-1.2c0,0,0,0,0,0
		C321.4,238.9,322,239.4,322,240.1z"/>
	<path class="st7" d="M382.3,215.2c0,0,0.9,11.5-1.2,20.1l3.4,1.1c0,0,2.6-13.3,1.4-20.7L382.3,215.2z"/>
	<path class="st7" d="M359.5,181.6c7.5,3.7,13.1,10.3,15.7,18.2c4.1,13.1,3.5,17.1,6,18.6s7.2,2.3,7.4-0.9s-0.9-17.4-8-26.2
		C375.4,184.6,363.9,181.8,359.5,181.6z"/>
	<path class="st7" d="M383.7,232.8c-5.1-1.6-10.7,2-12.5,7.9c-1.7,5.5,0.5,11.1,4.8,13.1c-3.2,8.1-7.9,15.5-14,21.8
		c-1.2-0.1-2.4,0.2-3.3,0.8c-1.8,1.2-2.6,3.2-1.8,4.5s3,1.3,4.8,0.1s2.5-3,1.9-4.2c6.2-6.4,11-14,14.2-22.3c4.9,1,10-2.5,11.7-8.1
		C391.5,240.5,388.8,234.4,383.7,232.8z"/>
	<path class="st7" d="M388,244.4c-0.9,3.8-4.3,6.2-7.6,5.5s-5.4-4.4-4.5-8.2s4.3-6.2,7.6-5.5S388.9,240.6,388,244.4z"/>
	<path class="st5" d="M387.1,306.8c0,0-5-12.4-6-14.7s7.6-15.9,9-17.9s4.1-6,4.1-6.9s-10.1-10.8-12.2-12.4s-5.6,2-5.6,2
		s-9.2,12.2-9.2,13.6s4.4,5.8,4.4,5.8s-6.9,9.9-6,13.8s4.4,7.2,4.4,7.2l5,19.1L387.1,306.8z"/>
	<path class="st3" d="M371.5,276.4c0,0,6-4.8,5.5-6.2c-0.4-0.9-1.3-1.4-2.3-1.2"/>
	<path class="st3" d="M375.8,258.5c0.5,0,16.1,10.2,15.7,12c-0.3,1.3-0.8,2.5-1.4,3.7"/>
	<path class="st3" d="M377.5,256.9c0,0,14.7,9.2,15,10.8c0.1,1.1-0.3,2.1-1.1,2.8"/>
	<path class="st3" d="M379.1,255.3c0,0,15.4,10.4,15,12c-0.4,1.3-1.1,2.5-1.9,3.5"/>
	<path class="st4" d="M389.2,305.4L365.5,319c0,0,30.8,73.2,36.4,83.1s20.9,12.2,28.8,9.5s11.8-18.6,9.2-25.3s-21.8-36.1-30.9-50.8
		S389.2,305.4,389.2,305.4z"/>
	<path class="st8" d="M376.7,344c0,0,26,50,32.7,60"/>
	<line class="st8" x1="391.3" y1="311.3" x2="428" y2="367.3"/>
</g>
<g id="freepik--text-balloon--inject-3">
	<path class="st5" d="M287.4,238.9v-32.2c0-2.6-2.1-4.7-4.7-4.7h-78.5c-2.6,0-4.7,2.1-4.7,4.7v32.2c0,2.6,2.1,4.7,4.7,4.7h67.4
		l15.4,14.8l-3.1-14.9C285.9,242.8,287.3,241,287.4,238.9z"/>
	<circle class="st6" cx="227.9" cy="222.1" r="3.5"/>
	<circle class="st6" cx="243.4" cy="222.1" r="3.5"/>
	
		<ellipse transform="matrix(0.1602 -0.9871 0.9871 0.1602 -1.8161 442.1255)" class="st6" cx="258.9" cy="222.1" rx="3.5" ry="3.5"/>
	<path class="st4" d="M212.2,238.1v-7.2l-7.6-1.7c-0.4-1.5-1-2.9-1.7-4.2l4.1-6.5l-5.1-5.1l-6.5,4.2c-1.3-0.7-2.7-1.3-4.2-1.7
		l-1.7-7.6h-7.2l-1.7,7.6c-1.5,0.4-2.9,1-4.2,1.7l-6.5-4.2l-5.1,5.1l4.1,6.5c-0.7,1.3-1.3,2.7-1.7,4.2l-7.6,1.7v7.2l7.6,1.7
		c0.4,1.5,1,2.9,1.7,4.2l-4.2,6.5l5.1,5.1l6.5-4.2c1.3,0.7,2.7,1.3,4.2,1.7l1.7,7.6h7.2l1.7-7.6c1.5-0.4,2.9-1,4.2-1.7l6.5,4.2
		l5.1-5.1l-4.1-6.5c0.7-1.3,1.3-2.7,1.7-4.2L212.2,238.1z M186,243.8c-5.1,0-9.3-4.2-9.3-9.3s4.2-9.3,9.3-9.3s9.3,4.2,9.3,9.3
		S191.1,243.8,186,243.8L186,243.8z"/>
</g>
<g id="freepik--Device--inject-3">
	<rect x="148.8" y="420.6" class="st5" width="165.4" height="6.7"/>
	<rect x="123.4" y="420.6" class="st5" width="144.2" height="6.7"/>
	<polygon class="st5" points="120.6,408.7 258.5,408.7 243.6,303.4 105.7,303.4 	"/>
	<polygon class="st4" points="114.9,408.7 252.8,408.7 237.9,303.4 100,303.4 	"/>
	<path class="st5" d="M157.1,359.8l-13.8,67.5h35.6l13.8-67.5H157.1z M181.3,379.8c-0.1,0.6-0.6,1-1.2,1l-20.2-0.2
		c-0.7,0-1.3-0.6-1.2-1.3c0-0.1,0-0.2,0-0.3l1.8-7.6c0.1-0.6,0.6-1,1.2-1l20.2,0.2c0.7,0,1.2,0.6,1.2,1.3c0,0.1,0,0.2,0,0.3
		L181.3,379.8z"/>
	<rect x="19.2" y="427.2" class="st4" width="465.5" height="4.8"/>
</g>
<g id="freepik--Icons--inject-3">
	<polygon class="st3" points="352.9,107.5 349.9,99 320.4,99 323.1,149 391.7,149 391.7,107.5 	"/>
	<polyline class="st3" points="391.7,149 397.6,103.2 351.1,103.2 	"/>
	<circle class="st3" cx="159.4" cy="124.4" r="34.6"/>
	<circle class="st3" cx="159.5" cy="124.4" r="27.8"/>
	<path class="st3" d="M163.1,124.4c0,2-1.7,3.7-3.7,3.7s-3.7-1.7-3.7-3.7c0-2,1.7-3.7,3.7-3.7S163.1,122.4,163.1,124.4
		C163.1,124.4,163.1,124.4,163.1,124.4z"/>
	<line class="st3" x1="159.3" y1="98.7" x2="159.3" y2="105.6"/>
	<line class="st3" x1="159.3" y1="143.4" x2="159.3" y2="150.3"/>
	<line class="st3" x1="141.1" y1="106.2" x2="145.9" y2="111.1"/>
	<line class="st3" x1="172.7" y1="137.9" x2="177.6" y2="142.7"/>
	<line class="st3" x1="133.5" y1="124.5" x2="140.4" y2="124.5"/>
	<line class="st3" x1="178.3" y1="124.5" x2="185.1" y2="124.5"/>
	<line class="st3" x1="141.1" y1="142.7" x2="145.9" y2="137.9"/>
	<line class="st3" x1="172.7" y1="111.1" x2="177.6" y2="106.2"/>
	<line class="st3" x1="155.8" y1="124.4" x2="145.6" y2="124.4"/>
	<line class="st3" x1="159.4" y1="120.7" x2="159.4" y2="107.3"/>
	<rect x="215.8" y="99" class="st3" width="79.3" height="50.7"/>
	<polyline class="st3" points="215.8,99 255.4,124.3 295.1,99 	"/>
	<line class="st3" x1="215.8" y1="149.7" x2="245.8" y2="122.3"/>
	<line class="st3" x1="294.7" y1="149.7" x2="264.7" y2="122.3"/>
</g>
</svg>
