<?xml version="1.0" encoding="utf-8"?>
<!-- Generator: Adobe Illustrator 27.3.1, SVG Export Plug-In . SVG Version: 6.00 Build 0)  -->
<svg version="1.1" id="Layer_1" xmlns="http://www.w3.org/2000/svg" xmlns:xlink="http://www.w3.org/1999/xlink" x="0px" y="0px"
	 viewBox="0 0 500 500" style="enable-background:new 0 0 500 500;" xml:space="preserve">
<style type="text/css">
	.st0{fill:#F5F5F5;}
	.st1{fill:#E0E0E0;}
	.st2{fill:#E6AA68;}
	.st3{opacity:0.1;enable-background:new    ;}
	.st4{fill:#FFFFFF;}
	.st5{fill:#263238;}
	.st6{fill:#37474F;}
	.st7{fill:#455A64;}
	.st8{fill:#FAFAFA;}
	.st9{fill:#F0F0F0;}
	.st10{opacity:0.4;fill:#FFFFFF;enable-background:new    ;}
	.st11{fill:#B16668;}
	.st12{opacity:0.15;enable-background:new    ;}
	.st13{opacity:0.3;fill:#FFFFFF;enable-background:new    ;}
	.st14{fill:#9A4A4D;}
	.st15{fill:#EBEBEB;}
</style>
<g id="freepik--Floor--inject-12">
	<path id="freepik--floor--inject-12" class="st0" d="M101.5,432.4c82.4,43.1,216.1,43.1,298.6,0s82.5-113,0-156.1
		s-216.1-43.1-298.6,0S19.1,389.3,101.5,432.4z"/>
</g>
<g id="freepik--Shadows--inject-12">
	<path id="freepik--Shadow--inject-12" class="st1" d="M245.9,386.9l3.8,2.2c1.4,0.7,3,0.7,4.3,0l101.3-58.5c0.7-0.2,1.1-1,0.8-1.7
		c-0.1-0.4-0.4-0.7-0.8-0.8l-3.8-2.2c-1.4-0.7-3-0.7-4.3,0l-101.3,58.5c-0.7,0.2-1.1,1-0.8,1.7C245.2,386.5,245.5,386.8,245.9,386.9
		z"/>
	<path id="freepik--shadow--inject-12" class="st1" d="M410.9,378.7c-12.5,6.7-32.9,6.7-45.4,0s-12.5-17.6,0-24.3s32.9-6.7,45.4,0
		S423.4,372,410.9,378.7z"/>
</g>
<g id="freepik--Plants--inject-12">
	<g id="freepik--plants--inject-12">
		<path class="st2" d="M403.1,338.5c0,0,1.2-10.2,6.2-18.1s12-12.8,18.5-13.3s11.7,5.5,4.8,9.5s-19.3,8.3-24.9,23.6L403.1,338.5z"/>
		<path class="st3" d="M403.1,338.5c0,0,1.2-10.2,6.2-18.1s12-12.8,18.5-13.3s11.7,5.5,4.8,9.5s-19.3,8.3-24.9,23.6L403.1,338.5z"/>
		<path class="st4" d="M405,335.9L405,335.9c-0.2-0.1-0.3-0.3-0.3-0.4c0,0,0,0,0,0c6.8-16.9,19.9-23.9,25.8-25.2
			c0.2,0,0.4,0.1,0.4,0.3s-0.1,0.4-0.3,0.4l0,0c-5.8,1.3-18.6,8.2-25.3,24.8C405.3,335.8,405.2,335.9,405,335.9z"/>
		<path class="st2" d="M439.6,336.1c-0.6,1.3-2,2-3.4,2.5s-2.8,1.1-3.5,2.4c-1.5,2.5,0.9,6.1-0.6,8.5c-0.7,1-1.9,1.6-3.1,1.8
			c-1,0.2-2,0.2-3,0.3c-0.5,0-1,0-1.4-0.1c-1.4-0.3-2.9-0.2-4.2,0.4c-2,1.1-2.6,3.7-3.9,5.6c-1.5,2.3-4,3.9-6.8,4.2
			c-1.2,0.2-2.4,0.2-3.5-0.2l-0.2-0.1l0,0c-0.1-0.1-0.2-0.3-0.4-0.4V361c-0.4-1.3,0.2-2.7,0.2-4c0-0.1,0-0.2,0-0.2
			c0-1.6-0.1-3.1-0.1-4.7c-0.1-2.9-0.1-5.8-0.1-8.7c0-1.9-0.2-3.9,0.6-5.7c0.9-1.9,3.1-2,3.9-3.9c0.3-0.8,0.5-1.6,0.8-2.4
			c1-2.3,3.2-3.8,5.7-4c3.8-0.2,7.2,2.9,11.1,2.6c1-0.1,2-0.3,2.9-0.6c3.1-0.6,6.7,0.3,8.4,2.9C439.9,333.4,440.1,334.8,439.6,336.1
			z"/>
		<path class="st4" d="M405.3,354.9L405.3,354.9c-0.2,0-0.3-0.2-0.2-0.4c0,0,0,0,0,0c5.3-19.8,26.1-22.7,31-22.3
			c0.2,0,0.3,0.2,0.3,0.3c0,0,0,0,0,0c0,0.2-0.1,0.3-0.3,0.3c0,0,0,0,0,0c-4.8-0.3-25.2,2.5-30.3,21.8
			C405.7,354.9,405.5,355,405.3,354.9z"/>
		<path class="st4" d="M428.5,344.9c-0.1,0-0.1,0-0.2-0.1c-3.9-3.4-9.1-4.8-14.2-4c-0.2,0-0.3-0.1-0.4-0.3c0,0,0,0,0,0
			c0-0.2,0.1-0.3,0.3-0.4c5.3-0.9,10.7,0.7,14.8,4.2c0.1,0.1,0.1,0.3,0,0.5C428.7,344.9,428.6,344.9,428.5,344.9L428.5,344.9z"/>
	</g>
</g>
<g id="freepik--Folder--inject-12">
	<g id="freepik--folder--inject-12">
		<path class="st5" d="M266.3,244.4v10L93.8,354l0,0l-5.3,3c-2.4-1.7-4-4.4-4.1-7.3V181.9c0-0.3,0.1-0.6,0.2-0.9
			c0.2-0.3,0.4-0.5,0.6-0.6l39.3-22.7c0.5-0.3,3.3,0.9,3.7,1.2l0.3,0.2c0.3,0.2,0.5,0.4,0.7,0.6c0.2,0.2,0.4,0.5,0.5,0.8l3.6,10.3
			l128-76.3c0.5-0.2,1.1-0.2,1.7,0l2.4,1.4c0.3,0.2,0.5,0.4,0.6,0.6c0.2,0.3,0.2,0.6,0.2,0.9L266.3,244.4L266.3,244.4z"/>
		<path class="st6" d="M266.3,254.4L88.4,357V183.2l40.9-23.6c0.2,0.2,0.4,0.5,0.5,0.8l3.6,10.3l0.7,1.9l132-76.2
			c0.2,0.3,0.2,0.6,0.2,0.9L266.3,254.4z"/>
		<path class="st7" d="M129.3,159.7l-40.9,23.6l-3.8-2.2c0.2-0.3,0.4-0.5,0.6-0.6l39.3-22.7c0.5-0.3,1.2-0.3,1.7,0l2.3,1.3
			C128.9,159.2,129.1,159.4,129.3,159.7z"/>
		<path class="st7" d="M266.1,96.5l-132,76.2l-0.7-1.9l128-76.3c0.5-0.2,1.1-0.2,1.7,0l2.4,1.4C265.7,96,265.9,96.2,266.1,96.5z"/>
		<g id="freepik--Document--inject-12">
			<path class="st8" d="M143.1,286.4c-1.1-0.8-1.8-2-1.9-3.3V117.8c0.1-1.4,0.8-2.7,2-3.4l97.6-56.3c1.7-1.1,4-0.6,5.1,1.2
				c0.4,0.6,0.6,1.4,0.6,2.1v165.3c-0.1,1.4-0.8,2.7-2,3.4l-97.6,56.3C145.7,286.9,144.3,287,143.1,286.4z"/>
			<path class="st9" d="M146.9,286.3l97.6-56.3c1.2-0.7,1.9-2,2-3.4V61.3c0-1.2-0.9-1.8-2-1.1l-97.6,56.3c-1.2,0.7-1.9,2-2,3.4
				v165.3C144.9,286.4,145.8,286.9,146.9,286.3z"/>
			<path class="st1" d="M157.6,123.1l73.7-42.6c0.9-0.6,1.7-0.1,1.7,1v0.7c-0.1,1.2-0.7,2.3-1.7,3l-73.7,42.6c-1,0.6-1.7,0.1-1.7-1
				v-0.7C155.9,124.9,156.6,123.7,157.6,123.1z"/>
			<path class="st1" d="M157.6,134.8l73.7-42.6c0.9-0.6,1.7-0.1,1.7,1v0.7c-0.1,1.2-0.7,2.3-1.7,3l-73.7,42.6c-1,0.6-1.7,0.1-1.7-1
				v-0.7C155.9,136.6,156.6,135.4,157.6,134.8z"/>
			<path class="st1" d="M157.6,146.5l73.7-42.6c0.9-0.6,1.7-0.1,1.7,1v0.7c-0.1,1.2-0.7,2.3-1.7,3l-73.7,42.6c-1,0.6-1.7,0.1-1.7-1
				v-0.7C155.9,148.3,156.6,147.2,157.6,146.5z"/>
			<path class="st1" d="M157.6,158.2l73.7-42.6c0.9-0.6,1.7-0.1,1.7,1v0.7c-0.1,1.2-0.7,2.3-1.7,3l-73.7,42.6c-1,0.6-1.7,0.1-1.7-1
				v-0.7C155.9,160,156.6,158.9,157.6,158.2z"/>
			<path class="st1" d="M157.6,169.9l73.7-42.6c0.9-0.6,1.7-0.1,1.7,1v0.7c-0.1,1.2-0.7,2.3-1.7,3l-73.7,42.6c-1,0.6-1.7,0.1-1.7-1
				v-0.7C155.9,171.7,156.6,170.6,157.6,169.9z"/>
			<path class="st1" d="M157.6,181.7l73.7-42.6c0.9-0.6,1.7-0.1,1.7,1v0.7c-0.1,1.2-0.7,2.3-1.7,3l-73.7,42.6c-1,0.6-1.7,0.1-1.7-1
				v-0.7C155.9,183.5,156.6,182.4,157.6,181.7z"/>
			<path class="st1" d="M157.6,193.4l73.7-42.6c0.9-0.6,1.7-0.1,1.7,1v0.7c-0.1,1.2-0.7,2.3-1.7,3l-73.7,42.6c-1,0.6-1.7,0.1-1.7-1
				v-0.7C155.9,195.2,156.6,194.1,157.6,193.4z"/>
			<path class="st1" d="M157.6,205.1l73.7-42.6c0.9-0.6,1.7-0.1,1.7,1v0.7c-0.1,1.2-0.7,2.3-1.7,3l-73.7,42.6c-1,0.6-1.7,0.1-1.7-1
				v-0.7C155.9,206.9,156.6,205.8,157.6,205.1z"/>
			<path class="st1" d="M157.6,216.9l73.7-42.6c0.9-0.6,1.7-0.1,1.7,1v0.7c-0.1,1.2-0.7,2.3-1.7,3l-73.7,42.6c-1,0.6-1.7,0.1-1.7-1
				v-0.7C155.9,218.6,156.6,217.5,157.6,216.9z"/>
			<path class="st1" d="M157.6,228.6l73.7-42.6c0.9-0.6,1.7-0.1,1.7,1v0.7c-0.1,1.2-0.7,2.3-1.7,3l-73.7,42.6c-1,0.6-1.7,0.1-1.7-1
				v-0.7C155.9,230.3,156.6,229.2,157.6,228.6z"/>
			<path class="st1" d="M157.6,240.3l73.7-42.6c0.9-0.6,1.7-0.1,1.7,1v0.7c-0.1,1.2-0.7,2.3-1.7,3L157.6,245c-1,0.6-1.7,0.1-1.7-1
				v-0.7C155.9,242.1,156.6,241,157.6,240.3z"/>
			<path class="st1" d="M157.6,252l73.7-42.6c0.9-0.6,1.7-0.1,1.7,1v0.7c-0.1,1.2-0.7,2.3-1.7,3l-73.7,42.6c-1,0.5-1.7,0.1-1.7-1
				V255C155.9,253.8,156.6,252.7,157.6,252z"/>
			<path class="st1" d="M157.6,263.8l73.7-42.6c0.9-0.6,1.7-0.1,1.7,1v0.7c-0.1,1.2-0.7,2.3-1.7,3l-73.7,42.6c-1,0.6-1.7,0.1-1.7-1
				v-0.7C155.9,265.5,156.6,264.4,157.6,263.8z"/>
			<path class="st1" d="M146.6,286.4c-1.8,1-4,0.3-5-1.5c-0.3-0.6-0.5-1.2-0.4-1.9V117.8c0-0.7,0.2-1.4,0.6-1.9l3.7,2.1
				c-0.4,0.6-0.6,1.2-0.6,1.9v165.3C144.9,286.3,145.7,286.8,146.6,286.4z"/>
		</g>
		<g id="freepik--document--inject-12">
			<path class="st8" d="M156.9,294.2c-1.1-0.8-1.8-2-1.9-3.3V125.6c0.1-1.4,0.8-2.7,2-3.4l97.6-56.3c1.7-1.1,4-0.6,5.1,1.2
				c0.4,0.6,0.6,1.4,0.6,2.1v165.3c-0.1,1.4-0.8,2.7-2,3.4l-97.6,56.3C159.5,294.8,158.1,294.8,156.9,294.2z"/>
			<path class="st9" d="M160.7,294.1l97.6-56.3c1.2-0.7,1.9-2,2-3.4V69.2c0-1.2-0.9-1.8-2-1.1l-97.6,56.3c-1.2,0.7-1.9,2-2,3.4V293
				C158.8,294.3,159.6,294.8,160.7,294.1z"/>
			<path class="st1" d="M171.4,130.9l73.7-42.6c1-0.6,1.7-0.1,1.7,1V90c-0.1,1.2-0.7,2.3-1.7,3l-73.7,42.6c-1,0.6-1.7,0.1-1.7-1
				v-0.7C169.7,132.7,170.4,131.6,171.4,130.9z"/>
			<path class="st1" d="M171.4,142.6l73.7-42.6c1-0.6,1.7-0.1,1.7,1v0.7c-0.1,1.2-0.7,2.3-1.7,3l-73.7,42.6c-1,0.6-1.7,0.1-1.7-1
				v-0.7C169.7,144.4,170.4,143.3,171.4,142.6z"/>
			<path class="st1" d="M171.4,154.3l73.7-42.6c1-0.6,1.7-0.1,1.7,1v0.7c-0.1,1.2-0.7,2.3-1.7,3L171.4,159c-1,0.6-1.7,0.1-1.7-1
				v-0.7C169.8,156.1,170.4,155,171.4,154.3z"/>
			<path class="st1" d="M171.4,166.1l73.7-42.6c1-0.6,1.7-0.1,1.7,1v0.7c-0.1,1.2-0.7,2.3-1.7,3l-73.7,42.6c-1,0.6-1.7,0.1-1.7-1
				v-0.7C169.7,167.8,170.4,166.7,171.4,166.1z"/>
			<path class="st1" d="M171.4,177.8l73.7-42.6c1-0.6,1.7-0.1,1.7,1v0.7c-0.1,1.2-0.7,2.3-1.7,3l-73.7,42.6c-1,0.6-1.7,0.1-1.7-1
				v-0.7C169.7,179.5,170.4,178.4,171.4,177.8z"/>
			<path class="st1" d="M171.4,189.6l73.7-42.6c1-0.6,1.7-0.1,1.7,1v0.7c-0.1,1.2-0.7,2.3-1.7,3l-73.7,42.6c-1,0.6-1.7,0.1-1.7-1
				v-0.7C169.7,191.3,170.4,190.2,171.4,189.6z"/>
			<path class="st1" d="M171.4,201.3l73.7-42.6c1-0.6,1.7-0.1,1.7,1v0.7c-0.1,1.2-0.7,2.3-1.7,3L171.4,206c-1,0.6-1.7,0.1-1.7-1
				v-0.7C169.7,203.1,170.4,201.9,171.4,201.3z"/>
			<path class="st1" d="M171.4,213l73.7-42.6c1-0.6,1.7-0.1,1.7,1v0.7c-0.1,1.2-0.7,2.3-1.7,3l-73.7,42.6c-1,0.6-1.7,0.1-1.7-1V216
				C169.7,214.8,170.4,213.7,171.4,213z"/>
			<path class="st1" d="M171.4,224.7l73.7-42.6c1-0.6,1.7-0.1,1.7,1v0.7c-0.1,1.2-0.7,2.3-1.7,3l-73.7,42.6c-1,0.6-1.7,0.1-1.7-1
				v-0.7C169.8,226.5,170.4,225.4,171.4,224.7z"/>
			<path class="st1" d="M171.4,236.4l73.7-42.6c1-0.6,1.7-0.1,1.7,1v0.7c-0.1,1.2-0.7,2.3-1.7,3l-73.7,42.6c-1,0.6-1.7,0.1-1.7-1
				v-0.7C169.7,238.2,170.4,237.1,171.4,236.4z"/>
			<path class="st1" d="M171.4,248.2l73.7-42.6c1-0.6,1.7-0.1,1.7,1v0.7c-0.1,1.2-0.7,2.3-1.7,3l-73.7,42.6c-1,0.6-1.7,0.1-1.7-1
				v-0.7C169.7,250,170.4,248.8,171.4,248.2z"/>
			<path class="st1" d="M171.4,259.9l73.7-42.6c1-0.6,1.7-0.1,1.7,1v0.7c-0.1,1.2-0.7,2.3-1.7,3l-73.7,42.6c-1,0.5-1.7,0.1-1.7-1
				v-0.7C169.8,261.7,170.4,260.5,171.4,259.9z"/>
			<path class="st1" d="M171.4,271.6l73.7-42.6c1-0.6,1.7-0.1,1.7,1v0.7c-0.1,1.2-0.7,2.3-1.7,3l-73.7,42.6c-1,0.6-1.7,0.1-1.7-1
				v-0.7C169.8,273.4,170.4,272.3,171.4,271.6z"/>
			<path class="st1" d="M160.5,294.3c-1.8,1-4,0.3-5-1.5c-0.3-0.6-0.5-1.2-0.4-1.9V125.6c0-0.7,0.2-1.4,0.6-1.9l3.7,2.1
				c-0.4,0.6-0.6,1.2-0.6,1.9V293C158.8,294.2,159.5,294.7,160.5,294.3z"/>
		</g>
		<path class="st6" d="M302.6,117l-28.5,123.5l-2.6,11.4c-0.9,3-2.8,5.6-5.5,7.4L96.8,356.9c-1.2,0.7-2.6,1-4,1.1
			c-1.5,0.1-3-0.2-4.4-0.9l0.9-3.8l0.1-0.4l0.9-4.1l4.1-17.9l26.2-113.5c0-0.1,0.1-0.3,0.2-0.4c0.1-0.1,0.2-0.3,0.2-0.4v-0.1
			c0.2-0.2,0.4-0.5,0.7-0.6l144.5-83.4l31.6-18.3c0.5-0.3,1.2-0.3,1.7,0l2.3,1.3C302.5,115.8,302.8,116.4,302.6,117z"/>
		<path class="st7" d="M302.7,116.7c0-0.3-0.3-0.5-0.7-0.2L125.9,218.2c-0.3,0.2-0.5,0.4-0.7,0.6l-4.1-2.4c0.2-0.2,0.4-0.5,0.7-0.6
			l176.1-101.7c0.5-0.3,1.2-0.3,1.7,0l2.3,1.3C302.4,115.8,302.7,116.2,302.7,116.7z"/>
		<path class="st5" d="M125.2,218.8c-0.1,0.2-0.2,0.3-0.3,0.5c-0.1,0.1-0.1,0.2-0.1,0.4L99.7,328.2l0,0l-5.3,22.9l-0.7,2.9l0,0
			l-0.9,4c-1.5,0.1-3-0.2-4.4-0.9l0.9-3.8l0.1-0.4l0.9-4.1l4.1-17.9l26.2-113.5c0-0.1,0.1-0.3,0.2-0.4c0.1-0.1,0.2-0.3,0.2-0.4v-0.1
			L125.2,218.8z"/>
		<path class="st5" d="M94.6,346.6c0.4,0.2,0.6,0.7,0.5,1.2l-1.4,6.2l0,0l-0.8,3.1c-0.1,0.5-0.6,0.9-1.2,0.9c-1.2,0-2.4-0.3-3.4-0.9
			c-2.4-1.7-4-4.4-4.1-7.3v-7.1c0-0.6,0.5-1.1,1.1-1.2c0.2,0,0.4,0,0.6,0.2l1.8,1c0.4,0.2,0.6,0.6,0.6,1v3.5c0,0.6,0.5,1.1,1.1,1.2
			c0.6,0,1-0.4,1.1-0.9l0.3-1.3c0.1-0.6,0.8-1,1.4-0.8c0.1,0,0.2,0.1,0.3,0.1L94.6,346.6z"/>
		<path class="st2" d="M132,320.2l-9.6-5.6l0,0l-0.1-0.1l0,0c-4.8-2.7-11.4-2.3-18.6,1.9c-6.8,3.9-13,10.5-17.7,18
			c-5.4,8.7-8.8,18.8-8.8,27.9c0,8.4,3,14.4,7.7,17.1l0,0l9.8,5.6c4.8,3.1,11.7,2.8,19.2-1.6c14.6-8.5,26.5-29,26.5-45.9
			C140.4,328.8,137.1,322.8,132,320.2z"/>
		<path class="st3" d="M94.5,385l-9.6-5.5l0,0c-4.8-2.8-7.7-8.7-7.7-17.1c0-9,3.4-19.1,8.8-27.9l10.2,5.9
			c-5.4,8.7-8.8,18.8-8.8,27.8C87.3,376.3,90.1,382.1,94.5,385z"/>
		<path class="st10" d="M131.8,320.1c-4.7-2.3-11-1.7-17.9,2.3s-13,10.5-17.7,18.1l-10.2-5.9c4.7-7.6,10.9-14.1,17.7-18
			c7.3-4.2,13.8-4.6,18.6-1.9l0,0l0.1,0.1l0,0L131.8,320.1z"/>
		<path class="st4" d="M117.5,355.7v9.3c0,0.5-0.1,0.9-0.3,1.4c-0.1,0.4-0.4,0.8-0.8,1l-5.1,3c-0.2,0.2-0.6,0.1-0.8-0.1
			c-0.2-0.3-0.4-0.6-0.3-1V360l-6.3,3.6c-0.2,0.2-0.6,0.2-0.8,0c-0.2-0.3-0.4-0.6-0.3-1v-6.3c0-0.5,0.1-0.9,0.3-1.4
			c0.2-0.4,0.4-0.7,0.8-0.9l6.3-3.6V341c0-0.5,0.1-0.9,0.3-1.4c0.2-0.4,0.4-0.7,0.8-0.9l5.1-3c0.2-0.2,0.6-0.2,0.8,0
			c0.2,0.3,0.4,0.6,0.3,1v9.3l6.2-3.6c0.2-0.2,0.6-0.2,0.8,0c0.2,0.3,0.4,0.6,0.3,1v6.3c0,0.5-0.1,0.9-0.3,1.4
			c-0.2,0.4-0.4,0.7-0.8,0.9L117.5,355.7z"/>
	</g>
</g>
<g id="freepik--Character--inject-12">
	<g id="freepik--character--inject-12">
		<path class="st11" d="M374.6,211.2l-11.7-0.3c-0.8-0.7-13-14.5-13-14.5s-4.4,7-4.5,7.4s12,13.4,13.2,14.7c0.7,0.9,1.7,1.4,2.9,1.4
			c3.2,0.2,15,1,15,1L374.6,211.2z"/>
		<g id="freepik--document--inject-12_00000004526514875336583180000008114769536665776006_">
			<path class="st2" d="M249.8,386.7c-1.1-0.8-1.8-2-1.8-3.3V228c0.1-1.4,0.8-2.7,2-3.4l97.6-56.3c1.2-0.6,2.6-0.6,3.8-0.1
				c1.1,0.8,1.8,2,1.8,3.3v155.4c-0.1,1.4-0.8,2.7-2,3.4l-97.6,56.3C252.4,387.3,251,387.3,249.8,386.7z"/>
			<path class="st12" d="M253.1,386.9l0.2-0.1C253.2,386.8,253.2,386.9,253.1,386.9c-0.1,0-0.2,0.1-0.3,0.1h-0.2
				c-0.1,0-0.3,0.1-0.4,0.1c-0.2,0-0.3,0-0.5,0c-0.6,0-1.2-0.1-1.8-0.4c-0.4-0.3-0.7-0.6-1-1c-0.5-0.7-0.8-1.5-0.8-2.3V228
				c0-0.3,0-0.7,0.1-1c0-0.2,0.1-0.3,0.2-0.5c0.1-0.2,0.2-0.3,0.2-0.5l3.7,2.1l0,0l-0.1,0.1c-0.3,0.5-0.5,1.2-0.5,1.8v155.4
				c0,0.2,0,0.4,0.1,0.6c0.1,0.2,0.2,0.4,0.4,0.6c0.1,0.1,0.3,0.2,0.4,0.2h0.2C252.8,386.9,252.9,386.9,253.1,386.9
				C253,386.9,253,386.9,253.1,386.9z"/>
			<path class="st13" d="M353.1,171.1c-0.2-1-1-1.3-1.9-0.8l-97.6,56.3c-0.6,0.4-1.1,0.9-1.4,1.5l-3.7-2.1c0.3-0.6,0.8-1.1,1.4-1.5
				l97.6-56.3c1.2-0.6,2.6-0.6,3.8-0.1C352.3,168.8,353,169.9,353.1,171.1z"/>
			<path class="st8" d="M264.3,233.2l73.7-42.6c1-0.6,1.7-0.1,1.7,1v0.7c-0.1,1.2-0.7,2.3-1.7,3l-73.7,42.6c-1,0.6-1.7,0.1-1.7-1
				v-0.7C262.6,235,263.3,233.9,264.3,233.2z"/>
			<path class="st8" d="M264.3,247.6L338,205c1-0.6,1.7-0.1,1.7,1v0.7c-0.1,1.2-0.7,2.3-1.7,3l-73.7,42.6c-1,0.6-1.7,0.1-1.7-1v-0.7
				C262.6,249.3,263.3,248.2,264.3,247.6z"/>
			<path class="st8" d="M264.3,261.9l73.7-42.6c1-0.6,1.7-0.1,1.7,1v0.7c-0.1,1.2-0.7,2.3-1.7,3l-73.7,42.6c-1,0.5-1.7,0.1-1.7-1
				v-0.7C262.6,263.7,263.3,262.6,264.3,261.9z"/>
			<path class="st8" d="M264.3,276.2l73.7-42.6c1-0.6,1.7-0.1,1.7,1v0.7c-0.1,1.2-0.7,2.3-1.7,3l-73.7,42.6c-1,0.5-1.7,0.1-1.7-1
				v-0.7C262.6,278,263.3,276.9,264.3,276.2z"/>
			<path class="st8" d="M264.3,290.6L338,248c1-0.6,1.7-0.1,1.7,1v0.7c-0.1,1.2-0.7,2.3-1.7,3l-73.7,42.6c-1,0.5-1.7,0.1-1.7-1v-0.7
				C262.6,292.3,263.3,291.2,264.3,290.6z"/>
			<path class="st8" d="M264.3,304.9l73.7-42.6c1-0.5,1.7-0.1,1.7,1v0.7c-0.1,1.2-0.7,2.3-1.7,3l-73.7,42.6c-1,0.5-1.7,0.1-1.7-1
				v-0.7C262.6,306.7,263.3,305.5,264.3,304.9z"/>
			<path class="st8" d="M264.3,319.2l73.7-42.6c1-0.5,1.7-0.1,1.7,1v0.7c-0.1,1.2-0.7,2.3-1.7,3l-73.7,42.6c-1,0.5-1.7,0.1-1.7-1
				v-0.7C262.6,321,263.3,319.9,264.3,319.2z"/>
			<path class="st8" d="M264.3,333.5L338,291c1-0.5,1.7-0.1,1.7,1v0.7c-0.1,1.2-0.7,2.3-1.7,3l-73.7,42.6c-1,0.5-1.7,0.1-1.7-1v-0.7
				C262.6,335.3,263.3,334.2,264.3,333.5z"/>
			<path class="st8" d="M264.3,347.9l73.7-42.6c1-0.5,1.7-0.1,1.7,1v0.7c-0.1,1.2-0.7,2.3-1.7,3l-73.7,42.6c-1,0.5-1.7,0.1-1.7-1
				v-0.7C262.6,349.7,263.3,348.5,264.3,347.9z"/>
			<path class="st8" d="M264.3,362.2l73.7-42.6c1-0.5,1.7-0.1,1.7,1v0.7c-0.1,1.2-0.7,2.3-1.7,3l-73.7,42.6c-1,0.5-1.7,0.1-1.7-1
				v-0.7C262.6,364,263.3,362.9,264.3,362.2z"/>
		</g>
		<path class="st5" d="M376.7,209.2h13.9c9.9,0,17.9-8,17.9-17.9l0,0l0,0c0-8.8-7.1-15.9-15.9-15.9l0,0l0,0
			c-8.8,0-15.9,7.1-15.9,15.9l0,0V209.2z"/>
		<path class="st5" d="M405,181.6l3.9-2.1c-0.5-1.1-1.7-1.5-2.8-1c0,0-0.1,0-0.1,0C404.8,179.1,404.4,180.5,405,181.6z"/>
		<path class="st5" d="M404.7,182l4.1,1.5c0.5-1.1,0-2.3-1.1-2.8c0,0-0.1,0-0.1,0C406.5,180.3,405.2,180.9,404.7,182z"/>
		<path class="st2" d="M391,222.4l-19.3-0.8c-1.7-2.3-1.7-8.6,0.1-10.6l21.4,0.6L391,222.4z"/>
		<path class="st11" d="M379.2,342.3c0.1,1.3,0.2,2.6,0.2,3.9v7.6h6.6v-4.5c0-2,0.2-4,0.5-6L379.2,342.3z"/>
		<path class="st5" d="M379.4,350.5v-1c-0.2,1.4-4.3,6.9-6.9,9.2c-2.1,1.9-4.9,4.1-5.7,6.2s3.4,3.1,6.1,2.8c2.6-0.3,5-1.6,6.8-3.6
			c1.1-1.4,2.1-2.8,2.9-4.4c0.8-1.1,4.4-3.3,4.8-4.6c0.1-1.2,0-2.4-0.4-3.5c-0.3-1.2-0.6-2.5-1-2.4v0.7c-0.9,0.7-2.1,1.1-3.3,1.1
			C381.8,351.5,379.4,351.3,379.4,350.5z"/>
		<path class="st11" d="M386,350.3c-0.9,0.7-2.1,1.1-3.3,1.1c-1,0-3.3-0.1-3.3-0.9v-1c-0.2,1.4-4.3,6.9-6.9,9.2
			c-0.5,0.5-1,0.9-1.6,1.4c-1.1,1.2-0.8,2.3,1.8,2.5s4.9-1.4,6.9-3.8S386,350.3,386,350.3z"/>
		<path class="st11" d="M399.5,353.5c0.1,1.6,0.1,3.3,0.2,4v7.6h6.6v-4.5c0-2,0.2-4,0.5-6L399.5,353.5z"/>
		<path class="st5" d="M399.6,361.9v-1c-0.2,1.4-4.3,6.9-6.9,9.2c-2.1,1.9-4.9,4.1-5.7,6.2s3.4,3.1,6.1,2.8c2.6-0.3,5-1.6,6.8-3.6
			c1.1-1.4,2.1-2.8,2.9-4.4c0.8-1.1,4.4-3.3,4.8-4.6c0.1-1.2,0-2.4-0.4-3.5c-0.3-1.2-0.6-2.5-1-2.4v0.7c-0.9,0.7-2.1,1.1-3.3,1.1
			C402,362.8,399.6,362.6,399.6,361.9z"/>
		<path class="st11" d="M406.2,361.6c-0.9,0.7-2.1,1.1-3.3,1.1c-1,0-3.3-0.1-3.3-0.9v-1c-0.2,1.4-4.3,6.9-6.9,9.2
			c-0.5,0.5-1,0.9-1.6,1.4c-1.1,1.2-0.8,2.3,1.8,2.5s4.9-1.4,6.9-3.8S406.2,361.6,406.2,361.6z"/>
		<path class="st7" d="M379.2,345.5c-1.4-11.7-3.7-31.9-4.4-36.3c-0.6-4.1,1-39,1.9-50.1l34.5-1.9c2.6,11.2,0.1,26.4-0.8,35.9
			c-0.9,9.2-2,20-2,20s2.7,9.4,2,16.9c-0.5,4.7-2.6,18.9-3.6,25c-2.4,1.2-5.2,1.2-7.6-0.1c0.1,1.3-1.2-15.7-2-22.6
			c-1.1-9.5-1.5-16.5-2.5-22.1c-1.2-7-1.6-34.2-1.6-34.2l-4,30.9c0.4,3.3,0.6,6.7,0.6,10c0,6.9-2.5,22.6-3.4,28.5
			C384.7,346.6,381.2,346.9,379.2,345.5z"/>
		<path class="st6" d="M393.1,275.9c0,0-6.3-2.2-9.9-5.5c1.8,2.8,4.4,5.1,7.4,6.5l0.1,18.1L393.1,275.9"/>
		<path class="st9" d="M398.1,211.7c0,0,9.4,1.1,10.5,1.6c-5.7,6.2,0.4,11.4,0.4,11.4l-4.4,19.1c3.8,4.8,5.9,8.5,6.8,14.2
			c-4,7.1-26.6,8.1-34.8,2.8c0.7-9.9,2.3-16.9,1.8-19.9c-3.9-12.1-2.7-14.7-2.3-17.4c0.7-5.4,6.1-10.1,9.2-12.1h2.9L398.1,211.7z"/>
		<path class="st11" d="M382,183.1c-1.7,1-3.8,5.2-3.5,14.1c0.2,7.5,2.6,9.4,3.8,9.9s3.6,0.2,5.9-0.2v4.5c0,0-3.2,3.7-3,5.8
			s4.6,2.6,7.5,0.5c2.1-1.7,4-3.7,5.5-5.9l0-10.4c0,0,1.3,1.3,3.6-0.7c1.9-1.6,2.5-4.4,1-5.9c-1.3-1.2-3.4-1.2-4.7,0.1
			c-0.2,0.3-0.4,0.5-0.6,0.9c0,0-1.3-3.5-6.5-5.3C386.2,189,383.6,187.2,382,183.1z"/>
		<path class="st5" d="M387.3,195.3c0,0.5,0.4,0.9,0.9,1c0.5,0,1-0.4,1-0.9c0.1-0.5-0.3-1-0.8-1.1c-0.5-0.1-1,0.3-1.1,0.8
			C387.3,195.1,387.3,195.2,387.3,195.3L387.3,195.3z"/>
		<path class="st14" d="M387,201.7l-2.2,0.7c0.2,0.6,0.8,1,1.4,0.8c0,0,0,0,0,0C386.9,202.9,387.2,202.3,387,201.7z"/>
		<path class="st5" d="M379.6,192.4l1.9-1.3c-0.3-0.5-1-0.7-1.5-0.4c0,0,0,0,0,0C379.4,191.1,379.2,191.8,379.6,192.4z"/>
		<path class="st5" d="M390,193.1l-1.9-1.3c0.3-0.5,1-0.7,1.5-0.4c0,0,0,0,0,0C390.3,191.8,390.4,192.5,390,193.1z"/>
		<path class="st5" d="M380,194.6c0,0.5,0.4,0.9,0.9,1c0.5,0,1-0.4,1-0.9c0.1-0.5-0.3-1-0.8-1.1c-0.5-0.1-1,0.3-1.1,0.8
			C380,194.5,380,194.5,380,194.6L380,194.6z"/>
		<polygon class="st14" points="384.5,194.1 384.3,199.8 381.3,198.8 		"/>
		<path class="st14" d="M388.1,206.9c2.4-0.3,7.4-1.7,8.2-3.7c-0.3,1-0.9,1.9-1.8,2.5c-1.5,1.3-6.4,2.7-6.4,2.7V206.9z"/>
		<polygon class="st1" points="406.6,235.3 398.6,247 404.6,243.9 		"/>
		<path class="st11" d="M402.9,215.9l-18.8,19.4c0,0-18.4-1.8-24.7-3.6c-2-0.6-3.6-3.3-4-5.5c-0.1-1.2-1-2.2-2.2-2.5v4.6
			c-0.2,1.1-0.7,1.7-2.4,1.8c-6.3,0.1-9.2-1.8-10,1.6c-0.5,2.2,0.5,4.7,4.6,5.8c5.9,1.6,9.1,0.8,12.7,1.7c2.8,0.7,21.9,4.3,25.7,5.1
			c2,0.4,3.5,0.3,5.7-1.8s18.4-17.3,18.4-17.3c5-5,3.5-10.1,0.7-11.7C407,212.5,405.1,213.6,402.9,215.9z"/>
		<path class="st2" d="M408.6,213.3c1.2,0.5,2.7,1.8,2.8,5.1s-2.4,6.4-5.3,9.9s-3.8,4.4-3.8,4.4s-7.4-2.7-8.6-8.1
			c0,0,5.5-5.9,7.2-7.8S405.7,212,408.6,213.3z"/>
	</g>
</g>
<g id="freepik--Clouds--inject-12">
	<path class="st15" d="M370.6,86.8l7,4c0-0.3-0.1-0.6-0.1-0.9v-2c0-3.6,2.5-5,5.6-3.2c1.3,0.8,2.5,1.9,3.4,3.2
		c0.5-4.5,4-6.2,8.3-3.7c4.6,2.7,8.4,9.2,8.4,14.6v3c0,1.2-0.2,2.4-0.7,3.5l5.8,3.3c1.8,1.2,3,3.2,3.1,5.4c0,2-1.4,2.8-3.1,1.8
		L370.6,94c-1.8-1.2-3-3.2-3.1-5.4C367.5,86.6,368.9,85.8,370.6,86.8z"/>
	<path class="st15" d="M340.9,107l5.2,3c0-0.2,0-0.5,0-0.7v-1.5c0-2.7,1.9-3.8,4.2-2.4c1,0.6,1.9,1.4,2.5,2.4c0.4-3.4,3-4.7,6.3-2.8
		c3.8,2.4,6.1,6.5,6.4,11v2.3c0,0.9-0.2,1.8-0.5,2.6l4.4,2.5c1.4,0.9,2.3,2.4,2.4,4.1c0,1.5-1,2.1-2.4,1.4l-28.4-16.4
		c-1.4-0.9-2.3-2.4-2.4-4.1C338.5,106.9,339.6,106.3,340.9,107z"/>
</g>
</svg>
