<svg xmlns="http://www.w3.org/2000/svg" width="954.301" height="711.069" viewBox="0 0 954.301 711.069">
  <g id="Error-Logo" transform="translate(0 -55)">
    <g id="freepik--background-complete--inject-3" transform="translate(0 55)">
      <rect id="Rectangle_1" data-name="Rectangle 1" width="954.301" height="0.477" transform="translate(0 624.876)" fill="#ebebeb"/>
      <rect id="Rectangle_2" data-name="Rectangle 2" width="41.378" height="0.477" transform="translate(817.302 655.586)" fill="#ebebeb"/>
      <rect id="Rectangle_3" data-name="Rectangle 3" width="65.102" height="0.477" transform="translate(592.735 645.699)" fill="#ebebeb"/>
      <rect id="Rectangle_4" data-name="Rectangle 4" width="84.99" height="0.477" transform="translate(756.932 637.874)" fill="#ebebeb"/>
      <rect id="Rectangle_5" data-name="Rectangle 5" width="21.262" height="0.477" transform="translate(308.964 647.493)" fill="#ebebeb"/>
      <rect id="Rectangle_6" data-name="Rectangle 6" width="73.271" height="0.477" transform="translate(218.688 647.493)" fill="#ebebeb"/>
      <rect id="Rectangle_7" data-name="Rectangle 7" width="52.868" height="0.477" transform="translate(126.559 639.439)" fill="#ebebeb"/>
      <path id="Path_1" data-name="Path 1" d="M417.621,594.753H49.089a10.9,10.9,0,0,1-10.879-10.9V65.8A10.9,10.9,0,0,1,49.089,55H417.621a10.9,10.9,0,0,1,10.9,10.9V583.854A10.9,10.9,0,0,1,417.621,594.753ZM49.089,55.382A10.421,10.421,0,0,0,38.687,65.8V583.854a10.421,10.421,0,0,0,10.4,10.421H417.621a10.44,10.44,0,0,0,10.421-10.421V65.8a10.44,10.44,0,0,0-10.421-10.421Z" transform="translate(34.718 -55)" fill="#ebebeb"/>
      <path id="Path_2" data-name="Path 2" d="M633.949,594.753H265.4a10.917,10.917,0,0,1-10.9-10.9V65.8A10.917,10.917,0,0,1,265.4,55H633.949a10.9,10.9,0,0,1,10.86,10.8V583.854A10.9,10.9,0,0,1,633.949,594.753ZM265.4,55.382A10.44,10.44,0,0,0,254.977,65.8V583.854A10.44,10.44,0,0,0,265.4,594.275H633.949a10.44,10.44,0,0,0,10.421-10.421V65.8a10.44,10.44,0,0,0-10.421-10.421Z" transform="translate(231.239 -55)" fill="#ebebeb"/>
      <path id="Path_3" data-name="Path 3" d="M374.639,288.978,375.5,263.9l-15.383-5.039a151.173,151.173,0,0,0-4.123-25.193l13.055-9.543-8.856-23.552-16.147,1.3a149.2,149.2,0,0,0-13.36-21.663l8.36-13.952-17.177-18.342L307.437,155.3a156.089,156.089,0,0,0-20.727-14.963l2.329-16.032-22.9-10.383-10.5,12.291a153.948,153.948,0,0,0-24.812-5.726l-3.817-15.708-25.155-.859-4.962,15.4a153.6,153.6,0,0,0-25.174,4.1l-9.7-12.978-23.552,8.8,1.3,16.147A152.939,152.939,0,0,0,118.1,148.887l-14.047-8.551L85.639,157.514l7.386,14.505a148.121,148.121,0,0,0-14.887,20.689l-16.013-2.4-10.459,22.9,12.368,10.478A149.894,149.894,0,0,0,58.308,248.5l-15.9,3.989-.859,25.079L57.01,282.6a147.727,147.727,0,0,0,4.1,25.175l-13.055,9.543,8.875,23.571,16.147-1.3a146.964,146.964,0,0,0,13.36,21.663l-8.379,13.952L95.239,393.55l14.429-7.386a154.1,154.1,0,0,0,20.689,14.944l-2.4,16.013,22.9,10.4,10.555-12.291a155.982,155.982,0,0,0,24.812,5.821l3.817,15.708,25.155.859,4.962-15.4a155.539,155.539,0,0,0,25.194-4.1l9.543,12.978,23.552-8.8-1.222-16.147a159.242,159.242,0,0,0,21.663-13.494l13.876,8.36,18.418-17.177-7.386-14.505a147.692,147.692,0,0,0,14.887-20.689l16.013,2.4,10.459-22.9-12.368-10.5a147.463,147.463,0,0,0,5.821-24.812ZM205.174,370.227a99.553,99.553,0,1,1,102.855-96.06,99.553,99.553,0,0,1-102.855,96.06Z" transform="translate(37.752 -10.551)" fill="#ebebeb"/>
      <path id="Path_4" data-name="Path 4" d="M485.558,206.194l6.317-5.9-2.5-4.981a52.672,52.672,0,0,0,5.134-7.138l5.535.821,3.569-7.9-4.237-3.607a51.223,51.223,0,0,0,2-8.57l5.439-1.355.267-8.665-5.306-1.718a54.068,54.068,0,0,0-1.412-8.7l4.485-3.34-3.054-8.112-5.554.439a53.936,53.936,0,0,0-4.638-7.482l2.882-4.771-5.936-6.337-4.962,2.538a53.889,53.889,0,0,0-7.138-5.134l.8-5.535-7.883-3.607-3.626,4.256a53.117,53.117,0,0,0-8.57-1.909l-1.355-5.42-8.665-.324-1.737,5.344a51.534,51.534,0,0,0-8.665,1.412l-3.321-4.485-8.131,3.035.458,5.573a50.728,50.728,0,0,0-7.482,4.638l-4.81-2.882-6.337,5.9,2.462,4.867a50.758,50.758,0,0,0-5.153,7.138l-5.516-.821-3.588,7.9,4.256,3.626a50.575,50.575,0,0,0-1.909,8.55l-5.459,1.355-.267,8.665,5.325,1.718a51.984,51.984,0,0,0,1.393,8.7l-4.5,3.321,3.054,8.112,5.573-.42a53.913,53.913,0,0,0,4.638,7.482l-2.882,4.772,5.936,6.337,4.962-2.538a52.193,52.193,0,0,0,7.138,5.134l-.821,5.516,7.9,3.607,3.626-4.237a55.239,55.239,0,0,0,8.57,1.909l1.355,5.42,8.665.324,1.737-5.344a51.261,51.261,0,0,0,8.665-1.412l3.321,4.485,8.131-3.035-.439-5.573a50.939,50.939,0,0,0,7.463-4.638Zm-45.081-36.512a11.293,11.293,0,1,1-.076,0Z" transform="translate(356.135 -10.715)" fill="#ebebeb"/>
      <path id="Path_5" data-name="Path 5" d="M442.816,345.857,423.081,332.21h0a107.359,107.359,0,0,0-7.94-20.556l5.058-19.849L391.57,261.153l-20.155,3.684a107.452,107.452,0,0,0-19.983-9.333h0l-12.253-20.632-41.989-1.431-13.627,19.735h0a107.9,107.9,0,0,0-20.537,7.921l-19.849-5.058-30.652,28.629,3.684,20.117h0a107.322,107.322,0,0,0-9.314,20.021l-20.632,12.253-1.431,41.989,19.754,13.627a104.494,104.494,0,0,0,7.921,20.651h0L207.39,433l28.629,30.652,20.021-3.665a109.149,109.149,0,0,0,20.117,9.352h0l12.234,20.594,41.989,1.45,13.608-19.735a108.939,108.939,0,0,0,20.727-7.94h0l19.735,5.039,30.671-28.629-3.684-20.117a105.744,105.744,0,0,0,9.314-20.04h0l20.632-12.253ZM312.172,409.585a48.869,48.869,0,1,0-.019,0Z" transform="translate(167.937 107.131)" fill="#ebebeb"/>
      <path id="Path_6" data-name="Path 6" d="M400.075,330.768h-.134l-33.057-1.126a3.97,3.97,0,0,1-3.321-1.909l-8.913-14.983a91.315,91.315,0,0,1-13.895-6.451L326.5,308.762a4.008,4.008,0,0,1-3.665-1.222l-22.579-24.163a4.008,4.008,0,0,1-.954-3.817l3.607-14.143a86.734,86.734,0,0,1-5.459-14.257l-14.372-9.925a4.008,4.008,0,0,1-1.737-3.455l1.126-33.057a4.084,4.084,0,0,1,1.909-3.321L299.4,192.49a86.5,86.5,0,0,1,6.432-13.837l-2.634-14.372a4.027,4.027,0,0,1,1.222-3.684l24.163-22.56a4.027,4.027,0,0,1,3.817-.973l14.2,3.626a87.472,87.472,0,0,1,14.219-5.478l9.925-14.372a3.817,3.817,0,0,1,3.455-1.737l33.038,1.145a4.027,4.027,0,0,1,3.34,1.909l8.913,15a88.575,88.575,0,0,1,13.78,6.451l14.429-2.653a3.989,3.989,0,0,1,3.665,1.221l22.579,24.163a4.046,4.046,0,0,1,.954,3.817l-3.626,14.181a88.911,88.911,0,0,1,5.5,14.219l14.353,9.925a4.008,4.008,0,0,1,1.737,3.455l-1.126,33.038a4.123,4.123,0,0,1-1.909,3.34L474.8,257.229a88.75,88.75,0,0,1-6.432,13.818L471,285.438a3.989,3.989,0,0,1-1.222,3.664l-24.316,22.579a4.008,4.008,0,0,1-3.817.954l-14.124-3.607a90.626,90.626,0,0,1-14.3,5.478L403.4,328.859A4.065,4.065,0,0,1,400.075,330.768Zm-30.709-9.1,28.629.973,9.543-13.723a3.817,3.817,0,0,1,2.271-1.6,83.674,83.674,0,0,0,15.555-5.974h0a4.123,4.123,0,0,1,2.787-.286l13.36,3.416L462.506,284.9l-2.4-13.8a3.989,3.989,0,0,1,.5-2.806,79.36,79.36,0,0,0,6.966-14.944,4.065,4.065,0,0,1,1.794-2.252l14.372-8.512.973-28.629-13.742-9.543a4.026,4.026,0,0,1-1.546-2.042c0-.1,0-.21,0-.324a82.074,82.074,0,0,0-5.955-15.269,4.027,4.027,0,0,1-.305-2.825l3.435-13.513-19.563-20.995L433.3,151.97a4.065,4.065,0,0,1-2.786-.5,80.737,80.737,0,0,0-14.964-7,4.347,4.347,0,0,1-.859-.382,4.008,4.008,0,0,1-1.336-1.374l-8.608-14.41-28.629-.992-9.543,13.761a4.122,4.122,0,0,1-2.367,1.622,81.366,81.366,0,0,0-15.383,5.936,3.97,3.97,0,0,1-2.806.305L332.511,145.5l-20.995,19.563,2.519,13.685a4.161,4.161,0,0,1-.363,2.538l-.191.324a79.317,79.317,0,0,0-6.966,15,4.047,4.047,0,0,1-1.756,2.138l-14.372,8.531-.973,28.629,13.761,9.543a4.007,4.007,0,0,1,1.6,2.252,79.253,79.253,0,0,0,5.936,15.5,4.85,4.85,0,0,1,.324.878,4.274,4.274,0,0,1,0,1.909L307.6,279.35l19.563,20.995,13.627-2.5a4.008,4.008,0,0,1,2.768.5,82.567,82.567,0,0,0,15.059,7,3.817,3.817,0,0,1,2.233,1.775Zm47.3-180.955Zm-29.6,144.748H384.94a60.178,60.178,0,1,1,2.118,0Zm0-112.779a52.582,52.582,0,1,0,1.813,0Z" transform="translate(255.625 3.237)" fill="#ebebeb"/>
      <path id="Path_7" data-name="Path 7" d="M391.708,116.132,378,112.468l-3.665-13.7L379.7,93.42l5.649,11.7,11.719,5.669Z" transform="translate(340.126 -20.092)" fill="#e0e0e0"/>
      <path id="Path_8" data-name="Path 8" d="M388.178,109.688a6.384,6.384,0,0,0-9.028-9.028l6.814-10.23,9.123,4.619,2,9.543Z" transform="translate(344.496 -22.808)" fill="#e0e0e0"/>
      <path id="Path_9" data-name="Path 9" d="M376.58,98.779,386.619,88.74l13.666,3.645,3.684,13.685-10.039,10.039-13.685-3.684Zm18.227,8.207a4.523,4.523,0,1,1,0-.038Z" transform="translate(342.161 -24.344)" fill="#f0f0f0"/>
      <path id="Path_10" data-name="Path 10" d="M91.592,302.516l7.348-1.985,1.966-7.348-2.863-2.863L95.008,296.6l-6.3,3.035Z" transform="translate(80.602 158.812)" fill="#e0e0e0"/>
      <path id="Path_11" data-name="Path 11" d="M92.326,299.046a3.435,3.435,0,0,1,4.848-4.848l-3.645-5.478-5.02,2.443-1.069,5.153Z" transform="translate(79.448 157.358)" fill="#e0e0e0"/>
      <path id="Path_12" data-name="Path 12" d="M100.869,293.182,95.487,287.8l-7.348,1.909-1.909,7.348,5.287,5.44,7.348-1.909ZM91.1,297.591a3.435,3.435,0,1,1,4.693-.155,3.436,3.436,0,0,1-4.693.155Z" transform="translate(78.349 156.522)" fill="#f0f0f0"/>
      <path id="Path_13" data-name="Path 13" d="M76.909,88.931l6.108,6.108a4.084,4.084,0,0,0,5.726,0h0a4.1,4.1,0,0,0,0-5.726l-6.088-6.088a4.1,4.1,0,0,0-5.726,0h0A4.084,4.084,0,0,0,76.909,88.931Z" transform="translate(68.832 -30.413)" fill="#f0f0f0"/>
      <path id="Path_14" data-name="Path 14" d="M77.034,77.859A8.493,8.493,0,1,1,71.309,88.89a8.761,8.761,0,0,1,5.726-11.032Z" transform="translate(64.412 -34.514)" fill="#e0e0e0"/>
      <rect id="Rectangle_8" data-name="Rectangle 8" width="2.615" height="19.277" transform="translate(135.689 55.815) rotate(-109.76)" fill="#f0f0f0"/>
    </g>
    <g id="freepik--Shadow--inject-3" transform="translate(107.092 722.858)">
      <ellipse id="freepik--path--inject-3" cx="370.059" cy="21.605" rx="370.059" ry="21.605" transform="translate(0 0)" fill="#f5f5f5"/>
    </g>
    <g id="freepik--oops--inject-3" transform="translate(164.521 113.346)">
      <path id="Path_15" data-name="Path 15" d="M87.192,136.7c-1.909-8.417-1.069-15.479,2.558-21.243s9.543-9.543,17.96-11.452,15.689-1.145,21.376,2.4,9.543,9.543,11.452,17.75a32.733,32.733,0,0,1,.324,15.5,22.216,22.216,0,0,1-6.737,10.994,29.64,29.64,0,0,1-13.589,6.451,33.687,33.687,0,0,1-15.04.515,22.369,22.369,0,0,1-11.261-6.68A29.907,29.907,0,0,1,87.192,136.7Zm15.918-3.55q1.775,7.787,5.439,10.535a11.242,11.242,0,0,0,15.841-3.512c1.374-2.653,1.393-6.871.1-12.616q-1.66-7.272-5.363-9.963a10.23,10.23,0,0,0-8.7-1.546,9.925,9.925,0,0,0-6.966,5.153C102.041,124.006,101.908,127.824,103.11,133.149Z" transform="translate(-86.2 -69.745)" fill="#263238"/>
      <path id="Path_16" data-name="Path 16" d="M118.884,129.386A19.086,19.086,0,0,1,121.46,114a22.064,22.064,0,0,1,14.3-9.066q11.2-2.538,18.4,2.653a20.8,20.8,0,0,1,5.039,27.236q-4.466,6.814-14.544,9.085a22.579,22.579,0,0,1-15.574-1.26A18.8,18.8,0,0,1,118.884,129.386Zm14.334-3.3a11.6,11.6,0,0,0,3.684,6.928,6.833,6.833,0,0,0,10.173-2.271,12.081,12.081,0,0,0,.267-8.016,11.451,11.451,0,0,0-3.645-6.756,6.356,6.356,0,0,0-5.5-1.241,6.661,6.661,0,0,0-4.619,3.569,11.451,11.451,0,0,0-.363,7.787Z" transform="translate(-57.064 -68.731)" fill="#263238"/>
      <path id="Path_17" data-name="Path 17" d="M154.15,156.485l-11.7-51.532,13.36-3.054,1.26,5.516a18.132,18.132,0,0,1,4.027-5.859,14.982,14.982,0,0,1,6.546-3.226,13.761,13.761,0,0,1,12.864,3.092,24.449,24.449,0,0,1,7.31,13.227c1.412,6.2.992,11.28-1.222,15.269a15.021,15.021,0,0,1-10.173,7.463,16.357,16.357,0,0,1-6.279.248,14.811,14.811,0,0,1-5.611-2.233l4.046,17.807Zm6.89-36a10.1,10.1,0,0,0,3.359,6.146,6.089,6.089,0,0,0,5.191,1.069,5.382,5.382,0,0,0,3.817-3,11.452,11.452,0,0,0,0-7.367,10.707,10.707,0,0,0-3.264-6.26,5.554,5.554,0,0,0-4.772-1.145,5.955,5.955,0,0,0-4.084,3.187,10.917,10.917,0,0,0-.248,7.367Z" transform="translate(-35.091 -74.415)" fill="#263238"/>
      <path id="Path_18" data-name="Path 18" d="M170.551,126.187l13.895-4.562a7.158,7.158,0,0,0,3.283,3.054,8.951,8.951,0,0,0,8.646-2.1,2.844,2.844,0,0,0,.706-2.558,2.653,2.653,0,0,0-2.157-2.042,29.736,29.736,0,0,0-6.489,0,64.187,64.187,0,0,1-10.879,0,11.222,11.222,0,0,1-5.726-2.615,10.516,10.516,0,0,1-2.653-12.387,12.883,12.883,0,0,1,4.981-5.325,32.026,32.026,0,0,1,9.791-3.607,35.27,35.27,0,0,1,10.077-1.222,13.188,13.188,0,0,1,6.031,1.909,16.911,16.911,0,0,1,4.848,5l-13.36,4.409a4.791,4.791,0,0,0-2.348-2.233,7.348,7.348,0,0,0-4.333-.191,5.879,5.879,0,0,0-3.34,1.66,2.577,2.577,0,0,0-.63,2.329,2.29,2.29,0,0,0,1.909,1.756,23.589,23.589,0,0,0,6.413-.134,42.79,42.79,0,0,1,11.108-.153,12,12,0,0,1,6.26,2.882,10.421,10.421,0,0,1,3.168,5.439,11.8,11.8,0,0,1-.515,6.737,13.513,13.513,0,0,1-5.039,6.241,30.079,30.079,0,0,1-11.032,4.409q-10.211,2.329-15.269.4a13.494,13.494,0,0,1-7.348-7.1Z" transform="translate(-11.699 -78.987)" fill="#263238"/>
      <path id="Path_19" data-name="Path 19" d="M193.85,85.57h15.67V97.594l-2.882,24.182h-9.7L193.85,97.632Zm.763,39.852h14.62v12.94h-14.62Z" transform="translate(11.611 -85.57)" fill="#263238"/>
    </g>
    <g id="freepik--error-404--inject-3" transform="translate(135.797 139.669)">
      <path id="Path_20" data-name="Path 20" d="M155.084,194.184h-.344c-8.589-3.34-13.723-6.585-16.395-10.5a9.81,9.81,0,0,1-6.165-.84,12.406,12.406,0,0,1-5.325-5,4.848,4.848,0,0,1-4.619.706,11.719,11.719,0,0,1-5.726-4.6,4.257,4.257,0,0,1-2.977.821c-5.726-.458-13.36-11.757-13.914-23.781a.992.992,0,0,1,.916-1.012.954.954,0,0,1,.992.916c.534,11.452,7.844,21.624,12.177,21.968a2.4,2.4,0,0,0,1.775-.515,23.438,23.438,0,0,1-1.909-17.979c1.641-5.726,3.092-7.978,4.848-7.634,3.283.821,2.844,13.36,1.107,21.548a11.718,11.718,0,0,1-1.6,4.161,10.306,10.306,0,0,0,4.848,4.218,3.016,3.016,0,0,0,3.187-.668c-1.489-3.684-1.909-8.722.229-15.135,2.672-8.455,3.817-8.684,4.409-8.837a1.26,1.26,0,0,1,1.221.42c1.775,2-.344,15.135-2.558,21.624a9.543,9.543,0,0,1-1.069,2.214,10.611,10.611,0,0,0,4.752,4.771,8.417,8.417,0,0,0,4.352.821c-.172-.363-.324-.725-.477-1.107-1.508-4.1-.763-8.818,2.271-14.467,2-3.722,3.645-5.478,5.172-5.478h0a2.119,2.119,0,0,1,1.909,1.26c1.661,3.073.458,13.208-2.825,18.246A7.634,7.634,0,0,1,140.254,183c2.558,3.359,7.424,6.317,15.269,9.333a.935.935,0,0,1,.554,1.222.974.974,0,0,1-.993.63Zm-10.841-31.435s-1.088,0-3.493,4.485c-2.767,5.115-3.474,9.333-2.157,12.883a9.659,9.659,0,0,0,.573,1.279,5.5,5.5,0,0,0,2.519-2.1c2.672-4.084,3.951-12.482,2.958-15.765C144.51,162.864,144.243,162.749,144.243,162.749Zm-13.7-8.035a44.526,44.526,0,0,0-2.557,6.737,21.72,21.72,0,0,0-.725,12.5l.172-.5a62.583,62.583,0,0,0,3.168-18.742ZM117.981,148.7c-.324.286-1.26,1.489-2.577,6.146a21.453,21.453,0,0,0,1.374,15.727,11.8,11.8,0,0,0,.859-2.672c2.042-9.371,1.47-17.845.4-19.2Z" transform="translate(-45.282 -56.348)" fill="#263238"/>
      <path id="Path_21" data-name="Path 21" d="M171.068,235.66a17.176,17.176,0,0,1-8.7-2.271.973.973,0,0,1-.344-1.317.935.935,0,0,1,1.3-.324c6.814,3.989,15.612,1.2,17.426-1.718a1.68,1.68,0,0,0,.286-1.279,15.5,15.5,0,0,1-9.791-2.787c-4.867-3.035-5.249-3.951-5.21-4.676a1.164,1.164,0,0,1,.649-.992c1.909-.954,10.516,3,14.1,5.363a6.93,6.93,0,0,1,1.183.992,6.775,6.775,0,0,0,3.626-2.176,5.478,5.478,0,0,0,1.126-2.157h-.382c-3.054.305-6.108-1.012-9.371-4.027-2.252-2.061-3.111-3.493-2.825-4.619a1.718,1.718,0,0,1,1.374-1.241c2.634-.668,9.161,2.118,11.814,5.039a5.114,5.114,0,0,1,1.222,2.252c2.5-1.164,5.134-3.817,8.245-8.15a.954.954,0,0,1,1.336-.229.973.973,0,0,1,.229,1.336c-3.607,5.039-6.623,7.9-9.638,9.066a7.042,7.042,0,0,1-1.661,3.817,8.78,8.78,0,0,1-4.161,2.691,3.512,3.512,0,0,1-.534,2.653C180.764,233.637,176.145,235.66,171.068,235.66Zm-1.7-13.246c.649.477,1.565,1.107,2.882,1.909a15.269,15.269,0,0,0,6.871,2.519A47.086,47.086,0,0,0,169.369,222.414Zm6.661-8.112a8.264,8.264,0,0,0,2.233,2.653c2.825,2.615,5.4,3.817,7.883,3.512h.611a3.454,3.454,0,0,0-.84-1.584C183.245,215.868,177.366,214,176.03,214.3Z" transform="translate(11.299 2.225)" fill="#263238"/>
      <path id="Path_22" data-name="Path 22" d="M278.787,290.221l-29.736,5.4L222.044,148.24l-57.373,10.421L71.15,324.709l10.039,54.8,119.956-21.777,8.207,44.814,57.373-10.459-8.207-44.814,29.736-5.4ZM128.294,317.648l49.624-86.975,13.837,75.466Z" transform="translate(-71.15 -54.951)" fill="#e6aa68"/>
      <path id="Path_23" data-name="Path 23" d="M403.931,182.65a112.3,112.3,0,0,0-6.107-27.14,88.386,88.386,0,0,0-13.36-23.266,77.049,77.049,0,0,0-24.239-19.773q-15.269-8.379-40.5-11.662-52.391-6.833-81.65,18.59T199.52,216.737a265.928,265.928,0,0,0-1.909,54.09q1.909,24.812,9.123,39.947A83.482,83.482,0,0,0,234.7,344.709q18.074,12.692,49.624,16.777,56.075,7.31,83.158-21.548t35.882-97.53A247.122,247.122,0,0,0,403.931,182.65Z" transform="translate(43.216 -99.362)" fill="#e6aa68"/>
      <path id="Path_24" data-name="Path 24" d="M291.509,331.874c-4.6-.153-9.543-.573-14.524-1.221-17.483-2.271-31-6.7-40.2-13.15a62.335,62.335,0,0,1-20.995-25.575l-.1-.21c-3.665-7.634-6.069-18.609-7.119-32.446a244.684,244.684,0,0,1,1.756-49.815c6.814-52.906,20.88-74.989,31.473-84.188,12.368-10.726,29.068-15.574,51.017-14.811,4.5.153,9.276.554,14.181,1.183,14.086,1.909,25.251,4.962,33.152,9.276a56.858,56.858,0,0,1,17.769,14.3A67.277,67.277,0,0,1,368.139,152.9a91.192,91.192,0,0,1,4.886,22.044,226.494,226.494,0,0,1-.553,54.815c-5.287,41.111-15.517,70.007-30.385,85.887-11.032,11.757-27.579,17.177-50.6,16.3Z" transform="translate(53.223 -89.351)" fill="#263238"/>
      <path id="Path_25" data-name="Path 25" d="M317,168.7l.248-7.234-4.447-1.451a43.554,43.554,0,0,0-1.183-7.253l3.817-2.787-2.558-6.795-4.657.382a43.557,43.557,0,0,0-3.817-6.241l2.4-4.027-4.962-5.287-4.161,2.138a44.216,44.216,0,0,0-5.955-4.313l.668-4.619-6.6-3-3.016,3.55a44.393,44.393,0,0,0-7.157-1.68l-1.126-4.523-7.253-.248-1.431,4.428a44.925,44.925,0,0,0-7.253,1.183l-2.806-3.817-6.795,2.538.382,4.657a43.785,43.785,0,0,0-6.241,3.817l-4.008-2.424-5.306,4.943,2.138,4.18a41.57,41.57,0,0,0-4.294,5.974l-4.619-.706-3.016,6.6,3.569,3.016a40.9,40.9,0,0,0-1.68,7.176l-4.542,1.145-.248,7.214,4.447,1.451a43.133,43.133,0,0,0,1.183,7.272l-3.817,2.767,2.557,6.795,4.657-.382a41.05,41.05,0,0,0,3.817,6.241l-2.424,4.027,4.962,5.287,4.161-2.119a44.1,44.1,0,0,0,5.955,4.294L245.9,205.5l6.6,3,3.035-3.531a44.122,44.122,0,0,0,7.176,1.66l1.126,4.542,7.234.248,1.431-4.447a43.134,43.134,0,0,0,7.272-1.183l2.767,3.817,6.795-2.538-.363-4.638a47.5,47.5,0,0,0,6.241-3.817l4.008,2.4,5.306-4.943-2.119-4.18a41.261,41.261,0,0,0,4.275-5.955l4.619.687,3.016-6.6-3.55-3.016a42.426,42.426,0,0,0,1.66-7.157Zm-48.86,23.419a28.629,28.629,0,1,1,20.584-7.685,28.629,28.629,0,0,1-20.584,7.685Z" transform="translate(65.086 -84.862)" fill="#e6aa68"/>
      <path id="Path_26" data-name="Path 26" d="M317.885,231.251l.534-4.886-2.939-1.183a30.534,30.534,0,0,0-.42-4.962l2.653-1.7-1.355-4.714H313.19a28.273,28.273,0,0,0-2.271-4.409l1.794-2.6-3.054-3.817-2.92,1.221A30.67,30.67,0,0,0,302.922,201l.706-3.092-4.294-2.367-2.252,2.271a30.286,30.286,0,0,0-4.733-1.508l-.534-3.111-4.867-.553-1.2,2.939a28.338,28.338,0,0,0-4.943.458l-1.7-2.71-4.714,1.393v3.168a28.443,28.443,0,0,0-4.409,2.29l-2.6-1.909-3.817,3.054,1.222,2.92a30.781,30.781,0,0,0-3.187,3.817l-3.092-.687-2.347,4.294,2.252,2.233a28.632,28.632,0,0,0-1.508,4.752l-3.13.515-.515,4.867,2.92,1.222a28.114,28.114,0,0,0,.439,4.924l-2.691,1.7L255.3,236.6h3.187a29.054,29.054,0,0,0,2.29,4.39l-1.909,2.6,3.054,3.817,2.958-1.241a27.771,27.771,0,0,0,3.817,3.187l-.668,3.149,4.294,2.348,2.233-2.233a30.762,30.762,0,0,0,4.733,1.47l.554,3.13,4.867.534,1.183-2.92a30.955,30.955,0,0,0,5.039-.42l1.7,2.691,4.7-1.374v-3.168a31.391,31.391,0,0,0,4.428-2.29l2.558,1.909,3.817-3.073-1.241-2.92a31.08,31.08,0,0,0,3.226-3.817l3.073.687,2.367-4.294-2.252-2.214a31.44,31.44,0,0,0,1.47-4.733Zm-24.564-1.909a8.512,8.512,0,1,1-3.378-11.547,8.512,8.512,0,0,1,3.378,11.547Z" transform="translate(94.315 -14.609)" fill="#e6aa68" opacity="0.3"/>
      <path id="Path_27" data-name="Path 27" d="M336.644,185.069l-5.726-3.932h0a31.661,31.661,0,0,0-2.29-5.917l1.45-5.726-8.245-8.837-5.726,1.069a32.448,32.448,0,0,0-5.726-2.691h0l-3.531-5.955-12.081-.4-3.932,5.726h0a30.39,30.39,0,0,0-5.917,2.29l-5.726-1.47-8.837,8.264,1.069,5.726h0a29.923,29.923,0,0,0-2.691,5.726l-5.936,3.531-.42,12.081,5.726,3.932a30.75,30.75,0,0,0,2.29,5.955h0l-1.451,5.726L277.191,219l5.726-1.05a32.748,32.748,0,0,0,5.726,2.691h0l3.512,5.936,12.1.42,3.913-5.726a31.707,31.707,0,0,0,5.974-2.29h0l5.726,1.451,8.837-8.245-1.05-5.726a31.875,31.875,0,0,0,2.691-5.726h0l5.936-3.531ZM298.987,203.43a13.589,13.589,0,1,1,14.047-13.112,13.589,13.589,0,0,1-14.047,13.112Z" transform="translate(102.602 -50.916)" fill="#fff"/>
      <path id="Path_28" data-name="Path 28" d="M331.913,132.077l.992-2.386h0a12.786,12.786,0,0,0,1.909-1.317h2.214l2.6-3.817-.84-2.042a11.8,11.8,0,0,0,.763-2.119h0l1.909-1.756-.8-4.485-2.4-.992h0a12.117,12.117,0,0,0-1.317-1.909V109.04l-3.722-2.6-2.061.859h0a10.6,10.6,0,0,0-2.328-.534l-1.756-1.909-4.466.8-1.012,2.4a12.411,12.411,0,0,0-2,1.3h-2.195l-2.6,3.817.84,2.042a11.8,11.8,0,0,0-.534,2.328h0l-1.909,1.775.8,4.466,2.4.992a10.94,10.94,0,0,0,1.3,1.909h0v2.195l3.817,2.6,2.042-.84a12.27,12.27,0,0,0,2.348.515h0l1.756,1.909Zm-9.543-12.368a5.115,5.115,0,1,1,5.936,4.123,5.115,5.115,0,0,1-5.936-4.123Z" transform="translate(148.768 -94.366)" fill="#e6aa68"/>
      <path id="Path_29" data-name="Path 29" d="M296.31,117.624l-1.47-1.241a37.981,37.981,0,0,1,11.452-9.543l.9,1.68A36.014,36.014,0,0,0,296.31,117.624Z" transform="translate(132.095 -92.567)" fill="#e6aa68"/>
      <path id="Path_30" data-name="Path 30" d="M303.944,109.437l-.744-1.756a45.654,45.654,0,0,1,22.407-3.588L325.416,106a43.5,43.5,0,0,0-21.472,3.436Z" transform="translate(139.691 -95.24)" fill="#e6aa68"/>
      <path id="Path_31" data-name="Path 31" d="M302.445,120.035l-1.565-1.069a31.95,31.95,0,0,1,18.838-12.2l.363,1.909a30,30,0,0,0-17.635,11.356Z" transform="translate(137.583 -92.63)" fill="#e6aa68"/>
      <path id="Path_32" data-name="Path 32" d="M254.63,247.19a.993.993,0,0,1-.687-.305l-3.989-4.123a33.382,33.382,0,0,1-6.012-1.107L237.7,244.4a.935.935,0,0,1-.9,0l-10.459-6.928a.935.935,0,0,1-.42-.821V229.86a32.83,32.83,0,0,1-3.359-5.115l-5.363-2.061a.954.954,0,0,1-.592-.706l-2.481-12.291a.954.954,0,0,1,.267-.878l4.123-3.989a35.842,35.842,0,0,1,1.107-6.012l-2.748-6.241a.936.936,0,0,1,0-.9l6.928-10.459a.9.9,0,0,1,.821-.42l6.795.1a31.527,31.527,0,0,1,5.115-3.359l2.08-5.363a.935.935,0,0,1,.687-.592L251.6,169.09a.935.935,0,0,1,.878.267l3.989,4.123a33.892,33.892,0,0,1,6.031,1.107l6.222-2.748a.973.973,0,0,1,.916,0l10.44,6.928a1.031,1.031,0,0,1,.439.821l-.114,6.795a32.944,32.944,0,0,1,3.378,5.115l5.344,2.08a.935.935,0,0,1,.592.687l2.5,12.291a.993.993,0,0,1-.267.878l-4.142,4.008a34.353,34.353,0,0,1-1.107,5.993l2.748,6.241a.974.974,0,0,1,0,.916l-6.833,10.364a.974.974,0,0,1-.8.42l-6.814-.1a35.081,35.081,0,0,1-5.1,3.359L267.819,244a.935.935,0,0,1-.706.592l-12.291,2.6Zm-10.745-7.634a.686.686,0,0,1,.267,0,31.8,31.8,0,0,0,6.317,1.164,1.069,1.069,0,0,1,.611.286l3.817,4.008,11.261-2.271,2.023-5.23a1.051,1.051,0,0,1,.458-.5A30.628,30.628,0,0,0,274,233.487a.9.9,0,0,1,.63-.21l6.623.1,6.337-9.543-2.672-6.069a.954.954,0,0,1,0-.649,33.381,33.381,0,0,0,1.164-6.318.973.973,0,0,1,.286-.611l4.008-3.817L288.107,195.1l-5.211-2.023a.935.935,0,0,1-.515-.458,31.355,31.355,0,0,0-3.531-5.363.993.993,0,0,1-.21-.611v-6.642l-9.543-6.337-6.05,2.672a.993.993,0,0,1-.668,0,32.449,32.449,0,0,0-6.337-1.164,1.068,1.068,0,0,1-.611-.286l-3.817-4.008-11.261,2.29-2,5.306a.974.974,0,0,1-.439.515,30.417,30.417,0,0,0-5.382,3.531.821.821,0,0,1-.611.21l-6.623-.1-6.356,9.543,2.672,6.069a.954.954,0,0,1,0,.821,32.7,32.7,0,0,0-1.107,6.165.954.954,0,0,1-.286.611l-4.008,3.817,2.29,11.261,5.191,2.023a1.05,1.05,0,0,1,.534.5,30.955,30.955,0,0,0,3.512,5.325.916.916,0,0,1,.21.611v6.642l9.543,6.337,6.069-2.672a.993.993,0,0,1,.325-.134Zm9.371-6.184A25.423,25.423,0,0,1,232.09,193.9h0a25.442,25.442,0,1,1,21.166,39.47Zm-19.563-38.42a23.419,23.419,0,1,0,14.923-10.094,23.514,23.514,0,0,0-14.923,10.094Z" transform="translate(58.743 -36.026)" fill="#fff"/>
      <path id="Path_33" data-name="Path 33" d="M528.42,307.982l-29.965-4.046,19.811-148.508-57.793-7.787L320.287,276.7l-7.367,55.216,120.8,16.3-6.031,45.177,57.792,7.787,6.031-45.158,29.965,4.046Zm-151.581-20.46,73.977-67.431-10.154,76.039Z" transform="translate(148.523 -55.496)" fill="#e6aa68"/>
      <path id="Path_34" data-name="Path 34" d="M394.619,396.883h-.248a.954.954,0,0,1-.763-1.107l44.661-244.187a.973.973,0,0,1,1.107-.763.954.954,0,0,1,.763,1.107L395.573,396.1A.974.974,0,0,1,394.619,396.883Z" transform="translate(221.821 -52.612)" fill="#263238"/>
      <path id="Path_35" data-name="Path 35" d="M416.321,154.143a1.566,1.566,0,1,1-1.508-1.622A1.566,1.566,0,0,1,416.321,154.143Z" transform="translate(239.628 -51.062)" fill="#263238"/>
      <path id="Path_36" data-name="Path 36" d="M412.99,171.443a1.565,1.565,0,1,1-.418-1.124A1.565,1.565,0,0,1,412.99,171.443Z" transform="translate(236.603 -35.343)" fill="#263238"/>
      <path id="Path_37" data-name="Path 37" d="M409.661,188.773a1.565,1.565,0,0,1-1.622,1.508,1.546,1.546,0,0,1-1.508-1.6,1.565,1.565,0,0,1,1.622-1.527A1.584,1.584,0,0,1,409.661,188.773Z" transform="translate(233.576 -19.597)" fill="#263238"/>
      <path id="Path_38" data-name="Path 38" d="M403.1,206.827a1.565,1.565,0,1,1-.724-1.5A1.565,1.565,0,0,1,403.1,206.827Z" transform="translate(227.621 -3.297)" fill="#263238"/>
      <path id="Path_39" data-name="Path 39" d="M402.99,223.342a1.546,1.546,0,0,1-1.622,1.508,1.565,1.565,0,1,1,1.622-1.508Z" transform="translate(227.517 11.814)" fill="#263238"/>
      <path id="Path_40" data-name="Path 40" d="M399.66,240.634a1.565,1.565,0,1,1-1.508-1.6A1.565,1.565,0,0,1,399.66,240.634Z" transform="translate(224.491 27.541)" fill="#263238"/>
      <path id="Path_41" data-name="Path 41" d="M396.331,257.938a1.584,1.584,0,0,1-1.622,1.527,1.571,1.571,0,1,1,1.622-1.527Z" transform="translate(221.465 43.255)" fill="#263238"/>
      <path id="Path_42" data-name="Path 42" d="M392.99,275.253a1.565,1.565,0,1,1-1.508-1.622,1.546,1.546,0,0,1,1.508,1.622Z" transform="translate(218.431 58.978)" fill="#263238"/>
      <path id="Path_43" data-name="Path 43" d="M401.238,207.842a.935.935,0,0,1-.916-.744.954.954,0,0,1,.725-1.145l4.733-1.012a.956.956,0,1,1,.4,1.87l-4.733,1.012Z" transform="translate(227.914 -3.453)" fill="#263238"/>
      <path id="Path_44" data-name="Path 44" d="M412.524,197.24A162.324,162.324,0,0,0,406.8,215.1c-1.431,6.737-1.508,21.815-1.508,21.815" transform="translate(232.45 -10.429)" fill="#263238"/>
      <path id="Path_45" data-name="Path 45" d="M405.744,238.36h0a.992.992,0,0,1-.954-.973c0-.611.115-15.269,1.546-21.987a160.74,160.74,0,0,1,5.726-18.017.954.954,0,1,1,1.775.687,161.039,161.039,0,0,0-5.726,17.731c-1.393,6.566-1.489,21.453-1.508,21.605A.954.954,0,0,1,405.744,238.36Z" transform="translate(231.996 -10.915)" fill="#263238"/>
    </g>
    <g id="freepik--Character--inject-3" transform="translate(217.409 420.73)">
      <path id="Path_46" data-name="Path 46" d="M222.45,357.737c2.653-42.753-2.214-120.49,78.157-110.184C386.742,258.566,362.1,359.3,362.1,359.3Z" transform="translate(-15.29 -246.622)" fill="#263238"/>
      <circle id="Ellipse_1" data-name="Ellipse 1" cx="35.08" cy="35.08" r="35.08" transform="translate(227.543 15.265)" fill="#fff"/>
      <path id="Path_47" data-name="Path 47" d="M271.13,254.845c-16.624-2.825-34.355,9.409-36.13,21.815l65.866,6.069C298.537,268.587,284.3,257.1,271.13,254.845Z" transform="translate(-3.887 -239.524)" fill="#263238"/>
      <path id="Path_48" data-name="Path 48" d="M275.45,280.722c-.477,9.18-5.478,16.376-11.165,16.071s-9.925-7.959-9.543-17.177,5.478-16.376,11.165-16.07S275.908,271.561,275.45,280.722Z" transform="translate(14.028 -231.255)" fill="#263238"/>
      <path id="Path_49" data-name="Path 49" d="M269.119,327.6a36.989,36.989,0,1,1,36.989-36.989A36.989,36.989,0,0,1,269.119,327.6Zm0-70.141a33.171,33.171,0,1,0,33.172,33.152,33.171,33.171,0,0,0-33.172-33.152Z" transform="translate(-6.495 -240.264)" fill="#e6aa68"/>
      <path id="Path_50" data-name="Path 50" d="M291.03,330.3H290.8a.935.935,0,0,1-.706-1.145c0-.248,6.146-26.129-.172-52.3a.981.981,0,0,1,1.909-.458c6.432,26.72.229,52.945.172,53.193A.954.954,0,0,1,291.03,330.3Z" transform="translate(45.991 -220.251)" fill="#fff" opacity="0.3"/>
      <path id="Path_51" data-name="Path 51" d="M292.526,276.725a.992.992,0,0,1-.878-.553,66.667,66.667,0,0,0-9.047-14.62.957.957,0,1,1,1.489-1.2,69.6,69.6,0,0,1,9.295,15.021.935.935,0,0,1-.458,1.26A1.028,1.028,0,0,1,292.526,276.725Z" transform="translate(39.17 -234.473)" fill="#fff" opacity="0.3"/>
      <path id="Path_52" data-name="Path 52" d="M133.484,445.131h-.706a9.547,9.547,0,1,1,.534-19.086h.172c5.516,0,18.781-6.7,46.532-50.444a9.543,9.543,0,0,1,14.334-2.08,395.961,395.961,0,0,0,70.886,48.631,9.543,9.543,0,1,1-8.627,17.005,406.053,406.053,0,0,1-66.419-44.165C166.922,430.014,149.669,445.131,133.484,445.131Z" transform="translate(-105.198 -133.46)" fill="#263238"/>
      <path id="Path_53" data-name="Path 53" d="M168.484,422.1h-.821a5.726,5.726,0,0,1-4.848-6.47c1.355-9.543-.324-45.1-12.368-72.775a5.726,5.726,0,0,1,2.023-7.024c26.148-17.807,81.841-19.945,84.207-20.021a5.729,5.729,0,0,1,.382,11.452c-.515,0-49.2,1.909-74.206,15.651,10.65,27.56,13.074,61.9,11.3,74.321a5.726,5.726,0,0,1-5.669,4.867Z" transform="translate(-81.147 -183.759)" fill="#263238"/>
      <path id="Path_54" data-name="Path 54" d="M185.924,370.666c-3.817-8.99-20.995-7.978-31.053-.267-5.382,4.1-12.673,16.49-13.36,20.995a6.756,6.756,0,0,0,7.634,8.092c6.585-.573,15.612-10.135,15.612-10.135-6.012,5.9,1.756,10.058,13.36,1.527C184.455,386.126,190.181,380.725,185.924,370.666Z" transform="translate(-88.968 -139.73)" fill="#e6aa68"/>
      <path id="Path_55" data-name="Path 55" d="M337.167,334.613a.611.611,0,0,1-.267,0,.935.935,0,0,1-.649-1.183c2.538-8.856,5.306-14.257,8.951-17.177a9.888,9.888,0,0,1,.305-6.222,12.31,12.31,0,0,1,4.5-5.726,4.848,4.848,0,0,1-1.126-4.542,11.8,11.8,0,0,1,4.085-6.031,4.275,4.275,0,0,1-1.088-2.882c0-5.726,10.516-14.353,22.445-15.994a.964.964,0,0,1,.267,1.909c-11.337,1.546-20.842,9.753-20.8,14.085a2.5,2.5,0,0,0,.687,1.737,23.362,23.362,0,0,1,17.712-3.569c5.859,1.126,8.245,2.367,7.978,4.142-.534,3.34-13,4.046-21.357,3.054a11.8,11.8,0,0,1-4.294-1.241,10.267,10.267,0,0,0-3.817,5.21,3,3,0,0,0,.935,3.13c3.55-1.909,8.532-2.6,15.116-1.145,8.646,1.909,8.97,2.958,9.18,3.588a1.278,1.278,0,0,1-.324,1.279c-1.813,1.909-15.078,1.012-21.739-.63a9.365,9.365,0,0,1-2.309-.859,10.4,10.4,0,0,0-4.314,5.172,8.073,8.073,0,0,0-.439,4.39,10.985,10.985,0,0,1,1.05-.553c3.951-1.909,8.722-1.565,14.62.954,3.817,1.66,5.726,3.149,5.917,4.657a2.138,2.138,0,0,1-1.088,1.909c-2.92,1.909-13.112,1.641-18.418-1.183a7.635,7.635,0,0,1-2.939-2.844c-3.111,2.863-5.63,7.959-7.921,15.956a.974.974,0,0,1-.859.611Zm10.345-17.807a5.726,5.726,0,0,0,2.329,2.329c4.313,2.29,12.788,2.806,15.956,1.527.649-.267.744-.477.744-.477s-.1-1.069-4.771-3.073c-5.344-2.29-9.543-2.615-13.036-.992a11.032,11.032,0,0,0-1.222.687Zm6.375-12.539.477.134a63.156,63.156,0,0,0,18.971,1.431,41.412,41.412,0,0,0-6.947-1.908A21.72,21.72,0,0,0,353.886,304.266Zm2.4-10.726a11.3,11.3,0,0,0,2.729.611c9.543,1.126,17.922-.191,19.086-1.393-.324-.286-1.6-1.107-6.337-2A21.472,21.472,0,0,0,356.291,293.54Z" transform="translate(88.07 -220.979)" fill="#263238"/>
      <path id="Path_56" data-name="Path 56" d="M257.459,409.926c1.26-.4.84-1.622-.573-1.622H231.044c-49.2-5.211-83.578,1.775-61.915,3.416s-1.527,1.3-17.349,7.291,117.665,7.5,129.785,0C292.711,412.1,240.014,415.519,257.459,409.926Z" transform="translate(-80.684 -101.443)" fill="#263238"/>
      <path id="Path_57" data-name="Path 57" d="M414.946,519.573,190.113,512.11l-9.333-218,265.506,5.936Z" transform="translate(-53.152 -203.475)" fill="#e6aa68"/>
      <path id="Path_58" data-name="Path 58" d="M231.482,515.194a.954.954,0,0,1-.954-.878L212.511,295.361a.973.973,0,0,1,.878-1.031.993.993,0,0,1,1.031.878l18.113,218.955a.954.954,0,0,1-.878,1.031Z" transform="translate(-24.323 -203.275)" fill="#263238"/>
      <path id="Path_59" data-name="Path 59" d="M303.47,516.747l60.426-9.2,19.029-202.713-48.116-7.615Z" transform="translate(58.325 -200.649)" fill="#e6aa68"/>
      <path id="Path_60" data-name="Path 60" d="M303.47,516.747l60.426-9.2,19.029-202.713-48.116-7.615Z" transform="translate(58.325 -200.649)" opacity="0.2"/>
      <path id="Path_61" data-name="Path 61" d="M198.375,459.611,192.84,330.074a23.418,23.418,0,0,1,23.915-24.411l168.071,3.817a23.418,23.418,0,0,1,22.655,26.72L388.854,466.634a23.419,23.419,0,0,1-23.915,20.136L221.049,482A23.418,23.418,0,0,1,198.375,459.611Z" transform="translate(-42.213 -192.983)" fill="#263238"/>
      <path id="Path_62" data-name="Path 62" d="M205.732,326.49l26,.821-.21,6.7-16.28-.515-.153,5,15.1.477-.21,6.413-15.1-.5-.191,6.2,16.738.534-.229,7.1-26.472-.84Z" transform="translate(-31.4 -174.054)" fill="#fff"/>
      <path id="Path_63" data-name="Path 63" d="M221.4,358.417l.992-31.4,16.185.515a23.324,23.324,0,0,1,6.852.992,7.272,7.272,0,0,1,3.817,2.977,8.856,8.856,0,0,1-3.13,12.578,11.755,11.755,0,0,1-3.455,1.145,9.775,9.775,0,0,1,2.5,1.222,10.522,10.522,0,0,1,1.489,1.718,12.271,12.271,0,0,1,1.3,1.909l4.409,9.257L241.4,358.97l-4.886-9.753a7.519,7.519,0,0,0-1.68-2.481,4.236,4.236,0,0,0-2.348-.8h-.859l-.4,12.73Zm10.345-18.361,4.084.134a16.477,16.477,0,0,0,2.577-.363,2.576,2.576,0,0,0,1.622-.935,3,3,0,0,0,.668-1.794,2.94,2.94,0,0,0-.9-2.367,5.917,5.917,0,0,0-3.588-.935l-4.275-.134Z" transform="translate(-16.244 -173.572)" fill="#fff"/>
      <path id="Path_64" data-name="Path 64" d="M239.28,358.946l.992-31.4,16.166.515a23.209,23.209,0,0,1,6.852.992,7.2,7.2,0,0,1,3.817,2.977A9.19,9.19,0,0,1,264,344.613a11.969,11.969,0,0,1-3.455,1.145,9.543,9.543,0,0,1,2.481,1.222,9.239,9.239,0,0,1,1.508,1.7,13.112,13.112,0,0,1,1.3,1.909l4.409,9.238-10.955-.343-4.886-9.753a7.634,7.634,0,0,0-1.68-2.481,3.97,3.97,0,0,0-2.367-.8h-.84l-.42,12.749Zm10.326-18.361,4.1.115a13.757,13.757,0,0,0,2.577-.344,2.5,2.5,0,0,0,1.6-.935,2.787,2.787,0,0,0,.668-1.794,2.9,2.9,0,0,0-.878-2.367,5.726,5.726,0,0,0-3.607-.935l-4.256-.134Z" transform="translate(0.001 -173.091)" fill="#fff"/>
      <path id="Path_65" data-name="Path 65" d="M256.347,343.913a14.868,14.868,0,0,1,16.719-15.746,16.414,16.414,0,0,1,11.948,4.6,15.88,15.88,0,0,1,3.817,11.929,19.487,19.487,0,0,1-2.138,8.97,13.362,13.362,0,0,1-5.535,5.306,17.6,17.6,0,0,1-8.8,1.68,20.193,20.193,0,0,1-8.741-1.909,13.36,13.36,0,0,1-5.459-5.535,17.578,17.578,0,0,1-1.813-9.295Zm9.7.344a10.612,10.612,0,0,0,1.546,6.89,6.718,6.718,0,0,0,9.658.363,11.7,11.7,0,0,0,1.909-7.253,9.867,9.867,0,0,0-1.584-6.546,6.145,6.145,0,0,0-4.657-2.118,5.916,5.916,0,0,0-4.791,1.909,10.612,10.612,0,0,0-2.08,6.756Z" transform="translate(15.457 -172.639)" fill="#fff"/>
      <path id="Path_66" data-name="Path 66" d="M275.91,360.166l.993-31.416,16.166.515a23.878,23.878,0,0,1,6.852.993,7.386,7.386,0,0,1,3.817,2.977,8.569,8.569,0,0,1,1.3,5.134,8.436,8.436,0,0,1-4.409,7.463,12.617,12.617,0,0,1-3.455,1.126,9.541,9.541,0,0,1,2.481,1.241,9.235,9.235,0,0,1,1.508,1.7,12.278,12.278,0,0,1,1.3,1.909l4.409,9.257-10.955-.344-4.886-9.772a7.461,7.461,0,0,0-1.68-2.462,4.122,4.122,0,0,0-2.367-.821h-.84l-.42,12.749Zm10.326-18.38,4.1.134a13.756,13.756,0,0,0,2.577-.344,2.576,2.576,0,0,0,1.6-.935,2.825,2.825,0,0,0,.668-1.909,2.863,2.863,0,0,0-.878-2.348,5.726,5.726,0,0,0-3.607-.935l-4.256-.134Z" transform="translate(33.284 -172.001)" fill="#fff"/>
      <path id="Path_67" data-name="Path 67" d="M356.692,387.7a2.519,2.519,0,0,1-1.909-.821L338.445,369,320.81,385.106a2.5,2.5,0,0,1-3.531-.153L300.941,367.07l-17.636,16.109a2.5,2.5,0,0,1-3.531-.153l-16.357-17.884L245.8,381.251a2.538,2.538,0,0,1-1.909.649,2.577,2.577,0,0,1-1.737-.821l-16.338-17.864L208.2,379.3a2.519,2.519,0,0,1-3.55-.153,2.481,2.481,0,0,1,.172-3.531l19.468-17.807a2.519,2.519,0,0,1,3.55.153l16.338,17.884L261.8,359.741a2.614,2.614,0,0,1,1.813-.649,2.539,2.539,0,0,1,1.737.821L281.683,377.8l17.635-16.109a2.481,2.481,0,0,1,3.531.153l16.338,17.884,17.635-16.109a2.5,2.5,0,0,1,3.531.153L358.6,383.579a2.519,2.519,0,0,1-1.909,4.2Z" transform="translate(-32.057 -146.192)" fill="#fff"/>
      <path id="Path_68" data-name="Path 68" d="M136.508,445.1l-11.948-5.707-10.65-51.857,5.783-6.356Z" transform="translate(-113.91 -124.363)" fill="#e6aa68"/>
      <path id="Path_69" data-name="Path 69" d="M133.755,445.1l15.86-9.276-13.589-42.714L116.94,381.18Z" transform="translate(-111.157 -124.363)" fill="#e6aa68"/>
      <path id="Path_70" data-name="Path 70" d="M133.755,445.1l15.86-9.276-13.589-42.714L116.94,381.18Z" transform="translate(-111.157 -124.363)" opacity="0.2"/>
      <path id="Path_71" data-name="Path 71" d="M267.049,443.265h-1.317a9.546,9.546,0,0,1,.515-19.086c14.7.477,45.807-8.551,63.595-25.8a9.542,9.542,0,0,1,3.817-2.29c30.137-9.047,41.34,9.219,41.8,10L359.044,415.8a1.906,1.906,0,0,0,.21.344c-.172-.248-4.447-5.726-18.036-2.367C318.906,434.123,284.665,443.265,267.049,443.265Z" transform="translate(15.596 -113.1)" fill="#263238"/>
      <path id="Path_72" data-name="Path 72" d="M279.235,457.8l-34.756-2.176L241.75,391.53l46.7,1.737Z" transform="translate(2.246 -114.959)" fill="#e6aa68"/>
      <path id="Path_73" data-name="Path 73" d="M261.39,456.97l8.131-8.092,5.039-39.947-3.951-16.49Z" transform="translate(20.091 -114.132)" fill="#e6aa68"/>
      <path id="Path_74" data-name="Path 74" d="M261.39,456.97l8.131-8.092,5.039-39.947-3.951-16.49Z" transform="translate(20.091 -114.132)" opacity="0.2"/>
      <path id="Path_75" data-name="Path 75" d="M400.6,495.181a5.726,5.726,0,0,1-3.455-1.164c-19.849-15.078-46.665-41.856-56.953-67.679a5.044,5.044,0,0,1-.325-1.164c-5.02-29.851-9.81-92.663-10.02-95.316A5.742,5.742,0,0,1,341.3,329c0,.63,4.905,64.053,9.791,93.655,10.268,25.117,38.172,50.9,53.021,62.24a5.726,5.726,0,0,1-3.474,10.287Z" transform="translate(82.277 -176.601)" fill="#263238"/>
      <path id="Path_76" data-name="Path 76" d="M389.012,422.819c-4.428,0-9.448-2-14.925-5.955a5.727,5.727,0,0,1,6.718-9.276c4.733,3.416,7.31,3.817,8.207,3.817a5.726,5.726,0,1,1,0,11.452Z" transform="translate(120.336 -101.357)" fill="#263238"/>
      <path id="Path_77" data-name="Path 77" d="M373.928,418.561c6.127-18.189,31.244-14.6,39.909-11.891a91.17,91.17,0,0,1,21.128,9.161c4.676,3.054,4.752,8.188-1.489,11.108-7.634,3.588-27.026.4-27.026.4,10,4.371,0,11.452-17.578,4.5C383.165,429.593,371.771,425.241,373.928,418.561Z" transform="translate(122.099 -103.226)" fill="#e6aa68"/>
      <path id="Path_78" data-name="Path 78" d="M358.612,345.668c-2.271,15.46-15.078,26.854-25.5,25.327s-10.841-15.269-8.57-30.8,6.394-26.72,16.815-25.194S360.883,330.265,358.612,345.668Z" transform="translate(76.454 -184.624)" fill="#263238"/>
      <circle id="Ellipse_2" data-name="Ellipse 2" cx="1.565" cy="1.565" r="1.565" transform="translate(181.603 96.266)" fill="#263238"/>
      <path id="Path_79" data-name="Path 79" d="M219.7,304.525a1.565,1.565,0,1,1-1.565-1.565,1.565,1.565,0,0,1,1.565,1.565Z" transform="translate(-20.633 -195.433)" fill="#263238"/>
      <path id="Path_80" data-name="Path 80" d="M220.62,401.425a1.565,1.565,0,1,1-1.565-1.565,1.565,1.565,0,0,1,1.565,1.565Z" transform="translate(-19.797 -107.39)" fill="#263238"/>
      <path id="Path_81" data-name="Path 81" d="M228.13,407.335a1.565,1.565,0,1,1-1.565-1.565,1.565,1.565,0,0,1,1.565,1.565Z" transform="translate(-12.973 -102.02)" fill="#263238"/>
    </g>
    <g id="freepik--robot-parts--inject-3" transform="translate(143.289 723.772)">
      <path id="Path_82" data-name="Path 82" d="M89.265,426.434a18.36,18.36,0,0,1-13.99-7.539.954.954,0,1,1,1.565-1.088c3.569,5.153,11.452,7.883,14.887,6.26a2.48,2.48,0,0,0,.9-.649,11.546,11.546,0,0,1-6.718-8.551c-.439-2.424-.783-5.726,1.2-6.146,2.748-.611,6.337,6.012,7.634,11.032a7.215,7.215,0,0,1,.248,2.558,8.13,8.13,0,0,0,3.4.267,3.7,3.7,0,0,0,2.634-1.412,11.185,11.185,0,0,1-4.409-8c-.725-5.23-.172-6.127.4-6.585a1.26,1.26,0,0,1,1.317-.134c2.042.859,4.5,8.264,4.981,12.463a5.08,5.08,0,0,1,0,1.317,7.461,7.461,0,0,0,2.577.5,8.187,8.187,0,0,0,4.6-1.2c-.267-.172-.515-.363-.763-.554-1.909-1.7-2.787-4.409-2.443-8.264.267-3,.935-4.638,2.138-5.153a2.157,2.157,0,0,1,2.309.458,13.208,13.208,0,0,1,3.3,10.612,5.726,5.726,0,0,1-.973,2.195c3.512.611,8.436-.382,12.692-1.431a.981.981,0,1,1,.458,1.909c-5.172,1.279-10.745,2.329-14.677,1.183a10.86,10.86,0,0,1-6.68,2.214,9.218,9.218,0,0,1-3.13-.592,5.344,5.344,0,0,1-4.046,2.424,10.172,10.172,0,0,1-4.275-.363,4.218,4.218,0,0,1-1.909,1.7A7.94,7.94,0,0,1,89.265,426.434Zm-1.641-15.8a8.245,8.245,0,0,0,.153,3.913,9.638,9.638,0,0,0,5.42,7.062,6.128,6.128,0,0,0-.229-1.336C91.479,414.811,88.616,411.051,87.624,410.631Zm10.631-1.661a27.085,27.085,0,0,0,.324,3.932,9.887,9.887,0,0,0,2.9,6.146,30,30,0,0,0-3.226-10.078Zm12.005-1.66h0s-.725.363-.992,3.55.286,5.382,1.775,6.661a5.844,5.844,0,0,0,1.145.725,4.274,4.274,0,0,0,1.031-1.909,11.948,11.948,0,0,0-2.271-8.455c-.4-.5-.63-.573-.687-.573Z" transform="translate(-75.075 -405.399)" fill="#263238"/>
      <path id="Path_83" data-name="Path 83" d="M231.5,432.521l5.172-8.97L231.5,414.58H225.97l3.13,8.971-3.13,8.97Z" transform="translate(62.028 -397.057)" fill="#263238"/>
      <path id="Path_84" data-name="Path 84" d="M231.457,427.009a4.676,4.676,0,1,1,0-9.333l-8.78-1.756-2.348,7.1,3.932,5.993Z" transform="translate(56.903 -395.839)" fill="#263238"/>
      <path id="Path_85" data-name="Path 85" d="M233.956,414.58H223.592l-5.172,8.971,5.172,8.97h10.364l5.172-8.97Zm-5.172,13.647a4.676,4.676,0,1,1,4.657-4.676,4.676,4.676,0,0,1-4.657,4.676Z" transform="translate(55.168 -397.057)" fill="#e6aa68"/>
      <path id="Path_86" data-name="Path 86" d="M419.716,420.6l-3.836-6.661,3.836-6.661h4.1l-2.309,6.661,2.309,6.661Z" transform="translate(234.58 -403.689)" fill="#e6aa68"/>
      <path id="Path_87" data-name="Path 87" d="M419.9,416.506a3.474,3.474,0,1,0,0-6.928l6.527-1.3,1.737,5.268-2.9,4.447Z" transform="translate(238.233 -402.781)" fill="#e6aa68"/>
      <path id="Path_88" data-name="Path 88" d="M421.427,407.28h7.634l3.817,6.661-3.817,6.661h-7.634l-3.817-6.661Zm3.817,10.135a3.425,3.425,0,1,1,.019,0Z" transform="translate(236.152 -403.689)" fill="#263238"/>
      <path id="Path_89" data-name="Path 89" d="M344.944,422.789h8.627a4.085,4.085,0,0,0,4.065-4.085h0a4.085,4.085,0,0,0-4.065-4.085h-8.627a4.084,4.084,0,0,0-4.084,4.084h0a4.084,4.084,0,0,0,4.085,4.084Z" transform="translate(166.417 -397.02)" fill="#263238"/>
      <path id="Path_90" data-name="Path 90" d="M336.183,416.961a8.512,8.512,0,1,1,3.817,11.8,8.8,8.8,0,0,1-3.817-11.8Z" transform="translate(161.303 -398.903)" fill="#e6aa68"/>
      <rect id="Rectangle_9" data-name="Rectangle 9" width="2.615" height="19.277" transform="translate(502.178 30.966) rotate(-154.76)" fill="#263238"/>
    </g>
  </g>
</svg>
