<?xml version="1.0" encoding="utf-8"?>
<!-- Generator: Adobe Illustrator 27.3.1, SVG Export Plug-In . SVG Version: 6.00 Build 0)  -->
<svg version="1.1" id="Layer_2_00000101105224770541425260000003051090328186208140_"
	 xmlns="http://www.w3.org/2000/svg" xmlns:xlink="http://www.w3.org/1999/xlink" x="0px" y="0px" viewBox="0 0 603.6 603.6"
	 style="enable-background:new 0 0 603.6 603.6;" xml:space="preserve">
<style type="text/css">
	.st0{fill:#FFFFFF;}
</style>
<path class="st0" d="M301.8,0C135.1,0,0,135.1,0,301.8s135.1,301.8,301.8,301.8s301.8-135.1,301.8-301.8S468.5,0,301.8,0z
	 M87.4,263.5c-9.6-5.5-9.2-17.3,0-22.6c63.5-36.5,126.6-73.5,189.9-110.3c13.2-7.6,26.7-7.7,39.9,0
	c63.4,36.8,126.6,73.9,190.2,110.5c8.7,5,9.7,16.7-0.1,22.3c-63.4,36.5-126.5,73.5-189.7,110.3c-6.4,3.7-13.1,6-20.5,5.5l0,0
	c-7.5,0.5-14-2-20.2-5.6C213.7,336.8,150.7,299.9,87.4,263.5z M424,419.8c-26.3,15.3-52.6,30.8-79.2,45.7
	c-32,17.9-64.3,17.4-96.1-0.5c-26.3-14.8-52.2-30.1-78.3-45.3c-12.8-7.4-19.2-18.6-19.2-33.4c0-18,0-36,0-54c0-1.3,0.1-2.5,0.3-4.3
	c0,0,0,0,0,0l0,0c0,0,0,0,0,0c1.7,0.9,3,1.5,4.2,2.2c35.5,20.6,71,41.1,106.3,62c23.5,13.9,46.5,14.1,70,0.2
	c35.3-20.8,70.9-41.3,106.4-61.9c1.4-0.8,2.8-1.5,4.7-2.5c0.1,2,0.2,3.4,0.2,4.8c0,17.7,0,35.4,0,53
	C443.4,401,436.9,412.3,424,419.8z M479.9,447c-10-10.2-9.7-26.7,0.9-36.3c2.4-2.2,2.9-4.3,2.9-7.3c-0.1-31.5,0-63.1-0.1-94.6
	c0-3.3,0.8-5.3,3.9-7c8.1-4.3,15.9-9.1,24.8-14.3c0,0,0,0,0,0l0,0c0,0,0,0,0,0c0,17.9,0,34.7,0,51.5c0,21.6-0.1,43.3,0.1,64.9
	c0,2.2,1.3,5,2.9,6.6c10.3,10.2,10.7,26.2,0.6,36.5C506.1,457.1,489.8,457,479.9,447z"/>
</svg>
