<?xml version="1.0" encoding="utf-8"?>
<!-- Generator: Adobe Illustrator 27.3.1, SVG Export Plug-In . SVG Version: 6.00 Build 0)  -->
<svg version="1.1" id="Layer_2_00000054964259873404190710000011470568532588767149_"
	 xmlns="http://www.w3.org/2000/svg" xmlns:xlink="http://www.w3.org/1999/xlink" x="0px" y="0px" viewBox="0 0 859.3 538.4"
	 style="enable-background:new 0 0 859.3 538.4;" xml:space="preserve">
<style type="text/css">
	.st0{fill:#FFFFFF;}
	.st1{fill:#E6AA68;}
	.st2{opacity:0.7;fill:#FFFFFF;enable-background:new    ;}
	.st3{fill:none;stroke:#263238;stroke-width:1.2;stroke-linecap:round;stroke-linejoin:round;}
	.st4{fill:#263238;stroke:#263238;stroke-width:1.2;stroke-linecap:round;stroke-linejoin:round;}
	.st5{fill:none;stroke:#263238;stroke-width:1.2;stroke-linecap:round;stroke-linejoin:round;stroke-miterlimit:4;}
	.st6{fill:#FFFFFF;stroke:#263238;stroke-width:1.2;stroke-linecap:round;stroke-linejoin:round;}
	.st7{fill:#263238;}
	.st8{fill:#263238;stroke:#FFFFFF;stroke-width:0.83;stroke-linejoin:round;}
	.st9{fill:#D1D1D1;stroke:#263238;stroke-width:1.2;stroke-linejoin:round;}
	.st10{enable-background:new    ;}
	.st11{fill:none;stroke:#263238;stroke-width:2;stroke-miterlimit:10;}
</style>
<rect class="st0" width="859.3" height="538.4"/>
<g id="Layer_1-2">
	<g>
		<g id="freepik--background-simple--inject-27">
			<path class="st1" d="M696.3,356.3c0,0,27.4-140.3-47.2-220c-65.8-70.3-170-97.6-255-39.5c-30.3,20.7-52.3,60.9-87.7,73.3
				C266.8,184,215.8,189,179,248.7S155.4,385.2,204.4,426s135,1,212.4-2S655.7,529.5,696.3,356.3z"/>
			<path class="st2" d="M696.3,356.3c0,0,27.4-140.3-47.2-220c-65.8-70.3-170-97.6-255-39.5c-30.3,20.7-52.3,60.9-87.7,73.3
				C266.8,184,215.8,189,179,248.7S155.4,385.2,204.4,426s135,1,212.4-2S655.7,529.5,696.3,356.3z"/>
		</g>
		<g id="freepik--Plants--inject-27">
			<path class="st1" d="M243.8,105.1c0,0,0-8.5-11.9-20.5c-11.9-12-19.6-18.7-19.6-18.7s-6,19.6,5.1,31.6c11.1,12,26.4,23,26.4,23
				V105.1z"/>
			<path class="st1" d="M226.5,158.4c0,0,0-8.5-12-20.5s-19.6-18.7-19.6-18.7s-6,19.6,5.1,31.6c11.1,12,26.5,23,26.5,23V158.4z"/>
			<path class="st1" d="M243.1,119.6c0,0,0.9-8.5,14-19.1c13.1-10.6,21.5-16.6,21.5-16.6s3.9,20.2-8.4,30.9s-28.8,20.1-28.8,20.1
				L243.1,119.6z"/>
			<path class="st1" d="M222.1,182.6c0,0,1.8-8.3,16-17.5s23.1-14.2,23.1-14.2s1.7,20.4-11.6,29.8c-13.3,9.4-30.7,17-30.7,17
				L222.1,182.6z"/>
			<path class="st1" d="M226.1,251.2c0,0,0-8.5,11.9-20.5c11.9-12,19.6-18.8,19.6-18.8s6,19.6-5.1,31.6s-26.4,23-26.4,23V251.2z"/>
			<path class="st1" d="M225.9,267.9c0,0,1.2-8.4-8.9-22c-10.1-13.6-16.8-21.3-16.8-21.3s-8.7,18.6,0.6,32
				c9.3,13.4,22.9,26.6,22.9,26.6L225.9,267.9z"/>
			<path class="st1" d="M214.1,317.5c0,0,0-8.5,11.9-20.5c11.9-12,19.6-18.8,19.6-18.8s6,19.6-5.1,31.6c-11.1,12-26.5,23-26.5,23
				L214.1,317.5L214.1,317.5z"/>
			<path class="st1" d="M222.1,362.5c0,0-2.2-8.3,6.4-22.8c8.6-14.5,14.2-23.1,14.2-23.1s10.8,17.5,3,31.8s-19.8,29-19.8,29
				L222.1,362.5z"/>
			<path class="st3" d="M244.9,102.9c-0.6,8.9-1.7,17.7-3.3,26.5c-4.7,24.4-16.5,40.1-21.2,62.2c-4.7,22.1,8.8,50.4,5.2,78.7
				c-3.6,28.3-14.7,44-11.5,62.9s19.7,70,19.7,70"/>
			<line class="st3" x1="242.9" y1="125.3" x2="255.8" y2="115.5"/>
			<line class="st3" x1="243.6" y1="114" x2="238.2" y2="104.4"/>
			<path class="st3" d="M221.1,190.6c0,0,10.8-8.1,21.8-16.2"/>
			<path class="st3" d="M226.5,173.8c0,0-9-17.6-19.2-29.3"/>
			<path class="st3" d="M226.5,263.3c6.1-11.3,13.9-21.7,23-30.8"/>
			<path class="st3" d="M224.4,275.3c0,0-5.4-12.9-11.7-22.1c-6.3-9.2-7.2-10.6-7.2-10.6"/>
			<path class="st3" d="M214.1,333.2c2.7-6.8,6-13.3,9.7-19.6c3.7-5.8,7.9-11.3,12.6-16.5"/>
			<path class="st3" d="M225.9,377.4c0,0-1.3-10.2,3.2-18.9s9.6-20,11.7-24.5"/>
			<path class="st1" d="M165.6,219.1c0,0-0.9-5.4,5.3-14.1c6.2-8.7,10.3-13.9,10.3-13.9s5.9,11.7,0.2,20.4
				c-4.2,6.1-8.9,11.9-14.1,17.3L165.6,219.1L165.6,219.1z"/>
			<path class="st1" d="M182.3,250.6c0,0-0.9-5.4,5.3-14.1c6.2-8.7,10.3-13.9,10.3-13.9s5.9,11.6,0.2,20.4
				c-4.2,6.1-8.9,11.9-14.1,17.3L182.3,250.6z"/>
			<path class="st1" d="M167.7,228.1c0,0-1.5-5.2-10.9-10.4c-9.4-5.2-15.3-8.1-15.3-8.1s-0.2,13,8.6,18.4c6.5,3.7,13.2,6.9,20.2,9.5
				L167.7,228.1L167.7,228.1z"/>
			<path class="st1" d="M187.6,265.3c0,0-2-5-11.9-9.2c-9.9-4.2-16-6.4-16-6.4s1.1,13,10.5,17.4c6.8,3,13.9,5.5,21.1,7.3
				L187.6,265.3z"/>
			<path class="st1" d="M192.6,308.7c0,0-0.9-5.4-9.7-11.5s-14.4-9.6-14.4-9.6s-1.6,12.9,6.6,19.2c6,4.4,12.4,8.2,19.1,11.6
				L192.6,308.7L192.6,308.7z"/>
			<path class="st1" d="M194.5,319.2c0,0-1.7-5.2,3.2-14.7c4.9-9.5,8.2-15.2,8.2-15.2s7.5,10.7,3.1,20.1
				c-3.3,6.7-7.1,13.1-11.5,19.1L194.5,319.2z"/>
			<path class="st1" d="M209.5,362.4c0,0,0.6-5.4,9-12.1c8.4-6.7,13.8-10.4,13.8-10.4s2.3,12.8-5.5,19.6
				c-5.8,4.7-11.9,8.9-18.3,12.6L209.5,362.4L209.5,362.4z"/>
			<path class="st1" d="M207.3,349.1c0,0-0.9-5.4-9.7-11.5c-8.8-6.1-14.3-9.6-14.3-9.6s-1.6,13,6.6,19.2c6,4.4,12.4,8.2,19.1,11.6
				L207.3,349.1L207.3,349.1z"/>
			<path class="st1" d="M207.2,378.1c0,0,0.5-5.4-6.5-13.6s-11.4-12.9-11.4-12.9s-4.8,12.1,1.5,20.2c4.7,5.8,9.9,11.1,15.5,16
				L207.2,378.1z"/>
			<path class="st3" d="M164.7,217.8c1.3,5.5,3,10.9,4.9,16.3c5.6,14.8,14.7,23.4,20.1,36.7c5.4,13.3-0.1,32.6,5.3,49.9
				s14,26,14,38.2s-4.7,46-4.7,46"/>
			<line class="st3" x1="168.4" y1="231.7" x2="159.2" y2="226.9"/>
			<line class="st3" x1="166.7" y1="224.6" x2="169.1" y2="218"/>
			<path class="st3" d="M189.1,270.2c0,0-7.6-3.9-15.5-7.8"/>
			<path class="st3" d="M183.9,260.3c0,0,3.7-12,8.8-20.4"/>
			<path class="st3" d="M193.7,316.4c-5.1-6.4-11.1-12.1-17.8-16.8"/>
			<path class="st3" d="M196.3,323.7c1.2-5.2,2.9-10.2,4.9-15.2c2.9-6.5,3.4-7.4,3.4-7.4"/>
			<path class="st3" d="M208.6,368.1c0,0,6.1-7.4,9.8-10.2c2.3-1.7,4.4-3.5,6.4-5.5"/>
			<path class="st3" d="M209,358.9c-2.4-4-5.2-7.7-8.2-11.3c-3-3.3-6.2-6.3-9.7-9"/>
			<path class="st3" d="M206.4,387.9c0,0-0.3-6.5-4.1-11.5c-3.8-5-8.2-11.5-10-14.1"/>
			<path class="st4" d="M241.5,486.2h-49.8c-2.2,0-3.9-1.8-3.9-3.9l-12.4-82.6h82.4l-12.3,82.5C245.4,484.4,243.7,486.2,241.5,486.2
				L241.5,486.2L241.5,486.2z"/>
		</g>
		<g id="freepik--Graphics--inject-27">
			
				<rect x="507.5" y="89.2" transform="matrix(0.7071 -0.7071 0.7071 0.7071 82.0842 393.4068)" class="st5" width="16.8" height="16.8"/>
			
				<rect x="389.6" y="54" transform="matrix(0.7071 -0.7071 0.7071 0.7071 73.9822 295.8902)" class="st5" width="9.2" height="9.2"/>
			
				<rect x="660.6" y="113.5" transform="matrix(0.7071 -0.7071 0.7071 0.7071 111.3069 504.9477)" class="st5" width="9.2" height="9.2"/>
			<path class="st3" d="M323.7,132.4c0-2.7-2.1-4.8-4.8-4.8c-2.7,0-4.8,2.1-4.8,4.8c0,2.7,2.1,4.8,4.8,4.8l0,0
				C321.6,137.2,323.7,135.1,323.7,132.4L323.7,132.4z"/>
			<path class="st3" d="M697.2,393c0-2.7-2.1-4.8-4.8-4.8s-4.8,2.1-4.8,4.8c0,2.7,2.1,4.8,4.8,4.8l0,0
				C695,397.8,697.2,395.7,697.2,393L697.2,393L697.2,393z"/>
			<path class="st3" d="M580.7,150.4c0-2.7-2.1-4.8-4.8-4.8c-2.7,0-4.8,2.2-4.8,4.8s2.1,4.8,4.8,4.8l0,0
				C578.6,155.3,580.7,153.1,580.7,150.4z"/>
			<path class="st3" d="M204.9,186.5c0-2.7-2.1-4.8-4.8-4.8c-2.7,0-4.8,2.1-4.8,4.8s2.1,4.8,4.8,4.8l0,0
				C202.7,191.3,204.9,189.1,204.9,186.5L204.9,186.5z"/>
		</g>
		<path class="st6" d="M241.8,170.6h427.3c7,0,12.7,5.7,12.7,12.7v281.2H229.1V183.4C229,176.4,234.7,170.6,241.8,170.6L241.8,170.6
			z"/>
		<rect x="300.9" y="450.4" class="st4" width="311.1" height="15.3"/>
		<rect x="300.9" y="457.8" class="st6" width="311.1" height="8"/>
		<path class="st4" d="M192.4,474.8c0,0,5.1,6.2,20.4,11.4h487.1c0,0,11.4-2.8,16.5-10.8L192.4,474.8L192.4,474.8z"/>
		<path class="st6" d="M195.3,463.6h518.5c2.1,0,3.9,1.7,3.9,3.9v4.2c0,2.1-1.7,3.9-3.9,3.9H195.3c-2.1,0-3.9-1.7-3.9-3.9v-4.2
			C191.4,465.3,193.1,463.6,195.3,463.6z"/>
		<path class="st7" d="M459.3,179.6c0-2.2-1.8-4-4-4s-4,1.8-4,4s1.8,4,4,4S459.3,181.8,459.3,179.6z"/>
		<path class="st8" d="M233.3,253.4L233.3,253.4c-0.6,0-1.1-0.5-1.1-1.1l0,0v-32.9c0-0.6,0.5-1.1,1.1-1.1l0,0c0.6,0,1.1,0.5,1.1,1.1
			v32.9C234.4,252.8,233.9,253.4,233.3,253.4L233.3,253.4L233.3,253.4z"/>
		<rect x="247.4" y="193.6" class="st9" width="416" height="235.1"/>
		<rect x="247.4" y="193.6" class="st7" width="416" height="13.9"/>
		<rect x="267.1" y="266" class="st7" width="376.6" height="90.8"/>
		<g class="st10">
			<path class="st0" d="M310.4,324.7v-25.2h5.1v9.9h10v-9.9h5.1v25.2h-5.1v-11h-10v11L310.4,324.7L310.4,324.7z"/>
			<path class="st0" d="M347.7,324.7V322c-0.7,1-1.5,1.7-2.6,2.3c-1.1,0.6-2.2,0.8-3.4,0.8c-1.2,0-2.3-0.3-3.3-0.8s-1.7-1.3-2.1-2.3
				s-0.7-2.3-0.7-4v-11.5h4.8v8.4c0,2.6,0.1,4.1,0.3,4.7c0.2,0.6,0.5,1,1,1.4c0.5,0.3,1.1,0.5,1.8,0.5c0.8,0,1.6-0.2,2.2-0.7
				c0.7-0.5,1.1-1,1.3-1.7c0.2-0.7,0.4-2.3,0.4-4.9v-7.7h4.8v18.2H347.7z"/>
			<path class="st0" d="M356.8,306.5h4.4v2.5c1.6-1.9,3.5-2.9,5.7-2.9c1.2,0,2.2,0.2,3,0.7c0.8,0.5,1.6,1.2,2.1,2.2
				c0.8-1,1.7-1.7,2.6-2.2c0.9-0.5,1.9-0.7,3-0.7c1.3,0,2.5,0.3,3.4,0.8s1.6,1.3,2.1,2.4c0.3,0.8,0.5,2,0.5,3.8v11.7h-4.8v-10.4
				c0-1.8-0.2-3-0.5-3.5c-0.4-0.7-1.1-1-2.1-1c-0.7,0-1.3,0.2-1.9,0.6s-1,1-1.3,1.8c-0.3,0.8-0.4,2-0.4,3.8v8.8h-4.8v-10
				c0-1.8-0.1-2.9-0.3-3.4c-0.2-0.5-0.4-0.9-0.8-1.1c-0.4-0.3-0.8-0.4-1.5-0.4c-0.7,0-1.4,0.2-2,0.6s-1,1-1.3,1.7
				c-0.3,0.7-0.4,2-0.4,3.8v8.9h-4.8v-18.5H356.8z"/>
			<path class="st0" d="M392,312.1l-4.4-0.8c0.5-1.8,1.3-3.1,2.5-3.9c1.2-0.8,3-1.3,5.4-1.3c2.2,0,3.8,0.3,4.8,0.8
				c1.1,0.5,1.8,1.2,2.2,1.9c0.4,0.8,0.6,2.2,0.6,4.3l-0.1,5.6c0,1.6,0.1,2.8,0.2,3.5s0.4,1.6,0.9,2.4h-4.6
				c-0.1-0.3-0.3-0.8-0.5-1.4c-0.1-0.3-0.1-0.5-0.2-0.6c-0.8,0.8-1.7,1.4-2.6,1.8c-0.9,0.4-1.9,0.6-3,0.6c-1.9,0-3.4-0.5-4.4-1.5
				c-1.1-1-1.6-2.3-1.6-3.9c0-1,0.2-1.9,0.7-2.8s1.2-1.4,2.1-1.9c0.9-0.4,2.2-0.8,3.8-1.1c2.3-0.4,3.8-0.8,4.7-1.2v-0.5
				c0-0.9-0.2-1.6-0.7-2s-1.3-0.6-2.6-0.6c-0.9,0-1.5,0.2-2,0.5C392.7,310.6,392.3,311.2,392,312.1z M398.5,316
				c-0.6,0.2-1.6,0.5-2.9,0.7s-2.2,0.6-2.6,0.8c-0.6,0.4-0.9,1-0.9,1.7s0.3,1.3,0.8,1.8s1.1,0.7,1.9,0.7c0.9,0,1.7-0.3,2.5-0.9
				c0.6-0.4,1-1,1.1-1.6c0.1-0.4,0.2-1.2,0.2-2.4V316H398.5z"/>
			<path class="st0" d="M424.5,324.7h-4.8v-9.2c0-2-0.1-3.2-0.3-3.8c-0.2-0.6-0.5-1-1-1.3s-1-0.5-1.7-0.5c-0.8,0-1.6,0.2-2.2,0.7
				c-0.7,0.5-1.1,1.1-1.4,1.8s-0.4,2.2-0.4,4.2v8.3h-4.8v-18.4h4.5v2.7c1.6-2.1,3.6-3.1,6-3.1c1.1,0,2,0.2,2.9,0.6s1.5,0.9,2,1.5
				s0.8,1.3,0.9,2s0.3,1.8,0.3,3.2V324.7z"/>
			<path class="st0" d="M439.2,324.7v-25.2h10.7c2.7,0,4.6,0.2,5.9,0.7c1.2,0.5,2.2,1.3,2.9,2.4c0.7,1.1,1.1,2.5,1.1,4
				c0,1.9-0.6,3.4-1.7,4.7c-1.1,1.2-2.8,2-5,2.3c1.1,0.6,2,1.3,2.7,2.1c0.7,0.8,1.7,2.1,2.9,4.1l3.1,4.9h-6.1l-3.7-5.5
				c-1.3-2-2.2-3.2-2.7-3.7s-1-0.9-1.5-1s-1.4-0.3-2.6-0.3h-1v10.5H439.2z M444.3,310.2h3.8c2.4,0,4-0.1,4.6-0.3
				c0.6-0.2,1.1-0.6,1.4-1.1s0.5-1.1,0.5-1.9s-0.2-1.5-0.7-2s-1.1-0.8-1.9-1c-0.4-0.1-1.6-0.1-3.7-0.1h-4L444.3,310.2L444.3,310.2z"
				/>
			<path class="st0" d="M475.1,319l4.8,0.8c-0.6,1.8-1.6,3.1-2.9,4s-3,1.4-5,1.4c-3.2,0-5.5-1-7-3.1c-1.2-1.7-1.8-3.8-1.8-6.3
				c0-3,0.8-5.4,2.4-7.1c1.6-1.7,3.6-2.6,6-2.6c2.7,0,4.9,0.9,6.4,2.7c1.6,1.8,2.3,4.5,2.2,8.2h-12.1c0,1.4,0.4,2.5,1.2,3.3
				c0.7,0.8,1.7,1.2,2.8,1.2c0.8,0,1.4-0.2,1.9-0.6S474.9,319.9,475.1,319z M475.4,314.1c0-1.4-0.4-2.5-1.1-3.2s-1.5-1.1-2.5-1.1
				c-1.1,0-1.9,0.4-2.6,1.1c-0.7,0.8-1,1.8-1,3.1h7.2V314.1z"/>
			<path class="st0" d="M482.4,319.6l4.8-0.7c0.2,0.9,0.6,1.7,1.3,2.1c0.6,0.5,1.5,0.7,2.6,0.7c1.2,0,2.2-0.2,2.8-0.7
				c0.4-0.3,0.6-0.7,0.6-1.3c0-0.4-0.1-0.7-0.3-0.9c-0.2-0.2-0.8-0.4-1.6-0.6c-3.9-0.9-6.4-1.6-7.4-2.4c-1.4-1-2.2-2.4-2.2-4.1
				c0-1.6,0.6-2.9,1.9-4s3.2-1.6,5.8-1.6c2.5,0,4.3,0.4,5.6,1.2c1.2,0.8,2,2,2.5,3.6l-4.5,0.8c-0.2-0.7-0.6-1.3-1.1-1.6
				c-0.5-0.4-1.3-0.6-2.3-0.6c-1.3,0-2.2,0.2-2.7,0.5c-0.4,0.3-0.5,0.6-0.5,1c0,0.3,0.2,0.6,0.5,0.9c0.4,0.3,1.9,0.8,4.5,1.4
				s4.4,1.3,5.4,2.1c1,0.9,1.5,2.1,1.5,3.6c0,1.7-0.7,3.1-2.1,4.3c-1.4,1.2-3.5,1.8-6.2,1.8c-2.5,0-4.4-0.5-5.9-1.5
				C483.8,322.6,482.9,321.3,482.4,319.6z"/>
			<path class="st0" d="M502.5,315.4c0-1.6,0.4-3.2,1.2-4.7c0.8-1.5,1.9-2.6,3.4-3.4c1.4-0.8,3.1-1.2,4.8-1.2c2.8,0,5,0.9,6.8,2.7
				s2.6,4.1,2.6,6.8c0,2.8-0.9,5-2.7,6.9c-1.8,1.8-4,2.7-6.7,2.7c-1.7,0-3.3-0.4-4.8-1.1c-1.5-0.8-2.7-1.9-3.5-3.3
				C502.9,319.3,502.5,317.5,502.5,315.4z M507.5,315.6c0,1.8,0.4,3.2,1.3,4.2s1.9,1.4,3.2,1.4s2.3-0.5,3.2-1.4
				c0.9-1,1.3-2.4,1.3-4.2c0-1.8-0.4-3.2-1.3-4.1c-0.9-1-1.9-1.4-3.2-1.4c-1.3,0-2.3,0.5-3.2,1.4
				C507.9,312.4,507.5,313.8,507.5,315.6z"/>
			<path class="st0" d="M537.1,324.7V322c-0.7,1-1.5,1.7-2.6,2.3c-1.1,0.6-2.2,0.8-3.4,0.8c-1.2,0-2.3-0.3-3.3-0.8s-1.7-1.3-2.1-2.3
				c-0.4-1-0.7-2.3-0.7-4v-11.5h4.8v8.4c0,2.6,0.1,4.1,0.3,4.7c0.2,0.6,0.5,1,1,1.4c0.5,0.3,1.1,0.5,1.8,0.5c0.8,0,1.6-0.2,2.2-0.7
				c0.7-0.5,1.1-1,1.3-1.7c0.2-0.7,0.4-2.3,0.4-4.9v-7.7h4.8v18.2H537.1z"/>
			<path class="st0" d="M551.2,324.7h-4.8v-18.2h4.5v2.6c0.8-1.2,1.5-2,2.1-2.4c0.6-0.4,1.3-0.6,2.1-0.6c1.1,0,2.2,0.3,3.2,0.9
				l-1.5,4.2c-0.8-0.5-1.6-0.8-2.3-0.8s-1.2,0.2-1.7,0.6s-0.8,1-1.1,2s-0.4,3-0.4,6.1v5.6H551.2z"/>
			<path class="st0" d="M576.1,311.9l-4.8,0.9c-0.2-0.9-0.5-1.7-1.1-2.1c-0.6-0.4-1.3-0.7-2.2-0.7c-1.2,0-2.2,0.4-2.9,1.2
				c-0.7,0.8-1.1,2.2-1.1,4.2c0,2.2,0.4,3.7,1.1,4.6s1.7,1.3,2.9,1.3c0.9,0,1.7-0.3,2.2-0.8s1-1.4,1.2-2.7l4.7,0.8
				c-0.5,2.2-1.4,3.8-2.8,4.9c-1.4,1.1-3.3,1.7-5.6,1.7c-2.7,0-4.8-0.8-6.4-2.5c-1.6-1.7-2.4-4-2.4-7s0.8-5.4,2.4-7
				c1.6-1.6,3.7-2.5,6.5-2.5c2.2,0,4,0.5,5.3,1.4S575.6,310,576.1,311.9z"/>
			<path class="st0" d="M590.4,319l4.8,0.8c-0.6,1.8-1.6,3.1-2.9,4s-3,1.4-5,1.4c-3.2,0-5.5-1-7-3.1c-1.2-1.7-1.8-3.8-1.8-6.3
				c0-3,0.8-5.4,2.4-7.1c1.6-1.7,3.6-2.6,6-2.6c2.7,0,4.8,0.9,6.4,2.7c1.6,1.8,2.3,4.5,2.2,8.2h-12.1c0,1.4,0.4,2.5,1.2,3.3
				c0.8,0.8,1.7,1.2,2.8,1.2c0.8,0,1.4-0.2,1.9-0.6C589.7,320.5,590.1,319.9,590.4,319z M590.6,314.1c0-1.4-0.4-2.5-1.1-3.2
				s-1.5-1.1-2.5-1.1c-1.1,0-1.9,0.4-2.6,1.1s-1,1.8-1,3.1h7.2V314.1z"/>
			<path class="st0" d="M597.6,319.6l4.8-0.7c0.2,0.9,0.6,1.7,1.3,2.1c0.6,0.5,1.5,0.7,2.6,0.7c1.2,0,2.2-0.2,2.8-0.7
				c0.4-0.3,0.6-0.7,0.6-1.3c0-0.4-0.1-0.7-0.3-0.9c-0.2-0.2-0.8-0.4-1.6-0.6c-3.9-0.9-6.4-1.6-7.4-2.4c-1.4-1-2.2-2.4-2.2-4.1
				c0-1.6,0.6-2.9,1.9-4s3.2-1.6,5.8-1.6c2.5,0,4.3,0.4,5.6,1.2c1.2,0.8,2,2,2.5,3.6l-4.5,0.8c-0.2-0.7-0.6-1.3-1.1-1.6
				c-0.5-0.4-1.3-0.6-2.3-0.6c-1.3,0-2.2,0.2-2.7,0.5c-0.4,0.3-0.5,0.6-0.5,1c0,0.3,0.2,0.6,0.5,0.9c0.4,0.3,1.9,0.8,4.5,1.4
				c2.6,0.6,4.4,1.3,5.4,2.1c1,0.9,1.5,2.1,1.5,3.6c0,1.7-0.7,3.1-2.1,4.3c-1.4,1.2-3.5,1.8-6.2,1.8c-2.5,0-4.4-0.5-5.9-1.5
				C599,322.6,598.1,321.3,597.6,319.6z"/>
		</g>
		<path class="st11" d="M577.2,379.9c-7.5-0.1-7.5-8.1-15-8.1s-7.6,7.9-15.2,7.9c-7.6,0-7.5-8.1-15-8.1s-7.6,7.9-15.2,7.9
			c-7.6,0-7.5-8.1-15-8.1s-7.6,7.9-15.2,7.9s-7.5-8.1-15-8.1s-7.6,7.9-15.2,7.9s-7.5-8.1-15-8.1s-7.6,7.9-15.2,7.9
			c-7.5-0.1-7.5-8.1-15-8.1s-7.6,7.9-15.2,7.9c-7.6,0-7.5-8.1-15-8.1s-7.6,7.9-15.2,7.9c-7.6,0-7.5-8.1-15-8.1s-7.6,7.9-15.2,7.9"/>
		<path class="st11" d="M335.7,247c7.6-0.1,7.6,7.9,15.2,7.9c7.6,0,7.5-8.1,15-8.1s7.6,7.9,15.2,7.9c7.6,0,7.5-8.1,15-8.1
			c7.6-0.1,7.6,7.9,15.2,7.9s7.5-8.1,15-8.1s7.6,7.9,15.2,7.9s7.5-8.1,15-8.1s7.6,7.9,15.2,7.9s7.5-8.1,15-8.1s7.6,7.9,15.2,7.9
			s7.5-8.1,15-8.1c7.5,0,7.6,7.9,15.2,7.9c7.6,0,7.5-8.1,15-8.1s7.6,7.9,15.2,7.9c7.6,0,7.5-8.1,15-8.1"/>
	</g>
</g>
</svg>
