<?xml version="1.0" encoding="utf-8"?>
<!-- Generator: Adobe Illustrator 27.3.1, SVG Export Plug-In . SVG Version: 6.00 Build 0)  -->
<svg version="1.1" id="Layer_1" xmlns="http://www.w3.org/2000/svg" xmlns:xlink="http://www.w3.org/1999/xlink" x="0px" y="0px"
	 viewBox="0 0 500 500" style="enable-background:new 0 0 500 500;" xml:space="preserve">
<style type="text/css">
	.st0{fill:#F5F5F5;}
	.st1{fill:#E0E0E0;}
	.st2{fill:#EBEBEB;}
	.st3{fill:#FAFAFA;}
	.st4{fill:#263238;}
	.st5{opacity:0.3;enable-background:new    ;}
	.st6{fill:#E6AA68;}
	.st7{fill:#FFFFFF;}
	.st8{fill:#455A64;}
	.st9{enable-background:new    ;}
	.st10{opacity:0.7;}
	.st11{fill:#FFBF9D;}
	.st12{fill:#FF9A6C;}
	.st13{opacity:0.3;}
	.st14{opacity:0.2;}
</style>
<g id="freepik--background-complete--inject-17">
	
		<rect x="30.4" y="286.4" transform="matrix(0.9829 -0.184 0.184 0.9829 -56.6704 17.3267)" class="st0" width="69.2" height="55.3"/>
	<path class="st1" d="M94,280.6l-0.3,0.1l-1,0.2l-3.7,0.7L75,284.2l-49,9.3l0.2-0.3c3,16.2,6.5,34.8,10.2,54.4l0,0l-0.3-0.2l68-12.7
		l-0.2,0.3c-3-16.4-5.5-30-7.3-39.5c-0.9-4.8-1.5-8.5-2-11c-0.2-1.3-0.4-2.2-0.5-2.9S94,280.6,94,280.6c0,0.1,0,0.4,0.2,1.1l0.6,2.9
		c0.5,2.5,1.2,6.3,2.1,11c1.8,9.5,4.4,23.1,7.5,39.6l0.1,0.2l-0.2,0l-68,12.7l-0.3,0l0-0.3l0,0c-3.7-19.6-7.1-38.2-10.1-54.4v-0.2
		l0.2,0l49.2-9.1l13.9-2.5l3.7-0.7l0.9-0.2L94,280.6z"/>
	
		<rect x="32.8" y="289.9" transform="matrix(0.9829 -0.184 0.184 0.9829 -56.6719 17.3179)" class="st2" width="64.4" height="48.4"/>
	<polygon class="st1" points="37.8,343.8 54.4,310.1 71.5,326.1 78.9,314.4 101.1,332 	"/>
	<path class="st1" d="M73.2,302.9c0.5,2.8-1.3,5.4-4.1,5.9c-2.8,0.5-5.4-1.3-5.9-4.1c-0.5-2.8,1.3-5.4,4-5.9
		C70,298.3,72.7,300.1,73.2,302.9C73.2,302.9,73.2,302.9,73.2,302.9z"/>
	
		<rect x="152" y="89.4" transform="matrix(0.1781 -0.984 0.984 0.1781 46.0868 378.7062)" class="st3" width="195.6" height="144.8"/>
	<path class="st1" d="M303.6,270.9c0,0,0-0.3,0.1-0.9l0.5-2.7c0.4-2.4,1-5.9,1.9-10.5c1.6-9.2,4-22.5,7.1-39.5l25-138.9l0.2,0.3
		L195.9,52.9l0,0l0.3-0.2c-13,71.8-25.1,138.3-34.9,192.4l-0.2-0.2l103.5,18.9l28.7,5.3l7.6,1.4
		C302.7,270.7,303.6,270.9,303.6,270.9l-2.6-0.4l-7.5-1.3l-28.7-5.1l-103.7-18.7h-0.2v-0.2c9.8-54.2,21.8-120.7,34.8-192.4v-0.3h0.3
		l0,0l142.5,25.8l0.2,0.1v0.2c-10.4,57-19.1,105.1-25.3,139l-7.2,39.4c-0.8,4.5-1.5,8-1.9,10.4c-0.2,1.2-0.4,2.1-0.5,2.7
		L303.6,270.9z"/>
	
		<rect x="206.7" y="74.1" transform="matrix(0.1781 -0.984 0.984 0.1781 88.7232 315.8474)" class="st1" width="53.6" height="61.5"/>
	<rect x="293.2" y="72.9" transform="matrix(0.1781 -0.984 0.984 0.1781 152.7472 368.0834)" class="st1" width="7" height="39.4"/>
	<rect x="248.4" y="93.8" transform="matrix(0.1781 -0.984 0.984 0.1781 59.4071 371.1455)" class="st1" width="7" height="112.3"/>
	
		<rect x="246.2" y="105.9" transform="matrix(0.1781 -0.984 0.984 0.1781 45.7011 378.9484)" class="st1" width="7" height="112.3"/>
	<rect x="244" y="118.1" transform="matrix(0.1781 -0.984 0.984 0.1781 31.9882 386.7433)" class="st1" width="7" height="112.3"/>
	
		<rect x="241.8" y="130.2" transform="matrix(0.1781 -0.984 0.984 0.1781 18.2676 394.5253)" class="st1" width="7" height="112.3"/>
	<rect x="239.6" y="142.3" transform="matrix(0.1781 -0.984 0.984 0.1781 4.5645 402.312)" class="st1" width="7" height="112.3"/>
	
		<rect x="232.1" y="183.8" transform="matrix(0.1781 -0.984 0.984 0.1781 -42.4543 429.0358)" class="st1" width="7" height="112.3"/>
	<rect x="212.5" y="175.2" transform="matrix(0.1781 -0.984 0.984 0.1781 -25.197 381.8778)" class="st1" width="7" height="61.7"/>
	<rect x="291.2" y="84.1" transform="matrix(0.1781 -0.984 0.984 0.1781 140.139 375.2561)" class="st1" width="7" height="39.4"/>
	
		<rect x="287.8" y="95.4" transform="matrix(0.1807 -0.9835 0.9835 0.1807 125.6068 380.6984)" class="st1" width="7" height="39.2"/>
	
		<rect x="279.8" y="112.5" transform="matrix(0.1781 -0.984 0.984 0.1781 110.1522 381.1649)" class="st1" width="7" height="24.3"/>
	<path class="st1" d="M368,51.8l-12.3,0.5l-1.3,3.4c-0.4,0.9-0.6,1.9-0.6,2.8c0,0.9,0.4,1.7,1.2,2.1c1.1,0.4,2.3,0.5,3.4,0.5v1
		L347,62.5v-1c1.2-0.2,2.2-0.8,3-1.7c1.2-1.6,2.1-3.4,2.8-5.4L364,26.3h0.5l13.7,28c1.3,2.7,2.4,4.3,3.2,5c0.7,0.6,1.6,0.8,2.5,0.8
		V61L367,61.7v-1h0.7c1,0,2-0.2,2.8-0.7c0.4-0.3,0.6-0.7,0.5-1.2c0-0.3-0.1-0.6-0.2-0.9c0-0.2-0.3-0.8-0.9-1.9L368,51.8z M367,49.9
		l-5.7-11.8l-4.9,12.2L367,49.9z"/>
	
		<rect x="341" y="132.6" transform="matrix(0.9485 -0.3168 0.3168 0.9485 -30.4165 125.4824)" class="st0" width="59.3" height="47.4"/>
	
		<rect x="343.1" y="135.6" transform="matrix(0.9485 -0.3168 0.3168 0.9485 -30.422 125.4666)" class="st2" width="55.1" height="41.4"/>
	<polygon class="st1" points="351.1,184.7 361.2,154.2 377.6,165.7 382.5,154.9 403.3,167.2 	"/>
	<path class="st1" d="M376.3,145.8c0.8,2.3-0.5,4.7-2.7,5.5c-2.3,0.8-4.7-0.5-5.5-2.7c-0.8-2.3,0.5-4.7,2.7-5.5c0,0,0,0,0,0
		C373,142.3,375.5,143.5,376.3,145.8C376.3,145.8,376.3,145.8,376.3,145.8z"/>
	
		<rect x="394.1" y="71.1" transform="matrix(0.1922 -0.9814 0.9814 0.1922 233.5429 515.494)" class="st0" width="71.6" height="89.5"/>
	<path class="st1" d="M480.7,89.4l-0.4-0.1l-1.2-0.2l-4.8-0.9l-18-3.5l-63.5-12.3l0.3-0.2c-4.1,20.9-8.8,44.9-13.7,70.2l0,0
		l-0.2-0.3l87.9,17.3l-0.3,0.2c4.2-21.1,7.7-38.7,10.1-50.9c1.2-6.1,2.2-10.9,2.9-14.2c0.3-1.6,0.6-2.9,0.8-3.8
		S480.7,89.4,480.7,89.4s-0.1,0.4-0.2,1.3s-0.4,2.1-0.7,3.7c-0.6,3.3-1.5,8.1-2.7,14.2c-2.4,12.3-5.8,29.9-9.9,51.1l0,0.2h-0.2
		L379,142.7l-0.3-0.1l0-0.3l0,0c5-25.4,9.7-49.3,13.8-70.2l0-0.2l0.2,0.1l63.6,12.6l17.9,3.6l4.7,1l1.2,0.2L480.7,89.4z"/>
	
		<rect x="398.6" y="74.3" transform="matrix(0.1922 -0.9814 0.9814 0.1922 233.5173 515.4387)" class="st2" width="62.6" height="83.3"/>
	<polygon class="st1" points="383,138.6 419,106 432,133.4 446.5,122.9 464.7,154.6 	"/>
	<path class="st1" d="M445.1,106.3c-0.7,3.6-4.1,5.9-7.7,5.2c-3.6-0.7-5.9-4.1-5.2-7.7c0.7-3.6,4.1-5.9,7.7-5.2c0,0,0,0,0,0
		C443.5,99.3,445.8,102.7,445.1,106.3C445.1,106.3,445.1,106.3,445.1,106.3z"/>
	<polygon class="st0" points="54.7,33.2 59.3,86.2 79.8,91.8 119.7,87.1 114.1,27.5 	"/>
	<path class="st2" d="M65.6,81.4l-6.3,4.8c2.4,2.1,5.2,3.6,8.2,4.5c4,1.1,8.2,1.5,12.4,1C79.8,91.7,70.3,90.1,65.6,81.4z"/>
	<path class="st1" d="M109.3,47c0,0.1-10.1,1.2-22.5,2.4s-22.6,2.1-22.6,2s10.1-1.2,22.5-2.4S109.3,46.9,109.3,47z"/>
	<path class="st1" d="M109.9,55.1c0,0.1-10.1,1.2-22.5,2.4s-22.6,2.1-22.6,2s10.1-1.2,22.5-2.4S109.9,55,109.9,55.1z"/>
	<path class="st1" d="M110.8,62.3c0,0.1-10.1,1.2-22.5,2.4s-22.6,2.1-22.6,2s10.1-1.2,22.5-2.4S110.8,62.2,110.8,62.3z"/>
	<path class="st1" d="M111.4,69.3c0,0.1-10.1,1.2-22.5,2.4s-22.6,2.1-22.6,2s10.1-1.2,22.5-2.4S111.4,69.2,111.4,69.3z"/>
</g>
<g id="freepik--Floor--inject-17">
	<path class="st4" d="M484.4,459.9c0,0.1-105.4,0.3-235.4,0.3S13.6,460,13.6,459.9s105.4-0.3,235.4-0.3S484.4,459.8,484.4,459.9z"/>
</g>
<g id="freepik--Thesis--inject-17">
	<polygon class="st1" points="41.9,125.3 84.1,366.8 261.9,338.9 270.1,319 222,95.7 55.4,105.7 	"/>
	<polygon class="st5" points="84.1,366.8 96.7,347.4 54.6,106 41.9,125.3 	"/>
	<polygon class="st3" points="54.6,106 96.7,347.4 270.1,319 226.3,81.5 	"/>
	<path class="st4" d="M54.6,106l171.7-24.7h0.2v0.2c12.3,66.3,27.5,148.5,43.9,237.4l0,0.3l-0.3,0l-2.9,0.5l-170.5,28h-0.2v-0.2
		C71.7,204.9,54.9,108.1,54.6,106c0.4,2.1,17.4,98.8,42.4,241.4l-0.3-0.2l170.5-28l2.9-0.5l-0.2,0.3
		c-16.4-88.9-31.5-171.1-43.8-237.5l0.2,0.2L54.6,106z"/>
	<circle class="st6" cx="164.3" cy="216.4" r="29.6"/>
	<path class="st7" d="M150.7,224.2l-1.3-8.5l29.5-4.7l1.3,8c0,0-1.8,6.9-13.7,8.8S150.7,224.2,150.7,224.2z"/>
	<polygon class="st7" points="144.8,215.7 165.8,219.5 184,209.2 163,205.9 	"/>
	<path class="st1" d="M99.1,149.7l104.5-16.5c1.3-0.2,2.5,0.7,2.7,2l0.4,2.2c0.2,1.3-0.7,2.5-2,2.7l-104.5,16.5
		c-1.3,0.2-2.5-0.7-2.7-2l-0.4-2.2C96.9,151.1,97.8,149.9,99.1,149.7z"/>
	<path class="st1" d="M120.8,161l66.3-10.5c1.3-0.2,2.5,0.7,2.7,2l0.4,2.2c0.2,1.3-0.7,2.5-2,2.7l-66.3,10.5c-1.3,0.2-2.5-0.7-2.7-2
		l-0.4-2.2C118.6,162.4,119.5,161.2,120.8,161z"/>
	<path class="st1" d="M144.7,309.2l66.3-10.5c1.3-0.2,2.5,0.7,2.7,2l0.4,2.2c0.2,1.3-0.7,2.5-2,2.7L145.7,316
		c-1.3,0.2-2.5-0.7-2.7-2l-0.4-2.2C142.5,310.6,143.4,309.4,144.7,309.2z"/>
	<path class="st4" d="M261.2,325.7l-0.8,0.2l-2.5,0.4l-9.6,1.6l-35.6,5.8L92.4,353.2l-0.3,0V353c-1.7-9.5-3.4-19.5-5.2-29.7
		C77.2,268.5,68.5,219,62.2,183.1c-3.1-17.9-5.7-32.4-7.4-42.5c-0.9-5-1.5-8.9-2-11.6c-0.2-1.3-0.4-2.3-0.5-3s-0.2-1-0.2-1
		s0.1,0.3,0.2,1s0.3,1.7,0.5,3c0.5,2.6,1.2,6.5,2.1,11.5c1.8,10,4.4,24.5,7.6,42.5c6.3,35.9,15.1,85.4,24.8,140.2
		c1.8,10.2,3.6,20.2,5.2,29.7l-0.3-0.2l120.3-19.4l35.6-5.7l9.6-1.5l2.5-0.4L261.2,325.7z"/>
	<path class="st4" d="M248,334.7l-0.8,0.2l-2.3,0.4l-9.1,1.5l-33.7,5.6L87.8,361.4h-0.3v-0.2L81,325.5
		c-9.8-54-18.7-102.9-25.1-138.2c-3.2-17.7-5.8-32-7.5-41.9c-0.9-4.9-1.6-8.8-2-11.4c-0.2-1.3-0.4-2.3-0.5-3s-0.2-1-0.2-1
		s0.1,0.3,0.2,1l0.6,3c0.5,2.6,1.2,6.4,2.1,11.4l7.7,41.9c6.5,35.4,15.4,84.2,25.2,138.2c2.2,12.2,4.4,24.2,6.5,35.7l-0.3-0.2
		L202,342.1l33.7-5.5l9.1-1.5l2.4-0.4L248,334.7z"/>
	<polygon class="st4" points="58.8,208.2 54.8,213.8 64.3,270.6 70,272.6 	"/>
	
		<rect x="64.2" y="205.4" transform="matrix(0.9851 -0.1721 0.1721 0.9851 -39.8008 16.962)" class="st4" width="27.5" height="65.3"/>
	<path class="st4" d="M84.9,201.3l1.8-0.3c1-0.2,2,0.5,2.1,1.5l11.4,65.2c0.2,1-0.5,2-1.5,2.1l-1.8,0.3c-1,0.2-2-0.5-2.1-1.5
		l-11.4-65.2C83.3,202.4,83.9,201.5,84.9,201.3z"/>
	<path class="st8" d="M54.1,254.8c-6.2,0-11.4-4.6-12.3-10.8c-0.9-6.8,3.8-13,10.6-14c3.7-0.5,7.4,0.7,10.2,3.3l16.9-9.6
		c1.1-0.6,2.5-0.2,3.2,0.9c0.1,0.2,0.2,0.5,0.3,0.7l4,22.9c0.2,1.3-0.6,2.5-1.9,2.7c-0.3,0-0.5,0-0.8,0l-19.1-3
		C63.1,252.1,58.8,254.8,54.1,254.8L54.1,254.8z M54.1,232c-0.5,0-1,0-1.5,0.1c-5.6,0.9-9.5,6.1-8.8,11.7c0.8,5.7,6,9.7,11.7,8.9
		c3.7-0.5,6.8-2.9,8.2-6.3l0.3-0.7l20.6,3.3c0.1,0,0.2,0,0.3-0.1c0.1-0.1,0.1-0.2,0.1-0.3l-4-22.9c0-0.1-0.1-0.2-0.2-0.2
		c-0.1,0-0.2,0-0.3,0l-18.2,10.3l-0.5-0.6C59.7,233.2,57,232,54.1,232L54.1,232z"/>
	<path class="st8" d="M94.7,267.8c-0.1-0.2-0.1-0.4-0.1-0.6c-0.1-0.5-0.2-1.1-0.3-1.8c-0.3-1.7-0.7-4-1.2-6.8
		c-1-5.8-2.4-13.7-4-22.4s-2.9-16.6-3.9-22.5c-0.5-2.8-0.8-5.1-1.1-6.8c-0.1-0.8-0.2-1.4-0.3-1.9c0-0.2-0.1-0.4-0.1-0.6
		c0.1,0.2,0.1,0.4,0.2,0.6c0.1,0.5,0.2,1.1,0.4,1.8c0.3,1.7,0.8,4,1.3,6.8c1.1,5.7,2.5,13.7,4,22.4s2.9,16.7,3.8,22.5
		c0.5,2.9,0.8,5.2,1.1,6.8c0.1,0.8,0.2,1.4,0.2,1.9C94.7,267.3,94.7,267.5,94.7,267.8z"/>
	<path class="st8" d="M69.4,272.8c-0.1-0.2-0.1-0.4-0.1-0.6c-0.1-0.5-0.2-1.1-0.3-1.8c-0.3-1.7-0.7-4-1.2-6.8
		c-1-5.8-2.4-13.7-4-22.4s-2.9-16.6-3.9-22.4c-0.5-2.8-0.8-5.1-1.1-6.8c-0.1-0.8-0.2-1.4-0.3-1.9c0-0.2-0.1-0.4-0.1-0.7
		c0.1,0.2,0.1,0.4,0.2,0.6c0.1,0.5,0.2,1.1,0.4,1.8c0.3,1.7,0.8,4,1.3,6.8c1.1,5.7,2.5,13.7,4,22.4c1.5,8.8,2.9,16.7,3.8,22.5
		c0.5,2.9,0.8,5.2,1.1,6.8c0.1,0.8,0.2,1.4,0.2,1.9C69.4,272.3,69.5,272.6,69.4,272.8z"/>
	<path class="st4" d="M184,209.2c-0.4,0.3-0.9,0.6-1.4,0.9l-3.9,2.3c-3.3,1.9-7.8,4.5-12.9,7.3l-0.1,0.1h-0.1h-0.2
		c-5.8-1-11-2-14.7-2.7l-4.4-0.9c-0.6-0.1-1.1-0.2-1.6-0.4c0.6,0,1.1,0.1,1.7,0.2l4.5,0.7c3.8,0.6,9,1.5,14.7,2.5h0.2h-0.2
		c5.1-2.8,9.6-5.4,13-7.2l3.9-2.1C183,209.6,183.5,209.4,184,209.2z"/>
	<g class="st9">
		<path class="st4" d="M124.7,135.3l-1.4-8.6l-3.1,0.5l-0.3-1.8l8.3-1.3l0.3,1.8l-3.1,0.5l1.4,8.6L124.7,135.3z"/>
		<path class="st4" d="M131.2,134.2l-1.7-10.4l2.1-0.3l0.7,4.1l4.1-0.7l-0.7-4.1l2.1-0.3l1.7,10.4l-2.1,0.3l-0.7-4.6l-4.1,0.7
			l0.7,4.6L131.2,134.2z"/>
		<path class="st4" d="M141.7,132.5l-1.7-10.4l7.7-1.2l0.3,1.8l-5.6,0.9l0.4,2.3l5.2-0.8l0.3,1.8l-5.2,0.8l0.5,2.8l5.8-0.9l0.3,1.8
			L141.7,132.5z"/>
		<path class="st4" d="M150.3,127.7l2-0.5c0.2,0.7,0.6,1.1,1,1.4c0.4,0.3,1,0.3,1.6,0.2c0.7-0.1,1.2-0.3,1.5-0.7
			c0.3-0.3,0.4-0.7,0.4-1.1c0-0.2-0.1-0.4-0.3-0.6c-0.2-0.1-0.4-0.3-0.8-0.3c-0.3,0-0.8-0.1-1.8-0.2c-1.2-0.1-2-0.3-2.5-0.6
			c-0.7-0.5-1.2-1.1-1.3-1.9c-0.1-0.5,0-1.1,0.2-1.6c0.2-0.5,0.6-0.9,1.1-1.3c0.5-0.3,1.2-0.6,2-0.7c1.3-0.2,2.3-0.1,3.1,0.4
			c0.8,0.5,1.2,1.2,1.4,2.1l-2.1,0.4c-0.2-0.5-0.4-0.9-0.8-1.1c-0.3-0.2-0.8-0.2-1.4-0.1c-0.6,0.1-1.1,0.3-1.4,0.6
			c-0.2,0.2-0.3,0.4-0.2,0.7c0,0.2,0.2,0.4,0.4,0.6c0.3,0.2,1,0.3,2,0.4c1.1,0.1,1.9,0.2,2.4,0.4c0.5,0.2,1,0.5,1.3,0.9
			c0.3,0.4,0.6,0.9,0.7,1.6c0.1,0.6,0,1.2-0.2,1.8s-0.7,1-1.2,1.4c-0.6,0.4-1.3,0.6-2.2,0.7c-1.3,0.2-2.4,0.1-3.2-0.4
			C151.2,129.6,150.6,128.8,150.3,127.7z"/>
		<path class="st4" d="M161,129.4l-1.7-10.4l2.1-0.3l1.7,10.4L161,129.4z"/>
		<path class="st4" d="M164,125.4l2-0.5c0.2,0.7,0.6,1.1,1,1.4c0.4,0.3,1,0.3,1.6,0.2c0.7-0.1,1.2-0.3,1.5-0.7
			c0.3-0.3,0.4-0.7,0.4-1.1c0-0.2-0.1-0.4-0.3-0.6c-0.2-0.1-0.4-0.3-0.8-0.3c-0.3,0-0.8-0.1-1.8-0.2c-1.2-0.1-2-0.3-2.5-0.6
			c-0.7-0.5-1.2-1.1-1.3-1.9c-0.1-0.5,0-1.1,0.2-1.6c0.2-0.5,0.6-0.9,1.1-1.3s1.2-0.6,2-0.7c1.3-0.2,2.3-0.1,3.1,0.4
			c0.8,0.5,1.2,1.2,1.4,2.1l-2.1,0.4c-0.2-0.5-0.4-0.9-0.8-1.1c-0.3-0.2-0.8-0.2-1.4-0.1c-0.6,0.1-1.1,0.3-1.4,0.6
			c-0.2,0.2-0.3,0.4-0.2,0.7c0,0.2,0.2,0.4,0.4,0.6c0.3,0.2,1,0.3,2,0.4s1.9,0.2,2.4,0.4c0.5,0.2,1,0.5,1.3,0.9
			c0.3,0.4,0.6,0.9,0.7,1.6c0.1,0.6,0,1.2-0.2,1.8c-0.2,0.6-0.7,1-1.2,1.4c-0.6,0.4-1.3,0.6-2.2,0.7c-1.3,0.2-2.4,0.1-3.2-0.4
			C164.9,127.4,164.4,126.6,164,125.4z"/>
	</g>
</g>
<g id="freepik--Books--inject-17">
	<path class="st6" d="M199.2,325.8h85.3l0,0v44.7l0,0h-85.3c-9.7,0-17.6-7.9-17.6-17.6v-9.5C181.5,333.7,189.4,325.8,199.2,325.8
		L199.2,325.8z"/>
	<path class="st6" d="M262.1,325.8H442c1.6,0,2.9,1.3,2.9,2.9v1.6c0,1.6-1.3,2.9-2.9,2.9H262.1l0,0V325.8L262.1,325.8z"/>
	<path class="st6" d="M262.1,363.1H442c1.6,0,2.9,1.3,2.9,2.9v1.6c0,1.6-1.3,2.9-2.9,2.9H262.1l0,0V363.1L262.1,363.1z"/>
	<path class="st0" d="M439.5,363.1H282.5c-8.3,0-14.9-6.7-14.9-14.9c0,0,0,0,0,0l0,0c0-8.3,6.7-14.9,14.9-14.9l0,0h156.9
		C435.3,342.7,435.3,353.6,439.5,363.1z"/>
	<path class="st5" d="M267.6,370.5h-68.1c-9.9,0-18-8.1-18-18v-8.9c0-9.9,8-17.9,17.9-17.9h0h69.9
		C253.1,335.6,254.3,359.1,267.6,370.5z"/>
	<path class="st4" d="M420.4,349.5c0,0.1-32.2,0.3-71.9,0.3s-71.9-0.1-71.9-0.3s32.2-0.3,71.9-0.3S420.4,349.4,420.4,349.5z"/>
	<path class="st4" d="M435.2,356.2c0,0.1-32.2,0.3-71.9,0.3s-71.9-0.1-71.9-0.3s32.2-0.3,71.9-0.3S435.2,356,435.2,356.2z"/>
	<path class="st4" d="M430.8,340.1c0,0.1-32.2,0.3-71.9,0.3s-71.9-0.1-71.9-0.3s32.2-0.3,71.9-0.3S430.8,340,430.8,340.1z"/>
	<path class="st4" d="M259.7,367.4c0,0.1-15.1,0.3-33.7,0.3s-33.7-0.1-33.7-0.3s15.1-0.3,33.7-0.3S259.7,367.2,259.7,367.4z"/>
	<path class="st4" d="M259.7,329.5c0,0.1-15.1,0.3-33.7,0.3s-33.7-0.1-33.7-0.3s15.1-0.3,33.7-0.3S259.7,329.4,259.7,329.5z"/>
	<path class="st6" d="M161.5,401.9h114.9l0,0v57.6l0,0H161.5c-9.7,0-17.6-7.9-17.6-17.6v-22.3C143.9,409.8,151.8,401.9,161.5,401.9z
		"/>
	<path class="st6" d="M247.7,401.9h232.4c1.6,0,2.9,1.3,2.9,2.9v3.7c0,1.6-1.3,2.9-2.9,2.9H247.7l0,0V401.9L247.7,401.9z"/>
	<path class="st6" d="M247.7,450h232.4c1.6,0,2.9,1.3,2.9,2.9v3.7c0,1.6-1.3,2.9-2.9,2.9H247.7l0,0V450L247.7,450z"/>
	<path class="st0" d="M476.1,450H274c-10.6,0-19.2-8.6-19.2-19.2l0,0c0-10.6,8.6-19.2,19.2-19.2h202.1
		C470.6,423.8,470.6,437.7,476.1,450z"/>
	<path class="st5" d="M254.7,459.6h-93.4c-9.6,0-17.4-7.8-17.4-17.4c0,0,0,0,0,0V420c0-9.9,8.1-18,18-18h95
		C236.1,414.6,237.6,444.9,254.7,459.6z"/>
	<path class="st4" d="M451.5,432.5c0,0.1-41.5,0.3-92.6,0.3s-92.6-0.1-92.6-0.3s41.5-0.3,92.6-0.3S451.5,432.4,451.5,432.5z"/>
	<path class="st4" d="M470.6,441.1c0,0.1-41.5,0.3-92.6,0.3s-92.6-0.1-92.6-0.3s41.5-0.3,92.6-0.3S470.6,441,470.6,441.1z"/>
	<path class="st4" d="M465,424.6c0,0.1-41.5,0.3-92.6,0.3s-92.6-0.1-92.6-0.3s41.5-0.3,92.6-0.3S465,424.5,465,424.6z"/>
	<path class="st4" d="M244.6,455.5c0,0.1-19.4,0.3-43.4,0.3s-43.4-0.1-43.4-0.3s19.4-0.3,43.4-0.3S244.6,455.4,244.6,455.5z"/>
	<path class="st4" d="M244.6,406.7c0,0.1-19.4,0.3-43.4,0.3s-43.4-0.1-43.4-0.3s19.4-0.3,43.4-0.3S244.6,406.6,244.6,406.7z"/>
	<path class="st8" d="M216.2,369.2h94.7l0,0v33l0,0h-94.7c-7.2,0-13-5.8-13-13v-7C203.2,375,209,369.2,216.2,369.2L216.2,369.2z"/>
	<path class="st8" d="M287.5,369.2h188.2c1.7,0,3.1,1.4,3.1,3.1l0,0v1.6c0,1.7-1.4,3.1-3.1,3.1l0,0H287.5l0,0V369.2L287.5,369.2z"/>
	<path class="st8" d="M287.5,394.4h188.2c1.7,0,3.1,1.4,3.1,3.1l0,0v1.6c0,1.7-1.4,3.1-3.1,3.1l0,0H287.5l0,0V394.4L287.5,394.4z"/>
	<path class="st0" d="M473,394.4H302c-4.8,0-8.7-3.9-8.7-8.7l0,0c0-4.8,3.9-8.7,8.7-8.7h0h171C468.6,382.8,468.6,388.6,473,394.4z"
		/>
	<path class="st5" d="M293.2,402.1h-77c-7.2,0-13.1-5.9-13.1-13.1c0,0,0,0,0,0v-6.5c0-7.4,6-13.4,13.4-13.4c0,0,0,0,0,0H295
		C278,376.4,279.3,393.7,293.2,402.1z"/>
	<path class="st4" d="M453.1,384.3c0,0.1-33.7,0.3-75.3,0.3s-75.3-0.1-75.3-0.3s33.7-0.3,75.3-0.3S453.1,384.1,453.1,384.3z"/>
	<path class="st4" d="M468.6,389c0,0.1-33.7,0.3-75.3,0.3s-75.3-0.1-75.3-0.3s33.7-0.3,75.3-0.3S468.6,388.8,468.6,389z"/>
	<path class="st4" d="M285,398.9c0,0.1-15.8,0.3-35.2,0.3s-35.2-0.1-35.2-0.3s15.8-0.3,35.2-0.3S285,398.7,285,398.9z"/>
	<path class="st4" d="M285,373c0,0.1-15.8,0.3-35.2,0.3s-35.2-0.1-35.2-0.3s15.8-0.3,35.2-0.3S285,372.9,285,373z"/>
	<path class="st4" d="M476.5,369.2c0,0.1-57.9,0.3-129.2,0.3S218,369.3,218,369.2s57.9-0.3,129.2-0.3S476.5,369,476.5,369.2z"/>
	<polygon class="st6" points="372.7,339.6 372.7,357.6 378.9,353.6 385.9,357.6 385.9,339.6 	"/>
</g>
<g id="freepik--Pencil--inject-17">
	<polygon class="st6" points="435.8,161.8 404.6,187.8 357,281.8 386.7,295.2 432.9,203 	"/>
	<g class="st10">
		<path class="st7" d="M432.9,203c-1.3,0.3-2.6-0.5-2.9-1.8c-0.1-0.2-0.1-0.4-0.1-0.7c-2.6,3-7.2,3.4-10.2,0.8
			c-1.7-1.5-2.6-3.7-2.5-5.9c-4.1,2.2-9.2,0.7-11.4-3.4c-0.7-1.4-1.1-2.9-1-4.4l31-25.9L432.9,203z"/>
	</g>
	<path class="st6" d="M423.3,172.2c0,0,0.5,7.8,11.4,6.4l1.2-16.9L423.3,172.2z"/>
	<path class="st5" d="M417.2,195.5l-45.9,92.3l-14.4-6l47.6-94l0.2-0.2c-0.1,1.3,0.1,2.5,0.6,3.7c0.7,1.5,1.7,2.8,3.1,3.8
		c1.7,1.1,3.7,1.6,5.7,1.4C415.3,196.3,416.3,196,417.2,195.5z"/>
	<path class="st5" d="M430,200.6l-47.1,92.8l3.8,1.7l46.2-92.2c-1.3,0.2-2.6-0.6-2.9-1.8C430,201,430,200.8,430,200.6z"/>
	<path class="st7" d="M417,186.5c-0.1,0.1-0.2,0.3-0.2,0.4c0,0.5,0.3,0.8,0.8,0.9c0.7,0,1.4-0.2,2-0.6c0.4-0.2,0.7-0.5,0.9-0.9
		c0.2-0.4,0.2-0.9-0.1-1.3c-0.3-0.4-0.8-0.7-1.4-0.7c-0.6-0.1-1.2,0-1.7,0.1c-1.3,0.2-2.5,0.7-3.6,1.4c-0.6,0.4-1,1-1.1,1.6
		c0,0.7,0.3,1.4,0.9,1.8c1.3,0.8,2.9,1,4.4,0.5c2.9-0.6,5.3-2.8,6.1-5.7c0.1-0.6,0-1.3-0.5-1.8c-0.4-0.5-1-0.8-1.5-1
		c-1.1-0.4-2.2-0.6-3.3-0.7c-1.6-0.1-3.3,0.2-4.8,0.7c-0.5,0.2-1,0.4-1.2,0.5s-0.4,0.2-0.4,0.2c0.5-0.3,1.1-0.6,1.6-0.8
		c1.5-0.6,3.2-0.9,4.9-0.8c1.1,0,2.3,0.3,3.4,0.6c0.6,0.2,1.2,0.6,1.6,1.1c0.5,0.5,0.7,1.3,0.5,2c-1.1,3.8-4.7,6.4-8.6,6.1
		c-0.8,0-1.5-0.3-2.2-0.8c-0.7-0.5-1-1.2-1-2c0.1-0.7,0.6-1.4,1.2-1.8c1.1-0.7,2.4-1.2,3.7-1.4c0.6-0.1,1.2-0.1,1.8-0.1
		c0.6,0,1.1,0.3,1.5,0.8c0.3,0.4,0.3,1,0.1,1.5c-0.2,0.4-0.5,0.8-0.9,1c-0.6,0.4-1.3,0.6-2,0.5c-0.5,0-0.9-0.5-0.8-0.9
		C416.8,186.6,417,186.5,417,186.5z"/>
	<path class="st7" d="M433.8,186c0,0-0.5-0.1-1.3,0c-1.2,0.1-2.3,0.4-3.4,0.9c-1.5,0.8-3,1.8-4.3,2.9c-1.6,1.4-3.5,2.6-5.4,3.4
		c-2.1,0.7-4.3,0.8-6.4,0.2c-1.7-0.5-3.3-1.3-4.6-2.5c-0.9-0.8-1.6-1.8-2.2-2.9c-0.2-0.4-0.4-0.8-0.5-1.2c0.1,0.1,0.1,0.2,0.1,0.3
		c0.1,0.2,0.2,0.5,0.4,0.9c0.6,1,1.3,1.9,2.2,2.7c1.3,1.2,2.8,2,4.5,2.4c2.1,0.5,4.2,0.4,6.2-0.3c2-0.8,3.8-1.9,5.4-3.3
		c1.3-1.1,2.8-2.1,4.4-2.9c1.1-0.5,2.2-0.8,3.4-0.9C432.9,185.8,433.4,185.9,433.8,186z"/>
	<path class="st7" d="M433.6,195.4c-0.6-0.6-1.3-0.9-2.1-1c-2,0-3.9,0.3-5.8,0.9c-1.9,0.5-3.8,1.2-5.6,2.1c-0.7,0.3-1.2,0.6-1.6,0.8
		c-0.2,0.1-0.4,0.2-0.6,0.3c0.2-0.1,0.4-0.3,0.5-0.4c0.4-0.2,0.9-0.5,1.6-0.9c1.8-0.9,3.6-1.6,5.6-2.1c1.1-0.3,2.1-0.5,3.2-0.7
		c0.9-0.2,1.8-0.2,2.7-0.1c0.6,0.1,1.2,0.3,1.7,0.7C433.3,195,433.5,195.2,433.6,195.4z"/>
	<path class="st7" d="M420.6,202c0.3-0.3,0.6-0.6,1-0.9c0.9-0.7,1.9-1.1,3-1.3c1.1-0.2,2.2,0.1,3.1,0.8c0.3,0.2,0.5,0.5,0.6,0.8
		c0.1,0.1,0.1,0.2,0.1,0.3c-0.2-0.4-0.5-0.7-0.9-1c-0.9-0.6-2-0.9-3-0.7c-1,0.2-2,0.6-2.9,1.2C421.4,201.5,421,201.8,420.6,202z"/>
	<path class="st7" d="M434.6,180.4c0,0-0.1,0.1-0.1,0.1c-0.1,0.1-0.2,0.2-0.5,0.3c-0.2,0.2-0.5,0.3-0.8,0.4c-0.4,0.1-0.8,0-1.2-0.1
		c-0.9-0.2-1.8-0.6-2.9-1c-1.2-0.4-2.4-0.7-3.6-0.9c-2.2-0.3-4.5-0.5-6.7-0.4h-2c-0.2,0-0.5,0-0.8,0l0.8-0.1l2-0.1
		c2.2-0.1,4.5,0.1,6.7,0.4c1.2,0.2,2.4,0.5,3.6,0.9c1.1,0.4,2,0.8,2.8,1c0.6,0.2,1.3,0.2,1.9-0.2
		C434.2,180.6,434.4,180.5,434.6,180.4z"/>
</g>
<g id="freepik--graduation-cap--inject-17">
	<path class="st6" d="M467.7,265.3v81.9c0,0.4,0.4,0.6,0.7,0.6c0.3,0,0.5-0.3,0.6-0.6v-81.9c0-0.4-0.4-0.6-0.7-0.6
		C468,264.7,467.8,265,467.7,265.3z"/>
	<path class="st6" d="M473,329.1c0,2.6-2.1,4.6-4.6,4.6s-4.6-2.1-4.6-4.6c0-2.6,2.1-4.6,4.6-4.6l0,0
		C470.9,324.5,473,326.6,473,329.1z"/>
	<path class="st6" d="M467.1,331.5c0,0-3.4,3.4-4.4,13.2s-1.2,14.8-1.2,14.8l9.1,0.6v-7.1c0,0.3,1.8,5.3,1.8,5.3l7.2-2.4
		C479.5,356,477,329.7,467.1,331.5z"/>
	<rect x="265.7" y="272" class="st4" width="154.2" height="55.6"/>
	<rect x="210.3" y="262.4" class="st4" width="263.8" height="9.6"/>
	<path class="st5" d="M265.7,311.8c0,0,46.8-16.8,77.1-23s77.1-4.1,77.1-4.1V272H265.7V311.8z"/>
	<rect x="210.3" y="262.4" class="st5" width="95.4" height="9.6"/>
	<path class="st8" d="M472.1,272c0,0.1-58.6,0.3-131,0.3s-131-0.1-131-0.3s58.6-0.3,131-0.3S472.1,271.8,472.1,272z"/>
	<path class="st8" d="M305.5,272c-0.4-3.2-0.4-6.5,0-9.7C305.9,265.6,305.9,268.8,305.5,272z"/>
	<path class="st8" d="M327.5,327.6c-0.1,0-0.3-10.9-0.3-24.2s0.1-24.2,0.3-24.2s0.3,10.8,0.3,24.2S327.7,327.6,327.5,327.6z"/>
</g>
<g id="freepik--Character--inject-17">
	<path class="st11" d="M104.4,395.8l17.7-7.2l13.5-35.4l18.1,9.3c0,0-1.7,3.5-5.5,12.1c-1.4,3.3-6.2,12.6-8.2,17.2
		c-3.7,8.6-12,14.2-21.3,14.5l-16.6,0.4L104.4,395.8z"/>
	<path class="st11" d="M95.6,389l-2.6-2.8c-0.5-0.3-1.1-0.5-1.7-0.5l-8.5,0.3c-1.6,0.2-3,1-3.9,2.4l-3.1,5.2c0,0-2.1,3.6-1.8,4.5
		c0.2,0.8,1,1.2,1.8,1c0,0,0.3,1.7,0.8,2c0.6,0.3,1.4,0.4,2.1,0.1c0.3,0.6,1,1,1.7,1c0.1,0,0.3,0,0.4-0.1c1-0.3,1.5-2.3,1.5-2.3
		l4.3-0.8c0,0,6.2,4.1,8.4,6.8s7.9,0.6,7.9,0.6l2.1-10.2L95.6,389z"/>
	<path class="st12" d="M89.4,390.2c-0.6,0.2-1.2,0.3-1.9,0.3c-1.2,0.1-2.8,0.2-4.7,0.4l0.2-0.1c-0.3,0.7-0.7,1.4-1.1,2
		c-1.1,1.8-2.5,3.4-4.1,4.8c-0.6,0.6-1.3,1.1-2.1,1.5c0-0.1,0.8-0.7,1.9-1.8c1.5-1.5,2.8-3.1,3.9-4.8c0.4-0.7,0.8-1.3,1.1-2l0.1-0.1
		h0.1c1.9-0.2,3.6-0.2,4.7-0.2C88.1,390.1,88.8,390.1,89.4,390.2z"/>
	<path class="st12" d="M89.6,394.3c-0.5,0.2-1,0.4-1.6,0.4c-1.4,0.2-2.8,0.1-4.2-0.1l0.3-0.2c-0.2,0.5-0.4,1-0.6,1.5
		c-0.8,1.6-1.9,3-3.2,4.2c-0.5,0.5-1.1,0.9-1.8,1.2c0.5-0.5,1-1,1.6-1.5c1.2-1.2,2.2-2.6,3-4.1c0.2-0.5,0.4-1,0.6-1.5l0.1-0.2H84
		C85.8,394.3,87.7,394.4,89.6,394.3z"/>
	<path class="st11" d="M100.4,396.4l-7.6-3.5c-1-0.6-2.1-0.9-3.3-1c-1.2,0.1-2.4,0.5-3.5,1.2l-4.1,2.1c-0.2,0.1-0.5,0.3-0.5,0.5
		s0.1,0.6,0.3,0.9c2.2,2.1,5.5,2.2,7.9,0.3c0.6,1.8,1.4,3.5,2.6,5c1.2,1.5,3.1,2.3,5,2.1"/>
	<path class="st12" d="M97.2,404c-0.1,0-0.1,0.1-0.2,0.1c-0.2,0.1-0.4,0.1-0.6,0.1c-0.8,0-1.6-0.2-2.3-0.6c-1.1-0.6-2-1.4-2.7-2.4
		c-0.8-1.3-1.5-2.7-2-4.2l0.4,0.1c-1.2,1-2.8,1.5-4.4,1.4c-0.9-0.1-1.7-0.3-2.5-0.7c-0.4-0.2-0.8-0.5-1.1-0.8
		c-0.2-0.1-0.3-0.3-0.5-0.5c-0.2-0.2-0.3-0.5-0.2-0.8c0.1-0.2,0.2-0.4,0.4-0.6c0.2-0.1,0.3-0.2,0.5-0.3l0.9-0.5l1.8-1
		c1.1-0.7,2.4-1.2,3.7-1.6c1.2-0.2,2.5,0,3.6,0.5c1,0.5,2,0.9,2.8,1.3l4,2c0.5,0.2,1,0.5,1.4,0.8c-0.5-0.2-1-0.4-1.5-0.6l-4.1-1.8
		l-2.8-1.3c-1-0.5-2.2-0.7-3.3-0.5c-1.2,0.4-2.4,0.9-3.5,1.6l-1.8,1l-0.9,0.5c-0.3,0.2-0.7,0.3-0.7,0.5s0.2,0.5,0.5,0.8
		c0.3,0.3,0.6,0.5,1,0.7c0.7,0.4,1.5,0.6,2.2,0.6c1.5,0.1,2.9-0.3,4.1-1.2l0.3-0.2l0.1,0.3c0.5,1.5,1.1,2.9,1.9,4.2
		c0.6,1,1.5,1.8,2.5,2.4C95.1,403.9,96.1,404.1,97.2,404z"/>
	<path class="st4" d="M198.8,297.3c0.1-5.7,1-11.3,0.7-17s-1.7-11.6-5.7-15.7s-10.9-5.6-15.5-2.4l-1,4.8c1.8,21.9,1.6,44.1,3.4,66.1
		c0.2,2.9,2.6,5.5,3.9,8.1s3.9,4.7,6.8,4.5c3.8-0.2,6.2-4,7.4-7.6C203.2,325.1,198.6,311,198.8,297.3z"/>
	<path class="st6" d="M185.1,267.8c-0.8-1.4-1.7-2.8-2.9-3.9c-1.2-1.2-2.8-1.7-4.5-1.5c-0.8,0.1-1.4,0.6-1.8,1.3
		c-0.2,0.7,0.3,1.7,1.1,1.6l0.2,0.1c1.7,1.5,3.4,3,5.2,4.4c0.4,0.4,0.9,0.7,1.4,0.9c0.6,0.2,1.2,0.1,1.6-0.3
		C186.1,269.7,185.6,268.6,185.1,267.8z"/>
	<path class="st4" d="M188.4,273.4c-5.7-6.9-13.3-10.9-22.2-11c-5-0.1-7.1,1-10.8,1.9c-3.6,0.9-6.8,3-9.1,6
		c-2.6,3.6-4.7,7.7-5.2,12.2c-0.6,4.5-0.9,9.1-0.6,13.7c0.2,4.6,1.7,9.1,4.3,12.9l11.6,2c6.4,0.2,12.9,0.4,19.2-1
		s12.4-4.8,15.7-10.3C195.9,292.1,194,280.3,188.4,273.4z"/>
	<path class="st11" d="M178,273.3l-15.5-6.2l-4.1,0.5c-9.1,0-15.4,10.1-15.5,17.5c-0.1,8.2,0.2,18.2,1.5,24.3
		c2.6,12.2,13,13.2,13,13.2s-0.2,6.5-0.3,10.6l23.8-1.7l1.2-53.9C182,275.2,180.2,273.4,178,273.3z"/>
	<path class="st12" d="M162.7,306.5c-0.1-0.6-0.4-1.2-0.9-1.6c-0.9-0.8-2.2-0.9-3.2-0.2c-1,0.8-1.5,2.1-1.4,3.3l0,0
		c0.5,0.8,1.4,1.2,2.3,1.3c0.1,0,0.3,0,0.4,0c0.7,0,1.5-0.3,2-0.8C162.5,308.1,162.8,307.3,162.7,306.5z"/>
	<path class="st4" d="M147.1,295.5c0,0.9,0.7,1.5,1.6,1.5c0.8,0,1.5-0.7,1.5-1.5c0,0,0,0,0,0c0-0.9-0.8-1.5-1.6-1.5
		C147.8,294,147.1,294.6,147.1,295.5C147.1,295.5,147.1,295.5,147.1,295.5z"/>
	<path class="st4" d="M145.7,289.2c0.2,0.2,1.4-0.8,3-0.8s3,0.7,3.2,0.5s-0.1-0.5-0.7-0.8c-0.8-0.5-1.6-0.7-2.5-0.6
		c-0.9,0-1.7,0.4-2.4,0.9C145.8,288.7,145.6,289.1,145.7,289.2z"/>
	<path class="st4" d="M156.6,302.5c-0.9-0.2-1.8-0.4-2.8-0.4c-0.4,0-0.9-0.1-0.9-0.4c-0.1-0.4,0-0.9,0.2-1.3
		c0.4-1.1,0.7-2.2,1.1-3.4c1.5-4.8,2.6-8.7,2.4-8.8s-1.6,3.8-3.1,8.6l-1,3.4c-0.2,0.5-0.3,1.1-0.1,1.7c0.1,0.3,0.4,0.5,0.7,0.6
		c0.2,0.1,0.5,0.1,0.7,0.1C154.8,302.7,155.7,302.7,156.6,302.5z"/>
	<path class="st12" d="M157.4,322.6c5.8-0.2,11.4-2.1,16.2-5.3c0,0-3.9,8.8-16.3,8.3L157.4,322.6z"/>
	<path class="st4" d="M161.6,303.4c-0.3,0-0.2,1.8-1.7,3.2s-3.5,1.3-3.5,1.6s0.5,0.3,1.3,0.3c1.1,0,2.1-0.5,2.9-1.2
		c0.8-0.7,1.2-1.7,1.3-2.7C162,303.8,161.8,303.4,161.6,303.4z"/>
	<path class="st4" d="M146.3,283.3c0.3,0.4,1.6,0,3.1,0.1s2.8,0.4,3.1,0c0.1-0.2-0.1-0.6-0.6-1c-0.7-0.5-1.6-0.7-2.5-0.7
		c-0.9,0-1.8,0.2-2.5,0.7C146.4,282.7,146.2,283.1,146.3,283.3z"/>
	<path class="st4" d="M165.5,295.1c0,0.9-0.6,1.6-1.5,1.6c-0.8,0.1-1.6-0.5-1.6-1.4c0,0,0,0,0,0c0-0.9,0.6-1.6,1.5-1.6
		C164.7,293.6,165.5,294.2,165.5,295.1C165.5,295,165.5,295.1,165.5,295.1z"/>
	<path class="st4" d="M168.6,288.5c-0.2,0.2-1.4-0.6-3.1-0.6s-2.9,0.9-3.1,0.7s0.1-0.5,0.6-0.9c0.7-0.5,1.6-0.8,2.5-0.8
		c0.9,0,1.7,0.2,2.5,0.8C168.6,288.1,168.7,288.5,168.6,288.5z"/>
	<path class="st4" d="M167.6,283.1c-0.3,0.4-1.6,0-3.2,0s-2.9,0.3-3.2-0.1c-0.1-0.2,0.1-0.6,0.6-1c0.8-0.5,1.7-0.7,2.6-0.7
		c0.9,0,1.8,0.2,2.6,0.7C167.6,282.5,167.8,282.9,167.6,283.1z"/>
	<path class="st11" d="M180,298.1c0-0.9,0.9-3.1,1.8-3.3c2.4-0.5,6.7-0.6,7.1,5.6c0.5,8.4-8,7.2-8,6.9S180.1,301.3,180,298.1z"/>
	<path class="st12" d="M183,304.1c0,0,0.1,0.1,0.4,0.2c0.4,0.1,0.7,0.1,1.1,0c0.9-0.4,1.5-1.8,1.5-3.3c0-0.7-0.2-1.4-0.5-2.1
		c-0.2-0.5-0.6-0.9-1.2-1c-0.3-0.1-0.7,0.1-0.8,0.5c-0.1,0.2,0,0.4-0.1,0.4s-0.2-0.1-0.1-0.5c0-0.2,0.1-0.4,0.3-0.5
		c0.2-0.2,0.5-0.3,0.8-0.3c0.7,0.1,1.3,0.5,1.6,1.2c0.4,0.7,0.6,1.5,0.6,2.3c0.1,1.7-0.7,3.3-1.9,3.7c-0.4,0.2-0.9,0.1-1.4-0.1
		C183,304.3,183,304.1,183,304.1z"/>
	<path class="st4" d="M182.1,294.8L180,297c-9.2-8.8-27.1-30.8-26.1-29.5c4.2-1.6,8.7-2,13.1-1.4c6.8,1.2,19.8,4.6,19.6,12.6
		S182.1,294.8,182.1,294.8z"/>
	<path class="st8" d="M194.3,293c0-0.2-0.1-0.3-0.1-0.5c-0.2-0.5-0.3-0.9-0.6-1.3c-0.9-1.5-2.1-2.9-3.5-3.9c-2.1-1.5-4.5-2.7-7-3.4
		c-2.8-0.9-5.9-1.6-9.1-3c-2.9-1.2-5.7-2.8-8.3-4.6c-2.1-1.5-4.1-3.2-5.8-5.1c-1.2-1.3-2.3-2.6-3.4-4l-0.8-1.2
		c-0.1-0.1-0.2-0.3-0.3-0.4c0.1,0.2,0.2,0.3,0.2,0.4c0.2,0.3,0.4,0.7,0.8,1.2c1,1.4,2.1,2.8,3.3,4.1c3.9,4.3,8.8,7.7,14.2,9.9
		c3,1.1,6,2.1,9.1,2.9c2.5,0.7,4.9,1.8,7,3.2c1.4,1,2.6,2.3,3.5,3.8C194,292.3,194.2,293,194.3,293z"/>
	<path class="st8" d="M191.8,294.3c0-0.6-0.1-1.3-0.3-1.8c-0.6-1.6-1.7-3-3.1-3.9c-2.1-1.4-4.5-2.3-7-2.7c-3-0.6-5.9-1.5-8.7-2.8
		c-2.8-1.3-5.4-2.9-7.7-4.8c-1.9-1.6-3.7-3.3-5.3-5.2c-1.1-1.3-2.1-2.7-3-4.1l-0.7-1.2c-0.1-0.1-0.2-0.3-0.3-0.4
		c0.1,0.1,0.1,0.3,0.2,0.4l0.6,1.2c0.9,1.5,1.8,2.9,2.9,4.2c1.6,2,3.3,3.7,5.3,5.3c2.4,1.9,5,3.6,7.8,4.9c2.8,1.3,5.7,2.2,8.8,2.8
		c2.4,0.4,4.8,1.3,6.9,2.6c1.4,0.9,2.5,2.2,3.2,3.8C191.5,293.1,191.7,293.7,191.8,294.3z"/>
	<path class="st8" d="M181.8,309c0-0.1,0.7-0.1,1.9-0.5c1.7-0.5,3.3-1.4,4.7-2.6c2-1.8,3.5-4.1,4.4-6.7c1.1-3.1,1.8-6.4,1.8-9.6
		c0-1.7-0.1-3.4-0.4-5.1c-0.8-4.2-2.8-8.1-5.7-11.3c-1.7-1.8-3.6-3.5-5.6-4.9c0,0,0.2,0.1,0.5,0.2s0.7,0.4,1.3,0.8
		c1.5,1,2.9,2.2,4.2,3.6c1.9,2,3.4,4.3,4.5,6.8c0.6,1.5,1.1,3,1.4,4.6c0.3,1.7,0.5,3.4,0.4,5.2c-0.1,3.4-0.7,6.7-1.9,9.8
		c-0.9,2.6-2.5,4.9-4.6,6.8c-1.4,1.2-3.1,2.1-4.9,2.5c-0.5,0.1-1,0.2-1.5,0.2C182.2,309,182,309,181.8,309z"/>
	<path class="st4" d="M192.5,411.9l-49.5,7.2c-18.6,5.3-38.2,6.8-58.6,5l74.5,34.7l29.9,0.5c0,0,9.1,0,10.7-7.9s3.4-32.1,3.4-32.1
		S196.9,414.1,192.5,411.9z"/>
	<g class="st13">
		<path d="M192.3,432.7c0.8,5,1.1,10,0.9,15c3.1-3.4,4.4-8,3.7-12.5c-0.4-2.4-1.4-5.1-0.2-7.3c0.9-1.4,3.1-3.1,2.8-4.7
			c0,0-2,0-3.8-0.1c-1.4-0.1-4.5-0.1-4.5-0.1c1.3,3.1,1.6,6.6,0.8,9.8"/>
	</g>
	<polygon class="st11" points="157.2,331.1 181.2,328.5 185.6,332.5 168.5,342.6 160.9,346.5 153.4,344.2 151.1,339.8 	"/>
	<path class="st8" d="M124.8,360.4c0,0,7.5-14.5,9.4-17.6c3.2-5.4,9.1-8.4,9.1-8.4l13.9-3.2c0,0-1.4,7,7.2,7.4
		c11,0.6,17.8-9.9,17.8-9.9s12.5,1.3,16,2.7s13.3,5.6,14.7,18.6l3.4,21.3l-26.5,2l0.4,28.3l-11.3,9.2c0,0-32.3,11.1-34.4,11.9
		c-1,0.4-0.7-13.4-3.1-25.2l-4.4-10.6c-1.8-4.2-2.8-8.7-3.1-13.3c-0.2-3-0.1-5.3-0.1-5.3S127.1,365.9,124.8,360.4z"/>
	<path class="st11" d="M145.7,411.5l44.4-13.3l-0.3-24.9l22.6-1.7c0,0-1.8,12.9-2.1,19.5c-0.4,9.5-5,22.9-8,25.7s-57.8,5.9-57.8,5.9
		L145.7,411.5z"/>
	<path class="st11" d="M120.5,419.3c0.4,0.8,1.4,1.1,2.2,0.7c1-0.4,0.7-2.4,0.7-2.4l4.7-1.2c0,0,6.5,3.5,9,6s7.9-0.1,7.9-0.1
		l1.1-10.4l-9.4-7.3c0,0,0.6,0.4-0.1-1s-3.4-0.7-3.4-0.7c-0.5-0.7-2.3-0.8-2.3-0.8l-7.7,1.5c-1.6,0.3-2.9,1.3-3.7,2.7l-2.9,5.4
		c0,0-1.4,3.9-1.1,4.7c0.3,0.7,1.1,1.1,1.9,0.9c0,0,0.6,2.4,1.2,2.5C119.3,419.8,119.9,419.6,120.5,419.3L120.5,419.3z"/>
	<path class="st12" d="M136.4,410.7c0,0.1-1,0.1-2.7,0.3c-2.1,0.3-4.2,0.8-6.2,1.7c-1.1,0.5-2.1,1-3.2,1.6c-0.9,0.6-1.8,1.1-2.1,1.8
		c-0.1,0.3,0,0.7,0.2,0.9c0.2,0.2,0.4,0.4,0.6,0.5c0.4,0.1,0.7,0,0.7,0s-0.2,0.2-0.7,0.1c-0.3-0.1-0.6-0.2-0.8-0.5
		c-0.3-0.3-0.4-0.8-0.3-1.2c0.2-0.5,0.5-0.9,0.9-1.2c0.4-0.3,0.8-0.6,1.3-0.9c2.9-1.9,6.2-3,9.6-3.3
		C134.6,410.5,135.5,410.5,136.4,410.7z"/>
	<path class="st12" d="M137.3,415.6c0,0.1-3.2,0.3-7,0.8s-6.9,1.2-7,1.1c0.6-0.3,1.3-0.5,2-0.6c1.6-0.4,3.3-0.7,4.9-0.9
		c1.7-0.2,3.3-0.4,5-0.4C135.9,415.5,136.6,415.5,137.3,415.6z"/>
	<path class="st12" d="M120.5,419.1c-0.1-0.3-0.1-0.5-0.2-0.8c-0.1-0.8-0.2-1.5-0.2-2.3c0-0.5,0-1.1,0.1-1.6
		c0.1-0.6,0.3-1.2,0.6-1.7c0.7-1.2,1.6-2.3,2.7-3.2c1.1-0.9,2.3-1.6,3.6-2.1c1.1-0.4,2.2-0.7,3.3-0.8c1-0.1,1.7-0.1,2.3-0.2
		c0.3,0,0.6,0,0.8,0c-1,0.2-2,0.4-3,0.5c-1.1,0.2-2.2,0.4-3.2,0.8c-1.2,0.5-2.4,1.3-3.4,2.1c-1,0.8-1.9,1.9-2.6,3
		c-0.5,0.9-0.8,2-0.8,3.1C120.5,417.9,120.6,419.1,120.5,419.1z"/>
	<path class="st12" d="M130.6,404.2c0,0.1-1.1,0.2-3,0.5s-4.6,0.8-6,3.3c-1.4,2-2.6,4.1-3.4,6.4c-0.3,1-0.4,2-0.5,3
		c-0.1-0.3-0.1-0.5-0.1-0.8c0-0.8,0.1-1.5,0.3-2.2c0.8-2.3,1.9-4.6,3.4-6.5c0.4-0.6,0.9-1.2,1.4-1.6c0.5-0.4,1.1-0.8,1.8-1
		c1.1-0.4,2.1-0.6,3.2-0.8C128.6,404.3,129.6,404.2,130.6,404.2z"/>
	<path class="st12" d="M135.3,421c-0.2-0.1-0.3-0.2-0.5-0.3l-1.4-0.9c-1.7-1.1-3.5-2.2-5.4-3.1h0.1l-4.7,1.2l0.2-0.2
		c0,0.4,0,0.8,0,1.2c0,0.4-0.2,0.8-0.4,1.2c-0.2,0.2-0.4,0.3-0.6,0.3c-0.2,0.1-0.4,0.1-0.7,0.1c-0.5,0-0.9-0.2-1.2-0.6
		c-0.1-0.1-0.2-0.2-0.2-0.3v-0.1l0,0l0,0l0,0l0.3,0.1l0,0l-0.2,0.1c-0.2,0.1-0.4,0.2-0.6,0.3c-0.2,0.1-0.4,0.2-0.6,0.2
		c-0.1,0-0.2,0.1-0.3,0.1c-0.2,0-0.3,0-0.4,0c-0.2-0.1-0.4-0.4-0.5-0.6c-0.1-0.2-0.2-0.4-0.3-0.6c-0.2-0.4-0.3-0.9-0.4-1.3l0.3,0.2
		c-0.6,0.2-1.4,0-1.8-0.5c-0.2-0.3-0.4-0.6-0.4-0.9c0-0.3,0-0.6,0.1-0.9c0.3-1.2,0.6-2.4,1.1-3.5l0,0l0,0l1.5-2.9l1-1.8
		c0.3-0.6,0.7-1.2,1.1-1.8c0.5-0.5,1-1,1.7-1.3c0.6-0.3,1.3-0.5,1.9-0.6l7.2-1.4h0.1c0.4,0,0.9,0.1,1.3,0.2c0.5,0.1,0.9,0.3,1.2,0.7
		l-0.3-0.1c0.8-0.4,1.7-0.5,2.5-0.1c0.7,0.4,1.2,1.1,1.4,1.9l-0.1-0.1l6.5,5l1.8,1.4c0.2,0.2,0.4,0.3,0.6,0.5
		c-0.2-0.1-0.4-0.3-0.6-0.4l-1.8-1.3l-6.6-4.9h-0.1v-0.1c-0.2-0.7-0.6-1.2-1.2-1.6c-0.7-0.3-1.5-0.3-2.1,0.1l-0.2,0.1l-0.1-0.1
		c-0.3-0.3-0.6-0.4-0.9-0.5c-0.4-0.1-0.8-0.2-1.2-0.2h0.1l-7.2,1.4c-0.6,0.1-1.2,0.3-1.8,0.5c-0.6,0.3-1.1,0.7-1.5,1.2
		c-0.4,0.5-0.7,1.1-1,1.7l-1,1.8c-0.5,1-1,2-1.5,2.9l0,0c-0.4,1.1-0.7,2.3-1,3.5c-0.1,0.3-0.1,0.6-0.1,0.8c0,0.2,0.1,0.5,0.3,0.6
		c0.4,0.4,0.9,0.5,1.3,0.3l0.2-0.1v0.2c0.1,0.4,0.2,0.9,0.4,1.3c0.1,0.4,0.3,0.7,0.6,1c0.1,0,0.1,0,0.2,0l0.3-0.1
		c0.2,0,0.4-0.1,0.6-0.2c0.2-0.1,0.4-0.2,0.6-0.2l0.1-0.1l0,0l0.3,0.1l0,0l0,0l0,0v0c0.1,0.1,0.1,0.2,0.2,0.2c0.4,0.4,1,0.6,1.5,0.4
		c0.2,0,0.3-0.1,0.4-0.2c0.4-0.6,0.5-1.3,0.4-2v-0.2h0.2l4.7-1.1h0.1l0,0c1.8,1,3.6,2,5.3,3.2c0.6,0.4,1,0.8,1.3,1
		C135,420.8,135.1,420.9,135.3,421z"/>
	<path class="st4" d="M112.2,427.4c0,0-31.3-9.9-41.2-13c-17-5.5-28.1,0.1-31.6,6.1c-4.5,7.9,6.3,23.2,10.5,26.8
		c12.4,10.5,33.7,11.9,33.7,11.9l0,0l76.6-0.1L138,428.6L112.2,427.4z"/>
	<path class="st1" d="M116.9,441.6c-12.8,1.5-25.7-0.3-37.6-5.1c-2-0.9-4.1-1.7-6.3-2.3c-2.1-0.5-4.3-0.7-6.5-0.5
		c-1.7,0-3.4,0.8-4.6,2.1c-1.5,2-0.8,4.9,0.1,7.3c1,2.8,2,5.7,4,7.9c2.3,2.6,5.6,4.1,8.9,5.1c6.5,2,13.3,2.6,20.1,2.9l23.3-1.3
		L116.9,441.6z"/>
	<path class="st4" d="M71.9,434.2c0.2,0.2,0.3,0.4,0.3,0.6c0.3,0.6,0.5,1.2,0.6,1.9c1,4.3-0.4,8.9-3.8,11.8c-0.5,0.4-1,0.8-1.6,1.1
		c-0.4,0.2-0.6,0.3-0.7,0.3s0.8-0.6,2-1.7c3.1-3,4.5-7.3,3.7-11.5C72.2,435.2,71.8,434.2,71.9,434.2z"/>
	<path class="st4" d="M192.2,425.5c-1.8-5.2-2.1-12.7-13.4-16.4s-19.7,3.3-25.5,5.8s-37.3,19.7-37.3,19.7s-5.9,10.6-4.2,15.3
		s9.4,9.3,9.4,9.3h35.3c9.1,0,26-0.3,26-0.3c2.3-3.7,4.3-7.6,6.1-11.5l0.3-1.5C188.9,444.6,194,430.7,192.2,425.5z"/>
	<path class="st4" d="M172.6,452.3c0,0.2-0.1,0.3-0.3,0.5c-0.3,0.4-0.7,0.7-1.2,1c-1.6,1.1-3.2,2-5,2.8c-1.2,0.6-2.4,1-3.7,1.5
		c-1.5,0.5-2.9,0.8-4.4,1c-3.4,0.3-6.9,0.5-10.4,0.4c-7.3,0.1-14,0.4-18.8,0.3c-2.4,0-4.4-0.1-5.7-0.2c-0.5,0-1-0.1-1.5-0.2
		c-0.2,0-0.4-0.1-0.5-0.1c0,0,0.7,0.1,2.1,0.1s3.3,0.1,5.7,0.1c4.8,0,11.4-0.4,18.8-0.5c3.4,0.1,6.9,0,10.3-0.4
		c1.5-0.2,2.9-0.5,4.4-0.9c1.2-0.4,2.5-0.8,3.7-1.4c1.7-0.7,3.4-1.6,5-2.6c0.4-0.3,0.8-0.6,1.2-1
		C172.6,452.5,172.6,452.3,172.6,452.3z"/>
	<path class="st4" d="M121.2,459.2l-0.5-0.2c-0.3-0.2-0.7-0.5-1.3-0.8c-1.7-1.1-3.2-2.3-4.6-3.7c-1-1-1.9-2.1-2.6-3.4
		c-0.7-1.6-0.9-3.3-0.5-5c0.9-4,2.3-7.9,4.3-11.5v0l0,0c5.8-3.2,12.4-6.8,19.6-10.7c3.6-1.9,7.4-4,11.3-6c2-1,4-2,6-3s4.1-2,6.1-3.1
		c2.9-1.6,5.9-2.7,9.1-3.4c1.6-0.3,3.2-0.5,4.8-0.4c1.6,0,3.1,0.3,4.6,0.7c2.9,0.7,5.7,2,8.1,3.9c1.1,0.9,2.1,2,2.9,3.2
		c0.8,1.2,1.4,2.4,1.9,3.7c0.5,1.3,0.9,2.6,1.2,3.8c0.4,1.2,0.7,2.5,1,3.7c0.2,2.4,0,4.8-0.6,7.2c-0.4,2.2-1,4.4-1.6,6.3
		c-0.3,1-0.6,1.9-0.8,2.8s-0.6,1.8-0.7,2.6l0,0c-0.1,0.6-0.2,1-0.3,1.5l0,0c-1,3.1-2.3,6-4.1,8.8c-0.6,1-1.3,1.9-2.1,2.7l0.1-0.2
		c0.1-0.1,0.2-0.3,0.4-0.5c0.5-0.7,1-1.4,1.5-2.1c1.7-2.8,3-5.7,3.9-8.8l0,0c0.6-0.5,0.5-1,0.3-1.5l0,0c0.2-0.9,0.4-1.8,0.7-2.7
		l0.8-2.8c0.5-2,1.1-4.1,1.5-6.3c0.5-2.3,0.7-4.7,0.6-7.1c-0.3-1.2-0.6-2.5-1-3.7c-0.4-1.3-0.7-2.5-1.2-3.8
		c-0.5-1.3-1.1-2.5-1.9-3.6c-0.8-1.1-1.8-2.2-2.9-3.1c-3.6-2.7-7.9-4.2-12.4-4.4c-1.6,0-3.1,0.1-4.6,0.4c-3.1,0.7-6.2,1.8-9,3.4
		c-2,1-4,2.2-6.1,3.1s-4,2-6,3c-3.9,2-7.7,4-11.3,6L116,434.8l0.1-0.1c-2,3.6-3.4,7.4-4.3,11.4c-0.4,1.6-0.2,3.3,0.4,4.9
		c0.7,1.2,1.5,2.4,2.5,3.4c1.4,1.4,2.9,2.6,4.6,3.8l1.3,0.9C121,459.1,121.2,459.2,121.2,459.2z"/>
	<path class="st1" d="M178.6,446.1c0,0,10.5,1.3,9.6,6.4s-4.4,6.9-4.4,6.9l-28.6,0.1C155.2,459.4,172.3,458.2,178.6,446.1z"/>
	<path class="st4" d="M179.6,443.6c0,0.5-0.1,1-0.3,1.5c-0.4,1.1-1,2.2-1.7,3.2c-1,1.4-2.4,2.5-4,3.1c1.3-1,2.5-2.1,3.6-3.4
		C178.1,446.6,178.9,445.1,179.6,443.6z"/>
	<path class="st4" d="M176,445.6c0,1.3-0.3,2.6-1,3.7c-0.5,1.2-1.3,2.2-2.3,3c-0.1-0.1,0.9-1.4,1.9-3.2S175.8,445.6,176,445.6z"/>
	<path class="st8" d="M189.4,457.9c-0.1,0,0.6-1.3,1.4-3.5c2.2-5.8,2.9-12,2.1-18.1c-0.3-2.3-0.7-3.8-0.6-3.8c0.2,0.3,0.3,0.7,0.3,1
		c0.2,0.9,0.4,1.8,0.6,2.8c1,6.2,0.3,12.5-2.1,18.3c-0.4,0.9-0.8,1.7-1.2,2.5C189.8,457.3,189.6,457.6,189.4,457.9z"/>
	<g class="st13">
		<path d="M183.4,443.3c-0.1-0.7-0.4-1.5-1-1.6c-0.8-0.2-1.4,0.8-1.7,1.6c-3.7,8.4-15.6,14.9-24.7,15.8c4.4,0,8.8-0.4,13.2-1.1
			c3.7-0.6,7.2-2.2,10.1-4.6C182.1,450.8,183.7,447.1,183.4,443.3z"/>
	</g>
	<path class="st4" d="M113.8,431.9c-1.7-0.5-3.4-1.1-5.1-1.9c-1.7-0.6-3.3-1.4-4.9-2.4c1.7,0.5,3.4,1.1,5.1,1.9
		C110.7,430.2,112.3,431,113.8,431.9z"/>
	<g class="st14">
		<path d="M124,427.5c-13.6-2.6-27.2-4.9-40.9-6.9l-10.2,3.2c2.9,5.3,8.5,8.7,14.4,10.1s12,1.1,18,0.5c6.6-0.6,13.4-1.5,19.2-4.9
			c0.4-0.2,0.9-0.6,0.9-1.1S124.6,427.6,124,427.5z"/>
	</g>
	<path class="st1" d="M57.1,387l17.1,37.9c0.7,1.6,2.3,2.6,4,2.6l50,0.6l6.3-3.4l-9.9-0.7l-15.4-36.9c-0.5-1.2-1.6-1.9-2.9-2
		l-47.9-0.4c-0.8,0-1.5,0.6-1.6,1.4C56.9,386.6,57,386.8,57.1,387z"/>
	<path class="st4" d="M57.1,387c-0.1-0.1-0.1-0.3-0.2-0.5c-0.1-0.5,0.1-1,0.5-1.3c0.3-0.3,0.6-0.4,1-0.4h4.4l20,0.1l13.9,0.1l7.8,0
		h2c0.7,0.1,1.4,0.3,2,0.8c0.5,0.5,0.9,1.1,1.2,1.8l0.8,2c4.4,10.5,9.2,22,14.3,34.3l-0.2-0.2l9.5,0.7h0.3l1,0.1l-0.9,0.5l-6.3,3.4
		h-0.1h-0.1l-37.9-0.5l-8.5-0.1c-1.4,0-2.7,0-4.1-0.1c-1.4-0.2-2.6-0.9-3.4-2.1c-2.2-4.7-4.1-9-5.9-13l-8.4-18.7
		c-1-2.2-1.7-3.9-2.2-5.1c-0.2-0.6-0.4-1-0.6-1.3S57.1,387,57.1,387c0.1,0.1,0.2,0.3,0.3,0.4l0.6,1.3c0.5,1.2,1.3,2.9,2.3,5
		l8.5,18.7c1.8,3.9,3.8,8.4,5.9,12.9c0.7,1.1,1.8,1.7,3.1,1.9c1.3,0.1,2.7,0,4,0.1l8.5,0.1l37.9,0.5H128l6.3-3.4l0.1,0.5h-0.3
		l-9.5-0.7h-0.2l-0.1-0.1c-5.1-12.3-9.9-23.8-14.3-34.3l-0.8-2c-0.2-0.6-0.5-1.2-1-1.7c-0.5-0.4-1.1-0.7-1.7-0.7h-2l-7.8-0.1
		l-13.9-0.1L62.7,385h-3.1h-1.2c-0.8,0-1.4,0.7-1.4,1.5c0,0,0,0.1,0,0.1C57,386.7,57,386.9,57.1,387z"/>
	<path class="st4" d="M123.1,428.1c-0.1-0.1-0.2-0.3-0.2-0.4l-0.6-1.2c-0.5-1.1-1.2-2.7-2-4.5c-1.7-3.9-3.9-9.2-6.4-15.1
		s-4.6-11.3-6.1-15.2c-0.8-2-1.3-3.5-1.7-4.7c-0.2-0.5-0.3-0.9-0.4-1.3c-0.1-0.1-0.1-0.3-0.1-0.5c0.1,0.1,0.2,0.3,0.2,0.4l0.5,1.2
		c0.5,1.2,1.1,2.7,1.9,4.6c1.6,3.9,3.8,9.3,6.2,15.1s4.6,11.2,6.2,15.1l1.9,4.6c0.2,0.5,0.3,0.9,0.5,1.3
		C123.1,427.8,123.1,427.9,123.1,428.1z"/>
	<path class="st7" d="M92.1,405.4c0,1.4-1.1,2.5-2.5,2.5c-1.4,0-2.5-1.1-2.5-2.5c0-1.4,1.1-2.5,2.5-2.5c0,0,0,0,0,0
		C91,402.9,92.1,404,92.1,405.4L92.1,405.4z"/>
	<path class="st4" d="M140.8,344.4c0.1,0-0.6,1.4-1.6,3.6c-2.6,5.8-4.4,12.1-5.1,18.4c-0.3,2.5-0.4,4-0.5,4c-0.1-0.4-0.1-0.7,0-1.1
		c0-0.7,0-1.7,0.1-2.9c0.6-6.5,2.3-12.7,5.2-18.6c0.6-1.1,1-2,1.4-2.6C140.4,345,140.6,344.7,140.8,344.4z"/>
	<path class="st4" d="M216.3,371.2c-0.2,0.1-0.4,0.1-0.6,0.1l-1.6,0.1l-5.9,0.5l-20.3,1.5h-0.3v-0.3c-0.2-2.7-0.4-5.5-0.5-8.5
		c-0.3-5.1-0.5-10-0.6-14.4c-0.3-4,0.6-7.9,2.6-11.3c1.3-2.3,3.3-4.2,5.7-5.5c0.6-0.3,1.3-0.6,2-0.8c0.2-0.1,0.5-0.1,0.7-0.2
		c0,0.1-1,0.3-2.6,1.1c-2.3,1.3-4.2,3.2-5.5,5.5c-1.9,3.4-2.7,7.3-2.4,11.2c0.1,4.4,0.4,9.3,0.6,14.4c0.2,2.9,0.4,5.8,0.5,8.5
		l-0.3-0.2l20.3-1.3l6-0.4l1.6-0.1L216.3,371.2z"/>
	<path class="st4" d="M166.5,388.5c-0.3-0.1-0.6-0.2-0.9-0.3c-0.3-0.1-0.7-0.3-1-0.5c-0.4-0.2-0.8-0.5-1.2-0.8
		c-1.1-0.7-2-1.5-2.9-2.5c-1.1-1.2-2-2.4-2.8-3.8c-0.8-1.4-1.4-2.8-1.8-4.3c-0.3-1.2-0.6-2.5-0.6-3.8c0-0.5,0-1,0-1.5
		c0-0.4,0-0.7,0.1-1.1c0-0.3,0.1-0.6,0.2-0.9c0.1,0-0.1,1.4,0.1,3.5c0.1,1.2,0.4,2.5,0.7,3.7c0.5,1.5,1.1,2.9,1.8,4.2
		c0.8,1.3,1.7,2.6,2.7,3.7c0.9,0.9,1.8,1.8,2.8,2.5C165.3,387.9,166.5,388.4,166.5,388.5z"/>
</g>
</svg>
