<?xml version="1.0" encoding="utf-8"?>
<!-- Generator: Adobe Illustrator 27.3.1, SVG Export Plug-In . SVG Version: 6.00 Build 0)  -->
<svg version="1.1" id="Layer_1" xmlns="http://www.w3.org/2000/svg" xmlns:xlink="http://www.w3.org/1999/xlink" x="0px" y="0px"
	 viewBox="0 0 500 500" style="enable-background:new 0 0 500 500;" xml:space="preserve">
<style type="text/css">
	.st0{fill:#F5F5F5;}
	.st1{fill:#FFFFFF;}
	.st2{fill:#E0E0E0;}
	.st3{fill:#263238;}
	.st4{fill:#EBEBEB;}
	.st5{fill:#FAFAFA;}
	.st6{fill:#E6AA68;}
	.st7{fill:#455A64;}
	.st8{opacity:0.3;}
	.st9{opacity:0.6;}
	.st10{fill:#B78876;}
	.st11{fill:#AA6550;}
</style>
<g id="freepik--background-complete--inject-14">
	<path class="st0" d="M91.2,68.5C91.3,48.3,75,31.8,54.8,31.8S18.2,48,18.1,68.2c0,6.6,1.7,13.1,5.1,18.8l0,0l0.1,0.1
		c1.4,2.4,3.1,4,4.9,6.5l21.2,28.1c2.2,2.9,6.3,3.5,9.2,1.3c0.5-0.4,0.9-0.8,1.3-1.3l20.8-27.6c1.9-2.2,3.7-4.6,5.3-7l0.1-0.1l0,0
		C89.4,81.4,91.2,75,91.2,68.5z M54.6,84.4c-8.9,0-16.1-7.2-16.1-16.1s7.2-16.1,16.1-16.1s16.1,7.2,16.1,16.1l0,0
		C70.7,77.2,63.5,84.4,54.6,84.4C54.6,84.4,54.6,84.4,54.6,84.4z"/>
	<path class="st0" d="M485.4,290.1c0-8.9-7.2-16.1-16.1-16.1s-16.1,7.2-16.1,16.1c0,2.9,0.8,5.7,2.2,8.2l0,0v0.1
		c0.6,1,1.4,1.8,2.2,2.9l9.4,12.4c1,1.3,2.8,1.5,4.1,0.6c0.2-0.2,0.4-0.4,0.6-0.6l9.2-12.2c0.8-1,1.6-2,2.3-3.1v0l0,0
		C484.6,295.8,485.3,293,485.4,290.1z M469.2,297.1c-3.9,0-7.1-3.2-7.1-7.1s3.2-7.1,7.1-7.1c3.9,0,7.1,3.2,7.1,7.1l0,0
		C476.3,294,473.2,297.1,469.2,297.1L469.2,297.1L469.2,297.1z"/>
	<circle class="st0" cx="401.3" cy="388.7" r="40.3"/>
	<path class="st1" d="M401.3,422.2c-18.5,0-33.6-15-33.6-33.6s15-33.6,33.6-33.6s33.6,15,33.6,33.6c0,0,0,0,0,0
		C434.8,407.2,419.8,422.2,401.3,422.2z M401.3,360.8c-15.4,0-27.8,12.5-27.8,27.8s12.5,27.8,27.8,27.8s27.8-12.5,27.8-27.8v0
		C429.1,373.3,416.7,360.9,401.3,360.8z"/>
	<path class="st1" d="M401.1,400.1c-6.8,0-12.4-5.5-12.4-12.4s5.5-12.4,12.4-12.4s12.4,5.5,12.4,12.4c0,0,0,0,0,0
		C413.4,394.6,407.9,400.1,401.1,400.1z M401.1,381.1c-3.7,0-6.6,3-6.6,6.6s3,6.6,6.6,6.6s6.6-3,6.6-6.6l0,0
		C407.7,384.1,404.7,381.2,401.1,381.1L401.1,381.1z"/>
	<polygon class="st2" points="401.1,387.8 385.4,387.8 388.2,392.6 351.4,409.5 352.6,411.5 389.5,394.9 392,399.7 	"/>
	<path class="st2" d="M351.4,409.5l-0.4-0.4c-1.9-1.9-4.7-2.6-7.3-1.8l-14.7,4.3l8.2,3.6l-3.3,8.7l13.8-4.9c3.1-1.1,5.1-4.1,5-7.4
		l0,0L351.4,409.5z"/>
	<path class="st2" d="M173.4,417.9l0.3-0.1l0.9-0.2l3.3-1l12.5-3.5l-0.1,0.2c-0.6-2.1-1.4-4.5-2.1-7.1V406l0.1-0.1
		c3.5-2.9,6.4-6.4,8.7-10.3c1.3-2.2,2.3-4.5,2.9-7c0.7-2.6,0.8-5.3,0.5-8c-0.9-5.8-3.8-11.1-8.2-15c-4.8-4.2-10.7-6.7-17-7.3
		c-4.7-0.4-9.5,0.5-13.7,2.7c-4.1,2-7.6,4.9-10.2,8.6c-2.4,3.4-3.9,7.4-4.4,11.6c-0.1,1-0.2,2-0.2,3s0.1,2,0.1,2.9
		c0.2,1.9,0.5,3.7,1,5.5c0.5,1.7,1.2,3.4,2,4.9c0.8,1.5,1.8,2.8,2.9,4.1c2,2.2,4.4,4.1,7,5.6c3.8,2.2,8,3.6,12.4,4.3h0.1v0.1l1,4.5
		c0.1,0.5,0.2,0.9,0.2,1.2S173.4,417.9,173.4,417.9c0-0.2,0-0.3,0-0.4l-0.3-1.1l-1.1-4.6l0.1,0.1c-4.4-0.6-8.7-2-12.6-4.2
		c-2.7-1.5-5.1-3.4-7.1-5.6c-1.1-1.3-2.1-2.7-3-4.1c-0.9-1.6-1.6-3.3-2.1-5c-0.5-1.8-0.8-3.7-1-5.6l-0.1-3c0-1,0.1-2,0.2-3
		c0.4-4.3,2-8.4,4.4-11.9c2.7-3.7,6.2-6.7,10.4-8.8c4.3-2.2,9.2-3.2,14-2.8c6.4,0.6,12.5,3.2,17.3,7.5c2.3,2,4.2,4.4,5.6,7.1
		c0.4,0.6,0.7,1.3,1,2c0.3,0.6,0.6,1.3,0.8,2c0.2,0.7,0.4,1.4,0.6,2.1s0.2,1.4,0.4,2.1c0.4,2.7,0.2,5.5-0.5,8.2
		c-0.7,2.5-1.7,4.9-3,7.1c-2.4,3.9-5.4,7.4-8.9,10.3l0.1-0.2l2.1,7.1l0.1,0.2l-0.2,0l-12.6,3.4l-3.3,0.9l-0.8,0.2L173.4,417.9z"/>
	<path class="st2" d="M192,417.9c-2.8,1.1-5.7,2-8.7,2.7c-2.9,0.9-5.9,1.6-8.8,2.1c2.8-1.1,5.7-1.9,8.7-2.7
		C186.1,419.2,189,418.5,192,417.9z"/>
	<path class="st2" d="M188.1,426.1c-0.9,0.6-1.9,1-3,1.2c-1,0.3-2.1,0.4-3.2,0.3c1-0.4,2-0.7,3.1-0.8
		C186,426.5,187,426.2,188.1,426.1z"/>
	<path class="st2" d="M176.9,417c0-0.1-0.1-0.2-0.1-0.3c-0.1-0.2-0.1-0.5-0.2-0.9c-0.2-0.8-0.5-1.9-0.8-3.3c-0.7-2.9-1.7-7-3-12.1
		c-0.6-2.5-1.3-5.3-2-8.3c-0.1-0.7-0.4-1.4-0.9-2.1c-0.4-0.6-1.2-0.9-1.8-0.6c-0.6,0.4-1,1.2-0.9,1.9c0,0.8,0.3,1.6,0.9,2.1
		c1.2,1.2,2.9,1.8,4.6,1.5c1.8-0.3,3.3-1.4,4.1-3.1c0.8-1.7,1-3.6,0.6-5.4c-0.2-0.9-0.6-1.8-1.2-2.5c-0.6-0.6-1.6-0.8-2.4-0.3
		c-0.7,0.6-0.9,1.6-0.4,2.4c0.4,0.8,1.1,1.5,1.9,2c1.5,1.2,3.2,1.9,5.1,2.1c0.9,0.1,1.8-0.1,2.6-0.4c0.8-0.4,1.5-0.9,2-1.6
		c0.5-0.7,0.9-1.5,0.9-2.3c0.1-0.8-0.2-1.6-0.8-2.2c-0.5-0.6-1.3-0.9-2-0.7c-0.7,0.3-1.3,0.8-1.5,1.6c-0.5,1.5-0.1,3.1,0.1,4.6
		c0.5,3,1,5.9,1.5,8.4c1,5.1,1.9,9.3,2.5,12.2c0.3,1.4,0.5,2.5,0.7,3.3c0.1,0.4,0.1,0.6,0.2,0.9c0,0.1,0,0.2,0,0.3
		c0-0.1-0.1-0.2-0.1-0.3c-0.1-0.2-0.1-0.5-0.2-0.9c-0.2-0.8-0.4-1.9-0.8-3.3c-0.6-2.9-1.6-7-2.6-12.1c-0.5-2.6-1.1-5.4-1.6-8.4
		c-0.1-0.8-0.2-1.5-0.3-2.4c-0.1-0.8,0-1.7,0.2-2.5c0.3-0.9,1-1.6,1.8-1.9c0.9-0.2,1.9,0.1,2.6,0.8c0.6,0.7,1,1.7,0.9,2.6
		c-0.1,1-0.4,1.9-1,2.6c-0.6,0.8-1.4,1.4-2.2,1.8c-0.9,0.4-1.9,0.5-2.9,0.4c-2-0.2-3.8-1-5.4-2.2c-0.9-0.6-1.5-1.3-2-2.3
		c-0.6-1.1-0.3-2.5,0.8-3.1c1-0.6,2.2-0.4,2.9,0.5c0.7,0.8,1.2,1.7,1.4,2.7c0.5,1.9,0.2,4-0.6,5.8c-0.8,1.8-2.5,3-4.5,3.4
		c-1.9,0.3-3.8-0.3-5.1-1.7c-0.6-0.7-1-1.6-1-2.5c-0.1-0.9,0.4-1.8,1.2-2.3c0.4-0.2,0.9-0.2,1.4-0.1c0.4,0.2,0.8,0.5,1,0.8
		c0.5,0.7,0.8,1.4,0.9,2.2c0.7,3,1.4,5.8,2,8.4l2.8,12.1c0.3,1.4,0.6,2.5,0.7,3.3c0.1,0.4,0.1,0.6,0.2,0.9
		C176.9,416.8,176.9,416.9,176.9,417z"/>
	<path class="st2" d="M191.3,421.7c-2.3,0.9-4.6,1.7-7,2.2c-2.3,0.7-4.7,1.3-7.2,1.7c2.3-0.9,4.6-1.7,7-2.2
		C186.5,422.6,188.9,422.1,191.3,421.7z"/>
</g>
<g id="freepik--Floor--inject-14">
	<path class="st3" d="M463.1,467.9c0,0.1-95.4,0.3-213.1,0.3S36.9,468,36.9,467.9s95.4-0.3,213.1-0.3S463.1,467.7,463.1,467.9z"/>
</g>
<g id="freepik--Window--inject-14">
	<rect x="54.7" y="65.6" class="st2" width="390.9" height="25"/>
	<rect x="54.6" y="113.6" class="st1" width="390.9" height="219.2"/>
	<polygon class="st4" points="54.7,90.4 108.3,90.4 113.7,75 200.7,75 206,90.4 445.5,90.4 445.5,114.2 54.7,114.2 	"/>
	<path class="st3" d="M67.6,75.6c0,1.6-1.3,2.9-2.9,2.9c-1.6,0-2.9-1.3-2.9-2.9c0-1.6,1.3-2.9,2.9-2.9C66.3,72.6,67.6,74,67.6,75.6
		C67.6,75.6,67.6,75.6,67.6,75.6z"/>
	<path class="st3" d="M76.7,75.6c0,1.6-1.3,2.9-2.9,2.9c-1.6,0-2.9-1.3-2.9-2.9c0-1.6,1.3-2.9,2.9-2.9C75.3,72.6,76.7,74,76.7,75.6
		C76.7,75.6,76.7,75.6,76.7,75.6z"/>
	<path class="st3" d="M85.8,75.6c0,1.6-1.3,2.9-2.9,2.9c-1.6,0-2.9-1.3-2.9-2.9c0-1.6,1.3-2.9,2.9-2.9C84.4,72.6,85.8,74,85.8,75.6
		C85.8,75.6,85.8,75.6,85.8,75.6z"/>
	<path class="st5" d="M402.3,109.4H134.2c-4.1,0-7.4-3.3-7.4-7.4c0,0,0,0,0,0l0,0c0-4.1,3.3-7.4,7.4-7.4l0,0h268.1
		c4.1,0,7.4,3.3,7.4,7.4c0,0,0,0,0,0l0,0C409.8,106.1,406.4,109.4,402.3,109.4L402.3,109.4z"/>
	<path class="st2" d="M140.6,103v2.5h-1.3v-2.3c0-0.7-0.3-1-0.9-1s-1.1,0.4-1.1,1.2v2.2h-1.3v-6.1h1.3v2.1c0.4-0.3,0.9-0.5,1.4-0.5
		c0.9-0.1,1.8,0.7,1.8,1.6C140.6,102.8,140.6,102.9,140.6,103z"/>
	<path class="st2" d="M144.6,105.3c-0.3,0.2-0.6,0.3-1,0.3c-0.8,0.1-1.5-0.4-1.6-1.2c0-0.1,0-0.2,0-0.3v-1.8h-0.7v-1h0.7v-1.1h1.3
		v1.1h1.1v1h-1.1v1.8c0,0.3,0.2,0.5,0.4,0.6c0,0,0.1,0,0.1,0c0.2,0,0.4-0.1,0.5-0.2L144.6,105.3z"/>
	<path class="st2" d="M148,105.3c-0.3,0.2-0.6,0.3-1,0.3c-0.8,0.1-1.5-0.4-1.6-1.2c0-0.1,0-0.2,0-0.3v-1.8h-0.7v-1h0.7v-1.1h1.3v1.1
		h1.1v1h-1.1v1.8c0,0.3,0.2,0.5,0.5,0.6c0,0,0.1,0,0.1,0c0.2,0,0.4-0.1,0.5-0.2L148,105.3z"/>
	<path class="st2" d="M153.5,103.3c0.1,1.2-0.8,2.2-2,2.3c-0.1,0-0.1,0-0.2,0c-0.5,0-1-0.2-1.3-0.5v2h-1.3v-6h1.2v0.5
		c0.4-0.4,0.9-0.6,1.4-0.6c1.2,0,2.1,0.9,2.2,2.1C153.6,103.2,153.5,103.2,153.5,103.3z M152.2,103.3c-0.1-0.6-0.6-1.1-1.2-1
		c-0.6,0.1-1.1,0.6-1,1.2c0.1,0.6,0.5,1,1.1,1c0.6,0,1.1-0.5,1.1-1.1C152.3,103.4,152.3,103.4,152.2,103.3z"/>
	<path class="st2" d="M154.1,101.8c0-0.4,0.4-0.8,0.9-0.7c0.4,0,0.7,0.3,0.7,0.7c0,0.4-0.3,0.8-0.7,0.9c-0.4,0-0.8-0.3-0.9-0.7
		C154.1,102,154.1,101.9,154.1,101.8z M154.1,104.8c0-0.4,0.4-0.8,0.9-0.7c0.4,0,0.7,0.3,0.7,0.7c0,0.4-0.3,0.8-0.7,0.9
		c-0.4,0-0.8-0.3-0.9-0.7C154.1,104.9,154.1,104.8,154.1,104.8z"/>
	<path class="st2" d="M158.8,98.6h1.1l-2.7,7.7h-1.1L158.8,98.6z"/>
	<path class="st2" d="M161.4,98.6h1.1l-2.7,7.7h-1.1L161.4,98.6z"/>
	<path class="st5" d="M402.1,153.1H168.5c-7.3,0-13.2-5.9-13.2-13.2l0,0l0,0c0-7.3,5.9-13.2,13.2-13.2h233.6
		c7.3,0,13.2,5.9,13.2,13.2l0,0C415.3,147.2,409.4,153.1,402.1,153.1L402.1,153.1z"/>
	<path class="st3" d="M402.1,153.1c1.9,0,3.7-0.5,5.4-1.2c3.4-1.6,6-4.5,7.1-8c0.5-1.6,0.7-3.2,0.5-4.8c-0.1-1.8-0.6-3.6-1.5-5.2
		c-1-1.8-2.3-3.3-3.9-4.5c-1.8-1.3-3.9-2.1-6-2.4c-1.2-0.1-2.3-0.1-3.5-0.1h-3.6H363l-194.5,0.1c-2.3,0-4.6,0.6-6.6,1.8
		c-6.1,3.7-8.1,11.6-4.5,17.7c1.2,2,3,3.7,5.1,4.8c2,1,4.2,1.6,6.5,1.5h65.2l87.4,0.1l59,0.1h16h4.2c0.9,0,1.4,0,1.4,0h-1.4h-4.2
		h-16l-59,0.1l-87.4,0.1h-51.6h-13.5c-2.3,0.1-4.7-0.5-6.7-1.6c-6.6-3.5-9.1-11.6-5.6-18.2c2.3-4.4,6.9-7.2,11.9-7.2l194.5,0.3h33.6
		h3.6c1.2,0,2.4,0,3.5,0.1c2.2,0.3,4.3,1.1,6.1,2.4c3.2,2.3,5.2,5.9,5.5,9.9c0.1,1.7-0.1,3.3-0.6,4.9c-0.5,1.4-1.1,2.7-2,3.9
		c-1.4,1.8-3.2,3.3-5.2,4.2c-1.3,0.6-2.6,0.9-4,1.1C402.6,153.1,402.1,153.1,402.1,153.1z"/>
	<path class="st2" d="M173.8,142.7l0.5-1.1c0.6,0.4,1.3,0.7,2.1,0.7c0.9,0,1.2-0.3,1.2-0.7c0-1.2-3.7-0.4-3.7-2.7c0-1.1,0.9-2,2.7-2
		c0.8,0,1.5,0.2,2.2,0.6l-0.4,1.1c-0.5-0.3-1.1-0.5-1.8-0.5c-0.9,0-1.2,0.3-1.2,0.7c0,1.2,3.7,0.4,3.7,2.7c0,1.1-0.9,2-2.7,2
		C175.5,143.5,174.6,143.2,173.8,142.7z"/>
	<path class="st2" d="M184.8,141.3h-3.7c0.2,0.6,0.7,1.1,1.4,1c0.5,0,0.9-0.2,1.2-0.5l0.8,0.8c-1.1,1.1-2.9,1.1-4-0.1
		c-0.4-0.4-0.7-1-0.8-1.6c0-1.4,1.1-2.5,2.4-2.5c0.1,0,0.1,0,0.2,0c1.3-0.1,2.5,1,2.5,2.3c0,0.1,0,0.2,0,0.2
		C184.8,141,184.8,141.1,184.8,141.3z M181,140.4h2.4c-0.1-0.7-0.8-1.1-1.4-1C181.5,139.6,181.1,139.9,181,140.4z"/>
	<path class="st2" d="M189.9,140.5v2.8h-1.3v-0.6c-0.3,0.5-0.9,0.7-1.5,0.7c-1.1,0-1.8-0.6-1.8-1.5s0.6-1.5,2.1-1.5h1.1
		c0-0.6-0.4-1-1.1-1c-0.5,0-1,0.2-1.4,0.4l-0.5-1c0.6-0.4,1.4-0.6,2.1-0.6C189,138.4,189.9,139.1,189.9,140.5z M188.5,141.8v-0.5h-1
		c-0.7,0-0.9,0.2-0.9,0.6s0.3,0.6,0.8,0.6C187.9,142.5,188.3,142.2,188.5,141.8L188.5,141.8z"/>
	<path class="st2" d="M194.2,138.4v1.3h-0.3c-0.7-0.1-1.2,0.4-1.3,1.1c0,0.1,0,0.2,0,0.2v2.3h-1.4v-4.9h1.4v0.6
		C192.9,138.6,193.6,138.3,194.2,138.4z"/>
	<path class="st2" d="M194.6,140.9c0-1.4,1.1-2.5,2.5-2.5c0.1,0,0.1,0,0.2,0c0.9-0.1,1.8,0.4,2.2,1.2l-1.1,0.6
		c-0.2-0.4-0.6-0.7-1.1-0.7c-0.7,0-1.3,0.6-1.3,1.4c0,0.7,0.6,1.3,1.3,1.3c0.5,0,0.9-0.3,1.1-0.7l1.1,0.6c-0.4,0.8-1.3,1.3-2.2,1.2
		c-1.4,0.1-2.6-0.9-2.7-2.3C194.7,141,194.7,140.9,194.6,140.9z"/>
	<path class="st2" d="M205.3,140.5v2.8h-1.4v-2.6c0-0.8-0.4-1.1-1-1.1s-1.2,0.4-1.2,1.3v2.4h-1.4v-6.7h1.4v2.4
		c0.4-0.4,1-0.6,1.6-0.6c1.1-0.1,2,0.7,2.1,1.8C205.3,140.3,205.3,140.4,205.3,140.5z"/>
	<path class="st2" d="M208.8,142.5c0-0.5,0.4-0.9,0.9-0.9c0.5,0,0.9,0.4,0.9,0.9c0,0.5-0.4,0.9-0.9,0.9
		C209.2,143.4,208.8,143,208.8,142.5C208.8,142.5,208.8,142.5,208.8,142.5z"/>
	<path class="st2" d="M211.2,142.5c0-0.5,0.4-0.9,0.9-0.9s0.9,0.4,0.9,0.9c0,0.5-0.4,0.9-0.9,0.9C211.6,143.4,211.2,143,211.2,142.5
		C211.2,142.5,211.2,142.5,211.2,142.5z"/>
	<path class="st2" d="M213.6,142.5c0-0.5,0.4-0.9,0.9-0.9c0.5,0,0.9,0.4,0.9,0.9c0,0.5-0.4,0.9-0.9,0.9
		C214,143.4,213.6,143,213.6,142.5C213.6,142.5,213.6,142.5,213.6,142.5z"/>
	<path d="M128.1,176c0,0.1-9.4,0.3-20.9,0.3s-20.9-0.1-20.9-0.3s9.4-0.3,20.9-0.3S128.1,175.9,128.1,176z"/>
	<rect x="86.2" y="188" class="st6" width="43.5" height="43.5"/>
	<path d="M394.1,198.2c0,0.1-54,0.3-120.6,0.3s-120.6-0.1-120.6-0.3s54-0.3,120.6-0.3S394.1,198.1,394.1,198.2z"/>
	<path d="M218.9,214.6c0,0.1-14.2,0.3-31.8,0.3s-31.8-0.1-31.8-0.3s14.2-0.3,31.8-0.3S218.9,214.5,218.9,214.6z"/>
	<path class="st2" d="M355.6,229.8c0,0.1-44.9,0.3-100.2,0.3s-100.2-0.1-100.2-0.3s44.8-0.3,100.2-0.3S355.6,229.7,355.6,229.8z"/>
	<path d="M128.1,254c0,0.1-9.4,0.3-20.9,0.3s-20.9-0.1-20.9-0.3s9.4-0.3,20.9-0.3S128.1,253.8,128.1,254z"/>
	<rect x="86.2" y="265.9" class="st6" width="43.5" height="43.5"/>
	<path d="M408.5,276.2c0,0.1-57.2,0.3-127.8,0.3s-127.8-0.1-127.8-0.3s57.2-0.3,127.8-0.3S408.5,276,408.5,276.2z"/>
	<path d="M218.9,292.6c0,0.1-14.2,0.3-31.8,0.3s-31.8-0.1-31.8-0.3s14.2-0.3,31.8-0.3S218.9,292.4,218.9,292.6z"/>
	<path class="st2" d="M390.5,307.8c0,0.1-52.6,0.3-117.6,0.3s-117.6-0.1-117.6-0.3s52.7-0.3,117.6-0.3S390.5,307.6,390.5,307.8z"/>
	<path class="st3" d="M445.5,333.4c0-1.7-0.1-104.8-0.2-267.8l0.2,0.2H54.7l0,0l0.3-0.3c0,95.6,0,186.4,0,267.8l-0.2-0.2
		L445.5,333.4l-390.8,0.2h-0.2v-0.2c0-81.4,0-172.2,0-267.8v-0.3h0.3h390.8h0.2v0.2C445.6,228.6,445.5,331.6,445.5,333.4z"/>
	<path d="M190.1,85c0,0.2-13.8,0.3-30.8,0.3s-30.8-0.1-30.8-0.3s13.8-0.3,30.8-0.3S190.1,84.9,190.1,85z"/>
	<rect x="79.8" y="134.2" class="st7" width="54.7" height="16.5"/>
	<path class="st6" d="M231.4,177.4c0,0.1-17,0.3-38,0.3s-38-0.1-38-0.3s17-0.3,38-0.3S231.4,177.3,231.4,177.4z"/>
	<path class="st6" d="M231.4,254c0,0.1-17,0.3-38,0.3s-38-0.1-38-0.3s17-0.3,38-0.3S231.4,253.8,231.4,254z"/>
	<path class="st6" d="M397.1,144.3c-3.5,0-6.4-2.8-6.4-6.4c0-3.5,2.8-6.4,6.4-6.4c3.5,0,6.4,2.8,6.4,6.4c0,0,0,0,0,0
		C403.4,141.4,400.6,144.3,397.1,144.3z M397.1,132.5c-3,0-5.4,2.4-5.4,5.3c0,3,2.4,5.4,5.4,5.4c3,0,5.4-2.4,5.4-5.4c0,0,0,0,0,0
		C402.4,135,400,132.6,397.1,132.5L397.1,132.5z"/>
	<path class="st6" d="M404.9,147.1c-0.1,0-0.3-0.1-0.4-0.1l-4.1-4.1c-0.2-0.2-0.2-0.5,0-0.7c0.2-0.2,0.5-0.2,0.7,0l4.1,4.1
		c0.2,0.2,0.2,0.5,0,0.7C405.1,147,405,147.1,404.9,147.1z"/>
	<path d="M299.9,213.5c0,0.1-16.4,0.3-36.6,0.3s-36.6-0.1-36.6-0.3s16.4-0.3,36.6-0.3S299.9,213.4,299.9,213.5z"/>
	<path d="M347.1,212.4c0,0.1-8.6,0.3-19.1,0.3s-19.1-0.1-19.1-0.3s8.6-0.3,19.1-0.3S347.1,212.2,347.1,212.4z"/>
	<path d="M299.5,292.6c0,0.1-16.4,0.3-36.6,0.3s-36.6-0.1-36.6-0.3s16.4-0.3,36.6-0.3S299.5,292.4,299.5,292.6z"/>
</g>
<g id="freepik--Plant--inject-14">
	<path class="st7" d="M103.2,313.2c-8.1,4.2-14.3,11.4-18.8,19.4s-7.4,16.7-10.2,25.4l-2.5,44.8c9.4-16.1,17-34.9,19.1-53.5
		l-6.3-0.6c4.2-0.6,7.8-3.7,10-7.3s3.4-7.8,4.5-11.9l-7.7,1.1C97.4,326.6,101.7,320.3,103.2,313.2z"/>
	<g class="st8">
		<path d="M103.2,313.2c-8.1,4.2-14.3,11.4-18.8,19.4s-7.4,16.7-10.2,25.4l-2.5,44.8c9.4-16.1,17-34.9,19.1-53.5l-6.3-0.6
			c4.2-0.6,7.8-3.7,10-7.3s3.4-7.8,4.5-11.9l-7.7,1.1C97.4,326.6,101.7,320.3,103.2,313.2z"/>
	</g>
	<path class="st7" d="M70.3,413.2c0,0-20.5-24.5-20.2-47.9h8.3c0,0-9-5.9-8.3-9.2s1-15.8,1-15.8l7.6,1.9c0,0-5.7-2.8-6.4-7.3
		s1.7-25.3,1.7-25.3s9.2,9.7,12.1,19.6s10.2,21.5,8.1,51.8S70.3,413.2,70.3,413.2z"/>
	<path class="st7" d="M80.7,415.5c0,0,22.2-14.8,27.1-33.7l-6.7-1.9c0,0,8.5-2.8,8.7-5.6s2.7-13,2.7-13l-6.5-0.1c0,0,5.2-1,6.7-4.5
		s4.2-20.7,4.2-20.7s-9.5,5.8-14,13.1s-13,15-17.8,39.9S80.7,415.5,80.7,415.5z"/>
	<path class="st3" d="M59.4,330.8c0,0.1,0.1,0.2,0.1,0.2l0.2,0.8c0.2,0.7,0.4,1.7,0.7,2.9c0.6,2.5,1.3,6.2,2.2,10.8
		c1.8,9.1,3.8,21.7,5.5,35.8s2.5,26.8,2.9,36.1c0.2,4.6,0.3,8.4,0.3,11c0,1.3,0,2.3,0,3c0,0.3,0,0.6,0,0.8c0,0.1,0,0.2,0,0.3
		c0-0.1,0-0.2,0-0.3c0-0.2,0-0.5,0-0.8c0-0.7-0.1-1.7-0.1-3c-0.1-2.6-0.2-6.3-0.5-11c-0.5-9.2-1.4-22-3-36s-3.6-26.7-5.3-35.8
		c-0.8-4.5-1.5-8.2-2-10.8c-0.2-1.2-0.4-2.2-0.6-2.9c0-0.3-0.1-0.6-0.1-0.8C59.5,331.1,59.5,331,59.4,330.8z"/>
	<path class="st7" d="M67.5,428.2c0,0-18.8-21.2-24.6-34.1l4.4-1.9c-3.2,0.5-6.5-0.9-8.9-2.9c-2.4-2.2-4.4-4.7-6.1-7.5l5.8-1
		c-5.3-1.5-9.8-5-12.7-9.8c6.8,1.1,13,4.9,18.1,9.6c4.1,3.9,7.7,8.1,11,12.7c1.6,2.2,3.1,4.5,4.3,7
		C61.9,406.8,67.5,420.4,67.5,428.2z"/>
	<path class="st3" d="M108.1,348.5c0,0.1,0,0.2-0.1,0.2l-0.3,0.6l-1.1,2.4c-1,2-2.4,5-4.1,8.7c-3.4,7.4-8,17.7-12.5,29.2
		s-8,22.2-10.5,30c-1.2,3.9-2.2,7-2.8,9.2l-0.8,2.5l-0.2,0.6c0,0.1-0.1,0.2-0.1,0.2s0-0.1,0-0.2l0.2-0.7l0.7-2.5
		c0.6-2.2,1.5-5.4,2.7-9.3c2.3-7.8,5.8-18.5,10.3-30.1s9.1-21.9,12.6-29.2c1.8-3.7,3.2-6.6,4.3-8.6l1.2-2.3l0.3-0.6
		C108,348.7,108,348.6,108.1,348.5z"/>
	<path class="st3" d="M69.1,437.3c-0.1-0.5-0.2-1-0.3-1.5c-0.2-1-0.4-2.4-0.8-4.1c-0.9-4.5-2.2-9-3.8-13.3
		c-1.6-4.3-3.6-8.5-5.9-12.5c-0.9-1.5-1.6-2.8-2.2-3.6c-0.3-0.4-0.6-0.9-0.8-1.3c0.3,0.4,0.7,0.8,0.9,1.2c0.6,0.8,1.4,2,2.3,3.5
		c2.4,4,4.5,8.1,6.1,12.5c1.6,4.3,2.9,8.8,3.7,13.4c0.3,1.8,0.5,3.2,0.6,4.2C69,436.3,69.1,436.8,69.1,437.3z"/>
	<rect x="52.8" y="432.3" class="st6" width="41" height="8.4"/>
	<polygon class="st6" points="56.7,440.7 61.1,468.9 85.9,468.9 90,440.7 	"/>
	<path class="st3" d="M91.3,440.7c0,0.1-7.8,0.3-17.3,0.3s-17.3-0.1-17.3-0.3s7.8-0.3,17.3-0.3S91.3,440.6,91.3,440.7z"/>
</g>
<g id="freepik--Character--inject-14">
	<path class="st7" d="M270,448.1v20.8l41.9-0.2c-0.3-4.2-23.3-12.6-23.3-12.6l0.5-8L270,448.1z"/>
	<g class="st9">
		<path class="st1" d="M276.8,454.2c-0.8,0.3-1.3,1.2-1.1,2.1c0.2,0.9,1.1,1.4,1.9,1.2c0.9-0.3,1.4-1.3,1.2-2.2
			c-0.3-0.9-1.3-1.3-2.1-1c0,0,0,0,0,0"/>
	</g>
	<path class="st3" d="M270,468.9v-3.3l40,0.5c0,0,2.1,1.2,1.9,2.6L270,468.9z"/>
	<path class="st3" d="M288.6,456.4c0,0.2-1,0.3-2,1s-1.5,1.6-1.7,1.5s0.1-1.3,1.3-2.2S288.6,456.2,288.6,456.4z"/>
	<path class="st3" d="M294.1,458.4c0,0.2-0.8,0.6-1.5,1.5s-0.9,1.9-1.1,1.9s-0.4-1.2,0.5-2.4S294.1,458.2,294.1,458.4z"/>
	<path class="st3" d="M296.6,463.6c-0.2,0-0.5-1,0-2.2s1.5-1.7,1.5-1.5s-0.5,0.8-0.9,1.8S296.8,463.6,296.6,463.6z"/>
	<path class="st3" d="M288.2,450.5c-0.1,0.2-1-0.1-2.2,0s-2,0.5-2.1,0.3s0.7-1,2.1-1.1S288.3,450.4,288.2,450.5z"/>
	<path class="st3" d="M288.4,457.4c0.1-0.4,0.1-0.8,0.1-1.3c-0.1-1.2-0.5-2.3-1.1-3.3c-0.4-0.7-1-1.3-1.6-1.7
		c-0.4-0.3-0.9-0.4-1.4-0.2c-0.5,0.3-0.8,0.8-0.8,1.4c0.1,2.2,1.6,4.1,3.7,4.9c2.1,0.7,4.3,0,5.7-1.7c0.3-0.4,0.6-0.8,0.8-1.3
		c0.1-0.3,0.1-0.6,0-0.8c-0.1-0.3-0.3-0.5-0.6-0.6c-0.4-0.1-0.9-0.1-1.3,0.1c-0.3,0.2-0.7,0.3-1,0.5c-0.9,0.6-1.8,1.4-2.4,2.4
		c-0.3,0.3-0.5,0.7-0.6,1.1c0.9-1.2,1.9-2.3,3.2-3.1c0.6-0.3,1.3-0.8,1.9-0.6c0.3,0.1,0.4,0.4,0.2,0.8c-0.2,0.4-0.4,0.8-0.7,1.1
		c-1.2,1.5-3.2,2.1-5.1,1.5c-1.8-0.6-3.1-2.3-3.3-4.2c0-0.4,0.2-0.7,0.5-0.9c0.3-0.1,0.7,0,0.9,0.2c0.6,0.4,1.1,0.9,1.5,1.5
		c0.6,0.9,1.1,1.9,1.2,3C288.4,456.9,288.4,457.4,288.4,457.4z"/>
	<polygon class="st7" points="254.7,451.1 255.4,456.4 254.9,468.5 239.2,468.9 238.7,456.4 240.5,449 	"/>
	<path class="st3" d="M247.2,467.6c-0.1,0,0.1-3.7,0.5-8.2s0.8-8.2,0.9-8.3s-0.1,3.7-0.5,8.2S247.3,467.6,247.2,467.6z"/>
	<polygon class="st3" points="255,466.5 239.1,466.7 239.1,468.9 255,468.9 	"/>
	<path class="st3" d="M239.2,459.5c0,0,0.1-0.2,0.4-0.6c0.4-0.5,0.9-1,1.4-1.5c0.8-0.7,1.6-1.3,2.5-1.7c3.3-1.6,7.3-0.9,9.8,1.8
		c0.5,0.5,0.8,1.1,1.1,1.7c0.1,0.2,0.2,0.5,0.2,0.7c-0.5-0.8-1-1.5-1.6-2.2c-1.6-1.5-3.7-2.4-5.9-2.4c-2.2,0.1-4.3,0.9-6,2.3
		C239.9,458.8,239.2,459.6,239.2,459.5z"/>
	<path class="st10" d="M247.1,114.7L247,169l23.3,1.1l0.7-13.2c0,0,8.3,1.6,10.4-6c1.4-4.9,1-42.8,1-42.8L247.1,114.7z"/>
	<path class="st3" d="M285.4,111.9c-3.7,1.1-4.5,7-4.5,7l-5.8,12.7c-2.9-2.3-6.9-2.2-7.6,3c-0.5,3.7,4.1,4.5,4.1,4.5
		c-2.7,4.6-4.5,8.3-8.5,12.7c-4.2,4.8-6.6,5.2-11.2,5.3h-5.1c0,0-2.5-8.1-7.1-28.2c-5.1-22.4,21.4-19.5,26.3-25.2
		C274.1,94.3,297,108.6,285.4,111.9z"/>
	<path class="st3" d="M291.9,107c-0.4-2.5-2.6-4.3-5.1-4.2c0.8-1.3,0.5-3-0.7-4c-1.2-0.9-2.7-1.3-4.2-1c-1.5,0.3-2.9,0.8-4.2,1.5
		c-0.5-1.5-1.4-2.7-2.7-3.6c-1.4-0.8-2.9-1.2-4.5-1.1c-7.1,0-10.9,4.9-14.8,9.9c-0.6,0.9-1.4,1.7-2.3,2.2c-0.7,0.2-1.4,0.3-2.1,0.2
		c-5.6,0.2-10.6,3.3-13.2,8.2c-2.5,4.8-4.4,16,2.1,23l3.9,8.7l37.3-29.6c0.3,0.1,2.6,1.3,4.4,0.3c4.5-2.4,2.6-6.3,2.6-6.3
		C288.8,111.1,292.2,109.4,291.9,107z"/>
	<path class="st7" d="M257.3,136.1c0.3,1.4,0.3,2.8-0.1,4.1c-0.2,1.4-0.8,2.7-1.6,3.8c-0.2-0.1,0.6-1.7,1.1-3.9
		S257.1,136.1,257.3,136.1z"/>
	<path class="st7" d="M260.1,133.4c0.2,1.3,0.1,2.7-0.2,4c-0.1,1.3-0.6,2.6-1.2,3.8c0.1-1.3,0.3-2.6,0.6-3.9
		C259.5,136,259.8,134.7,260.1,133.4z"/>
	<path class="st7" d="M268.2,124.5c0.1,0.1-0.6,0.6-1.4,1.5c-1.1,1.3-1.9,2.8-2.5,4.3c-0.6,1.6-1,3.2-1.4,4.9
		c-0.1,0.7-0.3,1.4-0.6,2c0-0.7,0-1.4,0.2-2.1c0.2-1.7,0.7-3.4,1.2-5c0.6-1.6,1.5-3.1,2.8-4.4C266.9,125.2,267.5,124.7,268.2,124.5z
		"/>
	<path class="st7" d="M271.5,118.4c0.1,0,0.3,0.5,0.5,1.5c0.2,1.2,0.1,2.5-0.2,3.7c-0.3,1.2-0.8,2.4-1.6,3.4c-0.6,0.8-1,1.1-1.1,1.1
		s1.4-1.9,2.1-4.6S271.3,118.4,271.5,118.4z"/>
	<path class="st7" d="M243.7,131.9c-0.1,0.1-0.8-0.1-1.6-0.6s-1.4-0.9-1.3-1.1s0.8,0.1,1.6,0.6S243.8,131.8,243.7,131.9z"/>
	<path class="st7" d="M254.9,126.2c0.1,0.8-0.1,1.7-0.7,2.4c-0.7,1.2-1.7,1.8-1.8,1.7s0.6-0.9,1.3-2S254.8,126.1,254.9,126.2z"/>
	<path class="st7" d="M258.4,124.3c0,1-0.4,2-1,2.8c-0.9,1.4-2.1,2.2-2.2,2s0.8-1,1.7-2.4C257.3,125.9,257.8,125.1,258.4,124.3z"/>
	<path class="st7" d="M275.6,101.6c0,0-0.4-0.3-1.3-0.8c-1.2-0.6-2.5-1-3.9-1c-2-0.1-4,0.5-5.7,1.5c-2.1,1.4-3.7,3.2-4.9,5.4
		c-0.9,1.6-1.5,3.3-2,5.1l-0.1,0.3l-0.3-0.2c-1.6-0.8-3.4-1.3-5.2-1.3c-1.4,0-2.9,0.2-4.2,0.6c-1.2,0.4-2.4,1-3.5,1.7
		c0.2-0.3,0.5-0.5,0.8-0.7c0.8-0.6,1.6-1,2.6-1.4c1.4-0.5,2.9-0.8,4.4-0.8c1.9,0,3.8,0.4,5.5,1.3l-0.4,0.2c0.5-1.8,1.1-3.6,2-5.2
		c1.2-2.3,2.9-4.2,5.1-5.6c1.8-1.1,3.9-1.6,6-1.5c1.4,0.1,2.8,0.5,4,1.2c0.3,0.2,0.6,0.4,0.9,0.7
		C275.5,101.4,275.6,101.5,275.6,101.6z"/>
	<path class="st7" d="M287.8,104.5c0,0,0.6-0.2,1.3,0.6c0.4,0.5,0.6,1.1,0.5,1.7c-0.1,0.8-0.6,1.5-1.4,1.9c-0.9,0.5-1.9,0.6-2.8,0.4
		c-1.1-0.3-2-0.8-2.9-1.4c-0.9-0.7-1.9-1.4-2.9-2c-1.1-0.6-2.2-1-3.4-1.2c-2.3-0.4-4.7-0.3-7,0.5c-1.9,0.6-3.6,1.5-5.2,2.6
		c-2.7,1.9-4.1,3.6-4.1,3.5c0.3-0.4,0.6-0.8,0.9-1.2c0.9-1,1.9-1.9,3-2.7c1.6-1.2,3.4-2.2,5.3-2.8c2.3-0.8,4.9-1,7.3-0.5
		c1.3,0.2,2.5,0.7,3.6,1.3c1,0.6,2,1.3,2.9,2c0.8,0.6,1.7,1.1,2.7,1.4c0.8,0.2,1.7,0.1,2.5-0.3c0.6-0.3,1.1-0.9,1.2-1.6
		c0.1-0.5-0.1-1.1-0.4-1.5C288.7,104.8,288.3,104.6,287.8,104.5z"/>
	<path class="st10" d="M396.3,146.2c-0.9-0.8-12.7,4.2-12.7,4.2s-8.9,7-12.5,11.1l-2.2,1.9l-33.7,26.2l-41.4-17.2l-9,23.1
		c0,0,46.5,18.5,53.6,15.3c7.7-3.4,36.3-33.4,36.4-33.5l0,0l4.1-4c0,0,2.2,0,3.9-0.1s6.5-3.3,6.5-3.3c0.5-0.9,0.8-1.8,0.9-2.8
		c0.2-0.8-0.2-1.7-0.9-2.1c0.2-0.8,0.2-1.6,0.1-2.3c-0.2-1.3-2-2.9-2-2.9c0.6-0.6,0.9-1.3,1.1-2.1c0.4-1.5-1.6-3-1.6-3
		s6.9-4.7,8.6-5.5S397.2,146.9,396.3,146.2z"/>
	<path class="st3" d="M299.9,382.7c0.1-1.5,0.2-2.7,0.2-3.4l4.7-74.6c0,0-3.9-21.8-5.8-27.6l-16.7-6.5l-22.3,8.7
		c-0.1-1.8-0.2-2.9-0.2-2.9L227,287.7c0,0-0.9,22.4,0,29.2c0.3,2.2,1.1,7.8,2.2,14.5l0,0c0,0,1.1,14.5,1.3,15.3c0.8,3,1,10.2,1,17.4
		c0,9.2,0.5,20.1,1.1,25.4s0.9,62.4,0.9,62.4h24.2l3.1-91.2c0.5-9.8,1.3-24.7,1.8-35.5l5.7,33.7c0,1.2,3.5,20.5,3.5,20.5
		c-0.8,6.1-1.3,12.2-1.5,18.3c-0.4,17-2.4,54.3-2.4,54.3h23.7C291.4,451.9,298.6,398,299.9,382.7L299.9,382.7z"/>
	<path class="st7" d="M304,300.2c-0.8-0.3-1.5-0.7-2.2-1.2c-1.7-1.1-3.2-2.3-4.7-3.7c-1.4-1.4-2.7-2.9-3.9-4.5
		c-0.5-0.7-0.9-1.4-1.2-2.1c0.5,0.6,1.1,1.3,1.5,1.9c1.2,1.6,2.5,3,3.9,4.4c1.4,1.4,2.9,2.6,4.5,3.8
		C302.7,299.1,303.4,299.6,304,300.2z"/>
	<path class="st7" d="M261.7,313.7c-0.2-0.2-0.3-0.5-0.5-0.7c-0.4-0.7-0.7-1.4-1-2.2c-1-2.4-1.8-5-2.2-7.5c-0.4-2.6-0.6-5.2-0.5-7.9
		c0.1-1,0.1-1.8,0.2-2.4c0-0.3,0.1-0.6,0.2-0.9c0.1,0,0,1.2,0,3.2c0,2.6,0.2,5.2,0.6,7.8c0.4,2.6,1.1,5.1,2,7.5
		C261.3,312.6,261.8,313.7,261.7,313.7z"/>
	<path class="st7" d="M265.2,341.8c-0.1-0.4-0.3-0.9-0.3-1.3c-0.2-0.9-0.4-2.1-0.7-3.6c-0.5-3.1-1.2-7.2-2-11.8
		c-1.3-8.4-2.2-14.1-2.7-16.7c0.5,1.6,0.9,3.2,1.1,4.8c0.6,3,1.3,7.2,2.1,11.8s1.4,8.8,1.8,11.8c0.2,1.4,0.4,2.6,0.5,3.6
		C265.2,340.9,265.2,341.4,265.2,341.8z"/>
	<path class="st10" d="M208.1,217.4c0,0-3.2,22.5-3.8,30.4c-0.4,4.8,4.5,11,8.1,11.5s16.1,1.2,16.1,1.2l1-14.1l-0.3-2.8l-3.9-0.7
		l1.2-22.4L208.1,217.4z"/>
	<path class="st11" d="M226.1,221.2c0.1,0.4,0.1,0.8,0.1,1.2c0.1,0.8,0.1,1.9,0.1,3.4c0.1,2.8,0,6.7-0.2,11s-0.6,8.2-0.9,11
		c-0.1,1.4-0.3,2.5-0.4,3.3c0,0.4-0.1,0.8-0.2,1.2c0-0.4,0-0.8,0-1.2c0.1-0.9,0.1-2,0.2-3.3c0.2-2.9,0.4-6.8,0.7-11s0.4-8.2,0.4-11
		c0-1.3,0-2.4,0-3.3C226,222,226,221.6,226.1,221.2z"/>
	<g class="st8">
		<path d="M227.3,288.1c6.3,2.3,13.2,2.5,19.9,2s13.3-1.9,20-2.6c10.1-0.9,20.4-0.3,30.3,2c0.7,0.2,1.4,0.3,2.1,0.2
			c0.7-0.1,1.3-0.6,1.5-1.3c0.2-1.1-1-1.9-2.1-2.3c-23.1-9.6-49.2-9-71.9,1.6"/>
	</g>
	<path class="st6" d="M323.8,182.4l-35.5-17.7c-5.6-0.7-11.2-0.9-16.9-0.7h-23.5c0,0-28.5,8.4-33.2,16.1l-12.2,36.6l24.1,3.6l0,0
		l3,26.3c0,0-3,30.5-3,34.9c-0.1,2,0.1,4.1,0.4,6.1c0,0,48.3-7.3,60.2-3.5s15.1,3.5,15.1,3.5s-1-12.6-1.9-20l-2.7-36.7l-2-28
		l22.4,6.8L323.8,182.4z"/>
	<path class="st3" d="M226.4,220.7c-0.1,0-0.3-1.5-0.9-3.9c-0.7-3.2-1.6-6.3-2.8-9.3c-1.2-3.1-2.6-6-4.1-8.9l-1.5-2.6
		c-0.2-0.3-0.4-0.6-0.5-1c0.3,0.3,0.5,0.6,0.7,0.9c0.4,0.6,1,1.5,1.6,2.6c1.7,2.8,3.1,5.8,4.3,8.9c1.2,3.1,2.1,6.2,2.7,9.4
		c0.2,1.2,0.4,2.2,0.4,2.9C226.4,220,226.4,220.3,226.4,220.7z"/>
	<path class="st3" d="M271.9,231.1c0,0.2-0.1,0.3-0.1,0.5l-0.5,1.4c-0.2,0.6-0.5,1.3-0.8,2.1s-0.7,1.8-1.1,2.8c-0.9,2-2,4.4-3.4,7
		s-3.1,5.3-5,8.1s-4,5.3-5.9,7.5s-3.8,4.1-5.4,5.6c-0.8,0.8-1.6,1.4-2.2,2s-1.2,1.1-1.7,1.5l-1.1,0.9c-0.1,0.1-0.3,0.2-0.4,0.3
		c0,0,0.1-0.1,0.4-0.4l1.1-1c0.5-0.4,1-0.9,1.7-1.5s1.4-1.3,2.1-2.1c1.6-1.5,3.4-3.5,5.3-5.7c1.9-2.2,3.9-4.7,5.8-7.5s3.6-5.5,5-8
		s2.6-4.9,3.5-6.9c0.5-1,0.9-1.9,1.2-2.7s0.6-1.5,0.9-2.1s0.4-1,0.5-1.3C271.7,231.4,271.8,231.2,271.9,231.1z"/>
	<path class="st3" d="M288.3,167.2c-0.9,1.3-1.6,2.9-1.9,4.5c-0.3,1.7-0.3,3.5,0,5.2c0.4,2.1,0.9,4.3,1.5,6.3
		c1.2,4.5,2.5,8.5,3.5,11.4c0.5,1.4,0.9,2.5,1.2,3.4c0.2,0.4,0.3,0.8,0.4,1.3c-0.2-0.4-0.4-0.8-0.6-1.2c-0.3-0.8-0.8-1.9-1.3-3.4
		c-1.1-2.9-2.4-6.9-3.7-11.3c-0.6-2.1-1.1-4.2-1.4-6.4c-0.3-1.8-0.3-3.6,0.1-5.4c0.2-1.2,0.7-2.3,1.4-3.4
		C287.7,167.8,288,167.5,288.3,167.2z"/>
	<path class="st1" d="M221.3,205.7c-0.5,0.6-1.2,1-1.9,1.3c-3.5,1.6-7.6,1-10.4-1.6c-0.6-0.5-1.1-1.1-1.4-1.8
		c0.1-0.1,0.6,0.6,1.7,1.5c2.8,2.3,6.7,2.9,10.1,1.5C220.5,206.2,221.2,205.6,221.3,205.7z"/>
	<path class="st1" d="M289.4,189.2c-0.1,0.3-0.2,0.5-0.3,0.8c-0.2,0.5-0.6,1.2-1,2.1c-1.4,2.6-3.2,4.9-5.3,6.9
		c-3.1,3-7,5.2-11.3,6.1c-2.5,0.6-5.1,0.7-7.6,0.3c-2.7-0.4-5.3-1.4-7.7-2.8c-4.9-2.7-9.1-6.2-13.6-7.9c-4-1.5-8.4-1.7-12.5-0.7
		c-2.8,0.7-5.4,1.9-7.8,3.6c-1.6,1.2-2.4,2.1-2.4,2c0.7-0.8,1.5-1.5,2.3-2.2c5.9-4.5,13.7-5.7,20.6-3.2c4.6,1.7,8.8,5.2,13.7,7.9
		c2.3,1.4,4.9,2.3,7.6,2.8c2.5,0.3,5,0.2,7.5-0.3c4.2-0.9,8-3,11.1-5.9c2.1-2,3.9-4.2,5.4-6.7c0.5-0.9,0.9-1.6,1.1-2.1
		C289.1,189.7,289.2,189.4,289.4,189.2z"/>
	<path class="st1" d="M311.6,176.4c0.2,0.4,0.4,0.8,0.5,1.2c0.3,1.1,0.5,2.2,0.6,3.3c0.2,3.8-1,7.5-3.4,10.5
		c-1.4,1.5-2.9,2.9-4.5,4.2c-1.3,1.1-2.3,2.3-3,3.8c-0.5,1-0.7,2.1-0.7,3.2c0.1,0.8,0.2,1.2,0.2,1.2s-0.1-0.1-0.1-0.3
		c-0.1-0.3-0.2-0.6-0.2-0.9c-0.1-1.1,0-2.3,0.5-3.4c0.7-1.5,1.7-2.9,3-4c1.6-1.3,3-2.7,4.4-4.2c2.3-2.9,3.5-6.5,3.4-10.1
		C312.2,179.4,312,177.9,311.6,176.4z"/>
	<path class="st1" d="M253.8,260.7c-0.3,0.2-0.7,0.3-1,0.4c-1,0.3-1.9,0.5-2.9,0.6c-1.5,0.2-3,0.2-4.5-0.3c-0.9-0.3-1.7-0.7-2.4-1.3
		c-0.7-0.7-1.3-1.4-1.9-2.1c-0.6-0.7-1.3-1.3-2-1.9c-0.7-0.5-1.5-0.8-2.3-1.1c-1.4-0.4-2.8-0.6-4.3-0.4c-1,0.1-1.9,0.4-2.8,0.8
		c-0.3,0.2-0.7,0.3-1,0.5c0.3-0.3,0.6-0.5,0.9-0.6c0.9-0.5,1.9-0.9,2.9-1c1.5-0.2,3-0.1,4.5,0.3c0.9,0.3,1.7,0.6,2.4,1.1
		c0.8,0.5,1.5,1.2,2.1,1.9c0.6,0.7,1.2,1.4,1.9,2c0.6,0.6,1.4,1,2.2,1.3c1.4,0.4,2.9,0.5,4.3,0.4C252.3,261,253.8,260.6,253.8,260.7
		z"/>
	<path class="st1" d="M299.8,258.5c-0.1,0.1-0.2,0.2-0.3,0.3c-0.3,0.2-0.7,0.5-1,0.7c-1.2,0.8-2.6,1.3-4,1.7
		c-2.1,0.5-4.3,0.7-6.5,0.4c-2.7-0.4-5.2-1.4-7.4-3c-2.1-1.7-4-3.4-5.9-5.3c-1.5-1.5-3.3-2.7-5.2-3.6c-1.3-0.6-2.7-0.9-4.1-0.9
		c-1,0-1.6,0.2-1.6,0.1c0.1-0.1,0.3-0.1,0.4-0.1c0.4-0.1,0.8-0.2,1.2-0.2c1.5-0.1,3,0.2,4.3,0.8c2,0.9,3.8,2.1,5.4,3.6
		c1.8,1.6,3.6,3.6,5.9,5.2c2.1,1.5,4.5,2.5,7.1,2.9c2.1,0.3,4.3,0.2,6.3-0.2c1.4-0.3,2.7-0.8,4-1.5
		C298.9,259,299.3,258.8,299.8,258.5z"/>
</g>
<g id="freepik--magnifying-glass--inject-14">
	<path class="st3" d="M384.8,116.1c-25.5-12.2-36.2-42.7-24.1-68.2s42.7-36.2,68.2-24.1c9.6,4.6,17.6,12.1,22.7,21.4l0,0
		c13.6,24.7,4.7,55.8-20.1,69.4C417.1,122.7,399.7,123.2,384.8,116.1L384.8,116.1z M427.4,26.9c-23.8-11.3-52.2-1.3-63.6,22.5
		s-1.3,52.2,22.5,63.6c23.8,11.3,52.2,1.3,63.6-22.5c6.6-13.9,6.1-30.1-1.3-43.6C443.9,38.2,436.4,31.2,427.4,26.9L427.4,26.9z"/>
	<path class="st3" d="M471.1,172L471.1,172c-3,1.8-6.9,0.9-8.8-2.1l-33.4-54.2c-0.3-0.5-0.2-1.2,0.4-1.5l7.1-4.4
		c0.5-0.3,1.2-0.2,1.5,0.3l35.2,52.8c2,2.9,1.2,6.9-1.7,8.8C471.3,171.9,471.2,171.9,471.1,172z"/>
	<path class="st7" d="M386.1,113.5c-25.5-12.2-36.3-42.7-24.1-68.2c12.2-25.5,42.7-36.3,68.2-24.1c9.6,4.6,17.6,12.1,22.7,21.5l0,0
		c13.6,24.7,4.6,55.8-20.1,69.5C418.4,120.1,400.9,120.6,386.1,113.5z M428.7,24.3c-23.8-11.3-52.2-1.3-63.6,22.5
		s-1.3,52.2,22.5,63.6c23.8,11.3,52.2,1.3,63.6-22.5c6.6-13.9,6.1-30.1-1.3-43.6C445.1,35.6,437.7,28.6,428.7,24.3z"/>
	<path class="st7" d="M429.6,112.2l9-5.5l0,0l35.5,57.6c1.4,2.4,0.7,5.4-1.6,6.9l-0.5,0.3c-2.4,1.4-5.4,0.7-6.9-1.6L429.6,112.2
		L429.6,112.2L429.6,112.2z"/>
	<path class="st2" d="M369.9,55.2c0-0.5,0.1-1.1,0.3-1.6c0.1-0.6,0.3-1.2,0.5-1.8c0.2-0.8,0.5-1.6,0.8-2.4l0.5-1.4
		c0.2-0.5,0.4-0.9,0.7-1.4c0.5-1,1.1-2,1.7-3c1.4-2.3,3.1-4.4,4.9-6.3c1.9-1.9,3.9-3.6,6.1-5.1c1-0.6,2-1.2,3-1.8
		c0.5-0.2,0.9-0.5,1.4-0.7l1.3-0.6c0.8-0.3,1.5-0.6,2.3-0.9c0.6-0.2,1.2-0.4,1.8-0.5c0.5-0.1,1-0.3,1.6-0.3c-0.5,0.2-1,0.4-1.5,0.5
		c-0.6,0.2-1.2,0.4-1.8,0.6c-0.8,0.3-1.5,0.6-2.3,0.9l-1.3,0.6c-0.5,0.2-0.9,0.5-1.4,0.7c-1,0.5-1.9,1.1-3,1.8c-2.2,1.5-4.2,3.1-6,5
		c-1.8,1.9-3.4,4-4.9,6.2c-0.6,1-1.2,2-1.7,3c-0.2,0.5-0.5,0.9-0.7,1.4l-0.6,1.3c-0.4,0.8-0.6,1.6-0.9,2.3c-0.2,0.6-0.4,1.2-0.5,1.8
		C370.3,54.2,370.1,54.7,369.9,55.2z"/>
</g>
</svg>
