<?xml version="1.0" encoding="utf-8"?>
<!-- Generator: Adobe Illustrator 27.3.1, SVG Export Plug-In . SVG Version: 6.00 Build 0)  -->
<svg version="1.1" id="Layer_1" xmlns="http://www.w3.org/2000/svg" xmlns:xlink="http://www.w3.org/1999/xlink" x="0px" y="0px"
	 viewBox="0 0 500 500" style="enable-background:new 0 0 500 500;" xml:space="preserve">
<style type="text/css">
	.st0{fill:#EBEBEB;}
	.st1{fill:#37474F;}
	.st2{fill:#FFFFFF;}
	.st3{fill:#455A64;}
	.st4{fill:#FFA8A7;}
	.st5{fill:#263238;}
	.st6{fill:#E6AA68;}
	.st7{fill:#F28F8F;}
	.st8{opacity:0.2;enable-background:new    ;}
	.st9{fill:#B16668;}
	.st10{fill:#F0F0F0;}
	.st11{fill:#9A4A4D;}
	.st12{opacity:0.1;enable-background:new    ;}
	.st13{fill:#F5F5F5;}
	.st14{fill:#E0E0E0;}
	.st15{opacity:0.7;fill:#FFFFFF;enable-background:new    ;}
</style>
<g id="freepik--Shadows--inject-4">
	<ellipse id="freepik--Shadow--inject-4" class="st0" cx="416.4" cy="444" rx="48.8" ry="28.1"/>
	<ellipse id="freepik--shadow--inject-4" class="st0" cx="104.8" cy="267.4" rx="46.4" ry="26.8"/>
	
		<ellipse id="freepik--shadow--inject-4_00000017496117391210176960000008339795261897978526_" class="st0" cx="177.9" cy="310" rx="46.4" ry="26.8"/>
	
		<ellipse id="freepik--shadow--inject-4_00000155117405750387506000000018416480895179805876_" class="st0" cx="252.1" cy="353.3" rx="46.4" ry="26.8"/>
	
		<ellipse id="freepik--shadow--inject-4_00000144318332885374976830000017921746839897020345_" class="st0" cx="327.4" cy="396.2" rx="46.4" ry="26.8"/>
</g>
<g id="freepik--Clouds--inject-4">
	<g id="freepik--clouds--inject-4">
		<path class="st0" d="M375.2,57.6l8.9,5.2c0-0.4-0.1-0.8-0.1-1.2V59c0-4.6,3.2-6.5,7.2-4.2c1.7,1.1,3.2,2.5,4.3,4.2
			c0.6-5.8,5.2-8,10.7-4.8c6,3.5,10.8,11.8,10.8,18.7v3.9c0,1.5-0.3,3.1-0.9,4.5l7.4,4.3c2.4,1.5,3.8,4.1,4,6.9c0,2.6-1.8,3.6-4,2.3
			l-48.4-28c-2.4-1.5-3.9-4.1-4-6.9C371.2,57.3,373,56.3,375.2,57.6z"/>
		<path class="st0" d="M337,83.6l6.7,3.9c0-0.3,0-0.6,0-0.9v-1.9c0-3.5,2.4-4.9,5.5-3.2c1.3,0.8,2.4,1.9,3.2,3.1
			c0.5-4.4,3.9-6,8.1-3.6c4.5,2.6,8.2,8.9,8.2,14.1v2.9c0,1.2-0.2,2.3-0.7,3.4l5.6,3.2c1.8,1.2,2.9,3.1,3,5.2c0,1.9-1.4,2.7-3,1.8
			L337,90.6c-1.8-1.2-2.9-3.1-3-5.2C334,83.4,335.3,82.7,337,83.6z"/>
	</g>
</g>
<g id="freepik--Plants--inject-4">
	<g id="freepik--plants--inject-4">
		<path class="st1" d="M434,430.6c2.4-2.9,8.9-5.5,17.1-6s16.4-1.5,15.3-6.4c-1.2-5.2-8.6-6.5-16.2-4.6c-8.3,2.1-15.3,9.2-16.1,14.2
			L434,430.6z"/>
		<path class="st2" d="M434.2,428.9c0.2,0,0.4-0.1,0.6-0.2c7.9-11.6,22.2-11.6,26.5-10.3c0.3,0.1,0.6-0.1,0.7-0.4c0,0,0,0,0,0
			c0.1-0.3-0.1-0.6-0.4-0.7c-4.6-1.4-19.6-1.4-27.8,10.8c-0.2,0.3-0.1,0.6,0.2,0.8C434,428.8,434.1,428.9,434.2,428.9z"/>
		<path class="st3" d="M434,430.6c0,0,6-14.4,16.7-21.1c3.2-2,6.7-4.5,9.1-6.3c5.2-3.8,4-8.9-2.3-9.7c-9.4-1.2-17.4,5.7-21.9,15.6
			S434,430.6,434,430.6z"/>
		<path class="st2" d="M434.1,423.8c0.3,0,0.6-0.1,0.6-0.4c4.2-17.7,19.2-24.7,23.1-25.1c0.3,0,0.5-0.3,0.5-0.6c0,0,0,0,0,0
			c0-0.3-0.3-0.5-0.6-0.5c-4.7,0.5-19.7,7.9-24.1,26C433.6,423.4,433.8,423.7,434.1,423.8C434.1,423.7,434.1,423.7,434.1,423.8
			L434.1,423.8z"/>
	</g>
</g>
<g id="freepik--character-5--inject-4">
	<path class="st4" d="M437.1,258c4.8-1.1,7.9,2.9,11,10.4s8.6,25.9,9.9,30.9c0.6,2.2-13.7,22.4-13.1,22.1c0.2-0.1-5.6-9.7-5.6-9.7
		l7-13.4l-5-12.2L437.1,258z"/>
	<path class="st5" d="M443.9,428c0.6,0.2,0.8,1.5,0.9,3.9c0.1,1.9,0.5,5.1-1.7,5.8s-5.4,0.3-6.8-1.4c-1.8-2.2-2.9-4.1-5.4-6.8
		c-2.2-2.3-4.5-4.5-5.4-7.7c-0.8-2.9-0.1-4.2,1.9-5.1c2.8-1.2,7.1,2.7,9.2,3.3C438.6,420.4,443.3,427.7,443.9,428z"/>
	<path class="st4" d="M443.9,424v4.7c-2.3,1.5-5.3,1.6-7.6,0.2c-0.1-0.3-0.5-4.9-0.5-4.9H443.9z"/>
	<path class="st5" d="M421.5,444c0,0,0.9,2.6,1.3,4.9c0.4,1.8,0.9,4.9,0.3,6.2s-3.1,2.3-7,2.2c-2.5,0-6.4,1.7-9.1,3.2
		s-5.8,1.5-8.7,1.2c-3.4-0.4-7-2.4-7.6-3.8s0.2-2.1,8.3-5.6c0.1,0,8.5-3.9,12.5-8.2L421.5,444z"/>
	<path class="st4" d="M421.5,440.7c0,0,0,2.2,0,3.5s-1.5,3.2-5.4,3c-2.8-0.1-4.7-0.8-4.6-3.1v-3.3L421.5,440.7z"/>
	<path class="st6" d="M449,389.1c-0.2-10-2.3-14.3-2.3-14.3s0.8-12.3,2.4-27.4c2.5-23,1.4-27.4-3.2-37.7c0,0-38.6-3.9-39.8,12.1
		c-1.5,20-1.6,55.4-1.1,62.5s0.5,5.8,2.2,20c1.4,11.3,4.2,36.6,4.2,36.6c3.2,1.6,6.9,1.5,10-0.2c0,0,3.1-32.1,2.8-40.3
		c-0.4-10-1-12.5-1-12.5s4.5-29.4,5.2-34.6c0,0,0.6,9.3,1.2,16.3s0.5,9.9,2,24.5c1.2,11.5,4,31,4,31c2.8,1.1,5.9,0.9,8.4-0.6
		C444.1,424.6,449.2,397.1,449,389.1z"/>
	<polygon class="st4" points="417.4,252.8 419.2,267.7 432.3,266.5 430.8,250 	"/>
	<path class="st1" d="M445.1,265.2c-1.4-3.9-4.8-8-9.8-7.1c-1.3,0.2-2.5,0.4-3.7,0.7c-0.1,3.4-6.6,5.2-13,3.1
		c-1.9,0.6-3.7,1.1-5.3,1.7c-4.6,1.6-6.5,9.3-6.6,22.1s-1.5,44.8-1.5,44.8l5.4,1.7l2.5-9.4l1,11.2c6.1,1.4,12.5,1.4,18.6-0.1
		c13.9-3,18.2-10.5,18.2-10.5c-2.3-9.1-6-17.7-11-25.6C446.8,279.5,447.2,271,445.1,265.2z"/>
	<path class="st5" d="M407.6,233.8c-1.6-3.6-1.2-7.8,1-11.1c4.4-6.9,12.9-8.1,23-5.4c7.2,2.2,12.2,8.7,12.6,16.2
		c0.5,7.4-20.1,12.8-19.6,17.9L407.6,233.8z"/>
	<path class="st7" d="M407.2,236.6c0,0-2.8,4.5-2.4,4.9c0.7,0.4,1.5,0.7,2.2,0.9L407.2,236.6z"/>
	<path class="st4" d="M415.7,222.5c-2.8,1.5-7.6,4.4-8.6,14.8c-1,10.7,1.5,14.4,3,15.8c1,0.9,6.1,1.1,8.7,0.2
		c3.3-1.1,10.4-4.9,13.6-10.5c3.8-6.6,4.4-15.3-0.3-18.6C425.5,219.6,418,221.2,415.7,222.5z"/>
	<path class="st5" d="M415.7,223.7c-1.6,3.9-2.6,8.1-3,12.3c-1.3,0-2.6-0.2-3.8-0.6c0,0,0-4.5,1.2-7.1c-1.2,2.1-1.9,4.3-2.2,6.7
		c-1.3-0.1-2.5-0.6-3.6-1.3c-1-4.8,2-14.7,10.5-16.3L415.7,223.7z"/>
	<path class="st5" d="M414.9,222.9c0,0-2.2,9.8,0.9,15.9c0,0,1.6-3.9,4.9-2.9s3.1,5.4,0.6,7.7c-1.3,1.3-3.3,1.8-5.1,1.2
		c1.1,2.8,2.8,5.3,4.9,7.4c0,0,9.8,4.4,18.2-5.2c7.7-8.7,6.3-23.8-5.5-27.4S414.9,222.9,414.9,222.9z"/>
	<path class="st5" d="M447.4,245.1c2.3,2.5,1.9,6.6-1,9.3s-7.1,2.9-9.4,0.4s-1.9-6.6,1-9.4S445.1,242.6,447.4,245.1z"/>
	<path class="st5" d="M443.4,240.8c-1.2,0.4-1.9,1.7-1.5,2.9l4.4-1.4C445.9,241.1,444.6,240.4,443.4,240.8z"/>
	<path class="st4" d="M380,287.3c-1.9-2.2-2.2-7-4.8-10.3s-2.1-6.6-3.7-5.2s-0.4,6.9-0.4,6.9s-3,5.5-3.2,8.3s7.2,9.9,7.2,9.9
		L380,287.3z"/>
	<path class="st4" d="M371.6,278.4c0,0-3,4.2-16.5-1.3c-3.7-1.5-1.2,6.5,3.4,9.9c4.2,3.1,9.5,4,13.8,6.9
		C372.2,293.4,371.6,278.4,371.6,278.4z"/>
	<path class="st4" d="M414.4,263.2c-3.9,1.3-7.2,2.9-10.8,9.7c-4.6,8.7-13,25.7-13,25.7L380,287.3c0,0-1.5-2.1-4.4,2.5s-1.6,6-1.6,6
		s12.2,16.3,14.4,18.4s5.9,0.5,8.3-2.8s14.8-25.8,14.8-25.8S419.8,271.5,414.4,263.2z"/>
	<path class="st8" d="M428.5,353.4l0.7-7.8c4.2-0.6,8.2-2.1,11.7-4.5c0,0-2.5,4-9.4,5.9l-1.6,7.6l-0.4,15.1L428.5,353.4z"/>
	<path class="st5" d="M406.5,294.6c0,0,4.9-8.5,5.2-9l-5.5,21.5L406.5,294.6z"/>
</g>
<g id="freepik--character-4--inject-4">
	<g id="freepik--character-boy--inject-4_00000034768018946529710460000012995158567699034244_">
		<path class="st9" d="M348.9,243.7c1.4,1.5,4.8,2.6,26.6,4.2c3.2,0.3,6.4-0.1,9.4-1.2c2.9-1.2,5.5-3.2,7.3-5.8
			c0.4-0.6,0.7-1.2,0.9-1.9c0.2-0.7,0.1-1.4-0.3-2c-0.4-0.6-1-1-1.7-1.1c-1.4-0.3-2.8-0.2-4.1,0.4c-2,0.8-3.6,1.1-3.4,0.6
			s1.4-0.8,2.6-2.2s1.6-3.4,0.8-4s-0.7-0.5-2.1,0.7s-3.1,1.8-5,3.6c-1.2,1.4-2.7,2.4-4.4,3.1c-2.2,0.9-4.3,0.6-10.3-0.4
			c-5.2-0.8-7.3-1.1-9.8-2.5c-2.7-4.1-9.2-21.5-12.1-26.3c-3-5.1-9.1-5.2-9.1-5.2c0.1,6.2,1.1,12.4,3.1,18.3
			C339.2,228,347.5,242.2,348.9,243.7z"/>
		<path class="st3" d="M332.4,203.2c2.5-0.4,5.1,0,7.3,1.3c3.3,2.1,5.5,5.9,7.6,10.8c2.6,5.9,5.6,13.7,5.6,13.7c-3,2.9-6.9,4.7-11,5
			l-9.9-16.4L332.4,203.2z"/>
		<g id="freepik--character-boy--inject-4">
			<rect x="309.1" y="376.5" class="st9" width="8.5" height="14.5"/>
			<polygon class="st9" points="332.6,380.1 341.1,380.4 341.6,365 332.6,364.7 			"/>
			<path class="st1" d="M305.5,267.8c0,8.1,1.4,55.3,1.4,55.3c-0.2,2.3-2.5,6.5-2.6,14.9c-0.3,12.2,4.4,45.7,4.4,45.7
				c3,1.5,6.4,1.5,9.5,0.2c0,0,3.9-45.4,5.4-57.5c1.3-10.5,3.6-39.2,3.6-39.2l4,34.4c-1,4.4-1.3,9-1.1,13.5c0.4,5.6,2,40.2,2,40.2
				c3,1.7,6.6,2,9.8,0.8c0,0,6-49.3,6.1-54.4c0.1-5.8-2.2-65.5-2.2-65.5L305.5,267.8z"/>
			<path class="st10" d="M311.1,208.1c-1.9,0.8-3.3,2.4-4.1,4.3c-0.9,2.4-1.3,4.8-1.2,7.4v16.6l-0.2,31.4
				c12.2,6.4,27.7,6.9,40.7-2.6c0,0-0.7-40.5-0.7-47.1c0-0.3,0-0.6,0-0.9c-0.5-9.5-9.8-16-19-13.6l-7.7,2L311.1,208.1L311.1,208.1z"
				/>
			<circle class="st5" cx="332.9" cy="177.2" r="11.7"/>
			<path class="st5" d="M312.7,185.4c0,0,1.9,8.9,2.6,10.4c0.5,0.9,1.3,1.6,2.3,1.9l-0.1-6.2L312.7,185.4z"/>
			<path class="st5" d="M315.1,172.7c-1.3-0.2-2.7,0.3-3.6,1.3c-1.6,1.6-0.7,6.6,1.2,11.5l3.6,0.4L315.1,172.7z"/>
			<path class="st9" d="M317.4,185.9c-0.7,0.4-1.7-0.9-2.6-1.9s-3.8-2.2-5.2,0.9s1.3,7.1,3.5,7.9c3.9,1.2,4.5-1.3,4.5-1.3l0.3,14.5
				l0,0c4.9,6.2,18.3,5.7,12.7-0.8v-4.3c1.7,0.3,3.5,0.4,5.3,0.3c2.9-0.4,4.7-2.7,5.5-5.8c1.4-5,1.9-9,0.8-18.8
				c-1.3-10.8-13.8-10.9-20.6-6.6S317.4,185.9,317.4,185.9z"/>
			<path class="st5" d="M317.4,187.1c-0.4,0-1.7-2.3-2.6-3.1c-1.2-1.1,0.4-11.3,0.4-11.3c-0.7-1.8-0.2-3.8,1.2-5.1
				c1.7-1.9,3.5-3,8.4-3.3c3.3,0,6.7,0.1,10,0.5c4.8,0.3,6.6-0.9,9.4-1.6c2.1-0.6,2.4,7-3,9.6c0,0-1.7,1.1-6.3,1.7
				c-4.2,0.3-8.5,0.2-12.7-0.2c-1.3-0.2-1.6,1.1-2.3,4.6C319.1,181.8,318.6,187,317.4,187.1z"/>
			<path class="st5" d="M315.1,173.5l-4.3-2.3c0.6-1.2,2-1.7,3.2-1.1c0,0,0.1,0,0.1,0.1C315.3,170.8,315.7,172.3,315.1,173.5z"/>
			<path class="st11" d="M330.6,200.9c0,0-6.4-1.3-8.6-2.5c-1.3-0.7-2.4-1.8-3.1-3.1c0.3,1.3,0.9,2.5,1.8,3.6c1.6,2.1,10,3.6,10,3.6
				L330.6,200.9z"/>
			<path class="st5" d="M330.2,184.3c0,0.7-0.6,1.3-1.3,1.2c-0.7,0-1.3-0.6-1.2-1.3c0-0.7,0.6-1.2,1.3-1.2
				C329.7,182.9,330.3,183.5,330.2,184.3C330.2,184.2,330.2,184.3,330.2,184.3z"/>
			<path class="st5" d="M328.9,179.4l-2.8,1.5c-0.4-0.8-0.1-1.7,0.6-2.2C327.5,178.3,328.4,178.6,328.9,179.4
				C328.9,179.4,328.9,179.4,328.9,179.4z"/>
			<path class="st11" d="M330,193.1l2.9,1.1c-0.2,0.8-1.1,1.3-1.9,1c0,0-0.1,0-0.1,0C330.1,194.9,329.7,194,330,193.1z"/>
			<path class="st5" d="M341.3,180.5l-2.5-1.9c0.5-0.7,1.4-0.9,2.1-0.4c0,0,0.1,0,0.1,0.1C341.7,178.8,341.8,179.8,341.3,180.5z"/>
			<path class="st5" d="M340.6,183.9c0.1,0.7-0.5,1.3-1.2,1.4c-0.7,0.1-1.3-0.5-1.4-1.2c0-0.1,0-0.2,0-0.2c0-0.7,0.5-1.3,1.2-1.3
				c0,0,0,0,0,0C340,182.6,340.6,183.2,340.6,183.9C340.6,183.9,340.6,183.9,340.6,183.9z"/>
			<polygon class="st11" points="334,182.7 334.4,190.4 338.5,189 			"/>
			<path class="st5" d="M317.6,386.8v-1.2c0.8,0.4,2.7,7.6,6.1,10.6c2.7,2.4,6.3,5.3,7.3,8s-5.1,4.4-7.6,4c-2.9-0.5-8-2.6-9.2-4.5
				s-1.9-4.7-2.9-6.1s-3.4-3-4-4.6c-0.3-0.9,0.1-2.8,0.5-4.5s0.8-3.1,1.3-3v0.9c1.2,1,2.7,1.5,4.2,1.4
				C314.6,388,317.6,387.8,317.6,386.8z"/>
			<path class="st5" d="M341.2,377.8c0.4,0,0.8,0.6,1.8,1.7c1.5,1.5,3.1,2.7,5,3.6c3.2,1.6,9.4,4,12.2,5.3c1.8,0.8,1.7,2.9-0.1,4.1
				s-6.2,2.1-11.4,0.9c-2.9-0.6-6.6-3.3-8.9-3.1s-6.8,0.1-8.5-1.1s-1-3.8-0.5-6c0.5-2.4,1.2-6.1,2-6v0.8c1,1.5,6.3,2.2,8.5,1
				L341.2,377.8z"/>
			<path class="st5" d="M327.2,287.3c4.4-1.4,8.4-3.7,11.8-6.8c0,0-2.3,4.3-9.1,8.3l0.9,30L327.2,287.3z"/>
		</g>
	</g>
	<path class="st9" d="M291.7,250.4c5.5-31.9,11-41.6,20.2-41.9c2.8,3.1,2.6,12.7-1.4,18.8c0,0-8.4,20.3-9.5,27.4
		c-1,6.3-2.1,14.1-1.8,19.4c0.1,0.9,0.5,1.8,1.2,2.5c1.8,1.8,1.9,3.3,3.1,5.3c1,1.6,1.9,2.1,1.7,2.5c-0.7,0.8-1.9,1-2.8,0.4
		c-0.8-0.5-1.6-1.2-2.2-2c0.4,2,1.1,3.9,2,5.6c2.1,4.2,1.8,6.5-4.2,5.2c-3.7-0.8-6.2-3.7-7.2-12.5c-0.4-3.2-0.6-6.5-0.6-9.8
		C290.5,262.8,290.8,255.4,291.7,250.4z"/>
	<path class="st3" d="M314.1,207.1c-2.8,0.5-9.9,0.8-13.6,8.1c-2.4,4.9-4.8,12.4-7.4,21.6c0,0,5.4,5.5,13.2,4.8l4.4-12.7
		C314.9,223.4,316,211.2,314.1,207.1z"/>
</g>
<g id="freepik--character-3--inject-4">
	<g id="freepik--Character--inject-4">
		<path class="st4" d="M263.4,205c-7.8-31.3-16.6-38.6-8.4-42.8c8.5-0.8,12.9,4.2,14.4,13.2c0.7,4.4,2.3,22.4,4.3,29.5
			c1.8,6.2,4.1,13.9,6.7,18.7c0.5,0.8,1.2,1.5,2.1,1.8c2.4,0.9,3.1,2.2,5.1,3.6c1.5,1,2.7,1.1,2.6,1.6c-0.3,1.1-1.4,1.7-2.4,1.5
			c-1-0.1-2-0.4-2.9-0.8c1.2,1.6,2.6,3.1,4.2,4.3c3.8,3,4.4,5.2-1.6,6.6c-3.8,0.9-7.3-0.8-12-8.5c-1.8-2.8-3.4-5.8-4.7-8.8
			C267.7,217,264.7,210.1,263.4,205z"/>
		<path class="st5" d="M236.6,344.5v-1.2c0.5,1.4,2.7,7.5,6.1,10.6c2.7,2.5,6.3,5.3,7.3,8s-5.1,3.8-7.6,3.3
			c-2.9-0.5-6.7-2.2-8.7-4.7c-1.4-1.8-2.4-3.9-3.4-5.2s-3.4-3-4-4.6c-0.3-0.9,0.1-2.8,0.5-4.5s0.8-3.2,1.3-3v0.9
			c1.2,0.9,2.7,1.5,4.2,1.4C233.6,345.7,236.6,345.5,236.6,344.5z"/>
		<path class="st4" d="M245.1,356.1c-0.8-0.7-1.7-1.5-2.4-2.2c-2.4-2.1-4.1-5.8-5.2-8.3c-0.6-1.4-0.9-2.9-0.9-4.5v-4.8h-8.5v7.9l0,0
			v0.2l0,0c0.4,1.8,4.3,6.5,6.5,9.5c1.5,2,4.3,4.7,7.7,5.1C245.6,359.5,247.2,358.5,245.1,356.1z"/>
		<path class="st5" d="M269.8,336.2V335c0.5,1.4,2.7,7.5,6.1,10.6c2.7,2.5,6.3,5.3,7.3,8s-5.1,3.8-7.6,3.3c-2.9-0.5-6.7-2.2-8.7-4.7
			c-1.4-1.8-2.4-3.9-3.4-5.2s-3.4-3-4-4.6c-0.3-0.9,0-2.8,0.5-4.5s0.8-3.1,1.3-3v0.9c1.2,0.9,2.7,1.5,4.2,1.4
			C266.7,337.4,269.8,337.1,269.8,336.2z"/>
		<path class="st4" d="M278.2,347.7c-0.8-0.7-1.7-1.5-2.4-2.1c-2.4-2.1-4.1-5.8-5.2-8.3c-0.6-1.4-0.9-2.9-0.9-4.5V328h-8.5v7.9l0,0
			v0.2l0,0c0.4,1.8,4.3,6.5,6.5,9.5c1.5,2,4.3,4.7,7.7,5.1C278.7,351.2,280.3,350.2,278.2,347.7z"/>
		<path class="st6" d="M229.8,212.6c-6.6,14.4,0.2,65,0.2,65c-0.2,2.3-2.9,6.9-3.9,17.2c-1.2,12.1,1.8,42.6,1.8,42.6
			c2.6,1.5,5.8,1.7,8.6,0.3c0,0,8.1-45.9,9.6-57.9c1.3-10.5,3.9-33.7,3.9-33.7l7.2,33.6c-1.1,3.4-1.8,6.9-2.3,10.4
			c-0.7,7.1,6.2,40.1,6.2,40.1s2.9,1.1,8.5,0.2c0,0,2.4-43.8,3.1-52.4c1.1-14.4-2.7-59.1-5.4-67.6L229.8,212.6z"/>
		<path class="st12" d="M250.1,246.1l2.1-13.4c0,0,9-1.9,13.1-5.7c0,0-4.3,5.4-10.7,7.1l-2.4,10.3l4.2,31.1L250.1,246.1z"/>
		<path class="st13" d="M241.4,162.7L241.4,162.7c-8.4,0.6-9,4.7-11.1,9.1c-1.5,3.4-1.7,7.3-0.4,10.9l5.9,17
			c-2.4,4.1-4.4,8.5-5.9,13c14.8,8.2,33.2,3.9,37.6-2.1c0.2-1.3-1-11.2-1.7-17.8c2.6-6.5,3.3-10.6,2.2-15c-2-8-9.9-15.8-13.4-15.5
			L241.4,162.7z"/>
		<path class="st5" d="M251.5,154.9h-6.2c-8.7,0-15.7-7-15.8-15.6c0,0,0,0,0,0l0,0c0-10.4,8.3-18.8,18.7-18.9l0,0
			c10.4,0,18.8,8.3,18.9,18.7c0,0,0,0,0,0l0,0C267.2,147.8,260.2,154.9,251.5,154.9C251.5,154.9,251.5,154.9,251.5,154.9z"/>
		<path class="st5" d="M243.3,116c2.7,4-0.2,6.7-4.1,9.3s-7.5,4.3-10.2,0.4s-1.2-8.4,2.8-11S240.7,112.1,243.3,116z"/>
		<path class="st5" d="M233.7,128.2l-4,2.9c-0.8-1-0.7-2.6,0.4-3.4c0,0,0.1,0,0.1-0.1C231.2,126.9,232.8,127.1,233.7,128.2z"/>
		<path class="st4" d="M259.8,128.8c2,1.2,4.5,6.1,4.3,16.6c-0.2,8.9-3,11.1-4.5,11.7s-4.2,0.3-6.9-0.2l0.2,5.4c0,0,4.6,3.7,4.3,6.2
			s-6.3,3.6-9.9,1.2c-2.3-1.6-4.4-3.4-6.3-5.4c-0.1-0.1-0.1-0.2-0.1-0.4v-13.4c0,0-1.6,1.6-4.3-0.8c-2.2-1.9-3-5.2-1.3-7
			c1.6-1.5,4-1.4,5.5,0.2c0.3,0.3,0.5,0.7,0.7,1c0,0,4.3,0.1,10.1-3.1C256.1,138.4,259.2,133.9,259.8,128.8z"/>
		<path class="st5" d="M254.2,143.2c0,0.6-0.5,1.1-1.1,1.1s-1.1-0.5-1.1-1.1c0-0.6,0.5-1.1,1.1-1.1
			C253.6,142.1,254.2,142.6,254.2,143.2z"/>
		<path class="st7" d="M254.5,150.8l2.6,0.8c-0.2,0.7-0.9,1.1-1.7,0.9c0,0,0,0,0,0C254.7,152.3,254.3,151.5,254.5,150.8z"/>
		<path class="st5" d="M263.3,139.8l-2.3-1.6c0.4-0.6,1.2-0.8,1.8-0.4c0,0,0,0,0.1,0C263.6,138.3,263.7,139.1,263.3,139.8z"/>
		<path class="st5" d="M262.8,142.4c0,0.6-0.5,1.1-1.1,1.1c-0.6,0-1.1-0.5-1.1-1.1c0-0.6,0.5-1.1,1.1-1.1
			C262.3,141.3,262.8,141.8,262.8,142.4z"/>
		<polygon class="st7" points="257.8,141.2 257.8,148.5 261.3,147.4 		"/>
		<path class="st7" d="M252.7,157c-2.9-0.4-8.7-2-9.7-4.4c0.4,1.2,1.1,2.2,2.1,3c1.8,1.5,7.6,3.2,7.6,3.2L252.7,157z"/>
		<path class="st14" d="M245.2,214.2c-4.8-1.1-7.8-5.9-6.7-10.7c0-0.1,0-0.1,0-0.2c0-0.2,0.1-0.3,0.1-0.5c0.4-1.3,1.7-2.1,3-2l0,0
			c-1.8-1.4-3-3.4-3.3-5.7l-2.2-10.5c-0.2-1.7-0.1-3.5,0.4-5.2l-5.9-6.9l-1.1,0.8c-0.9,3-0.8,6.2,0.2,9.2l5.9,17
			c-2.4,4.1-4.4,8.5-5.9,13c9.7,5.2,21.2,6,31.5,2.1C256,215.6,250.5,215.4,245.2,214.2z"/>
	</g>
	<path class="st1" d="M242,239.3L220.5,227c0,0-10.4,14.3-3.3,18.4s14.2,8.2,21.2,12.3C246.5,254.6,242,239.3,242,239.3z"/>
	<polygon class="st6" points="238.4,241.3 221.7,231.6 221.7,232.6 238.4,242.4 	"/>
	<path class="st3" d="M242,239.3c-1.4,4.5-5.5,17.2-3.5,18.4s8.1-2.8,8-5.2C246.1,245.8,242,239.3,242,239.3z"/>
	<path class="st5" d="M236.1,162.6c1.8-0.2,3.5,0.8,4.2,2.5c3.4,6.5,1.1,73.8,1.1,73.8l-2.3-1.3c0,0,0.8-21.7,0.7-41.5
		c-0.1-14.5-0.6-28.2-1.2-29.7c-0.6-1.8-2.4-2.9-4.2-2.7C234.7,163.2,235.3,162.7,236.1,162.6z"/>
	<path class="st4" d="M214.7,205c6.6-26.8,11.6-38.3,18.8-41c2-0.8,4.2,0.2,5,2.2c0.1,0.3,0.2,0.5,0.2,0.8
		c0.6,5.4-0.7,10.9-3.8,15.4c0,0-9.6,20.2-11.1,27.4c-1.3,6.3-2.9,14.2-2.8,19.6c0,1,0.4,1.9,1.1,2.6c1.8,1.9,1.8,3.4,2.9,5.5
		c0.9,1.6,1.9,2.3,1.6,2.6c-0.8,0.8-2,0.9-2.9,0.2c-0.8-0.6-1.5-1.3-2.2-2.1c0.3,2,0.9,4,1.7,5.8c2,4.4,1.5,6.7-4.5,5.1
		c-3.8-1-6.1-4.1-6.7-13.1c-0.3-3.3-0.3-6.7-0.1-10C212.9,217.6,213.5,210.1,214.7,205z"/>
</g>
<g id="freepik--character-2--inject-4">
	<path class="st4" d="M210.3,167c0.6-5.9,0.6-8.3,0.4-9.1c-0.8-3.3-3.1-6-5.6-10c-4.2-6.9-10.5-17.8-13.4-21.9
		c-2.3-3.3-4.8-5.2-8.6-5c-2.6,0.2-0.6,10.6,2,18.1l13.9,19.2c0.5,0.6,0.7,1.4,0.6,2.2l-1.4,13.7l4.4,5.9
		C202.8,180.2,209.6,174.5,210.3,167z"/>
	<path class="st7" d="M210.4,166.2c-0.2-1-0.9-1.9-2.7-1.8s-3.3,2.4-3.3,2.4l5.2,2.3c0.3-0.7,0.5-1.4,0.8-2.1l0,0
		C210.4,166.7,210.4,166.4,210.4,166.2z"/>
	<path class="st1" d="M181.7,120.9c0,0,5.7-0.7,8.9,2.7s4.7,6.4,7.8,11.5c3.7,6.2,5.3,9.3,5.3,9.3s-5.8,7.8-14.4,6.7L181.7,120.9z"
		/>
	<g id="freepik--character-boy--inject-4_00000091733822254813793150000006895550279483091887_">
		
			<ellipse transform="matrix(0.7071 -0.7071 0.7071 0.7071 -12.8202 157.0757)" class="st5" cx="183.2" cy="94" rx="11.9" ry="11.8"/>
		<rect x="154.8" y="294.5" class="st4" width="8.4" height="14.3"/>
		<polygon class="st4" points="183.8,298.8 192.1,299.1 192.5,283.9 184.2,283.7 		"/>
		<path class="st0" d="M155.4,181.2c0,8-1,56.3-1,56.3c-0.2,2.3-2.3,6.5-1.9,15.3c0.6,12,1.7,43.1,1.7,43.1s3.9,3.9,9.4,0
			c0,0,7.6-43,9.1-54.9c1.3-10.4,3.5-38.5,3.5-38.5l4.6,39c0,0-1.4,7.8-1.7,13.3s4.5,33.3,4.5,33.3c2.7,1.7,6.2,1.9,9.1,0.4
			c0,0,3.6-42.5,4.5-47.4s-2.8-59.9-2.8-59.9L155.4,181.2z"/>
		<path class="st6" d="M163.4,123.6c-3.6,0.6-6.5,3.4-7.3,7c-0.5,2.1-0.7,4.2-0.7,6.3v44.3c5.9,6.4,26.2,9.3,39,0
			c0,0-0.2-39.1-1.2-45.6c-1.7-11.2-7-15.2-12.4-14.7l-12.9,1.8L163.4,123.6z"/>
		<path class="st5" d="M162.7,102.4c0,0,1.9,9,2.7,10.5c0.5,0.9,1.4,1.6,2.4,1.9l-0.1-6.3L162.7,102.4z"/>
		<path class="st5" d="M165.1,89.5c-1.4-0.2-2.7,0.3-3.7,1.3c-1.6,1.6-0.7,6.7,1.3,11.6l3.6,0.4L165.1,89.5z"/>
		<path class="st4" d="M167.4,102.8c-0.7,0.4-1.8-1-2.6-1.9s-3.8-2.2-5.3,0.8s1.3,7.3,3.6,8c4,1.2,4.6-1.3,4.6-1.3l0.3,14.3
			c1.8,3.9,5.4,6.6,9.6,7.3c7,0.9,5.6-4.8,3.3-7.7v-4.3c1.8,0.3,3.6,0.4,5.3,0.3c2.9-0.4,4.7-2.8,5.6-5.9c1.4-5.1,2-9.2,0.8-19.1
			c-1.3-10.9-14-11-20.9-6.7S167.4,102.8,167.4,102.8z"/>
		<path class="st5" d="M167.4,104.1c-0.4,0-1.8-2.3-2.6-3.1c-1.2-1.1,0.4-11.4,0.4-11.4c-0.7-1.8-0.2-3.9,1.2-5.2
			c1.7-1.9,4.6-2.1,9.5-2.9c2.6-0.4,6.4-1.1,9-1.6c3.1-0.6,5.6-1.2,7.8,0.7c1.7,1.5,2.3,3.9,1.5,6.1c-0.2,0.5-0.5,0.9-0.9,1.3
			c-0.6,0.7-1.3,1.2-2.2,1.5c0,0-1.3,1.2-6,1.8c-4.3,0.3-8.6,0.2-12.9-0.2c-1.3-0.2-1.6,1.1-2.4,4.7
			C169.2,98.8,168.6,104.1,167.4,104.1z"/>
		<path class="st5" d="M165.1,90.3l-4.4-2.3c0.6-1.2,2-1.7,3.2-1.2c0,0,0.1,0,0.1,0.1C165.3,87.6,165.7,89.1,165.1,90.3z"/>
		<path class="st7" d="M180.8,118.1c0,0-6.5-1.3-8.8-2.5c-1.3-0.7-2.4-1.8-3.1-3.1c0.3,1.3,1,2.6,1.8,3.7c1.7,2.1,10.1,3.7,10.1,3.7
			V118.1z"/>
		<path class="st5" d="M179.3,101.2c0.1,0.7-0.5,1.4-1.2,1.4s-1.4-0.5-1.4-1.2c0-0.1,0-0.2,0-0.2c0-0.7,0.6-1.3,1.3-1.3c0,0,0,0,0,0
			C178.7,99.9,179.3,100.5,179.3,101.2z"/>
		<path class="st5" d="M177.9,96.3l-2.8,1.5c-0.4-0.8-0.1-1.8,0.6-2.2C176.5,95.2,177.4,95.5,177.9,96.3
			C177.8,96.3,177.9,96.3,177.9,96.3z"/>
		<path class="st7" d="M180.2,110.2l3,1.1c-0.3,0.8-1.1,1.3-1.9,1c0,0,0,0-0.1,0C180.4,112,179.9,111.1,180.2,110.2z"/>
		<path class="st5" d="M190.9,97.4l-2.6-2c0.5-0.7,1.4-0.9,2.1-0.4c0,0,0,0,0.1,0C191.3,95.6,191.4,96.6,190.9,97.4z"/>
		<path class="st5" d="M190.1,100.9c0,0.7-0.6,1.3-1.4,1.2c-0.7,0-1.3-0.6-1.2-1.4c0-0.7,0.6-1.2,1.3-1.2
			C189.5,99.5,190.1,100.1,190.1,100.9C190.1,100.9,190.1,100.9,190.1,100.9z"/>
		<polygon class="st7" points="183.4,99.6 183.9,107.5 188,106.1 		"/>
		<path class="st5" d="M163.2,304.6v-1.2c0.8,0.4,2.6,7.4,6,10.4c2.6,2.4,6.2,5.2,7.1,7.9s-5,4.3-7.5,3.9c-2.9-0.5-7.8-2.5-9-4.4
			s-1.8-4.6-2.8-6s-3.3-2.9-3.9-4.5c-0.3-0.9,0.1-2.8,0.5-4.4s0.8-3.1,1.3-3v0.9c1.2,0.9,2.7,1.4,4.2,1.4
			C160.2,305.8,163.2,305.6,163.2,304.6z"/>
		<path class="st5" d="M192.2,296.5c0.4,0,0.8,0.6,1.7,1.7c1.4,1.4,3.1,2.6,4.9,3.5c3.1,1.6,9.2,4,12,5.2c1.7,0.8,1.6,2.9-0.1,4
			s-6.1,2-11.2,0.9c-2.8-0.6-6.5-3.2-8.8-3.1s-6.6,0.1-8.3-1.1s-1-3.7-0.5-5.8c0.5-2.4,1.3-6,2.1-5.8v0.8c1,1.5,6.1,2.1,8.3,1
			L192.2,296.5z"/>
		<path class="st14" d="M176.1,202.6c4.3-1.3,8.3-3.6,11.6-6.7c0,0-2.2,4.2-8.9,8.1l1.9,37.6L176.1,202.6z"/>
	</g>
	<path class="st4" d="M142.5,193.8c0.3,3.8,0.8,7.6,1.5,11.3c2.5,9.6,5.7,12.5,10,12.8c6.8,0.5,6.9-2.1,3.8-6.5
		c-1.3-1.9-2.3-4-3-6.3c1,0.8,2.1,1.5,3.3,2.1c1.1,0.6,2.4,0.2,3.1-0.8c0.2-0.5-1-0.9-2.3-2.5c-1.7-2-2.5-3.6-4.8-5.3
		c-0.8-0.8-1.3-1.7-1.4-2.8c-0.3-1.4-0.6-23.2,0.7-27.8l5.9-21c4.8-3.3,9.8-19.4,2.6-22.9c-6.8,0.8-11.8,9.7-19.2,37.1
		C141.2,166.1,141.7,186.3,142.5,193.8z"/>
	<path class="st1" d="M163.2,123.7c1.9,1.7,3,4.1,2.9,6.6c0.2,4.6-2,11.2-3.2,15.3s-4,11.6-4,11.6s-11.2-1.3-13.7-7.9
		c0,0,5.2-17,10.3-22.5C157.4,124.6,160.2,123.5,163.2,123.7z"/>
	<path class="st3" d="M209,159.8l-0.9-0.8l0,0c-0.3-0.2-0.6-0.2-0.9-0.1l-9.6,2.6c-1,0.3-1.8,1.1-2.1,2l-6.9,19.9
		c-0.2,0.3-0.1,0.7,0.1,1l0,0l0.9,0.8v-0.7h0.1l9.6-2.6c1-0.3,1.8-1.1,2.1-2c1.4-3.9,5.5-16,6.9-19.9c0-0.1,0.1-0.2,0.1-0.4
		L209,159.8z"/>
	<path class="st5" d="M189.4,184.2l6.9-19.9c0.4-0.9,1.2-1.7,2.1-2l9.6-2.6c0.9-0.2,1.4,0.3,1.1,1.1c-1.4,3.9-5.5,16-6.9,19.9
		c-0.4,0.9-1.2,1.7-2.1,2l-9.6,2.6C189.6,185.6,189.1,185,189.4,184.2z"/>
	<path class="st4" d="M206.3,168.8c-0.7,2-3.1,3.4-7,4.3s-6.1,5.1-5.5,6.4s7,2.5,9.6,2.1s5.1-4.1,5.9-5.2s1.7-9.1,0.9-10.2
		c-0.7-0.7-1.6-1-2.6-0.9L206.3,168.8z"/>
</g>
<g id="freepik--character-1--inject-4">
	<path class="st6" d="M132.9,140l-24.6-14.1c0,0-12,16.4-3.8,21.1s16.2,9.4,24.3,14.1C138.1,157.5,132.9,140,132.9,140z"/>
	<path class="st8" d="M132.9,140l-24.6-14.1c0,0-12,16.4-3.8,21.1s16.2,9.4,24.3,14.1C138.1,157.5,132.9,140,132.9,140z"/>
	<polygon class="st5" points="128.9,142.3 112.6,133 112.6,134 128.9,143.5 	"/>
	<path class="st6" d="M132.9,140c-1.6,5.2-6.3,19.8-4.1,21.1s9.3-3.2,9.2-6C137.7,147.4,132.9,140,132.9,140z"/>
	<g id="freepik--character--inject-4">
		<path class="st5" d="M96.7,34.6h3.2c9.8,0,17.8,8,17.8,17.8v37.8l0,0H78.9l0,0V52.4C78.9,42.6,86.8,34.6,96.7,34.6
			C96.7,34.6,96.7,34.6,96.7,34.6z"/>
		<path class="st9" d="M133.2,121.1c2.3-2.2,1.4-4.7-1.9-11.6s-10.9-22.9-12.8-26.3c-3.3-6-7.3-6.3-13.2-6.3
			c-2.4,0,3.7,6.8,6.4,13.4c2.4,6,12,25.6,12,25.6L133.2,121.1z"/>
		<path class="st9" d="M95.4,276c-0.8-0.8-1.7-1.5-2.5-2.2c-2.4-2.2-4.3-5.9-5.3-8.5c-0.6-1.5-0.9-3-0.9-4.6v-5H78v8.1l0,0v0.2h0.1
			c0.4,1.8,4.4,6.6,6.7,9.8c1.5,2.1,4.4,4.8,7.9,5.2C95.8,279.5,97.5,278.4,95.4,276z"/>
		<path class="st9" d="M120.6,262.7c0.2-0.1,0.5-0.3,0.6-0.6c0.7-0.9,0.1-1.4-0.3-2.2c-0.6-1-1.1-2.1-1.5-3.3
			c-0.4-1-0.9-2.8-0.9-2.8s0-1.3,0-1.8v-5h-8.7v8.3l0,0c0.4,1.9,2.2,3.8,3.4,5.4c0.9,1.2,3.2,1.8,4.6,2.1c0.6,0.2,1.3,0.2,1.9,0.1
			C119.9,263,120.3,262.9,120.6,262.7z"/>
		<path class="st1" d="M79.7,128.6c-6.8,14.8,0.2,66.8,0.2,66.8c-0.2,2.4-2.9,7.1-4,17.6c-1.2,12.5,1.9,43.7,1.9,43.7
			c2.7,1.6,6,1.7,8.8,0.4c0,0,8.4-47.1,9.9-59.5c1.4-10.8,4-34.6,4-34.6l5.2,34.6c-1.1,3.5-1.9,7-2.3,10.7
			c-0.7,7.3,6.3,41.2,6.3,41.2s3,1.1,8.7,0.3c0,0,2.5-45,3.2-53.8c1.1-14.7-0.6-60.8-3.3-69.5L79.7,128.6z"/>
		<path class="st5" d="M100.5,163l2.2-13.7c0,0,9.3-1.9,13.5-5.9c0,0-4.4,5.5-11,7.3l-2.5,10.6l2.2,31.3L100.5,163z"/>
		<path class="st5" d="M86.7,262.5v-1.3c0.8,0.4,2.8,7.8,6.3,11c2.8,2.5,6.5,5.4,7.5,8.2s-5.2,4.5-7.8,4.1c-3-0.5-8.2-2.6-9.5-4.6
			s-1.9-4.8-3-6.3s-3.5-3-4.1-4.7c-0.3-0.9,0.1-2.9,0.5-4.6s0.8-3.2,1.4-3.1v1c1.2,1,2.8,1.5,4.4,1.5
			C83.6,263.7,86.7,263.4,86.7,262.5z"/>
		<path class="st5" d="M118.4,253.9c0.4,0,0.9,0.7,1.9,1.8c1.5,1.5,3.2,2.8,5.1,3.7c3.3,1.6,9.6,4.2,12.5,5.5c1.8,0.8,1.7,3-0.1,4.2
			s-6.4,2.1-11.7,0.9c-2.9-0.7-6.8-3.4-9.2-3.2s-6.9,0.1-8.7-1.1s-1.1-3.9-0.6-6.1c0.6-2.5,1.2-6.3,2.1-6.1v0.9
			c1,1.6,6.5,2.2,8.8,1.1L118.4,253.9z"/>
		<path class="st6" d="M91.6,77.3L91.6,77.3c-8.7,0.6-9.3,4.8-11.4,9.4c-1.7,3.5-1.1,7.6,0.2,11.3l5.5,17.3c0,0-2.8,6.8-6.1,13.3
			c15.2,8.5,34.1,4,38.6-2.2c0.2-1.3-1-11.5-1.7-18.2c2.7-6.7,3.4-10.9,2.2-15.4c-2.1-8.2-10.2-16.2-13.8-15.9L91.6,77.3z"/>
		<path class="st5" d="M77.9,42.6l2.6,4.2c-1.1,0.8-2.6,0.5-3.4-0.6c0,0,0-0.1-0.1-0.1C76.4,45,76.8,43.4,77.9,42.6z"/>
		<path class="st9" d="M111.3,42.5c2,1.2,4.6,6.4,4.3,17.2c-0.2,9.1-3.2,11.4-4.6,12.1s-4.4,0.2-7.2-0.2V77c0,0,3.9,4.5,3.6,7
			s-5.6,3.1-9.2,0.7c-2.3-1.7-4.3-3.8-5.9-6.2V65.2c0,0-1.9,2.5-5,0.5s-3.2-7.1-1.4-8.9s5.6-1.2,6.4,1.3c0,0,4.4,0.2,10.4-3.1
			C107.4,52.4,110.6,47.8,111.3,42.5z"/>
		<path class="st5" d="M104.4,57.3c0.1,0.6-0.4,1.2-1.1,1.2c0,0,0,0,0,0c-0.7,0-1.2-0.6-1.2-1.2c0-0.6,0.5-1.1,1-1.2
			C103.8,56.2,104.3,56.7,104.4,57.3C104.4,57.3,104.4,57.3,104.4,57.3z"/>
		<path class="st11" d="M105.7,65.1l2.7,0.8c-0.2,0.7-0.9,1.2-1.6,1c0,0-0.1,0-0.1,0C105.9,66.7,105.5,65.9,105.7,65.1z"/>
		<path class="st5" d="M113.8,53.8l-2.3-1.6c0.4-0.6,1.2-0.8,1.9-0.4c0,0,0,0,0.1,0C114.1,52.2,114.2,53.1,113.8,53.8z"/>
		<path class="st5" d="M113.3,56.5c0.1,0.6-0.4,1.2-1.1,1.2c0,0,0,0,0,0c-0.7,0-1.2-0.6-1.2-1.2c0-0.6,0.5-1.1,1-1.2
			C112.7,55.3,113.2,55.8,113.3,56.5C113.3,56.5,113.3,56.5,113.3,56.5z"/>
		<polygon class="st11" points="107.7,55.8 107.8,62.8 111.5,61.6 		"/>
		<path class="st11" d="M103.8,71.5c-2.9-0.4-9-2.1-9.9-4.5c0.4,1.2,1.1,2.3,2.2,3c1.8,1.6,7.8,3.3,7.8,3.3L103.8,71.5z"/>
		<path class="st12" d="M95.5,130.2c-4.1-1-8.3-5.5-6.4-9.9c0.5-1.2,1.5-2.3,2.6-2.9c0.9-0.5,2-0.4,2.8,0.3c-2-1.3-5.4-7.6-5.8-9.9
			l-2.3-7.8c-0.2-1.8-0.1-3.6,0.5-5.3l-6.1-7l-1.1,0.8c-1,3-0.2,6.5,0.8,9.6l5.5,17.3c0,0-2.8,6.8-6.1,13.2
			c10,5.4,21.8,6.1,32.4,2.1C106.6,131.6,100.9,131.5,95.5,130.2z"/>
		<path class="st9" d="M65.9,118.8C72.5,92,77.2,82.5,82.3,79.4c1.9-1.1,4.1-1.7,6.4-1.7c0.7,0.9,1.1,2,1.2,3.1
			c0.6,5.4-0.7,10.8-3.7,15.4c0,0-9.6,20.2-11.1,27.4c-1.3,6.3-2.8,14.2-2.8,19.6c0,1,0.4,1.9,1.1,2.6c1.8,1.9,1.8,3.4,2.9,5.5
			c0.9,1.6,1.8,2.2,1.6,2.6c-0.8,0.8-2,0.9-2.9,0.2c-0.8-0.6-1.5-1.3-2.2-2.1c0.3,2,0.9,4,1.7,5.8c2,4.4,1.5,6.7-4.5,5.1
			c-3.8-1-6.1-4.1-6.7-13.1c-0.3-3.3-0.3-6.7-0.1-10C64.1,131.4,64.7,123.8,65.9,118.8z"/>
	</g>
	<path class="st9" d="M103.2,116.7c1.8,0.5,3.6,0.3,6,1.2c1.8,0.8,3.8,1.3,5.8,1.5c2.2,0.2,4.3-2.1,9.8-5.2c5.2-3,11.7,3.2,8.4,7
		c-1.2,1.1-2.6,2-4.1,2.7c-2.5,1-5,1.5-11.4,3.5c-1.1,0.4-2.1,0.8-3.1,1.4c-1.2,0.6-2.5,1-3.8,1.4c-3,1-6.2,1.2-9.3,0.6
		c-1.9-0.3-3.7-1.2-5.1-2.6c-1.2-1.3-2.2-3.8-1.8-5.5c0.1-0.5,0.4-1,0.8-1.3c1-0.8,2.6-0.3,3.7-0.1c1.3,0.3,2.7,0.4,4,0.4
		c2.2-0.1,3.7-0.4,3.4-0.8s-1.6-0.2-3.3-1s-2.8-2.5-2.3-3.3S101.4,116.1,103.2,116.7z"/>
	<path class="st5" d="M123.1,115c0,0,2.9-0.5,4.8,2.8s2.9,21,2.9,21l-2-1.2c0,0-0.7-14.1-2.4-18.2c-0.9-2.1-3.1-3.4-5.3-3.2
		C121.6,115.6,122.3,115.1,123.1,115z"/>
</g>
<g id="freepik--Barrier--inject-4">
	<path class="st1" d="M55.4,162.4h-8.7v136.3l0,0c0.1,0.8,0.6,1.5,1.3,1.8c1.9,1,4.2,1,6.2,0c0.7-0.3,1.2-1,1.3-1.8l0,0L55.4,162.4z
		"/>
	<ellipse class="st3" cx="51" cy="162.4" rx="4.4" ry="2.5"/>
	<path class="st6" d="M53.6,179.2c31.1,29.5,68.6,50.5,111.6,64.5V235c-43-14-80.6-35-111.6-64.4V179.2z"/>
	<path class="st15" d="M53.6,179.2c31.1,29.5,68.6,50.5,111.6,64.5V235c-43-14-80.6-35-111.6-64.4V179.2z"/>
	<path class="st1" d="M167.2,227.2h-8.7v136.3l0,0c0.1,0.8,0.6,1.5,1.3,1.8c1.9,1,4.2,1,6.2,0c0.7-0.3,1.2-1,1.3-1.8l0,0V227.2z"/>
	<path class="st3" d="M159.7,229c1.9,1,4.2,1,6.2,0c1.7-1,1.7-2.6,0-3.6c-1.9-1-4.2-1-6.2,0C158,226.4,158,228,159.7,229z"/>
	<path class="st6" d="M164.9,243.3c31.1,29.5,68.6,50.5,111.6,64.5v-8.6c-43-14-80.6-35-111.6-64.5L164.9,243.3z"/>
	<path class="st15" d="M164.9,243.3c31.1,29.5,68.6,50.5,111.6,64.5v-8.6c-43-14-80.6-35-111.6-64.5L164.9,243.3z"/>
	<path class="st1" d="M279,292.1h-8.7v136.3l0,0c0.1,0.8,0.6,1.5,1.3,1.8c1.9,1,4.2,1,6.2,0c0.7-0.3,1.2-1,1.3-1.8l0,0V292.1z"/>
	<ellipse class="st3" cx="274.6" cy="292.1" rx="4.4" ry="2.5"/>
</g>
</svg>
