<?xml version="1.0" encoding="utf-8"?>
<!-- Generator: Adobe Illustrator 27.3.1, SVG Export Plug-In . SVG Version: 6.00 Build 0)  -->
<svg version="1.1" id="Layer_2_00000086663305773260703880000016944118568124770988_"
	 xmlns="http://www.w3.org/2000/svg" xmlns:xlink="http://www.w3.org/1999/xlink" x="0px" y="0px" viewBox="0 0 859 537.7"
	 style="enable-background:new 0 0 859 537.7;" xml:space="preserve">
<style type="text/css">
	.st0{fill:#FFFFFF;}
	.st1{fill:#E6AA68;}
	.st2{opacity:0.7;fill:#FFFFFF;enable-background:new    ;}
	.st3{fill:none;stroke:#263238;stroke-width:1.2;stroke-linecap:round;stroke-linejoin:round;}
	.st4{fill:#263238;stroke:#263238;stroke-width:1.2;stroke-linecap:round;stroke-linejoin:round;}
	.st5{fill:none;stroke:#263238;stroke-width:1.2;stroke-linecap:round;stroke-linejoin:round;stroke-miterlimit:4;}
	.st6{fill:#FFFFFF;stroke:#263238;stroke-width:1.2;stroke-linecap:round;stroke-linejoin:round;}
	.st7{fill:#263238;}
	.st8{fill:#263238;stroke:#FFFFFF;stroke-width:0.83;stroke-linejoin:round;}
	.st9{fill:#D1D1D1;stroke:#263238;stroke-width:1.2;stroke-linejoin:round;}
	.st10{enable-background:new    ;}
	.st11{fill:none;stroke:#263238;stroke-width:2;stroke-miterlimit:10;}
</style>
<rect class="st0" width="859.3" height="538.4"/>
<g id="Layer_1-2">
	<g>
		<g id="freepik--background-simple--inject-27">
			<path class="st1" d="M695.9,356c0,0,27.4-140.3-47.2-220c-65.8-70.3-170-97.6-255-39.5c-30.3,20.7-52.3,60.9-87.7,73.3
				c-39.6,13.9-90.6,18.9-127.4,78.6S155,384.9,204,425.7s135,1,212.4-2S655.3,529.2,695.9,356z"/>
			<path class="st2" d="M695.9,356c0,0,27.4-140.3-47.2-220c-65.8-70.3-170-97.6-255-39.5c-30.3,20.7-52.3,60.9-87.7,73.3
				c-39.6,13.9-90.6,18.9-127.4,78.6S155,384.9,204,425.7s135,1,212.4-2S655.3,529.2,695.9,356z"/>
		</g>
		<g id="freepik--Plants--inject-27">
			<path class="st1" d="M243.4,104.8c0,0,0-8.5-11.9-20.5c-11.9-12-19.6-18.7-19.6-18.7s-6,19.6,5.1,31.6c11.1,12,26.4,23,26.4,23
				V104.8z"/>
			<path class="st1" d="M226.1,158.1c0,0,0-8.5-12-20.5s-19.6-18.7-19.6-18.7s-6,19.6,5.1,31.6c11.1,12,26.5,23,26.5,23V158.1z"/>
			<path class="st1" d="M242.7,119.3c0,0,0.9-8.5,14-19.1c13.1-10.6,21.5-16.6,21.5-16.6s3.9,20.2-8.4,30.9S241,134.6,241,134.6
				L242.7,119.3z"/>
			<path class="st1" d="M221.7,182.3c0,0,1.8-8.3,16-17.5s23.1-14.2,23.1-14.2s1.7,20.4-11.6,29.8s-30.7,17-30.7,17L221.7,182.3z"/>
			<path class="st1" d="M225.7,250.9c0,0,0-8.5,11.9-20.5c11.9-12,19.6-18.8,19.6-18.8s6,19.6-5.1,31.6s-26.4,23-26.4,23V250.9z"/>
			<path class="st1" d="M225.5,267.6c0,0,1.2-8.4-8.9-22c-10.1-13.6-16.8-21.3-16.8-21.3s-8.7,18.6,0.6,32
				c9.3,13.4,22.9,26.6,22.9,26.6L225.5,267.6z"/>
			<path class="st1" d="M213.7,317.2c0,0,0-8.5,11.9-20.5c11.9-12,19.6-18.8,19.6-18.8s6,19.6-5.1,31.6c-11.1,12-26.5,23-26.5,23
				v-15.3H213.7z"/>
			<path class="st1" d="M221.7,362.2c0,0-2.2-8.3,6.4-22.8c8.6-14.5,14.2-23.1,14.2-23.1s10.8,17.5,3,31.8s-19.8,29-19.8,29
				L221.7,362.2z"/>
			<path class="st3" d="M244.5,102.6c-0.6,8.9-1.7,17.7-3.3,26.5c-4.7,24.4-16.5,40.1-21.2,62.2c-4.7,22.1,8.8,50.4,5.2,78.7
				c-3.6,28.3-14.7,44-11.5,62.9s19.7,70,19.7,70"/>
			<line class="st3" x1="242.5" y1="125" x2="255.4" y2="115.2"/>
			<line class="st3" x1="243.2" y1="113.7" x2="237.8" y2="104.1"/>
			<path class="st3" d="M220.7,190.3c0,0,10.8-8.1,21.8-16.2"/>
			<path class="st3" d="M226.1,173.5c0,0-9-17.6-19.2-29.3"/>
			<path class="st3" d="M226.1,263c6.1-11.3,13.9-21.7,23-30.8"/>
			<path class="st3" d="M224,275c0,0-5.4-12.9-11.7-22.1c-6.3-9.2-7.2-10.6-7.2-10.6"/>
			<path class="st3" d="M213.7,332.9c2.7-6.8,6-13.3,9.7-19.6c3.7-5.8,7.9-11.3,12.6-16.5"/>
			<path class="st3" d="M225.5,377.1c0,0-1.3-10.2,3.2-18.9s9.6-20,11.7-24.5"/>
			<path class="st1" d="M165.2,218.8c0,0-0.9-5.4,5.3-14.1s10.3-13.9,10.3-13.9s5.9,11.7,0.2,20.4c-4.2,6.1-8.9,11.9-14.1,17.3
				L165.2,218.8L165.2,218.8z"/>
			<path class="st1" d="M181.9,250.3c0,0-0.9-5.4,5.3-14.1s10.3-13.9,10.3-13.9s5.9,11.6,0.2,20.4c-4.2,6.1-8.9,11.9-14.1,17.3
				L181.9,250.3z"/>
			<path class="st1" d="M167.3,227.8c0,0-1.5-5.2-10.9-10.4c-9.4-5.2-15.3-8.1-15.3-8.1s-0.2,13,8.6,18.4c6.5,3.7,13.2,6.9,20.2,9.5
				L167.3,227.8L167.3,227.8z"/>
			<path class="st1" d="M187.2,265c0,0-2-5-11.9-9.2c-9.9-4.2-16-6.4-16-6.4s1.1,13,10.5,17.4c6.8,3,13.9,5.5,21.1,7.3L187.2,265z"
				/>
			<path class="st1" d="M192.2,308.4c0,0-0.9-5.4-9.7-11.5c-8.8-6.1-14.4-9.6-14.4-9.6s-1.6,12.9,6.6,19.2c6,4.4,12.4,8.2,19.1,11.6
				L192.2,308.4L192.2,308.4z"/>
			<path class="st1" d="M194.1,318.9c0,0-1.7-5.2,3.2-14.7c4.9-9.5,8.2-15.2,8.2-15.2s7.5,10.7,3.1,20.1
				c-3.3,6.7-7.1,13.1-11.5,19.1L194.1,318.9z"/>
			<path class="st1" d="M209.1,362.1c0,0,0.6-5.4,9-12.1c8.4-6.7,13.8-10.4,13.8-10.4s2.3,12.8-5.5,19.6
				c-5.8,4.7-11.9,8.9-18.3,12.6L209.1,362.1L209.1,362.1z"/>
			<path class="st1" d="M206.9,348.8c0,0-0.9-5.4-9.7-11.5s-14.3-9.6-14.3-9.6s-1.6,13,6.6,19.2c6,4.4,12.4,8.2,19.1,11.6
				L206.9,348.8L206.9,348.8z"/>
			<path class="st1" d="M206.8,377.8c0,0,0.5-5.4-6.5-13.6s-11.4-12.9-11.4-12.9s-4.8,12.1,1.5,20.2c4.7,5.8,9.9,11.1,15.5,16
				L206.8,377.8z"/>
			<path class="st3" d="M164.3,217.5c1.3,5.5,3,10.9,4.9,16.3c5.6,14.8,14.7,23.4,20.1,36.7c5.4,13.3-0.1,32.6,5.3,49.9
				c5.4,17.3,14,26,14,38.2s-4.7,46-4.7,46"/>
			<line class="st3" x1="168" y1="231.4" x2="158.8" y2="226.6"/>
			<line class="st3" x1="166.3" y1="224.3" x2="168.7" y2="217.7"/>
			<path class="st3" d="M188.7,269.9c0,0-7.6-3.9-15.5-7.8"/>
			<path class="st3" d="M183.5,260c0,0,3.7-12,8.8-20.4"/>
			<path class="st3" d="M193.3,316.1c-5.1-6.4-11.1-12.1-17.8-16.8"/>
			<path class="st3" d="M195.9,323.4c1.2-5.2,2.9-10.2,4.9-15.2c2.9-6.5,3.4-7.4,3.4-7.4"/>
			<path class="st3" d="M208.2,367.8c0,0,6.1-7.4,9.8-10.2c2.3-1.7,4.4-3.5,6.4-5.5"/>
			<path class="st3" d="M208.6,358.6c-2.4-4-5.2-7.7-8.2-11.3c-3-3.3-6.2-6.3-9.7-9"/>
			<path class="st3" d="M206,387.6c0,0-0.3-6.5-4.1-11.5c-3.8-5-8.2-11.5-10-14.1"/>
			<path class="st4" d="M241.1,485.9h-49.8c-2.2,0-3.9-1.8-3.9-3.9L175,399.4h82.4l-12.3,82.5C245,484.1,243.3,485.9,241.1,485.9
				L241.1,485.9L241.1,485.9z"/>
		</g>
		<g id="freepik--Graphics--inject-27">
			
				<rect x="507.1" y="88.9" transform="matrix(0.7071 -0.7071 0.7071 0.7071 82.2135 393.0217)" class="st5" width="16.8" height="16.8"/>
			
				<rect x="389.2" y="53.7" transform="matrix(0.7071 -0.7071 0.7071 0.7071 74.1115 295.5051)" class="st5" width="9.2" height="9.2"/>
			
				<rect x="660.2" y="113.2" transform="matrix(0.7071 -0.7071 0.7071 0.7071 111.4362 504.5627)" class="st5" width="9.2" height="9.2"/>
			<path class="st3" d="M323.3,132.1c0-2.7-2.1-4.8-4.8-4.8c-2.7,0-4.8,2.1-4.8,4.8c0,2.7,2.1,4.8,4.8,4.8l0,0
				C321.2,136.9,323.3,134.8,323.3,132.1L323.3,132.1z"/>
			<path class="st3" d="M696.8,392.7c0-2.7-2.1-4.8-4.8-4.8s-4.8,2.1-4.8,4.8c0,2.7,2.1,4.8,4.8,4.8l0,0
				C694.6,397.5,696.8,395.4,696.8,392.7L696.8,392.7L696.8,392.7z"/>
			<path class="st3" d="M580.3,150.1c0-2.7-2.1-4.8-4.8-4.8c-2.7,0-4.8,2.2-4.8,4.8s2.1,4.8,4.8,4.8l0,0
				C578.2,155,580.3,152.8,580.3,150.1z"/>
			<path class="st3" d="M204.5,186.2c0-2.7-2.1-4.8-4.8-4.8s-4.8,2.1-4.8,4.8s2.1,4.8,4.8,4.8l0,0
				C202.3,191,204.5,188.8,204.5,186.2L204.5,186.2z"/>
		</g>
		<path class="st6" d="M241.4,170.3h427.3c7,0,12.7,5.7,12.7,12.7v281.2H228.7V183.1C228.6,176.1,234.3,170.3,241.4,170.3
			L241.4,170.3z"/>
		<rect x="300.5" y="450.1" class="st4" width="311.1" height="15.3"/>
		<rect x="300.5" y="457.5" class="st6" width="311.1" height="8"/>
		<path class="st4" d="M192,474.5c0,0,5.1,6.2,20.4,11.4h487.1c0,0,11.4-2.8,16.5-10.8L192,474.5L192,474.5z"/>
		<path class="st6" d="M194.9,463.3h518.5c2.1,0,3.9,1.7,3.9,3.9v4.2c0,2.1-1.7,3.9-3.9,3.9H194.9c-2.1,0-3.9-1.7-3.9-3.9v-4.2
			C191,465,192.7,463.3,194.9,463.3z"/>
		<path class="st7" d="M458.9,179.3c0-2.2-1.8-4-4-4s-4,1.8-4,4s1.8,4,4,4S458.9,181.5,458.9,179.3z"/>
		<path class="st8" d="M232.9,253.1L232.9,253.1c-0.6,0-1.1-0.5-1.1-1.1l0,0v-32.9c0-0.6,0.5-1.1,1.1-1.1l0,0c0.6,0,1.1,0.5,1.1,1.1
			V252C234,252.5,233.5,253.1,232.9,253.1L232.9,253.1L232.9,253.1z"/>
		<rect x="247" y="193.3" class="st9" width="416" height="235.1"/>
		<rect x="247" y="193.3" class="st7" width="416" height="13.9"/>
		<rect x="266.7" y="265.7" class="st7" width="376.6" height="90.8"/>
		<g class="st10">
			<path class="st0" d="M335.3,316.3l4.9-0.5c0.3,1.7,0.9,2.9,1.8,3.7c0.9,0.8,2.1,1.2,3.7,1.2c1.6,0,2.9-0.3,3.7-1
				c0.8-0.7,1.2-1.5,1.2-2.4c0-0.6-0.2-1.1-0.5-1.5c-0.3-0.4-1-0.8-1.8-1.1c-0.6-0.2-2-0.6-4.1-1.1c-2.7-0.7-4.6-1.5-5.7-2.5
				c-1.5-1.4-2.3-3.1-2.3-5.1c0-1.3,0.4-2.5,1.1-3.6s1.8-2,3.1-2.5c1.4-0.6,3-0.9,5-0.9c3.2,0,5.5,0.7,7.1,2.1s2.4,3.2,2.5,5.5
				l-5.1,0.2c-0.2-1.3-0.7-2.2-1.4-2.8c-0.7-0.6-1.8-0.8-3.2-0.8c-1.5,0-2.6,0.3-3.5,0.9c-0.5,0.4-0.8,0.9-0.8,1.6
				c0,0.6,0.3,1.1,0.8,1.5c0.6,0.5,2.2,1.1,4.7,1.7s4.3,1.2,5.5,1.8c1.2,0.6,2.1,1.5,2.8,2.6c0.7,1.1,1,2.4,1,4c0,1.4-0.4,2.8-1.2,4
				c-0.8,1.3-1.9,2.2-3.4,2.8c-1.5,0.6-3.3,0.9-5.5,0.9c-3.2,0-5.6-0.7-7.3-2.2C336.7,321.3,335.7,319.1,335.3,316.3z"/>
			<path class="st0" d="M368.4,306.2v3.8h-3.3v7.3c0,1.5,0,2.4,0.1,2.6s0.2,0.4,0.4,0.6c0.2,0.2,0.5,0.2,0.8,0.2
				c0.4,0,1.1-0.2,1.9-0.5l0.4,3.7c-1.1,0.5-2.4,0.7-3.8,0.7c-0.9,0-1.7-0.1-2.4-0.4c-0.7-0.3-1.2-0.7-1.5-1.1
				c-0.3-0.5-0.6-1.1-0.7-1.9c-0.1-0.6-0.2-1.7-0.2-3.4v-7.9h-2.2v-3.7h2.2v-3.6l4.8-2.8v6.4H368.4L368.4,306.2z"/>
			<path class="st0" d="M383.7,324.4v-2.7c-0.7,1-1.5,1.7-2.6,2.3c-1.1,0.6-2.2,0.8-3.4,0.8c-1.2,0-2.3-0.3-3.3-0.8
				s-1.7-1.3-2.1-2.3c-0.4-1-0.7-2.3-0.7-4v-11.5h4.8v8.4c0,2.6,0.1,4.1,0.3,4.7c0.2,0.6,0.5,1,1,1.4c0.5,0.3,1.1,0.5,1.8,0.5
				c0.8,0,1.6-0.2,2.2-0.7c0.7-0.5,1.1-1,1.3-1.7c0.2-0.7,0.4-2.3,0.4-4.9v-7.7h4.8v18.2H383.7z"/>
			<path class="st0" d="M409.9,324.4h-4.5v-2.7c-0.7,1-1.6,1.8-2.6,2.3s-2,0.8-3.1,0.8c-2.1,0-3.9-0.8-5.4-2.5s-2.2-4-2.2-7.1
				s0.7-5.4,2.2-7s3.3-2.4,5.5-2.4c2,0,3.8,0.8,5.3,2.5v-9.1h4.8L409.9,324.4L409.9,324.4z M397,314.9c0,1.9,0.3,3.4,0.8,4.2
				c0.8,1.3,1.9,1.9,3.3,1.9c1.1,0,2.1-0.5,2.8-1.4c0.8-0.9,1.2-2.4,1.2-4.2c0-2.1-0.4-3.6-1.1-4.5c-0.8-0.9-1.7-1.4-2.9-1.4
				c-1.1,0-2.1,0.5-2.9,1.4S397,313.1,397,314.9z"/>
			<path class="st0" d="M425.2,318.7l4.8,0.8c-0.6,1.8-1.6,3.1-2.9,4s-3,1.4-5,1.4c-3.2,0-5.5-1-7-3.1c-1.2-1.7-1.8-3.8-1.8-6.3
				c0-3,0.8-5.4,2.4-7.1c1.6-1.7,3.6-2.6,6-2.6c2.7,0,4.9,0.9,6.4,2.7c1.6,1.8,2.3,4.5,2.2,8.2h-12.1c0,1.4,0.4,2.5,1.2,3.3
				c0.7,0.8,1.7,1.2,2.8,1.2c0.8,0,1.4-0.2,1.9-0.6S424.9,319.6,425.2,318.7z M425.5,313.8c0-1.4-0.4-2.5-1.1-3.2s-1.5-1.1-2.5-1.1
				c-1.1,0-1.9,0.4-2.6,1.1c-0.7,0.8-1,1.8-1,3.1h7.2V313.8z"/>
			<path class="st0" d="M450.8,324.4H446v-9.2c0-2-0.1-3.2-0.3-3.8c-0.2-0.6-0.5-1-1-1.3s-1-0.5-1.7-0.5c-0.8,0-1.6,0.2-2.2,0.7
				c-0.7,0.5-1.1,1.1-1.4,1.8s-0.4,2.2-0.4,4.2v8.3h-4.8v-18.4h4.5v2.7c1.6-2.1,3.6-3.1,6-3.1c1.1,0,2,0.2,2.9,0.6s1.5,0.9,2,1.5
				s0.8,1.3,0.9,2c0.2,0.8,0.3,1.8,0.3,3.2V324.4z"/>
			<path class="st0" d="M464,306.2v3.8h-3.3v7.3c0,1.5,0,2.4,0.1,2.6s0.2,0.4,0.4,0.6s0.5,0.2,0.8,0.2c0.4,0,1.1-0.2,1.9-0.5
				l0.4,3.7c-1.1,0.5-2.4,0.7-3.8,0.7c-0.9,0-1.7-0.1-2.4-0.4c-0.7-0.3-1.2-0.7-1.5-1.1c-0.3-0.5-0.6-1.1-0.7-1.9
				c-0.1-0.6-0.2-1.7-0.2-3.4v-7.9h-2.2v-3.7h2.2v-3.6l4.8-2.8v6.4H464L464,306.2z"/>
			<path class="st0" d="M499.8,324.4h-5.5l-2.2-5.7h-10l-2.1,5.7h-5.4l9.8-25.2h5.4L499.8,324.4z M490.5,314.5l-3.5-9.3l-3.4,9.3
				H490.5z"/>
			<path class="st0" d="M500.4,306.2h2.7v-1.4c0-1.5,0.2-2.7,0.5-3.4c0.3-0.8,0.9-1.4,1.8-1.8c0.9-0.5,2-0.7,3.3-0.7
				c1.4,0,2.7,0.2,4,0.6l-0.7,3.4c-0.8-0.2-1.5-0.3-2.2-0.3s-1.2,0.2-1.5,0.5c-0.3,0.3-0.5,1-0.5,1.9v1.3h3.6v3.8h-3.6v14.4h-4.7
				v-14.4h-2.7V306.2z"/>
			<path class="st0" d="M512.1,306.2h2.7v-1.4c0-1.5,0.2-2.7,0.5-3.4c0.3-0.7,0.9-1.4,1.8-1.8c0.9-0.4,2-0.7,3.3-0.7
				c1.4,0,2.7,0.2,4,0.6l-0.7,3.4c-0.8-0.2-1.5-0.3-2.2-0.3s-1.2,0.2-1.5,0.5c-0.3,0.3-0.5,1-0.5,1.9v1.3h3.6v3.8h-3.6v14.4h-4.8
				v-14.4h-2.6V306.2z"/>
			<path class="st0" d="M529.5,311.8l-4.4-0.8c0.5-1.8,1.3-3.1,2.5-3.9s3-1.3,5.4-1.3c2.2,0,3.8,0.3,4.8,0.8
				c1.1,0.5,1.8,1.2,2.2,1.9c0.4,0.8,0.6,2.2,0.6,4.3l-0.1,5.6c0,1.6,0.1,2.8,0.2,3.5c0.1,0.7,0.4,1.6,0.9,2.4h-4.8
				c-0.1-0.3-0.3-0.8-0.5-1.4c-0.1-0.3-0.1-0.5-0.2-0.6c-0.8,0.8-1.7,1.4-2.6,1.8c-0.9,0.4-1.9,0.6-3,0.6c-1.9,0-3.4-0.5-4.4-1.5
				c-1.1-1-1.6-2.3-1.6-3.9c0-1,0.2-1.9,0.7-2.8c0.5-0.8,1.2-1.4,2.1-1.9c0.9-0.5,2.2-0.8,3.8-1.1c2.3-0.4,3.8-0.8,4.7-1.2v-0.5
				c0-0.9-0.2-1.6-0.7-2s-1.3-0.6-2.6-0.6c-0.9,0-1.5,0.2-2,0.5C530.2,310.3,529.8,310.9,529.5,311.8z M536,315.7
				c-0.6,0.2-1.6,0.5-2.9,0.7c-1.3,0.3-2.2,0.6-2.6,0.8c-0.6,0.4-0.9,1-0.9,1.7s0.3,1.3,0.8,1.8s1.1,0.7,1.9,0.7
				c0.9,0,1.7-0.3,2.5-0.9c0.6-0.4,1-1,1.1-1.6c0.1-0.4,0.2-1.2,0.2-2.4v-0.8H536z"/>
			<path class="st0" d="M545.4,303.8v-4.5h4.8v4.5H545.4z M545.4,324.4v-18.2h4.8v18.2H545.4z"/>
			<path class="st0" d="M559.8,324.4H555v-18.2h4.5v2.6c0.8-1.2,1.5-2,2.1-2.4c0.6-0.4,1.3-0.6,2.1-0.6c1.1,0,2.2,0.3,3.2,0.9
				l-1.5,4.2c-0.8-0.5-1.6-0.8-2.3-0.8c-0.7,0-1.2,0.2-1.7,0.6s-0.8,1-1.1,2c-0.3,1-0.4,3-0.4,6.1v5.6H559.8z"/>
			<path class="st0" d="M567.2,319.3l4.8-0.7c0.2,0.9,0.6,1.7,1.3,2.1c0.6,0.5,1.5,0.7,2.6,0.7c1.2,0,2.2-0.2,2.8-0.7
				c0.4-0.3,0.6-0.7,0.6-1.3c0-0.4-0.1-0.7-0.3-0.9c-0.2-0.2-0.8-0.4-1.6-0.6c-3.9-0.9-6.4-1.6-7.4-2.4c-1.4-1-2.2-2.4-2.2-4.1
				c0-1.6,0.6-2.9,1.9-4s3.2-1.6,5.8-1.6c2.5,0,4.3,0.4,5.6,1.2c1.2,0.8,2,2,2.5,3.6l-4.5,0.8c-0.2-0.7-0.6-1.3-1.1-1.6
				c-0.5-0.4-1.3-0.6-2.3-0.6c-1.3,0-2.2,0.2-2.7,0.5c-0.4,0.3-0.5,0.6-0.5,1c0,0.3,0.2,0.6,0.5,0.9c0.4,0.3,1.9,0.8,4.5,1.4
				c2.6,0.6,4.4,1.3,5.4,2.1c1,0.9,1.5,2.1,1.5,3.6c0,1.7-0.7,3.1-2.1,4.3c-1.4,1.2-3.5,1.8-6.2,1.8c-2.5,0-4.4-0.5-5.9-1.5
				C568.6,322.3,567.6,321,567.2,319.3z"/>
		</g>
		<path class="st11" d="M576.8,379.6c-7.5-0.1-7.5-8.1-15-8.1s-7.6,7.9-15.2,7.9c-7.6,0-7.5-8.1-15-8.1s-7.6,7.9-15.2,7.9
			c-7.6,0-7.5-8.1-15-8.1s-7.6,7.9-15.2,7.9s-7.5-8.1-15-8.1s-7.6,7.9-15.2,7.9s-7.5-8.1-15-8.1s-7.6,7.9-15.2,7.9
			c-7.5-0.1-7.5-8.1-15-8.1s-7.6,7.9-15.2,7.9c-7.6,0-7.5-8.1-15-8.1s-7.6,7.9-15.2,7.9c-7.6,0-7.5-8.1-15-8.1s-7.6,7.9-15.2,7.9"/>
		<path class="st11" d="M335.3,246.7c7.6-0.1,7.6,7.9,15.2,7.9c7.6,0,7.5-8.1,15-8.1s7.6,7.9,15.2,7.9c7.6,0,7.5-8.1,15-8.1
			c7.6-0.1,7.6,7.9,15.2,7.9s7.5-8.1,15-8.1s7.6,7.9,15.2,7.9s7.5-8.1,15-8.1s7.6,7.9,15.2,7.9s7.5-8.1,15-8.1s7.6,7.9,15.2,7.9
			s7.5-8.1,15-8.1s7.6,7.9,15.2,7.9c7.6,0,7.5-8.1,15-8.1s7.6,7.9,15.2,7.9c7.6,0,7.5-8.1,15-8.1"/>
	</g>
</g>
</svg>
