<?xml version="1.0" encoding="utf-8"?>
<!-- Generator: Adobe Illustrator 27.3.1, SVG Export Plug-In . SVG Version: 6.00 Build 0)  -->
<svg version="1.1" id="Layer_1" xmlns="http://www.w3.org/2000/svg" xmlns:xlink="http://www.w3.org/1999/xlink" x="0px" y="0px"
	 viewBox="0 0 500 500" style="enable-background:new 0 0 500 500;" xml:space="preserve">
<style type="text/css">
	.st0{fill:#FAFAFA;}
	.st1{fill:#E0E0E0;}
	.st2{fill:#EBEBEB;}
	.st3{fill:#FFFFFF;}
	.st4{fill:#F5F5F5;}
	.st5{fill:#263238;}
	.st6{fill:#e6aa68;}
	.st7{fill:#455A64;}
	.st8{opacity:0.6;}
	.st9{fill:#FFBE9D;}
	.st10{fill:#EB996E;}
	.st11{opacity:0.3;}
</style>
<g id="freepik--background-complete--inject-9">
	<rect x="33.9" y="34.1" class="st0" width="96.1" height="85.9"/>
	<path class="st1" d="M130,120c0,0,0-0.6,0-1.6s0-2.6,0-4.6c0-4,0-9.9-0.1-17.4c0-15-0.1-36.5-0.1-62.3l0.2,0.2H34l0,0l0.2-0.3
		c0,31.3,0,60.7,0,85.9l-0.2-0.2l69.5,0.1L123,120h5.2h1.3h-1.3h-5.1l-19.6,0.1l-69.6,0.1h-0.2V120c0-25.2,0-54.7,0-85.9v-0.2H34h96
		h0.2V34c0,25.9-0.1,47.4-0.1,62.4c0,7.5-0.1,13.4-0.1,17.4c0,2,0,3.5,0,4.6S130,120,130,120z"/>
	<path class="st1" d="M70.7,49.3c0,0.2-5.1,0.3-11.3,0.3s-11.3-0.1-11.3-0.3s5.1-0.2,11.3-0.2S70.7,49.2,70.7,49.3z"/>
	<path class="st1" d="M111.4,55.8c0,0.1-13.9,0.2-31,0.2s-31-0.1-31-0.2s13.9-0.3,31-0.3S111.4,55.7,111.4,55.8z"/>
	<rect x="48.3" y="66.7" class="st1" width="4" height="4.1"/>
	<rect x="58.3" y="66.7" class="st1" width="4" height="4.1"/>
	<rect x="68.4" y="66.6" class="st1" width="4.1" height="4.1"/>
	<rect x="78.2" y="66.7" class="st1" width="4.1" height="4.1"/>
	<rect x="88.2" y="66.7" class="st1" width="4.1" height="4.1"/>
	<rect x="98.1" y="66.7" class="st1" width="4.1" height="4.1"/>
	<rect x="108.1" y="66.7" class="st2" width="4.1" height="4.1"/>
	<rect x="48.3" y="75.3" class="st2" width="4" height="4.1"/>
	<rect x="58.3" y="75.3" class="st1" width="4" height="4.1"/>
	<rect x="68.2" y="75.3" class="st2" width="4.1" height="4.1"/>
	<rect x="78.2" y="75.3" class="st1" width="4.1" height="4.1"/>
	<rect x="88.2" y="75.3" class="st1" width="4.1" height="4.1"/>
	<rect x="98.3" y="75.2" class="st1" width="4.1" height="4.1"/>
	<rect x="108.1" y="75.3" class="st1" width="4.1" height="4.1"/>
	<rect x="48.3" y="83.9" class="st1" width="4" height="4.1"/>
	<rect x="58.5" y="83.8" class="st1" width="4" height="4.1"/>
	<rect x="68.2" y="83.9" class="st1" width="4.1" height="4.1"/>
	<rect x="78.2" y="83.9" class="st2" width="4.1" height="4.1"/>
	<rect x="88.2" y="83.9" class="st1" width="4.1" height="4.1"/>
	<rect x="98.1" y="83.9" class="st1" width="4.1" height="4.1"/>
	<rect x="108.1" y="83.9" class="st1" width="4.1" height="4.1"/>
	<rect x="48.3" y="92.5" class="st1" width="4" height="4.1"/>
	<rect x="58.3" y="92.5" class="st1" width="4" height="4.1"/>
	<rect x="68.2" y="92.5" class="st1" width="4.1" height="4.1"/>
	<rect x="78.4" y="92.4" class="st1" width="4.1" height="4.1"/>
	<rect x="88.2" y="92.5" class="st1" width="4.1" height="4.1"/>
	<rect x="98.1" y="92.5" class="st2" width="4.1" height="4.1"/>
	<rect x="108.1" y="92.5" class="st1" width="4.1" height="4.1"/>
	<rect x="48.3" y="101.2" class="st1" width="4" height="4.1"/>
	<rect x="58.3" y="101.2" class="st2" width="4" height="4.1"/>
	<rect x="68.2" y="101.2" class="st1" width="4.1" height="4.1"/>
	<rect x="78.2" y="101.2" class="st1" width="4.1" height="4.1"/>
	<rect x="88.2" y="101.2" class="st1" width="4.1" height="4.1"/>
	<rect x="98.3" y="101" class="st1" width="4.1" height="4.1"/>
	<rect x="108.1" y="101.2" class="st1" width="4.1" height="4.1"/>
	<rect x="402.5" y="35.8" class="st3" width="68" height="68"/>
	<path class="st1" d="M470.5,103.9c0,0,0-0.1,0-0.3s0-0.5,0-1c0-0.8,0-2.1,0-3.7c0-3.2,0-7.9-0.1-13.8c0-11.9-0.1-28.9-0.1-49.3
		l0.2,0.2h-68l0,0l0.3-0.3c0,24.9,0,48.3,0,68.1l-0.2-0.2l49.2,0.1l13.9,0.1h3.7h0.9L470.5,103.9l-1.1-0.1h-3.6l-13.8,0.1l-49.4,0.1
		h-0.2v-0.2c0-19.8,0-43.1,0-68v-0.3h0.3h68h0.2v0.2c0,20.4-0.1,37.5-0.1,49.4c0,5.9,0,10.6-0.1,13.8c0,1.6,0,2.8,0,3.6
		c0,0.4,0,0.7,0,0.9S470.5,103.9,470.5,103.9z"/>
	<path class="st1" d="M470.2,53.2c0,0.1-15.2,0.3-33.9,0.3s-33.9-0.1-33.9-0.3s15.2-0.2,33.9-0.2S470.2,53.1,470.2,53.2z"/>
	<circle class="st1" cx="409.1" cy="44.2" r="1.9"/>
	<circle class="st1" cx="415" cy="44.2" r="1.9"/>
	<path class="st1" d="M422.8,44.2c0,1.1-0.9,1.9-1.9,1.9c-1.1,0-1.9-0.9-1.9-1.9s0.9-1.9,1.9-1.9l0,0
		C421.9,42.3,422.8,43.1,422.8,44.2L422.8,44.2z"/>
	<circle class="st2" cx="416.2" cy="67.7" r="5.5"/>
	<path class="st2" d="M421.8,88c0,3.1-2.5,5.5-5.5,5.5s-5.5-2.5-5.5-5.5c0-3.1,2.5-5.5,5.5-5.5l0,0C419.3,82.5,421.8,84.9,421.8,88z
		"/>
	<path class="st1" d="M460.3,67.3c0,0.1-7.6,0.3-16.9,0.3s-16.9-0.1-16.9-0.3s7.6-0.3,16.9-0.3S460.3,67.1,460.3,67.3z"/>
	<path class="st1" d="M438.7,87.9c-4,0.3-8,0.3-12,0C430.7,87.6,434.7,87.6,438.7,87.9z"/>
	<circle class="st1" cx="460.3" cy="92.8" r="21.5"/>
	<rect x="460.4" y="84.6" class="st3" width="2" height="15.9"/>
	<rect x="453.4" y="91.6" class="st3" width="15.9" height="2"/>
	
		<ellipse transform="matrix(3.327791e-02 -0.9994 0.9994 3.327791e-02 -203.5669 296.1422)" class="st1" cx="51.3" cy="253.3" rx="21.5" ry="21.5"/>
	<rect x="51.3" y="245.2" class="st3" width="2" height="15.9"/>
	<rect x="44.4" y="252.1" class="st3" width="15.9" height="2"/>
	<rect x="165.7" y="348.5" class="st4" width="145.7" height="67.2"/>
	<path class="st1" d="M308,412.5H169.1V352H308V412.5z M170,411.6h137V353H170V411.6z"/>
	<rect x="311.4" y="348.5" class="st1" width="35.6" height="67.2"/>
	<path class="st1" d="M169.5,370.8h138c0.1,0,0.2-0.1,0.2-0.2s-0.1-0.2-0.2-0.2h-138c-0.1,0-0.2,0.1-0.2,0.2
		C169.3,370.7,169.4,370.8,169.5,370.8L169.5,370.8z"/>
	<path class="st1" d="M239,370.6c0.4-6.1,0.4-12.2,0-18.2c0-0.1-0.1-0.2-0.2-0.1c-0.1,0-0.1,0.1-0.1,0.1c-0.4,6.1-0.4,12.2,0,18.2
		c0,0.1,0.1,0.1,0.1,0.1S238.9,370.7,239,370.6L239,370.6z"/>
	<path class="st1" d="M276.1,361.5c0,1-0.8,1.9-1.9,1.9s-1.9-0.8-1.9-1.9s0.8-1.9,1.9-1.9S276.1,360.4,276.1,361.5L276.1,361.5z"/>
	<path class="st1" d="M203.7,361.5c0,1-0.8,1.9-1.9,1.9s-1.9-0.8-1.9-1.9c0-1,0.8-1.9,1.9-1.9C202.8,359.6,203.7,360.4,203.7,361.5
		L203.7,361.5z"/>
	<path class="st1" d="M240.4,382.3c0,1-0.8,1.9-1.9,1.9s-1.9-0.8-1.9-1.9c0-1,0.8-1.9,1.9-1.9C239.5,380.4,240.4,381.3,240.4,382.3
		L240.4,382.3z"/>
	<polygon class="st1" points="183.2,415.7 175.7,457.9 179.9,457.9 193.7,415.7 	"/>
	<polygon class="st1" points="301.1,415.7 307.4,458 303.2,458 290.6,415.7 	"/>
	<polygon class="st1" points="329.3,415.7 336.4,458 332.2,458 318.7,415.7 	"/>
	<path class="st1" d="M240.3,401.3c0,1-0.8,1.9-1.9,1.9c-1,0-1.9-0.8-1.9-1.9s0.8-1.9,1.9-1.9l0,0
		C239.4,399.4,240.3,400.3,240.3,401.3z"/>
	<path class="st1" d="M169.5,391.6h138c0.1,0,0.2-0.1,0.1-0.2c0-0.1-0.1-0.1-0.1-0.1h-138c-0.1,0-0.2,0.1-0.1,0.2L169.5,391.6z"/>
</g>
<g id="freepik--Floor--inject-9">
	<path class="st5" d="M461.4,458.1c0,0.1-97.8,0.3-218.4,0.3s-218.4-0.1-218.4-0.3s97.8-0.3,218.4-0.3S461.4,457.9,461.4,458.1z"/>
</g>
<rect x="86.5" y="68.7" class="st3" width="299.9" height="264.2"/>
<rect x="86.5" y="229.6" class="st3" width="299.9" height="44.6"/>
<rect x="86.5" y="178.5" class="st4" width="299.9" height="51.1"/>
<rect x="86.5" y="281.5" class="st4" width="299.9" height="51.1"/>
<path class="st5" d="M267.5,194.4c0,0.1-35.4,0.3-79,0.3s-79-0.1-79-0.3s35.4-0.3,79-0.3S267.5,194.3,267.5,194.4z"/>
<path class="st5" d="M176.2,208.6c0,0.1-15,0.3-33.6,0.3s-33.6-0.1-33.6-0.3s15-0.3,33.6-0.3S176.2,208.5,176.2,208.6z"/>
<path class="st5" d="M267.5,244.8c0,0.1-35.4,0.3-79,0.3s-79-0.1-79-0.3s35.4-0.3,79-0.3S267.5,244.7,267.5,244.8z"/>
<path class="st5" d="M176.2,259c0,0.1-15,0.3-33.6,0.3S109,259.2,109,259s15-0.3,33.6-0.3S176.2,258.9,176.2,259z"/>
<path class="st5" d="M267.5,295.2c0,0.1-35.4,0.3-79,0.3s-79-0.1-79-0.3s35.4-0.3,79-0.3S267.5,295,267.5,295.2z"/>
<path class="st5" d="M176.2,309.4c0,0.1-15,0.3-33.6,0.3s-33.6-0.1-33.6-0.3s15-0.3,33.6-0.3S176.2,309.3,176.2,309.4z"/>
<rect x="86.5" y="68.4" class="st1" width="299.9" height="25.2"/>
<rect x="86.5" y="91.2" class="st4" width="299.9" height="25.2"/>
<path class="st5" d="M104.5,80.2c0,1.8-1.4,3.2-3.2,3.1c-1.8,0-3.2-1.4-3.1-3.2c0-1.7,1.4-3.1,3.2-3.1
	C103.1,77,104.5,78.4,104.5,80.2L104.5,80.2z"/>
<path class="st5" d="M116.1,80.2c0,1.8-1.4,3.2-3.2,3.1c-1.8,0-3.2-1.4-3.1-3.2c0-1.8,1.4-3.2,3.2-3.1l0,0
	C114.7,77,116.1,78.5,116.1,80.2z"/>
<path class="st5" d="M127.7,80.2c0,1.8-1.4,3.2-3.2,3.1c-1.8,0-3.2-1.4-3.1-3.2c0-1.7,1.4-3.1,3.2-3.1
	C126.3,77,127.7,78.4,127.7,80.2L127.7,80.2z"/>
<path class="st5" d="M386.4,333c0-1.7-0.1-103-0.1-264.6l0.1,0.2L86.7,68.7l0,0l0.2-0.3c0,93.9,0,183.4,0,264.6l-0.2-0.2L386.4,333
	l-299.7,0.2h-0.2V333c0-81.2,0-170.6,0-264.6v-0.3h0.2l299.7,0.1h0.1v0.2C386.5,230,386.4,331.3,386.4,333z"/>
<path class="st6" d="M276.6,131.3h71c3.2,0,5.8,2.6,5.8,5.8v16.4c0,3.2-2.6,5.8-5.8,5.8h-71c-3.2,0-5.8-2.6-5.8-5.8v-16.4
	C270.8,133.9,273.4,131.3,276.6,131.3z"/>
<path class="st1" d="M316.2,198.1H360c4.9,0,8.9,4,8.9,8.9l0,0c0,4.9-4,8.9-8.9,8.9h-43.8c-4.9,0-8.9-4-8.9-8.9l0,0
	C307.4,202.1,311.3,198.1,316.2,198.1z"/>
<path class="st2" d="M360,266.9h-43.8c-4.9,0-8.9-4-8.9-8.9l0,0l0,0c0-4.9,4-8.9,8.9-8.9l0,0H360c4.9,0,8.9,4,8.9,8.9l0,0l0,0
	C368.9,263,364.9,266.9,360,266.9L360,266.9z"/>
<path class="st1" d="M316.2,299.3H360c4.9,0,8.9,4,8.9,8.9l0,0c0,4.9-4,8.9-8.9,8.9h-43.8c-4.9,0-8.9-4-8.9-8.9l0,0
	C307.4,303.3,311.3,299.3,316.2,299.3z"/>
<g id="freepik--Plant--inject-9">
	<path class="st6" d="M79,385.2c-8,2.8-18.5,0.3-25.4-4.7S41.8,368.3,37.4,361c-1.9-3.1-3.7-6.4-4.3-10s0.3-7.6,3.1-10
		c4.3-3.6,11-1.8,15.9,1C67.5,351,77.6,367.1,79,385.2"/>
	<path class="st6" d="M70.3,404.4c-4.8,6.4-13.1,9.2-21.1,9.6s-15.9-1.8-23.4-4.7c-2.7-1-5.7-2.5-6.6-5.2c-0.6-2.2-0.1-4.5,1.4-6.1
		s3.3-2.9,5.4-3.7c7.3-3.1,15.8-3.3,23.5-1.3S64.1,399.5,70.3,404.4"/>
	<path class="st6" d="M79.1,350.7c-6.7,0.1-11.7-5.7-14.7-11.6c-4.2-8.3-5.6-17.7-4-26.9c0.6-3.4,1.9-7.1,4.9-8.7
		c3-1.6,7.1-0.6,9.7,1.8s4,5.8,5,9.1C83.6,325.9,82.8,339.2,79.1,350.7"/>
	<path class="st6" d="M101,387.5c-11.3-19.3-13.2-43-6.5-64.3c1.1-3.5,3.1-7.4,6.8-7.7c4-0.3,6.5,4.2,7.7,8.1
		c3.9,13.6,3.1,28,2.2,42.1C110.5,374.4,107.6,381.8,101,387.5"/>
	<path class="st6" d="M112.8,395.5c4.3-13.4,14.4-24.2,27.5-29.2c3-1.1,6.9-1.8,9.1,0.5s1.5,6,0.1,8.9c-2.3,4.6-6,8.2-9.7,11.7
		c-3.4,3.2-6.9,6.4-11.1,8.3C124.5,397.6,116.7,398,112.8,395.5"/>
	<path class="st5" d="M42.4,345.8c0.1,0.1,0.1,0.1,0.2,0.2l0.6,0.5l2.4,1.8l1.7,1.3c0.6,0.5,1.3,1,2,1.6c1.4,1.2,3.1,2.4,4.7,4
		l2.7,2.4c0.9,0.9,1.8,1.8,2.8,2.8c2,1.9,3.8,4.1,5.9,6.3c4.3,5,8.2,10.4,11.7,16c3.4,5.6,6.5,11.5,9.1,17.6c1.1,2.8,2.2,5.5,3,8.1
		c0.4,1.3,0.9,2.5,1.2,3.7l1,3.5c0.7,2.2,1.1,4.3,1.5,6c0.2,0.9,0.4,1.7,0.6,2.5s0.3,1.5,0.4,2.1c0.2,1.2,0.4,2.2,0.5,2.9l0.2,0.8
		c0,0.1,0,0.2,0.1,0.2c0-0.1,0-0.2,0-0.3c0-0.2-0.1-0.5-0.1-0.8c-0.1-0.7-0.2-1.7-0.4-2.9c-0.1-0.6-0.2-1.4-0.3-2.1
		s-0.3-1.6-0.5-2.5c-0.4-1.8-0.8-3.9-1.4-6.1c-0.3-1.1-0.6-2.3-1-3.5s-0.8-2.5-1.2-3.7c-0.8-2.6-1.9-5.3-3-8.1
		c-2.6-6.1-5.6-12-9-17.7c-3.5-5.6-7.5-11-11.8-16c-2-2.3-4-4.5-5.9-6.3c-1-1-1.9-1.9-2.8-2.8l-2.7-2.4c-1.7-1.6-3.4-2.8-4.8-4
		c-0.7-0.6-1.4-1.1-2-1.6l-1.8-1.2l-2.4-1.7L43,346C42.5,345.9,42.4,345.8,42.4,345.8z"/>
	<path class="st5" d="M27.4,399.4c0.3,0,0.5-0.1,0.8-0.1c0.5-0.1,1.2-0.3,2.2-0.4c2.7-0.5,5.5-0.8,8.2-1c9.1-0.5,18.2,1,26.7,4.5
		c8.4,3.5,15.9,8.9,22,15.8c1.8,2.1,3.5,4.3,5.1,6.5c0.6,0.8,0.9,1.5,1.2,1.9c0.1,0.2,0.3,0.4,0.4,0.6c-0.1-0.2-0.2-0.5-0.4-0.7
		c-0.3-0.5-0.6-1.1-1.2-2c-1.5-2.3-3.2-4.6-5-6.7c-12.2-14.2-30.4-21.7-49-20.4c-2.8,0.2-5.5,0.6-8.2,1.2c-1,0.2-1.7,0.4-2.2,0.5
		S27.4,399.4,27.4,399.4z"/>
	<path class="st5" d="M69.3,311.2c0,0.1,0,0.2,0,0.3l0.2,0.9c0.2,0.8,0.4,1.9,0.7,3.3c0.7,2.9,1.7,7,2.9,12.2
		c2.5,10.3,6.1,24.4,9.9,40.1c1.9,7.9,3.6,15.4,5,22.2s2.7,13,3.6,18.2c0.5,2.6,0.9,5,1.2,7s0.6,3.9,0.8,5.3s0.4,2.6,0.5,3.4
		c0.1,0.4,0.1,0.7,0.2,0.9c0,0.1,0,0.2,0.1,0.3c0-0.1,0-0.2,0-0.3c0-0.2-0.1-0.5-0.1-0.9l-0.3-3.3c-0.2-1.5-0.4-3.3-0.8-5.3
		s-0.7-4.4-1.1-7c-0.9-5.2-2-11.4-3.5-18.3s-3.1-14.4-5-22.2c-3.8-15.7-7.5-29.8-10.1-40.1c-1.3-5.1-2.3-9.2-3.1-12.1
		c-0.3-1.4-0.6-2.5-0.8-3.3c-0.1-0.4-0.2-0.6-0.2-0.9C69.4,311.4,69.3,311.3,69.3,311.2z"/>
	<path class="st5" d="M95.4,423.8c0-0.1,0.1-0.2,0.1-0.2c0-0.2,0.1-0.4,0.2-0.7c0.1-0.6,0.3-1.5,0.6-2.7c0.5-2.3,1.1-5.7,1.8-9.9
		c1.5-8.4,3.2-20.1,4.2-33.1c0.5-6.5,0.8-12.7,0.9-18.3s0-10.7-0.1-15c0-2.1-0.2-4.1-0.3-5.8s-0.2-3.1-0.3-4.3s-0.2-2.1-0.3-2.7
		c0-0.3,0-0.5-0.1-0.7c0-0.1,0-0.2,0-0.2c0,0.1,0,0.2,0,0.2c0,0.2,0,0.4,0,0.7c0,0.7,0.1,1.6,0.2,2.7s0.2,2.6,0.2,4.3
		s0.2,3.6,0.2,5.7c0.1,4.3,0.1,9.3,0,15s-0.5,11.8-1,18.3c-1.1,13-2.7,24.6-4.1,33c-0.7,4.2-1.3,7.6-1.7,10c-0.2,1.1-0.3,2-0.5,2.7
		c0,0.3-0.1,0.5-0.1,0.7C95.3,423.6,95.3,423.7,95.4,423.8z"/>
	<path class="st5" d="M94.5,426.2c0.1-0.2,0.2-0.4,0.3-0.7l0.8-1.9l0.5-1.4c0.2-0.5,0.5-1,0.7-1.6s0.5-1.2,0.8-1.9s0.7-1.3,1-2
		l1.2-2.3l1.4-2.4c0.9-1.7,2.1-3.3,3.2-5.1c2.7-3.8,5.5-7.4,8.6-10.9c3.1-3.4,6.4-6.7,9.8-9.8c1.6-1.4,3.1-2.8,4.6-3.9l2.1-1.7
		l2-1.5c1.3-1,2.5-1.8,3.6-2.5s2-1.3,2.8-1.8l1.8-1.1c0.2-0.1,0.4-0.3,0.6-0.4c-0.2,0.1-0.4,0.2-0.6,0.3l-1.8,1
		c-0.8,0.4-1.7,1-2.8,1.7s-2.3,1.5-3.6,2.5l-2.1,1.5l-2.2,1.7c-1.5,1.1-3,2.5-4.7,3.9c-3.5,3.1-6.8,6.4-9.9,9.8
		c-3.1,3.5-5.9,7.2-8.6,11c-1.1,1.8-2.3,3.5-3.2,5.2l-1.4,2.4l-1.1,2.3c-0.3,0.7-0.7,1.4-1,2.1s-0.6,1.3-0.8,1.9s-0.5,1.1-0.7,1.7
		s-0.3,1-0.5,1.4c-0.3,0.8-0.5,1.5-0.7,2C94.6,425.8,94.5,426,94.5,426.2z"/>
	<path class="st5" d="M46.6,368.2c0,0.1,1.4,0.1,3.6,0.2c2.9,0.2,5.7,0.5,8.6,1c2.8,0.5,5.6,1.3,8.4,2.2c1.1,0.4,2.3,0.8,3.4,1.1
		c-0.3-0.2-0.5-0.3-0.8-0.5c-0.6-0.3-1.4-0.6-2.4-1c-2.7-1-5.5-1.8-8.4-2.3s-5.8-0.8-8.7-0.9c-1.1,0-2,0-2.6,0
		C47.2,368.1,46.9,368.2,46.6,368.2z"/>
	<path class="st5" d="M38,410.1c1.2-2.5,2.8-4.9,4.7-7.1c3.2-3.5,6.8-5,6.7-5.2c-0.8,0.2-1.6,0.6-2.3,1c-1.8,1-3.4,2.3-4.8,3.8
		c-1.4,1.5-2.5,3.2-3.4,5C38.5,408.4,38.2,409.2,38,410.1z"/>
	<path class="st5" d="M67.2,326.9c-0.1,0.1,2,2.2,4.3,5s3.9,5.3,4,5.2c-0.9-2-2.2-3.9-3.6-5.5C70.6,329.8,69,328.2,67.2,326.9z"/>
	<path class="st5" d="M74.1,315c-0.9,2.9-1.4,6-1.5,9c0.5-1.5,0.8-3,1-4.5C73.9,318.1,74.1,316.5,74.1,315z"/>
	<path class="st5" d="M95.3,352.2c0.9,2.4,2.1,4.7,3.3,7c1.1,2.3,2.4,4.6,3.8,6.7c-0.9-2.4-2.1-4.7-3.3-7
		C98,356.6,96.8,354.3,95.3,352.2z"/>
	<path class="st5" d="M108,339.6c-1.1,1.6-2,3.3-2.8,5.1c-0.9,1.7-1.7,3.5-2.3,5.3c1.1-1.6,2-3.3,2.8-5
		C106.6,343.2,107.4,341.4,108,339.6z"/>
	<path class="st5" d="M126.6,382.7c0,0.1,2.3-0.3,5.1-0.5s5.1-0.1,5.1-0.2c-1.7-0.4-3.4-0.5-5.1-0.3
		C129.9,381.8,128.2,382.1,126.6,382.7z"/>
	<path class="st5" d="M113.9,420.9l-6.3,33.2c-0.4,2.2-2.3,3.8-4.6,3.8H84.3c-2.3,0-4.2-1.6-4.6-3.9l-5.5-33.1H113.9z"/>
	<polygon class="st7" points="111.8,431.7 76.1,431.7 74.2,420.9 113.9,420.9 	"/>
	<polygon class="st0" points="111.8,431.7 111.1,435.6 76.7,435.6 76.1,431.7 	"/>
</g>
<g id="freepik--Character--inject-9">
	<path class="st5" d="M387.2,427.8l0.8,19.4c0,0-19.4,7.3-19.6,10.9l37.6-0.2v-30.2L387.2,427.8z"/>
	<path class="st1" d="M399.6,445.5c0.7,0.2,1.2,1,1.1,1.8c-0.2,0.8-1,1.2-1.7,1.1c-0.8-0.2-1.3-1-1.1-1.9c0.3-0.8,1.1-1.2,1.9-0.9"
		/>
	<path class="st7" d="M405.9,457.9l-0.1-3l-36,1.3c0,0-1.7,0.7-1.5,1.9L405.9,457.9z"/>
	<path class="st3" d="M387.4,447c0,0.2,0.9,0.3,1.8,0.8s1.4,1.4,1.6,1.3s-0.1-1.1-1.2-1.8S387.3,446.8,387.4,447z"/>
	<path class="st3" d="M383.4,448.6c0,0.2,0.8,0.5,1.4,1.3s0.8,1.6,1,1.6s0.3-1-0.5-2S383.4,448.5,383.4,448.6z"/>
	<path class="st3" d="M381.2,453.4c0.2,0,0.4-0.9-0.1-1.9s-1.3-1.4-1.4-1.2s0.5,0.7,0.8,1.5S381,453.4,381.2,453.4z"/>
	<path class="st3" d="M387.7,442.6c0.1,0.2,0.9-0.1,2,0s1.8,0.4,1.9,0.2s-0.7-0.8-1.9-0.9S387.6,442.4,387.7,442.6z"/>
	<path class="st5" d="M445,432.3l4.9,22.9l-1.4,19.2c-0.1,1.3,0.9,2.5,2.2,2.6c0.1,0,0.1,0,0.2,0l0,0c0.8,0,1.5-0.4,2-1
		c2.9-4,13.4-18.9,13-20.6c-0.5-1.9-3.5-24.5-3.5-24.5L445,432.3z"/>
	<path class="st7" d="M450.9,477.1l14.6-23.1l0.2,1c0.2,0.8,0,1.7-0.4,2.5c-1.1,2-4.4,7.4-12.4,18.7
		C452.4,476.7,451.7,477.1,450.9,477.1L450.9,477.1z"/>
	<g class="st8">
		<path class="st3" d="M459.4,447.4c-0.5,0.6-0.5,1.4,0,1.9s1.4,0.6,1.9,0.1c0.5-0.6,0.5-1.5,0-2.1c-0.6-0.5-1.5-0.4-2,0.2"/>
	</g>
	<path class="st3" d="M454.2,466c-0.7-0.6-1.5-1.1-2.4-1.4c-0.9-0.2-1.8-0.2-2.8,0c0,0,0.2-0.3,0.8-0.5c0.7-0.2,1.4-0.2,2.1,0
		s1.3,0.6,1.8,1.1S454.3,466,454.2,466z"/>
	<path class="st3" d="M453.2,469.4c-0.7-0.2-1.5-0.4-2.2-0.6c-0.8,0-1.5,0-2.3,0.1C450.1,467.9,452,468.1,453.2,469.4z"/>
	<path class="st3" d="M456.6,461.5c-2.1-1.1-4.5-1.6-6.9-1.3C452,459.2,454.7,459.7,456.6,461.5z"/>
	<path class="st3" d="M455.7,454.4c0,0.1-1.4-0.1-3.1,0.1s-2.9,0.9-3,0.8C451.3,453.9,453.6,453.6,455.7,454.4L455.7,454.4z"/>
	<path class="st3" d="M454.4,447.6c-1.1-0.2-2.1-0.2-3.2,0c-1,0.3-2,0.8-2.9,1.3c0,0,0.1-0.4,0.6-0.8c0.6-0.5,1.4-0.9,2.2-1.1
		c0.8-0.2,1.6-0.2,2.4,0C454.1,447.4,454.4,447.6,454.4,447.6z"/>
	<path class="st3" d="M451,446.4c-0.1-0.3-0.2-0.6-0.2-0.9c-0.1-0.8,0-1.6,0.3-2.4c0.1-0.6,0.5-1.1,0.9-1.5c0.3-0.2,0.8-0.2,1.1,0
		c0.3,0.2,0.5,0.6,0.6,1c0.2,1.6-0.8,3.1-2.3,3.6s-3.2-0.1-4.2-1.3c-0.2-0.3-0.4-0.7-0.3-1.1s0.5-0.6,0.9-0.7c0.6,0,1.2,0.2,1.7,0.5
		c0.7,0.4,1.4,0.9,1.9,1.5c0.2,0.2,0.4,0.5,0.5,0.7c-0.8-0.8-1.6-1.4-2.6-1.9c-0.5-0.2-1-0.4-1.5-0.4c-0.2,0-0.4,0.2-0.5,0.4
		c0,0.3,0.1,0.5,0.2,0.7c0.9,1,2.3,1.5,3.6,1.1c1.3-0.4,2.1-1.7,2-3.1c0-0.3-0.2-0.5-0.4-0.7c-0.2-0.1-0.4-0.1-0.6,0
		c-0.4,0.3-0.7,0.8-0.8,1.2C451.1,444.2,450.9,445.3,451,446.4z"/>
	<path class="st7" d="M373.3,270.4c0,0-0.2,10.2,0.5,23.4c0.3,5.1,11,146.9,11,146.9l23.2,0.6l-3.2-132.5l4,1
		c0,0,12.2,44.2,14.9,54.3c3.2,12,20.2,80.2,20.2,80.2l21.2,0.8l-13.9-79.9l-12-76.1l-2.4-22.1L373.3,270.4z"/>
	<path class="st5" d="M408.8,295.3c-0.3,0.2-0.6,0.4-1,0.5c-0.9,0.4-1.9,0.7-2.9,0.9c-0.7,0.1-1.4,0.1-2.1,0
		c-0.8-0.2-1.6-0.5-2.2-1.1c-0.6-0.7-1.1-1.5-1.3-2.4c-0.2-0.9-0.4-1.9-0.5-2.8c-0.6-3.8-1.1-7.3-1.3-9.9c-0.1-1.3-0.2-2.3-0.2-3
		c0-0.4,0-0.7,0-1.1c0.1,0.4,0.2,0.7,0.2,1.1c0.1,0.8,0.2,1.8,0.4,3c0.3,2.5,0.8,6,1.4,9.8c0.3,1.9,0.5,3.8,1.7,5
		c1.1,1,2.6,1.4,4,1.1c1-0.1,1.9-0.4,2.9-0.8C408.1,295.5,408.5,295.4,408.8,295.3z"/>
	<path class="st5" d="M402.3,277.2c0,0,0.1-0.1,0.5-0.1c0.5,0,0.9,0.2,1.3,0.5c0.6,0.4,0.9,1.1,0.9,1.8c-0.1,1.3-1.2,2.2-2.5,2.1
		c-0.6,0-1.1-0.3-1.5-0.7c-0.4-0.6-0.6-1.3-0.4-2c0.1-0.5,0.4-0.9,0.7-1.1c0.3-0.2,0.4-0.2,0.5-0.2c-0.4,0.4-0.7,0.9-0.9,1.4
		c-0.1,0.6,0,1.2,0.4,1.6c0.5,0.5,1.2,0.7,1.9,0.4c0.7-0.2,1.2-0.8,1.2-1.5c0-0.6-0.3-1.2-0.7-1.5
		C403.4,277.4,402.9,277.2,402.3,277.2z"/>
	<path class="st5" d="M438.8,287.6c-0.3,0.1-0.5,0.1-0.8,0.1c-0.7,0-1.5,0-2.2,0c-4.8-0.4-9.4-2.5-12.8-5.8c-0.5-0.5-1-1-1.5-1.6
		c-0.2-0.2-0.3-0.4-0.5-0.7c0.1,0,0.8,0.8,2.1,2c1.8,1.6,3.8,2.8,5.9,3.8c2.2,1,4.4,1.6,6.8,1.9
		C437.7,287.6,438.8,287.5,438.8,287.6z"/>
	<path class="st5" d="M382.7,277.1c-0.2,0.8-0.5,1.6-0.9,2.3c-0.8,1.7-1.8,3.4-3,4.9c-1.1,1.4-2.3,2.7-3.7,3.8
		c-0.5,0.5-1.1,0.8-1.7,1.1c0.5-0.5,1-1,1.6-1.4c1.3-1.2,2.5-2.4,3.6-3.8c1.1-1.5,2.1-3.1,3-4.7
		C382.2,277.9,382.6,277.1,382.7,277.1z"/>
	<path class="st9" d="M396,130.6c0.7-9.4,8.5-16.6,17.9-16.6h0.9c10,0.6,15.2,9.4,14.4,19.4l-2.2,31.2l-17.9,18.6l-4.6-11.1v-7.4
		c0,0-9.7-1.5-9.8-11.1C394.7,148.9,395.3,139.3,396,130.6z"/>
	<path class="st10" d="M404.5,164.7c4.5,0,8.9-1.3,12.6-3.7c0,0-3,7-12.6,6.1V164.7z"/>
	<path class="st5" d="M398.6,138.6c0,0.7,0.6,1.4,1.3,1.4c0.7,0.1,1.4-0.5,1.4-1.2l0,0c0-0.7-0.6-1.4-1.3-1.4
		C399.3,137.3,398.6,137.9,398.6,138.6L398.6,138.6z"/>
	<path class="st5" d="M398.1,135.3c0.2,0.2,1.2-0.6,2.7-0.6s2.6,0.7,2.7,0.6s-0.1-0.4-0.6-0.8c-0.6-0.4-1.4-0.7-2.2-0.7
		c-0.8,0-1.5,0.2-2.1,0.7C398.1,134.9,398,135.2,398.1,135.3z"/>
	<path class="st5" d="M412,139c0,0.7,0.6,1.4,1.3,1.4c0.7,0.1,1.4-0.5,1.4-1.2l0,0c0-0.7-0.6-1.4-1.3-1.4
		C412.7,137.7,412.1,138.2,412,139L412,139z"/>
	<path class="st5" d="M412.7,135.5c0.2,0.2,1.2-0.6,2.7-0.6s2.6,0.7,2.7,0.6s-0.1-0.4-0.6-0.8c-0.6-0.4-1.4-0.7-2.2-0.7
		c-0.8,0-1.5,0.2-2.1,0.7C412.8,135.1,412.6,135.5,412.7,135.5z"/>
	<path class="st5" d="M407.3,146.6c-0.8-0.2-1.6-0.4-2.4-0.4c-0.4,0-0.7-0.1-0.8-0.4c0-0.4,0.1-0.8,0.2-1.1l1.1-2.9
		c1.5-4.1,2.7-7.5,2.5-7.6s-1.5,3.2-3.1,7.3c-0.4,1-0.7,2-1.1,2.9c-0.2,0.5-0.3,1-0.2,1.5c0.1,0.3,0.3,0.5,0.6,0.6
		c0.2,0.1,0.4,0.1,0.6,0.1C405.7,146.7,406.5,146.7,407.3,146.6z"/>
	<path class="st5" d="M411.7,147.6c-0.2,0-0.2,1.6-1.6,2.7s-3.1,1-3.1,1.2s0.4,0.3,1.1,0.3c0.9,0,1.9-0.3,2.6-0.9
		c0.7-0.6,1.1-1.4,1.2-2.3C412,148,411.8,147.6,411.7,147.6z"/>
	<path class="st5" d="M412.3,129.7c0.1,0.4,1.6,0.2,3.4,0.4s3.1,0.7,3.4,0.3c0.1-0.2-0.1-0.6-0.7-0.9c-1.5-1-3.4-1.2-5.1-0.6
		C412.5,129.2,412.2,129.5,412.3,129.7z"/>
	<path class="st5" d="M398.6,131c0.3,0.3,1.3,0,2.5,0s2.3,0.2,2.5-0.1c0.1-0.2-0.1-0.5-0.5-0.8c-0.6-0.4-1.3-0.6-2-0.5
		c-0.7,0-1.4,0.2-2,0.7C398.6,130.5,398.5,130.8,398.6,131z"/>
	<path class="st5" d="M392.4,122.1c0.2-0.9,1-1.6,1.9-1.5c-0.5-0.1-0.9-0.3-1.3-0.6c-0.4-0.3-0.6-0.8-0.5-1.3
		c0.2-0.8,1.2-0.9,1.9-1.2c1-0.3,1.9-0.9,2.5-1.8c0.9-1.2,1.2-2.7,2-4c1.8-3,5.8-4,8.8-2.2c0.4,0.2,0.8,0.5,1.1,0.8
		c2.5-2.7,6.7-2.9,9.4-0.4c0.5,0.5,1,1.1,1.4,1.7c3.9-1.8,8.5,0,10.3,3.9c0.6,1.4,0.8,2.9,0.6,4.3l-5.9,3.8c-0.3-1.8-1.9-3-3.7-2.8
		c-0.1,0-0.2,0-0.3,0.1c-1.8,0.6-2.9,2.7-4.8,2.9c-1.5,0.2-2.8-0.9-4.2-1.3c-1.8-0.3-3.6,0.2-5.1,1.2c-1.4,1-3,1.9-4.7,2.5
		c-2.1,0.5-4.2,0.3-6.1-0.6c-0.9-0.3-1.6-0.7-2.3-1.3C392.7,124,392.3,123.1,392.4,122.1z"/>
	<path class="st5" d="M423.4,121l-27.5,0.6c0.9-1.9,2.3-3.5,4-4.7c3.6-2.8,7.9-4.3,12.5-4.5c4.5-0.1,13.6,5.4,16.9,8.5
		c2.6,2.5,2.6,4.6,2.6,4.6c0.4,3.6-1.6,7.6-2.4,11.1c-0.4,1.8-1.2,7.3-1.2,7.3l0,0c-1.5,0-2.1-1.2-1.9-2.7l0.3-5.9
		c-3.1-2.5-4.2-6.7-2.6-10.4C424.4,124.4,425.2,122,423.4,121z"/>
	<path class="st5" d="M427.1,134.9c1.3-4.9,2.4-10.2,0.8-15l0.8-0.1l0.4,0.2c2-0.7,4.2,0.3,5,2.3c0.4,1.2,0.3,2.5-0.5,3.5
		c1.7-0.1,3.2,1.1,3.4,2.8c0,1.1-0.2,2.3-0.8,3.2c-0.6,1-0.9,2.1-1,3.2c0,1.2,0.8,2.2,1.9,2.4c-0.5,1.2-1.8,1.9-3.1,1.6
		c0.4,0.9,1.1,1.8,2,2.3c-1.8,1.3-4.2,0.9-6.2,0c-1.2-0.5-2.2-1.3-2.8-2.5C426.6,137.7,426.6,136.2,427.1,134.9z"/>
	<path class="st9" d="M427.7,140.6c0.2-0.1,6.6-2,6.4,4.6s-6.8,5.1-6.8,4.9S427.7,140.6,427.7,140.6z"/>
	<path class="st10" d="M428.9,147.6c0,0,0.1,0.1,0.3,0.2c0.3,0.1,0.6,0.1,0.9,0c0.9-0.5,1.4-1.5,1.4-2.5c0-0.6-0.1-1.1-0.3-1.6
		c-0.1-0.4-0.4-0.8-0.8-0.9c-0.3-0.1-0.6,0-0.7,0.3c-0.1,0.2-0.1,0.3-0.1,0.3s-0.1-0.1-0.1-0.4c0-0.2,0.1-0.3,0.3-0.4
		c0.2-0.1,0.4-0.2,0.6-0.1c0.5,0.1,1,0.5,1.2,1.1c0.3,0.6,0.4,1.2,0.4,1.9c0,1.2-0.7,2.3-1.8,2.8c-0.3,0.1-0.7,0-1-0.2
		C428.9,147.8,428.9,147.6,428.9,147.6z"/>
	<path class="st7" d="M434.4,134.9c0,0,0.2-0.2,0.1-0.8c-0.2-0.7-0.6-1.3-1.3-1.7c-0.9-0.4-2-0.6-3-0.6c-1.2,0-2.3-0.5-3-1.4
		c-0.6-1-0.8-2.3-0.6-3.4c0.1-1.1,0.4-2.1,0.5-3c0.2-0.9,0.2-1.9-0.1-2.8c0,0.9-0.1,1.9-0.2,2.8c-0.2,0.8-0.5,1.8-0.6,3
		c-0.2,1.3,0,2.6,0.7,3.8c0.4,0.6,0.9,1,1.6,1.3c0.6,0.2,1.2,0.3,1.8,0.4c1,0,2,0.1,2.9,0.5c0.6,0.3,1,0.8,1.2,1.4
		C434.4,134.4,434.4,134.7,434.4,134.9z"/>
	<path class="st7" d="M435.9,132c0,0,0.1-0.2,0.2-0.6c0.1-1-0.4-2-1.2-2.6c-0.4-0.3-0.8-0.5-1.3-0.6c-0.4-0.1-0.9-0.2-1.3-0.5
		s-0.6-0.7-0.5-1.2c0-0.5,0-1,0-1.6c-0.1-1.4-0.5-2.7-1.2-3.8c-0.3-0.5-0.9-0.9-1.5-0.9c-0.4,0-0.6,0.2-0.6,0.2s0.2-0.1,0.6,0
		c0.5,0.1,1,0.4,1.2,0.9c0.4,0.7,0.7,1.4,0.9,2.2c0.1,0.5,0.2,0.9,0.2,1.4s0,1,0,1.6s0.3,1.2,0.7,1.6c0.4,0.3,0.9,0.4,1.5,0.5
		c0.8,0.1,1.5,0.5,1.9,1.2C435.8,130.6,436,131.3,435.9,132z"/>
	<path class="st7" d="M396.9,115.7c0,0,0.5,0.3,1.4-0.1c0.5-0.3,0.9-0.6,1.2-1.1c0.4-0.6,0.9-1,1.5-1.4c1.6-0.9,3.5-0.8,5,0.2
		c0.8,0.6,1.6,1.4,2.5,2c0.5,0.4,1.1,0.6,1.7,0.7s1.3,0,1.9-0.2c1.2-0.5,2.1-1.2,3.1-1.6s2-0.6,3.1-0.7c1.8,0,3.6,0.5,5,1.6
		c1,0.7,1.8,1.6,2.4,2.7c0.4,0.8,0.6,1.2,0.6,1.2s0-0.1-0.1-0.3c-0.1-0.3-0.2-0.6-0.4-0.9c-0.6-1.1-1.4-2.1-2.4-2.9
		c-1.5-1.2-3.4-1.8-5.3-1.8c-1.1,0-2.2,0.2-3.3,0.7c-1.1,0.4-2,1.2-3.1,1.6c-0.5,0.2-1.1,0.3-1.6,0.2c-0.5-0.1-1-0.3-1.5-0.6
		c-0.9-0.6-1.7-1.4-2.6-2c-0.8-0.6-1.9-0.9-2.9-0.9c-0.9,0-1.8,0.3-2.5,0.8c-0.6,0.4-1.1,0.9-1.5,1.5c-0.3,0.4-0.7,0.8-1.1,1.1
		C397.8,115.7,397.3,115.8,396.9,115.7z"/>
	<path class="st9" d="M358.2,203.2l-34.2-27l-4.9-5.1c0,0-11.6-10.9-12.6-12.1c-1.1-1.4-2.1-1.1-2.5-0.7c-0.8,0.7-0.5,2.1,0.4,3.4
		c0.3,0.4,5.7,6.8,5.7,6.8c-0.9-0.3-1.8-0.5-2.7-0.7c-2-0.4-4.8,0.8-7,2.7s-2.7,2.7-1.9,3.6c0.3,0.3,0.7,0.5,1.2,0.5
		c0.7,0,1.4-0.3,2-0.7c3.6-3.1,6.2-2,6.2-2l0.6,0.7c0,0-3.5,0.3-4.8,2.4c-0.2,0.3-0.3,0.6-0.3,1c-1.6,1.3-1.8,3.7-0.4,5.3
		c0.4,0.5,0.9,0.9,1.5,1.1c0.6,0.3,1.3,0.2,1.8-0.2c0.2-0.3,0.3-0.6,0.3-0.9c0-0.2,0.1-0.3,0.1-0.5l2,1.6c0,0,4.8,3.4,6.7,5.1
		l28.6,31.1c3.9,4.3,10.5,4.5,14.8,0.6l0.1-0.1l0,0c4.2-4,4.3-10.6,0.3-14.8C358.9,203.9,358.5,203.5,358.2,203.2z"/>
	<path class="st9" d="M322.6,176.7c-0.6,0.7-1.6,0.9-2.5,0.5c-0.9-0.3-1.6-0.9-2.4-1.2c-2.5-1.1-5.5,0-8-1.2
		c-0.4-0.2-0.7-0.5-0.6-0.8s0.5-0.5,0.8-0.5l8.8-1.7"/>
	<path class="st10" d="M318.7,171.7c-0.3,0-0.7,0-1,0.1c-0.6,0.1-1.5,0.2-2.6,0.4l-3.9,0.7l-1.1,0.2c-0.5,0-0.9,0.2-1.2,0.6
		c-0.2,0.3-0.2,0.6,0,0.9c0.1,0.2,0.3,0.4,0.6,0.5c0.4,0.2,0.8,0.3,1.2,0.4c1.6,0.2,3.2,0.3,4.8,0.3c0.7,0,1.4,0.2,2,0.4
		s1.1,0.5,1.6,0.8c0.8,0.5,1.8,0.6,2.6,0.3c0.6-0.3,0.8-0.7,0.7-0.7c-0.2,0.2-0.5,0.4-0.8,0.5c-0.8,0.2-1.7,0-2.4-0.5
		c-0.5-0.3-1.1-0.6-1.6-0.9c-0.7-0.3-1.4-0.5-2.1-0.5c-1.6,0-3.2-0.1-4.8-0.4c-0.4-0.1-0.8-0.2-1.1-0.4c-0.3-0.2-0.5-0.4-0.4-0.6
		s0.5-0.3,0.9-0.3l1.1-0.2l3.9-0.8c1.1-0.2,2-0.4,2.6-0.6C318.1,171.9,318.4,171.9,318.7,171.7z"/>
	<path class="st10" d="M308.6,172.6c-0.4-0.4-0.9-0.7-1.5-0.9s-1.2-0.1-1.8,0.1c-0.7,0.3-1.4,0.7-1.9,1.2c-0.6,0.5-1.2,1-1.9,1.4
		c-0.6,0.3-1.2,0.5-1.9,0.4c-0.5,0-0.9-0.3-1.1-0.6c-0.1-0.1-0.2-0.3-0.2-0.5c0,0,0.1,0.1,0.3,0.4c0.3,0.3,0.7,0.5,1.1,0.5
		c0.6,0,1.2-0.2,1.8-0.5c0.7-0.4,1.3-0.8,1.9-1.3s1.3-0.9,2-1.2c0.6-0.2,1.3-0.3,2-0.1c0.4,0.1,0.8,0.4,1.1,0.7
		C308.5,172.4,308.6,172.6,308.6,172.6z"/>
	<path class="st10" d="M304,161.2c0.4,0.4,0.8,0.8,1.1,1.3l2.5,3.1l2.6,3.1c0.4,0.4,0.7,0.8,1,1.3c-0.4-0.3-0.8-0.7-1.2-1.1
		c-0.7-0.8-1.6-1.8-2.6-3s-1.9-2.3-2.5-3.2C304.5,162.2,304.2,161.7,304,161.2z"/>
	<path class="st10" d="M308.4,175.2c-0.2,0.1-0.3,0.1-0.5,0.2c-0.4,0.1-0.8,0.4-1,0.8c-0.1,0.3-0.1,0.6,0.1,0.8
		c0.2,0.3,0.5,0.5,0.8,0.8c0.4,0.3,0.6,0.7,0.7,1.1c0,0.5-0.2,1-0.6,1.3s-0.9,0.5-1.4,0.4c-0.4,0-0.9-0.2-1.2-0.5
		c-0.5-0.5-1-1-1.3-1.7c-0.3-0.4-0.4-0.9-0.6-1.3c-0.1-0.3,0-0.5,0-0.5s0,0.2,0.1,0.5c0.1,0.4,0.4,0.9,0.6,1.2
		c0.4,0.6,0.8,1.1,1.3,1.6c0.6,0.5,1.5,0.5,2.2,0.1c0.3-0.2,0.5-0.6,0.5-1c-0.1-0.4-0.3-0.7-0.6-0.9c-0.3-0.3-0.6-0.5-0.8-0.9
		c-0.2-0.3-0.3-0.7-0.1-1.1c0.2-0.4,0.7-0.7,1.2-0.8C308,175.3,308.2,175.2,308.4,175.2z"/>
	<path class="st10" d="M306.4,180.3c0,0,0.2,0.1,0.3,0.4c0.1,0.4,0.1,0.9-0.2,1.3c-0.4,0.5-1.1,0.8-1.8,0.7c-0.8-0.1-1.5-0.5-2-1.2
		c-0.5-0.6-0.8-1.4-0.9-2.2c-0.1-1.1,0.4-2.2,1.1-2.9c0.2-0.2,0.4-0.3,0.4-0.3c-0.4,0.4-0.7,0.9-1,1.4c-0.5,1.2-0.3,2.7,0.5,3.7
		c0.5,0.6,1.1,1,1.8,1.1c0.6,0.1,1.2-0.1,1.5-0.6c0.2-0.3,0.3-0.7,0.3-1.1C306.5,180.5,306.4,180.3,306.4,180.3z"/>
	<path class="st10" d="M314.4,180.9c0,0,0.2-0.3,0.6-0.5c0.6-0.3,1.3-0.4,2-0.3l-0.2,0.2c-0.2-0.3-0.4-0.7-0.6-1
		c-0.7-1.1-1-2.5-0.9-3.8c0.3,1.2,0.7,2.5,1.2,3.6c0.2,0.3,0.4,0.7,0.5,0.9l0.2,0.3l-0.4-0.1c-0.6-0.1-1.3-0.1-1.9,0.2
		C314.6,180.8,314.4,181,314.4,180.9z"/>
	<path class="st10" d="M305.2,170.1c0.1,0,0.2,0.6-0.1,1.4s-1,1-1,0.9s0.4-0.4,0.7-1.1S305.1,170.1,305.2,170.1z"/>
	<path class="st6" d="M356.6,221.2l19.7-13.7c0,0-1.7,52.9-1.7,53.4c0,0-3.6,1.4-3,5.2l1,5.3c21.7,5,43.3,8.2,65.2,0.2l2.5-42.1
		L448,178l-17.6-7.5l-3-7l-18.3,19.7l-4.7-12.7l0.1-4.8l-4.4,4.8l-21.4,3.5L352,195.6l-8.7-7.1l-13.2,18.3l15,15.1
		C349,223,353,222.7,356.6,221.2z"/>
	<path class="st5" d="M406.4,180.8c-0.6,0.3-1,0.8-1.3,1.4c-0.3,0.7-0.4,1.4-0.4,2.2c0,1-0.1,2-0.4,3l-0.2,0.5l-0.2-0.5
		c-0.6-1.5-1.1-3-1.4-4.6c-0.8-3.2-1.2-6.2-1.6-8.4c-0.2-1.2-0.3-2.3-0.4-3.5c0.3,1.1,0.6,2.3,0.7,3.4c0.4,2.1,1,5.1,1.7,8.3
		c0.3,1.5,0.8,3,1.3,4.5h-0.4c0.3-0.9,0.5-1.8,0.5-2.8c0-0.8,0.2-1.6,0.5-2.3c0.2-0.5,0.6-0.9,1-1.1
		C406.2,180.8,406.4,180.8,406.4,180.8z"/>
	<path class="st5" d="M429.4,172.9c-0.2,0.3-0.4,0.6-0.6,0.9c-0.4,0.5-1,1.3-1.8,2.2c-1.5,1.9-3.7,4.4-6.1,7.3l-3.8,4.5l-0.3,0.3
		l-0.1-0.4c-0.5-2.2-1-4-1.3-5.3c-0.1-0.6-0.5-1-0.8-1c-0.2,0-0.3,0-0.5,0.1c0,0,0.1-0.3,0.5-0.3c0.2,0,0.5,0.1,0.7,0.3
		s0.4,0.5,0.4,0.8c0.4,1.3,0.9,3.1,1.5,5.3l-0.4-0.1l3.8-4.5c2.4-2.8,4.6-5.4,6.2-7.2c0.8-0.9,1.5-1.6,1.9-2.1
		C428.8,173.4,429.1,173.2,429.4,172.9z"/>
	<path class="st5" d="M403,255.7c0-0.2-0.1-0.5,0-0.7c0-0.5,0-1.1,0-1.9c0-1.7,0-4.1,0-7.1c0.1-6,0.4-14.2,1-23.3s1.6-17.3,2.5-23.2
		c0.4-3,0.8-5.4,1-7l0.3-1.9c0-0.2,0.1-0.4,0.1-0.7c0,0.2,0,0.4,0,0.7c-0.1,0.5-0.1,1.1-0.2,1.9c-0.2,1.7-0.5,4.1-0.9,7
		c-0.7,5.9-1.6,14.1-2.3,23.2s-1,17.3-1.2,23.3c-0.1,2.9-0.1,5.3-0.2,7.1c0,0.8,0,1.4-0.1,1.9C403.1,255.3,403,255.5,403,255.7z"/>
	<path class="st5" d="M398,267.9c-0.4-1.4-0.6-2.9-0.5-4.4c-0.1-1.5,0.1-3,0.5-4.4c0.1,1.5,0.1,3,0,4.5
		C397.9,265.9,398.1,267.9,398,267.9z"/>
	<path class="st5" d="M423.4,253.3c-0.5,0.2-1,0.4-1.6,0.6c-1,0.4-2.6,0.8-4.4,1.4c-4.9,1.4-9.9,2.6-14.9,3.5s-10.1,1.5-15.2,1.9
		c-2,0.1-3.5,0.2-4.6,0.2c-0.6,0-1.1,0-1.7,0c0.6-0.1,1.1-0.2,1.7-0.2l4.6-0.4c3.9-0.4,9.3-1,15.1-2s11.2-2.3,14.9-3.3l4.5-1.2
		C422.2,253.6,422.8,253.4,423.4,253.3z"/>
	<path class="st5" d="M376.3,219.6c-0.1,0-0.2-7.4-0.2-16.4s0.2-16.4,0.3-16.4s0.2,7.4,0.2,16.4S376.4,219.6,376.3,219.6z"/>
	<g class="st11">
		<path d="M410.8,184.9c1.1,0,2.1,0.7,2.4,1.8c0.2,1.1,0,2.2,0.3,3.3s1.2,2.1,2.3,1.9c0.6-0.2,1.2-0.6,1.5-1.2c2.1-2.8,3.8-6,5-9.3
			c0,0.1-5.5,6.4-5.5,6.4c-0.2-1.6-0.6-3.1-1.2-4.6c-0.2-0.5-0.4-1.3-0.9-1.5c-0.8-0.4-1.8,0.8-2.2,1.4
			C412,183.8,411.4,184.4,410.8,184.9"/>
	</g>
	<g class="st11">
		<path d="M401.8,179.2c0.1,3.5,0.8,7,2,10.3c0.1,0.3,0.3,0.6,0.5,0.9c0.3,0.3,0.7,0.3,1,0.1c0.4-0.7,0.7-1.4,1-2.1
			c0.5-1.4,2.6-1.6,2.6-1.6c-0.3-1.6-0.8-3.2-1.4-4.8c-0.2-0.5-0.7-0.9-1.3-0.8c-0.7,0.2-1.3,0.9-1.4,1.6c-0.3,2.6-0.3,3.7-0.6,4.6
			C403.2,184.8,402.4,181.5,401.8,179.2"/>
	</g>
	<g class="st11">
		<path d="M417.1,255c1-0.7,1.2-2.1,0.5-3.1l0,0c-0.8-0.9-2-1.4-3.1-1.2c-1.2,0.2-2.2,0.7-3.2,1.4s-1.8,1.5-2.8,2.1
			c-2.5,1.5-5.4,1.9-8.3,1.9c-2.9-0.1-5.8,0-8.6,0.4c-2.8,0.5-5.6,2-7,4.5C384.6,261,409.1,259.2,417.1,255z"/>
	</g>
	<path class="st6" d="M448,178c0,0,7.4,5.3,9.2,10.1s8.5,37.8,9.5,43.4c1.4,7.1,1.4,15.8-8.8,19.2c-3.8,1.2-27-0.7-27-0.7l0.8-16.5
		l12.5,0.5c0,0-0.8-1.1,1-2.4l-4-21.4c0,0,1.5-22.8,1.6-23.3S448,178,448,178z"/>
	<path class="st5" d="M448.4,178.6c-4.5,1.8-7.9,5.5-9.5,10c0.1-0.7,0.2-1.4,0.5-2c1.3-3.2,3.8-5.8,7-7.3
		C447,178.9,447.7,178.7,448.4,178.6z"/>
	<path class="st5" d="M452.5,237.3c-0.1,0-0.2-0.6-0.8-1.3c-0.7-1-1.5-1.8-2.5-2.5s-2.1-1.1-3.3-1.3c-0.9-0.1-1.5,0-1.5-0.1
		c0.5-0.2,1-0.3,1.5-0.2c1.3,0.1,2.5,0.5,3.6,1.2s2,1.6,2.6,2.7C452.3,236.3,452.5,236.8,452.5,237.3z"/>
	<path class="st5" d="M439,197.1c0.2,0.4,0.3,0.9,0.3,1.3c0.2,1,0.5,2.2,0.8,3.6c0.6,3.1,1.4,7.4,2.3,12.1s1.6,9,2.2,12.1
		c0.2,1.5,0.4,2.7,0.6,3.7c0.1,0.4,0.1,0.9,0.1,1.4c-0.2-0.4-0.3-0.9-0.4-1.3c-0.2-1-0.5-2.2-0.8-3.6c-0.6-3.1-1.4-7.4-2.3-12.1
		s-1.6-9-2.2-12.1c-0.2-1.5-0.4-2.7-0.6-3.7C439.1,198,439,197.5,439,197.1z"/>
	<path class="st5" d="M431,250c0-0.4,0-0.9,0-1.3c0-0.9,0-2.1,0.1-3.5c0.1-3,0.2-7.1,0.5-11.7v-0.2h0.3l2.1,0.1l10.5,0.4h0.1v0.1
		c1.6,1.3,2.7,2.9,3.4,4.8c0.2,0.5,0.3,1.1,0.4,1.6c0,0.2,0.1,0.4,0,0.6c-0.1,0-0.2-0.8-0.7-2.1c-0.7-1.8-1.9-3.4-3.5-4.6l0.1,0.1
		l-10.5-0.4l-2.1-0.1l0.3-0.2c-0.2,4.6-0.4,8.8-0.6,11.7c-0.1,1.4-0.2,2.6-0.2,3.5C431.2,249.2,431.1,249.6,431,250z"/>
	<path class="st7" d="M412.7,230.1l-9.7-19.8c-0.7-1.3-2-2.2-3.5-2.2h-24.4c-0.7,0-1.2,0.5-1.2,1.2c0,0.2,0,0.4,0.1,0.6l16.5,30.8
		c0.5,0.9,1.4,1.4,2.4,1.4h25.3L412.7,230.1z"/>
	<path class="st5" d="M374.2,210h0.5h1.4h5.1l16.9-0.1c0.8,0,1.6,0.2,2.2,0.5c0.6,0.4,1.2,1,1.5,1.7c0.7,1.4,1.3,2.8,1.9,4l3.2,6.9
		l2.2,4.6c0.2,0.5,0.5,0.9,0.6,1.2c0.1,0.1,0.1,0.3,0.2,0.4c0-0.2-0.1-0.3-0.2-0.5c-0.1-0.3-0.3-0.8-0.5-1.3
		c-0.5-1.2-1.2-2.8-2.1-4.7s-2-4.3-3.1-6.9c-0.6-1.3-1.2-2.7-1.9-4.1c-0.4-0.7-1-1.4-1.7-1.8c-0.8-0.4-1.6-0.6-2.5-0.6
		c-6.6,0-12.6,0.2-17,0.3l-5.1,0.1l-1.4,0.1C374.5,209.9,374.3,209.9,374.2,210z"/>
	<path class="st3" d="M389.2,214.3c-0.4,0.2-0.6,0.6-0.5,1c0,0.1,0.1,0.1,0.1,0.2c0.3,0.4,0.8,0.6,1.3,0.5c0.3-0.1,0.6-0.3,0.7-0.6
		c0-0.5-0.3-1-0.7-1.1C389.8,214.2,389.5,214.2,389.2,214.3z"/>
	<path class="st9" d="M431.5,234.2l-6.1-0.6c0,0-2.8-3.1-3.8-4.1s-7.3-4-7.3-4s-3.2-3.4-3.6-3.4s-1.7,0.5-1.2,2.1
		c0.5,1.7,1.3,3.3,2.1,4.8l-12.2,1.7c-0.8,0.1-1.5,0.5-1.9,1.2c-0.3,0.4-0.4,0.9,0.3,1.1c2.2,0.5,4.4,0.9,6.7,1.1l-2.4-0.3
		c0,0-0.2,2.3,1.4,3.2c0.6,0.3,1.2,0.6,1.7,1.1c0.1,1,0.5,2,1.1,2.9c0.7,0.8,8.1,3.5,8.1,3.5s4.6,0.8,6.8,0.4l9.9,1.5L431.5,234.2z"
		/>
	<path class="st10" d="M410.5,229.4c1.2,0.1,2.3,0.1,3.5,0c1.2,0.1,2.3,0,3.5-0.2c-1.2-0.2-2.3-0.3-3.5-0.2
		C412.8,228.9,411.6,229,410.5,229.4z"/>
	<path class="st10" d="M412.8,234.6c-1.7-0.4-3.4-0.5-5.1-0.5c-1.4,0-2.7,0-3.6,0c-0.5,0-1,0-1.5,0.1c0.5,0.2,1,0.3,1.5,0.2
		c0.9,0.1,2.2,0.1,3.6,0.1C410.5,234.6,412.8,234.7,412.8,234.6z"/>
	<path class="st10" d="M413.2,238.6c0-0.1-1.8,0-4-0.1s-4-0.4-4-0.3c1.3,0.5,2.6,0.7,4,0.8S412,239,413.2,238.6z"/>
	<path class="st10" d="M413,243.2c0.1,0,0.2-0.5,0.3-1.1s0-1.1-0.2-1.1s-0.2,0.5-0.3,1.1S412.9,243.2,413,243.2z"/>
	<path class="st10" d="M413.5,237.7c0.1,0,0.1-0.4,0.3-0.9s0.4-0.8,0.3-0.9s-0.5,0.2-0.7,0.7S413.4,237.7,413.5,237.7z"/>
	<path class="st10" d="M414.2,232.1c0.1,0,0.2-0.3,0.3-0.6s0.2-0.6,0.1-0.7s-0.4,0.1-0.5,0.5S414.1,232.2,414.2,232.1z"/>
</g>
<g>
	<path class="st5" d="M115.5,145.5l3.6-9.9h2.6l3.5,9.9h-2.4l-0.7-2.1h-3.6l-0.7,2.1H115.5z M119,141.7h2.6l-1.1-3.4
		c0-0.1-0.1-0.3-0.1-0.4s0-0.2-0.1-0.4h-0.1c0,0.1,0,0.3-0.1,0.4c0,0.1-0.1,0.2-0.1,0.3L119,141.7z"/>
	<path class="st5" d="M131,144.6c-0.2,0.4-0.6,0.7-0.9,0.9c-0.4,0.2-0.8,0.3-1.3,0.3c-0.9,0-1.6-0.3-2.1-0.9
		c-0.5-0.6-0.8-1.5-0.8-2.6c0-1.2,0.3-2.1,0.9-2.8s1.4-1.1,2.3-1.1c0.5,0,0.8,0.1,1.2,0.2c0.3,0.2,0.6,0.4,0.7,0.7l0,0v-4.2h2.2
		v10.5H131V144.6L131,144.6z M128.1,142.1c0,0.6,0.1,1.1,0.4,1.4c0.3,0.3,0.6,0.5,1.1,0.5c0.4,0,0.8-0.2,1.1-0.5
		c0.3-0.4,0.4-0.8,0.4-1.4v-0.5c0-0.5-0.1-0.8-0.4-1.1s-0.6-0.5-1-0.5c-0.5,0-0.9,0.2-1.1,0.6C128.2,140.9,128.1,141.4,128.1,142.1z
		"/>
	<path class="st5" d="M139.8,144.6c-0.2,0.4-0.6,0.7-0.9,0.9c-0.4,0.2-0.8,0.3-1.3,0.3c-0.9,0-1.6-0.3-2.1-0.9
		c-0.5-0.6-0.8-1.5-0.8-2.6c0-1.2,0.3-2.1,0.9-2.8c0.6-0.7,1.4-1.1,2.3-1.1c0.5,0,0.8,0.1,1.2,0.2c0.3,0.2,0.6,0.4,0.7,0.7l0,0v-4.2
		h2.2v10.5h-2.2L139.8,144.6L139.8,144.6z M136.8,142.1c0,0.6,0.1,1.1,0.4,1.4c0.3,0.3,0.6,0.5,1.1,0.5c0.4,0,0.8-0.2,1.1-0.5
		c0.3-0.4,0.4-0.8,0.4-1.4v-0.5c0-0.5-0.1-0.8-0.4-1.1s-0.6-0.5-1-0.5c-0.5,0-0.9,0.2-1.1,0.6C137,140.9,136.8,141.4,136.8,142.1z"
		/>
	<path class="st5" d="M154.5,145.5h-2.2v-3.9c0-0.5-0.1-1-0.3-1.2c-0.2-0.3-0.5-0.4-0.9-0.4s-0.7,0.1-0.9,0.4
		c-0.2,0.3-0.4,0.7-0.4,1.1v4h-2.2v-7.1h2.2v1.1l0,0c0.3-0.4,0.6-0.8,1-1s0.8-0.3,1.3-0.3c0.8,0,1.4,0.2,1.8,0.7
		c0.4,0.5,0.6,1.2,0.6,2.2L154.5,145.5L154.5,145.5z"/>
	<path class="st5" d="M162.6,142.6H158c0,0.5,0.2,0.9,0.5,1.1c0.3,0.2,0.7,0.4,1.3,0.4c0.2,0,0.5-0.1,0.8-0.2c0.4-0.1,0.7-0.3,1-0.6
		l1,1.2c-0.5,0.4-1,0.7-1.5,0.8s-1.1,0.3-1.7,0.3c-1.1,0-2-0.3-2.7-1c-0.6-0.6-0.9-1.5-0.9-2.7c0-1.1,0.3-2,1-2.8s1.5-1.1,2.5-1.1
		s1.8,0.3,2.4,0.9c0.6,0.6,0.9,1.5,0.9,2.6V142.6z M160.6,141.3c0-0.5-0.1-0.9-0.3-1.2c-0.2-0.2-0.5-0.3-0.9-0.3s-0.7,0.1-0.9,0.4
		c-0.3,0.3-0.4,0.6-0.5,1.1H160.6z"/>
	<path class="st5" d="M174.2,138.5l-2,7.1h-2.3l-1-4.1c0-0.1-0.1-0.3-0.1-0.4s0-0.3,0-0.5l0,0c0,0.2,0,0.3-0.1,0.5s-0.1,0.3-0.1,0.4
		l-1.1,4.2h-2.3l-2-7.1h2.2l1,4.6c0,0.1,0,0.2,0.1,0.4c0,0.1,0,0.3,0,0.4l0,0c0-0.2,0-0.3,0.1-0.4c0-0.1,0-0.3,0.1-0.4l1.2-4.6h2.1
		l1.1,4.6c0,0.1,0,0.2,0,0.3s0,0.3,0.1,0.5l0,0c0-0.1,0-0.3,0-0.4c0-0.1,0-0.3,0.1-0.4l0.9-4.6h2V138.5z"/>
	<path class="st5" d="M184.8,145.1c-0.4,0.2-0.7,0.4-1.1,0.5c-0.4,0.1-0.8,0.1-1.2,0.1c-1.2,0-2.1-0.3-2.8-1s-1-1.5-1-2.5
		c0-1.2,0.4-2.2,1.1-2.8c0.7-0.7,1.7-1,2.8-1c0.4,0,0.8,0,1.2,0.1c0.3,0.1,0.7,0.2,1,0.4l-0.8,1.5c-0.2-0.1-0.4-0.2-0.6-0.3
		c-0.2-0.1-0.4-0.1-0.7-0.1c-0.6,0-1,0.2-1.3,0.5c-0.3,0.4-0.5,0.9-0.5,1.5s0.2,1.1,0.5,1.5s0.8,0.5,1.3,0.5c0.1,0,0.3,0,0.5-0.1
		s0.5-0.2,0.7-0.3L184.8,145.1z"/>
	<path class="st5" d="M189.3,145.7c-1.2,0-2.1-0.3-2.8-1s-1-1.6-1-2.7c0-1.2,0.4-2.1,1.1-2.7c0.7-0.7,1.6-1,2.8-1s2.1,0.3,2.8,1
		s1,1.5,1,2.6c0,1.2-0.3,2.1-1,2.8C191.4,145.4,190.5,145.7,189.3,145.7z M189.3,144c0.5,0,0.9-0.2,1.2-0.5s0.4-0.9,0.4-1.6
		c0-0.7-0.1-1.2-0.4-1.5s-0.7-0.5-1.2-0.5s-0.9,0.2-1.2,0.5s-0.4,0.9-0.4,1.5c0,0.7,0.1,1.2,0.4,1.5
		C188.4,143.9,188.8,144,189.3,144z"/>
	<path class="st5" d="M201.3,145.5h-2.2v-1.1l0,0c-0.3,0.4-0.6,0.7-0.9,0.9s-0.8,0.3-1.2,0.3c-0.8,0-1.4-0.2-1.8-0.7
		c-0.4-0.5-0.6-1.2-0.6-2.2v-4.3h2.2v4.1c0,0.5,0.1,0.9,0.3,1.1c0.2,0.3,0.5,0.4,0.9,0.4s0.7-0.1,0.9-0.4s0.4-0.6,0.4-1.1v-4h2.2v7
		H201.3z"/>
	<path class="st5" d="M207.6,140.3c-0.1,0-0.2,0-0.3,0s-0.2,0-0.3,0c-0.6,0-1,0.2-1.3,0.5s-0.4,0.8-0.4,1.4v3.4h-2.2v-7.1h2.2v1.3
		l0,0c0.2-0.5,0.4-0.8,0.7-1.1c0.3-0.2,0.7-0.4,1.1-0.4c0.1,0,0.2,0,0.3,0s0.2,0,0.3,0.1L207.6,140.3z"/>
	<path class="st5" d="M208,144.9l0.9-1.5c0.2,0.2,0.5,0.3,0.9,0.5c0.3,0.1,0.7,0.2,1.1,0.2c0.3,0,0.5-0.1,0.7-0.2s0.3-0.3,0.3-0.5
		s-0.1-0.3-0.2-0.4c-0.1-0.1-0.4-0.2-0.8-0.3c-0.9-0.2-1.5-0.4-1.9-0.8c-0.4-0.3-0.6-0.8-0.6-1.4c0-0.7,0.3-1.3,0.9-1.7
		c0.6-0.4,1.3-0.6,2.1-0.6c0.4,0,0.8,0.1,1.2,0.2s0.8,0.3,1.1,0.5l-0.8,1.4c-0.3-0.2-0.5-0.3-0.8-0.4c-0.3-0.1-0.5-0.1-0.8-0.1
		s-0.5,0.1-0.7,0.2c-0.2,0.1-0.3,0.2-0.3,0.4s0.1,0.3,0.3,0.4c0.2,0.1,0.5,0.2,1,0.3c0.8,0.2,1.4,0.4,1.8,0.8
		c0.3,0.4,0.5,0.8,0.5,1.4c0,0.7-0.3,1.3-0.8,1.8c-0.5,0.4-1.3,0.7-2.2,0.7c-0.5,0-1-0.1-1.4-0.2C208.9,145.4,208.5,145.2,208,144.9
		z"/>
	<path class="st5" d="M221.3,142.6h-4.6c0,0.5,0.2,0.9,0.5,1.1c0.3,0.2,0.7,0.4,1.3,0.4c0.2,0,0.5-0.1,0.8-0.2
		c0.4-0.1,0.7-0.3,1-0.6l1,1.2c-0.5,0.4-1,0.7-1.5,0.8s-1.1,0.3-1.7,0.3c-1.1,0-2-0.3-2.7-1s-0.9-1.5-0.9-2.7c0-1.1,0.3-2,1-2.8
		c0.7-0.7,1.5-1.1,2.5-1.1s1.8,0.3,2.4,0.9c0.6,0.6,0.9,1.5,0.9,2.6V142.6z M219.3,141.3c0-0.5-0.1-0.9-0.3-1.2
		c-0.2-0.2-0.5-0.3-0.9-0.3c-0.3,0-0.7,0.1-0.9,0.4c-0.3,0.3-0.4,0.6-0.5,1.1H219.3z"/>
</g>
<g>
	<g>
		<path class="st3" d="M288.5,146h-1.9v1.9h-0.8V146H284v-0.8h1.9v-1.9h0.8v1.9h1.9L288.5,146L288.5,146z"/>
		<path class="st3" d="M289.7,148.4l2.5-6.7h1.3l2.5,6.7h-1.2l-0.6-1.6h-2.7l-0.6,1.6H289.7z M291.7,145.8h2.1l-0.9-2.7
			c0-0.1,0-0.1-0.1-0.2s0-0.2,0-0.3l0,0c0,0.1,0,0.2,0,0.2c0,0.1,0,0.1-0.1,0.2L291.7,145.8z"/>
		<path class="st3" d="M300,147.6c-0.2,0.3-0.4,0.5-0.7,0.6c-0.3,0.1-0.6,0.2-0.9,0.2c-0.6,0-1.1-0.2-1.4-0.6
			c-0.4-0.4-0.5-1-0.5-1.8s0.2-1.4,0.6-1.9s0.9-0.7,1.6-0.7c0.3,0,0.6,0.1,0.8,0.2c0.2,0.1,0.4,0.3,0.5,0.5l0,0v-2.9h1.1v7.1H300
			V147.6L300,147.6z M297.5,146.1c0,0.5,0.1,0.9,0.3,1.2s0.5,0.4,0.9,0.4s0.7-0.1,0.9-0.4c0.2-0.3,0.3-0.6,0.3-1.1v-0.5
			c0-0.4-0.1-0.7-0.3-0.9s-0.5-0.4-0.9-0.4s-0.7,0.2-1,0.5C297.7,145.1,297.5,145.5,297.5,146.1z"/>
		<path class="st3" d="M305.8,147.6c-0.2,0.3-0.4,0.5-0.7,0.6c-0.3,0.1-0.6,0.2-0.9,0.2c-0.6,0-1.1-0.2-1.4-0.6
			c-0.4-0.4-0.5-1-0.5-1.8s0.2-1.4,0.6-1.9s0.9-0.7,1.6-0.7c0.3,0,0.6,0.1,0.8,0.2c0.2,0.1,0.4,0.3,0.5,0.5l0,0v-2.9h1.1v7.1h-1.1
			V147.6L305.8,147.6z M303.3,146.1c0,0.5,0.1,0.9,0.3,1.2s0.5,0.4,0.9,0.4s0.7-0.1,0.9-0.4c0.2-0.3,0.3-0.6,0.3-1.1v-0.5
			c0-0.4-0.1-0.7-0.3-0.9s-0.5-0.4-0.9-0.4s-0.7,0.2-1,0.5C303.4,145.1,303.3,145.5,303.3,146.1z"/>
		<path class="st3" d="M314.5,148.1c-0.2,0.1-0.5,0.2-0.7,0.3s-0.5,0.1-0.8,0.1c-0.7,0-1.3-0.2-1.8-0.6c-0.4-0.4-0.7-1-0.7-1.8
			s0.2-1.4,0.7-1.9s1.1-0.7,1.9-0.7c0.3,0,0.5,0,0.7,0.1s0.5,0.2,0.7,0.3l-0.4,0.8c-0.2-0.1-0.3-0.2-0.5-0.2s-0.3-0.1-0.5-0.1
			c-0.5,0-0.8,0.2-1.1,0.5s-0.4,0.7-0.4,1.2s0.1,0.9,0.4,1.2s0.6,0.4,1,0.4c0.1,0,0.3,0,0.4-0.1c0.2,0,0.3-0.1,0.5-0.2L314.5,148.1z
			"/>
		<path class="st3" d="M317.6,148.5c-0.8,0-1.3-0.2-1.8-0.7c-0.4-0.4-0.7-1-0.7-1.8s0.2-1.4,0.7-1.9s1.1-0.7,1.9-0.7
			s1.3,0.2,1.8,0.7c0.4,0.4,0.6,1,0.6,1.8s-0.2,1.4-0.7,1.9C319,148.3,318.4,148.5,317.6,148.5z M317.6,147.6c0.4,0,0.8-0.1,1-0.4
			s0.3-0.7,0.3-1.2s-0.1-0.9-0.3-1.2c-0.2-0.3-0.6-0.4-1-0.4s-0.8,0.1-1,0.4s-0.4,0.7-0.4,1.2s0.1,0.9,0.4,1.2
			C316.9,147.5,317.2,147.6,317.6,147.6z"/>
		<path class="st3" d="M325.4,148.4h-1.1v-0.7l0,0c-0.2,0.3-0.4,0.5-0.6,0.6s-0.5,0.2-0.9,0.2c-0.6,0-1-0.2-1.3-0.5
			s-0.4-0.8-0.4-1.5v-2.9h1.1v2.8c0,0.4,0.1,0.8,0.3,1s0.4,0.3,0.8,0.3c0.3,0,0.6-0.1,0.8-0.4c0.2-0.2,0.3-0.5,0.3-0.9v-2.8h1.1
			L325.4,148.4L325.4,148.4z"/>
		<path class="st3" d="M329.5,144.5c-0.1,0-0.1,0-0.2,0s-0.1,0-0.2,0c-0.4,0-0.7,0.1-0.9,0.4c-0.2,0.3-0.3,0.7-0.3,1.1v2.4h-1.1
			v-4.8h1.1v0.9l0,0c0.1-0.3,0.3-0.6,0.5-0.8s0.5-0.3,0.8-0.3c0.1,0,0.2,0,0.2,0s0.1,0,0.2,0L329.5,144.5z"/>
		<path class="st3" d="M329.9,148l0.5-0.8c0.2,0.1,0.4,0.2,0.6,0.3s0.4,0.1,0.7,0.1c0.3,0,0.5,0,0.6-0.1s0.2-0.2,0.2-0.4
			s-0.1-0.3-0.2-0.4c-0.1-0.1-0.3-0.2-0.6-0.3c-0.6-0.1-1-0.3-1.3-0.6s-0.4-0.5-0.4-0.9s0.2-0.8,0.5-1.1s0.8-0.4,1.3-0.4
			c0.3,0,0.5,0,0.8,0.1s0.5,0.2,0.7,0.3l-0.4,0.8c-0.2-0.1-0.4-0.2-0.6-0.3s-0.3-0.1-0.5-0.1c-0.3,0-0.5,0-0.6,0.1s-0.2,0.2-0.2,0.4
			s0.1,0.3,0.2,0.4c0.1,0.1,0.4,0.2,0.7,0.3c0.5,0.1,0.9,0.3,1.1,0.5s0.4,0.6,0.4,0.9c0,0.5-0.2,0.8-0.5,1.1s-0.8,0.4-1.4,0.4
			c-0.3,0-0.6,0-0.9-0.1C330.4,148.3,330.1,148.2,329.9,148z"/>
		<path class="st3" d="M338.6,146.3h-3.3c0,0.5,0.1,0.8,0.4,1c0.2,0.2,0.6,0.4,1,0.4c0.2,0,0.4,0,0.6-0.1s0.5-0.2,0.7-0.3l0.5,0.7
			c-0.3,0.2-0.6,0.4-0.9,0.5s-0.6,0.1-1,0.1c-0.7,0-1.3-0.2-1.7-0.6c-0.4-0.4-0.6-1-0.6-1.8s0.2-1.4,0.6-1.9s1-0.7,1.7-0.7
			c0.6,0,1.2,0.2,1.5,0.6s0.6,1,0.6,1.7v0.4H338.6z M337.5,145.5c0-0.4-0.1-0.7-0.3-0.9c-0.2-0.2-0.4-0.3-0.8-0.3
			c-0.3,0-0.6,0.1-0.8,0.3c-0.2,0.2-0.4,0.5-0.4,0.9H337.5z"/>
	</g>
</g>
</svg>
