<?xml version="1.0" encoding="UTF-8"?>
<svg id="Layer_2" data-name="Layer 2" xmlns="http://www.w3.org/2000/svg" viewBox="0 0 742 742">
  <defs>
    <style>
      .cls-1 {
        fill: #e6aa68;
      }
    </style>
  </defs>
  <g id="Layer_1-2" data-name="Layer 1">
    <path class="cls-1" d="m371,0C166.1,0,0,166.1,0,371s166.1,371,371,371,371-166.1,371-371S575.9,0,371,0Zm-173.86,102.19c56.61-18.01,113.23-36.04,169.87-53.95,2.1-.67,4.76-.94,6.79-.29,58.93,18.6,117.81,37.36,176.69,56.1.86.29,1.67.78,2.55,2.56-5.84,1.08-11.68,2.23-17.53,3.23-13.48,2.32-26.92,4.92-40.46,6.68-4.38.57-8.94-.24-13.44-.76-.45-.13-.89-.22-1.37-.29-10.21-1.4-72.99-8.7-83.19-10.2-25.28-3.66-50.24-.38-75.25,2.88-23.39,3.04-46.77,6.19-70.24,8.59-5.92.6-12.14-1.35-18.18-2.34-13.28-2.2-26.57-4.5-39.84-6.81-1.53-.25-3.01-.76-4.5-1.16-.02-.49-.05-.97-.08-1.46,2.72-.92,5.44-1.91,8.19-2.78Zm177.33,255.3c-40.86,2.16-78.21-26.76-87.41-67.78-.88-3.87-1.32-7.83-1.75-11.76-.86-7.91-4.55-12.51-12.44-13.63-5.55-.8-7.41-3.56-7.29-8.75.16-6.54.03-13.08.03-20.6,13.27.92,24.95-.45,33.38-11.38,8.1-10.48,4.5-22.83,5.92-34.68h132.5c0,5.08-.02,10.15.02,15.23.11,19.44,11.65,30.88,31.21,30.98h7.62c0,8.03.4,15.54-.25,22.96-.19,2.1-3.15,5.08-5.38,5.7-10.42,2.86-12.93,5.38-14.1,16.13-4.61,42.94-38.84,75.3-82.06,77.59Zm35.51,55.88c-.32,1.21-2.37,2.55-3.79,2.8-23.45,4.22-46.92,4.22-70.37,0-1.43-.25-3.5-1.54-3.82-2.74-4.1-15.38-6-31.04-5.22-47.92,29.89,13.14,58.93,12.87,88.36.13.83,16.74-1.13,32.36-5.17,47.73Zm-143.89-196.18v-28.37h20.4c0,6.7.43,13.19-.13,19.6-.49,5.39-4.45,8.23-9.74,8.72-3.31.3-6.68.05-10.53.05Zm189.23-28.34h20.51v28.35c-3.45,0-6.95.21-10.44-.05-5.93-.45-9.78-4.41-10.02-10.44-.22-5.71-.05-11.45-.05-17.87Zm-196.76-18.46v-36.31c11.5-1.45,23.02-2.96,34.56-4.34,22.24-2.67,44.45-6.73,66.76-7.48,19.87-.65,39.87,2.42,59.82,3.85,1.58.11,31.26,3.8,47.94,5.81.18.05.37.08.56.11,4.87.91,9.8,1.35,15.15,2.07v36.29h-224.77Zm50.56,216.71c3.48,32.85,13.79,62.6,31.17,90.45-29.37-17.44-58.74-34.87-88.86-52.76,19.33-12.63,38.02-24.84,57.69-37.69Zm30.52,49.16h62.57c-7.05,18.96-19.76,35.21-31.2,53.65-11.53-18.3-24.04-34.67-31.37-53.65Zm93.04-49.29c19.63,12.82,38.45,25.12,57.86,37.8-30.12,17.91-59.47,35.37-88.84,52.8,17.04-27.68,27.86-57.39,30.98-90.61Zm-223.5-199.29v15.83h-19.3v-15.83h19.3Zm-13.68-6.79v-64.13h8.06v64.13h-8.06Zm-17.98,102.56c3.5-20.06,7-40.14,10.52-60.2.06-.35.38-.65.72-1.19h22.13c2.32,13.41,4.63,26.63,6.9,39.85,1.15,6.63,2.2,13.28,3.45,19.89.75,3.88.06,5.9-4.6,5.81-11.49-.25-22.97-.11-34.46-.06-2.85,0-5.36-.14-4.66-4.09Zm416.78,318.04c-.06,10.2-7.49,18.6-17.07,19.11-13.79.73-27.67.19-41.87.19-.11-1.89-.27-3.42-.27-4.95-.03-10.91.13-21.84-.11-32.74-.13-5.85-4.26-9.75-9.28-9.55-4.88.21-8.21,3.96-8.45,9.64-.1,2.18-.03,4.36-.03,6.55-.02,10.25,0,20.51,0,30.77H224.71v-7.51c-.02-10.12.1-20.25-.08-30.37-.1-5.25-3.68-8.85-8.37-9.08-4.58-.22-8.59,3.26-9.26,8.3-.29,2.15-.14,4.36-.14,6.54-.02,10.66,0,21.32,0,32.58-13.06,0-25.5.06-37.96-.02-12.92-.1-21.06-8.18-21.4-21.22-.13-4.42.02-8.83-.05-13.25v-.29c.08-19.82-.06-63.35.05-70.21.49-33.97,20.24-61.05,52.04-71.2,9.24-2.96,18.66-5.38,27.89-8.37,4.09-1.34,7.32-.92,11.1,1.34,40.98,24.56,82.17,48.78,123.08,73.47,6.94,4.18,12.28,3.93,19.08-.16,41.25-24.85,82.71-49.4,124.22-73.87,2.07-1.22,5.28-1.65,7.6-1.07,10.17,2.61,20.25,5.57,30.28,8.7,28.41,8.86,49.5,33.62,50.9,63.21,1.46,31.09.81,62.29.62,93.44Z"/>
  </g>
</svg>