<?xml version="1.0" encoding="utf-8"?>
<!-- Generator: Adobe Illustrator 27.3.1, SVG Export Plug-In . SVG Version: 6.00 Build 0)  -->
<svg version="1.1" id="Layer_2_00000026855630797734771050000011529852271176249763_"
	 xmlns="http://www.w3.org/2000/svg" xmlns:xlink="http://www.w3.org/1999/xlink" x="0px" y="0px" viewBox="0 0 124.7 131.2"
	 style="enable-background:new 0 0 124.7 131.2;" xml:space="preserve">
<style type="text/css">
	.st0{fill:#E6AA68;}
	.st1{opacity:0.6;}
	.st2{fill:#FFFFFF;}
	.st3{fill:#FCA89E;}
	.st4{fill:#F7958D;}
	.st5{clip-path:url(#SVGID_00000003092300217461369290000008977175053432894391_);}
	.st6{opacity:0.2;}
	.st7{fill:#2A2873;}
	.st8{fill:#823024;}
</style>
<circle class="st0" cx="62.3" cy="62.3" r="62.3"/>
<g class="st1">
	<circle class="st2" cx="62.3" cy="62.3" r="62.3"/>
</g>
<path class="st3" d="M89.4,72.7c0,3.8-3.1,6.8-6.8,6.8s-6.8-3.1-6.8-6.8s3.1-6.8,6.8-6.8S89.4,69,89.4,72.7z"/>
<path class="st4" d="M86.9,72.7c0,2.4-2,4.4-4.4,4.4s-4.4-2-4.4-4.4s2-4.4,4.4-4.4S86.9,70.3,86.9,72.7z"/>
<path class="st3" d="M49,72.7c0,3.8-3.1,6.8-6.8,6.8s-6.8-3.1-6.8-6.8s3.1-6.8,6.8-6.8S49,69,49,72.7z"/>
<path class="st4" d="M45.9,72.7c0,2.1-1.7,3.8-3.8,3.8s-3.8-1.7-3.8-3.8s1.7-3.8,3.8-3.8S45.9,70.6,45.9,72.7z"/>
<g>
	<path class="st0" d="M116.3,131.2v-5.7c0-16.3-13.2-29.5-29.5-29.5H38.6c-16.3,0-29.5,13.2-29.5,29.5v5.7H116.3L116.3,131.2z"/>
	<g>
		<defs>
			<path id="SVGID_1_" d="M116.3,131.2v-5.7c0-16.3-13.2-29.5-29.5-29.5H38.6c-16.3,0-29.5,13.2-29.5,29.5v5.7H116.3L116.3,131.2z"
				/>
		</defs>
		<clipPath id="SVGID_00000124140484524596010770000015739477948346095771_">
			<use xlink:href="#SVGID_1_"  style="overflow:visible;"/>
		</clipPath>
		<g style="clip-path:url(#SVGID_00000124140484524596010770000015739477948346095771_);">
			<g class="st6">
				<path d="M18.8,99.9c2.2,5.1,24.6,13.1,31.6,15c7,1.9,10.5-12.4,10.5-12.4S45.6,89,32.2,91.9S18.8,99.9,18.8,99.9L18.8,99.9z"/>
			</g>
			<g class="st6">
				<path d="M106.5,100.2c-2.2,5.1-24.6,13.1-31.6,15c-7,1.9-10.5-12.4-10.5-12.4s15.3-13.4,28.7-10.5S106.5,100.2,106.5,100.2
					L106.5,100.2z"/>
			</g>
		</g>
	</g>
</g>
<path class="st4" d="M76.6,98.6c0,0-3.4,6.2-12.7,5.9c-11.8-0.4-14.4-7.4-14.4-7.4V82.4h26.3L76.6,98.6z"/>
<path class="st3" d="M54,88.8c10.7,8.6,17.8,2.5,25.2-9.1c8.7-13.7,8.8-27.3-1.9-35.9c-10.7-8.6-26.3-6.8-34.9,3.9
	C33.8,58.5,43.3,80.3,54,88.8L54,88.8z"/>
<path class="st7" d="M14.8,67.7l-2.2-20.5c-0.7-7-0.6-12.8,7.8-17.2l0.2,0.4c-8.2,4.3-8.3,9.7-7.6,16.8l2.2,20.5L14.8,67.7
	L14.8,67.7z"/>
<polygon class="st0" points="34.8,29.7 91.5,28.5 83.3,51.8 39.9,51.8 "/>
<polygon class="st0" points="61.9,40.5 102.5,29.8 60.4,15.4 19.6,30.2 "/>
<g class="st6">
	<polygon points="61.9,40.5 102.5,29.8 60.4,15.4 19.6,30.2 	"/>
</g>
<polygon class="st7" points="18.8,73.2 14.7,65.8 11.9,73.8 "/>
<path class="st8" d="M39.9,51.8c0,0-7.9,5.1-0.5,11.4S70.9,52,70.9,52S39.9,51.8,39.9,51.8z"/>
<path class="st8" d="M83.3,51.8c0,0,3.5,4,3.7,6.9c0.2,2.9-4.5,5.5-7.6,1.2s-4.9-8.2-4.9-8.2L83.3,51.8L83.3,51.8z"/>
</svg>
