<?xml version="1.0" encoding="utf-8"?>
<!-- Generator: Adobe Illustrator 27.3.1, SVG Export Plug-In . SVG Version: 6.00 Build 0)  -->
<svg version="1.1" id="Layer_2_00000106851331892214851830000002893289707826371475_"
	 xmlns="http://www.w3.org/2000/svg" xmlns:xlink="http://www.w3.org/1999/xlink" x="0px" y="0px" viewBox="0 0 623.6 623.6"
	 style="enable-background:new 0 0 623.6 623.6;" xml:space="preserve">
<g>
	<path d="M311.8,623.6c-83.3,0-161.6-32.4-220.5-91.3C32.4,473.4,0,395.1,0,311.8S32.4,150.2,91.3,91.3C150.2,32.4,228.5,0,311.8,0
		s161.6,32.4,220.5,91.3c58.9,58.9,91.3,137.2,91.3,220.5s-32.4,161.6-91.3,220.5S395.1,623.6,311.8,623.6z M311.8,20
		C150.9,20,20,150.9,20,311.8s130.9,291.8,291.8,291.8s291.8-130.9,291.8-291.8S472.7,20,311.8,20z"/>
</g>
<path d="M489.6,303.7c-7.7,4.5-15.1,8.6-22.3,13.1c-1.3,0.8-2,3.4-2,5.1c-0.1,22.4-0.3,44.8,0,67.2c0.2,21.9-8.9,38-28.2,48.7
	c-24.2,13.5-48,27.9-72.1,41.4c-35.3,19.8-70.9,19.8-106.2,0.1c-25-14-49.8-28.5-74.6-42.9c-17.2-9.9-25.7-25-25.8-44.8
	c-0.1-23-0.1-46,0.1-69.1c0-3.7-1.2-5.6-4.3-7.3c-16.7-9.5-33.3-19.2-49.9-29c-18.7-11-18.6-33.2,0.2-44.1
	c60.5-35.2,120.9-70.3,181.5-105.4c17.1-9.9,34.6-10,51.7-0.1c60.8,35.2,121.6,70.5,182.3,105.9c17.8,10.4,17.9,32,0.7,43.3
	c-1.5,1-2.9,3.3-2.9,5.1c-0.2,39.7-0.2,79.5,0,119.2c0,1.8,1.3,4,2.7,5.4c9.9,9.7,10.3,25,0.7,34.8c-9.5,9.7-25.4,9.5-34.8-0.4
	c-9.4-9.9-8.7-25.3,1.4-34.8c1.2-1.1,2.5-3,2.5-4.6c0.1-35.2,0.1-70.3,0.1-105.5C490.1,304.9,489.9,304.6,489.6,303.7L489.6,303.7z
	 M503,264.4c-1.9-1.1-2.8-1.7-3.7-2.3c-57.6-33.5-115.3-66.9-172.8-100.5c-10.2-6-19.5-5.8-29.7,0.2
	c-48.5,28.5-97.2,56.6-145.9,84.8c-9.9,5.8-19.8,11.5-30.2,17.6c2.4,1.5,4.2,2.7,6.1,3.7c56.7,32.9,113.4,65.7,170,98.8
	c10.4,6.1,19.7,6.1,30.1,0c54.6-32,109.5-63.7,164.2-95.5C494.8,269.2,498.6,267,503,264.4L503,264.4z M438,333.8
	c-2.4,1.4-4,2.3-5.6,3.2c-31.1,18-62.1,36-93.2,54.1c-18.4,10.7-36.7,10.6-55.1-0.2c-31.1-18.2-62.4-36.3-93.6-54.4
	c-1.4-0.8-2.9-1.5-4.8-2.5c0,21-0.3,41.1,0.1,61.2c0.1,7.5,4.5,13.3,11.1,17.1c25.9,14.9,51.6,30.3,77.9,44.7
	c24.1,13.2,49.1,13.4,73.3,0.3c26.5-14.5,52.5-30,78.7-45.1c7-4,10.9-10.3,11-18.2C438.2,374.3,438,354.6,438,333.8L438,333.8z"/>
</svg>
